<svg width="120" height="120" xmlns="http://www.w3.org/2000/svg">

 <metadata id="metadata5">image/svg+xml</metadata>
 <g>
  <title>background</title>
  <rect fill="none" id="canvas_background" height="402" width="582" y="-1" x="-1"/>
 </g>
 <g>
   <g id="g4574">
    <path opacity="0.99" fill="#999999" fill-opacity="0.770642" stroke="#000000" stroke-width="0.065476" stroke-linecap="round" stroke-miterlimit="4" stroke-dashoffset="0" id="path4498" d="m119.967262,60.000051a59.96724,59.96721 0 0 1 -59.715,59.96667a59.96724,59.96721 0 0 1 -60.21736,-59.46221a59.96724,59.96721 0 0 1 59.20843,-60.4669a59.96724,59.96721 0 0 1 60.71544,58.95353"/>
    <path opacity="0.99" fill="#e6e6e6" stroke="#000000" stroke-width="0.259847" stroke-linecap="round" stroke-miterlimit="4" stroke-dashoffset="0" d="m388.75218,392.674067a103.80704,103.80699 0 0 0 -102.49219,104.67187a103.80704,103.80699 0 0 0 41.75391,82.23828a141.61518,141.6151 0 0 0 -79.5625,128.29688a141.61518,141.6151 0 0 0 1.6582,19.33789a226.64785,226.64772 0 0 0 11.15235,8.40234a132.17416,132.17408 0 0 1 -3.36915,-27.82031a132.17416,132.17408 0 0 1 79.32032,-122.10352a103.80704,103.80699 0 0 0 53.28515,14.58008a103.80704,103.80699 0 0 0 52.42969,-14.5957a132.17416,132.17408 0 0 1 79.28906,118.78515l0.01953,2.22266a132.17416,132.17408 0 0 1 -3.24218,28.64063a226.64785,226.64772 0 0 0 11.04297,-7.89649a141.61518,141.6151 0 0 0 1.64062,-20.74414l-0.01953,-2.38281a141.61518,141.6151 0 0 0 -79.41211,-124.84375a103.80704,103.80699 0 0 1 -0.25977,0.17578a103.80704,103.80699 0 0 0 41.88282,-83.16602l-0.01367,-1.74804a103.80704,103.80699 0 0 0 -105.10352,-102.05078zm0.11914,9.43554a94.37003,94.36999 0 0 1 95.54688,92.77539l0.01367,1.58789a94.37003,94.36999 0 0 1 -93.97266,94.36914a94.37003,94.36999 0 0 1 -94.76367,-93.57617a94.37003,94.36999 0 0 1 93.17578,-95.15625z" transform="translate(-43.20400619506836,-85.32003784179688) scale(0.2645833194255829) " id="path4500"/>
   </g>
 </g>
</svg>