<svg xmlns="http://www.w3.org/2000/svg" width="43" height="42" viewBox="0 0 43 42"><g><g><path fill="#fa6400" d="M2.169-.096l14.643.027c1.011 0 1.83.821 1.83 1.834V21.93c0 1.013-.819 1.834-1.83 1.834H2.17c-1.01 0-1.83-.821-1.83-1.834V1.737a1.834 1.834 0 0 1 1.83-1.833zm40.27 1.833v9.192c0 1.013-.82 1.834-1.831 1.834H25.965c-1.011 0-1.83-.821-1.83-1.834V1.763c0-1.013.819-1.834 1.83-1.834l14.643-.025c1.01 0 1.83.82 1.83 1.833zM16.811 42.094L2.17 42.07c-1.01 0-1.83-.821-1.83-1.834v-9.139c0-1.012.82-1.833 1.83-1.833h14.643c1.011 0 1.83.82 1.83 1.833v9.167a1.83 1.83 0 0 1-1.83 1.832zm25.626-21.996v20.14c0 1.014-.82 1.834-1.83 1.834l-14.643.026c-1.011 0-1.83-.82-1.83-1.833V20.098c0-1.013.819-1.833 1.83-1.833h14.643c1.01 0 1.83.82 1.83 1.833z"/></g></g></svg>