<svg xmlns="http://www.w3.org/2000/svg" width="40" height="40" viewBox="0 0 40 40">
    <g>
        <g>
            <path fill="#fff" d="M37.792 0H2.206A2.208 2.208 0 0 0 0 2.208v35.586C0 39.012.989 40 2.208 40h35.584c1.22 0 2.208-.988 2.208-2.207V2.206A2.207 2.207 0 0 0 37.792 0z"/>
        </g>
        <g>
            <path fill="#d8d8d8" d="M27.617 40V24.53h5.215l.781-6.054h-5.996V14.62c0-1.749.486-2.94 2.993-2.94h3.179V6.279c-.553-.074-2.45-.238-4.658-.238-4.61 0-7.764 2.812-7.764 7.98v4.456h-5.195v6.054h5.195V40z"/>
        </g>
    </g>
</svg>