<svg xmlns="http://www.w3.org/2000/svg" width="64" height="47" viewBox="0 0 64 47"><g><g><path fill="#ff572c" d="M64 23.404a.96.96 0 0 1-.974.972h-6.388a22.287 22.287 0 0 1-1.702 2.738C48 37.214 34.798 45.73 32.67 46.764v.062h-.184c-.06.06-.122.06-.122.06v-.06c-2.494-.61-16.242-10.526-22.57-19.652A12.625 12.625 0 0 1 8.7 25.532H.974A.96.96 0 0 1 0 24.56c0-.548.426-.974.974-.974h6.57c-2.86-5.658-2.556-10.16-1.704-13.142C7.3 5.456 12.228.042 19.528.042c1.886 0 3.894.364 5.902 1.094 3.528 1.278 5.78 2.678 6.814 3.408 1.034-.73 3.346-2.13 6.812-3.408C41.064.406 43.012.042 44.958.042c7.3 0 12.228 5.414 13.688 10.402.852 2.8 1.096 6.936-1.156 12.046h5.414c.548 0 1.096.366 1.096.914zm-9.734.972H48.79a.969.969 0 0 1-.85-.486l-2.008-3.408-2.374 3.468c-.242.304-.608.488-.972.426a.991.991 0 0 1-.792-.668l-2.98-9.674-5.598 19.164c-.122.426-.486.73-.912.73h-.06c-.366 0-.792-.244-.914-.608l-6.388-16.366-4.076 8.03a1 1 0 0 1-.912.548h-8.942l.364.548c6.51 9.368 18.312 17.034 20.928 18.676 2.556-1.642 14.418-9.246 20.868-18.676.364-.548.73-1.096 1.094-1.704zm2.556-13.384C55.544 6.674 51.286 2.05 45.018 2.05c-1.702 0-3.466.304-5.232.972-4.5 1.644-6.874 3.53-6.874 3.53a.925.925 0 0 1-1.216 0c-.062 0-2.434-1.886-6.874-3.53-1.766-.608-3.53-.972-5.232-.972-6.328 0-10.526 4.624-11.804 8.942-1.094 3.834-.424 8.092 2.008 12.532h9.674l4.806-9.428c.182-.366.486-.548.912-.548.366 0 .73.242.852.608l6.144 15.696 5.658-19.528c.122-.426.548-.73.974-.73.426.06.852.304.972.73l3.346 10.89 2.07-3.042c.182-.304.486-.426.852-.426.364 0 .668.182.85.486L49.4 22.49h5.962c1.946-4.076 2.494-7.97 1.46-11.498z"/></g></g></svg>