<svg width="14" height="15" viewBox="0 0 14 15" fill="none" 
    xmlns="http://www.w3.org/2000/svg">
    <path d="M7 13.6523C6.90348 13.6523 6.80734 13.6187 6.73004 13.551C6.13323 13.0291 5.56566 12.5452 5.03174 12.0902C2.01843 9.52234 0 7.82564 0 5.3539C0 3.06998 1.61429 1.34766 3.71875 1.34766C5.37739 1.34766 6.44205 2.50643 7 3.54984C7.55795 2.50643 8.62261 1.34766 10.2812 1.34766C12.3857 1.34766 14 3.06998 14 5.3539C14 7.82566 11.9816 9.52234 8.96826 12.0902C8.43434 12.5452 7.86677 13.0291 7.26996 13.551C7.19266 13.6187 7.09652 13.6523 7 13.6523Z" fill="#FD3018"/>
    <path d="M7.26996 13.551C7.86677 13.0291 8.43434 12.5452 8.96826 12.0902C11.9816 9.52234 14 7.82564 14 5.3539C14 3.06998 12.3857 1.34766 10.2812 1.34766C8.62261 1.34766 7.55795 2.50643 7 3.54984V13.6523C7.09652 13.6523 7.19266 13.6187 7.26996 13.551Z" fill="#E61E14"/>
</svg>
