<svg width="265" height="91" viewBox="0 0 265 91" fill="none" xmlns="http://www.w3.org/2000/svg">
  <path fill-rule="evenodd" clip-rule="evenodd" d="M129.289 53.2735L128.969 57.6735C128.195 57.7795 127.422 57.8335 126.649 57.8335C123.662 57.8335 121.482 57.1805 120.109 55.8735C118.735 54.5675 118.049 52.5805 118.049 49.9135V42.3935H114.329V37.8735H118.049V32.1135H124.089V37.8735H129.009V42.3935H124.089V49.8735C124.089 52.2205 125.182 53.3935 127.369 53.3935C127.982 53.3935 128.622 53.3535 129.289 53.2735Z" fill="white"/>
  <path fill-rule="evenodd" clip-rule="evenodd" d="M146.009 42.3535L142.609 42.7135C140.929 42.8735 139.741 43.3475 139.049 44.1335C138.355 44.9205 138.009 45.9675 138.009 47.2735V57.5135H131.969V37.8735H137.769V41.1935C138.755 38.9275 140.795 37.6875 143.889 37.4735L145.649 37.3535L146.009 42.3535Z" fill="white"/>
  <path fill-rule="evenodd" clip-rule="evenodd" d="M158.488 52.4932C159.208 51.7072 159.568 50.6872 159.568 49.4332V48.7542H158.888C156.728 48.7542 155.215 48.9272 154.348 49.2732C153.481 49.6202 153.049 50.2472 153.049 51.1532C153.049 51.8732 153.295 52.4732 153.788 52.9532C154.281 53.4332 154.901 53.6742 155.648 53.6742C156.821 53.6742 157.768 53.2802 158.488 52.4932ZM163.228 39.4732C164.629 40.8602 165.328 43.0072 165.328 45.9132V57.5142H159.608V54.5942C159.208 55.6072 158.542 56.4002 157.608 56.9732C156.675 57.5472 155.582 57.8332 154.328 57.8332C152.995 57.8332 151.788 57.5662 150.708 57.0332C149.629 56.5002 148.774 55.7542 148.148 54.7932C147.521 53.8332 147.208 52.7672 147.208 51.5942C147.208 50.1532 147.575 49.0202 148.308 48.1932C149.042 47.3672 150.221 46.7672 151.848 46.3932C153.474 46.0202 155.701 45.8332 158.528 45.8332H159.568V45.1142C159.568 43.9402 159.314 43.1142 158.808 42.6342C158.301 42.1542 157.422 41.9132 156.169 41.9132C155.208 41.9132 154.141 42.0872 152.968 42.4332C151.795 42.7812 150.675 43.2612 149.608 43.8732L148.009 39.8332C149.129 39.1402 150.509 38.5602 152.148 38.0942C153.788 37.6272 155.314 37.3932 156.728 37.3932C159.661 37.3932 161.828 38.0872 163.228 39.4732Z" fill="white"/>
  <path fill-rule="evenodd" clip-rule="evenodd" d="M171.647 55.1133C169.807 53.3013 168.887 50.8333 168.887 47.7143C168.887 45.6603 169.327 43.8533 170.207 42.2933C171.086 40.7343 172.327 39.5273 173.927 38.6743C175.527 37.8203 177.38 37.3933 179.487 37.3933C180.927 37.3933 182.313 37.6133 183.647 38.0533C184.98 38.4933 186.06 39.0873 186.887 39.8333L185.287 43.9533C184.513 43.3403 183.667 42.8673 182.747 42.5333C181.827 42.2003 180.927 42.0333 180.046 42.0333C178.473 42.0333 177.253 42.5003 176.387 43.4333C175.52 44.3673 175.086 45.7543 175.086 47.5933C175.086 49.4333 175.52 50.8273 176.387 51.7733C177.253 52.7203 178.473 53.1933 180.046 53.1933C180.927 53.1933 181.827 53.0273 182.747 52.6933C183.667 52.3603 184.513 51.8863 185.287 51.2733L186.887 55.4333C186.007 56.1803 184.887 56.7673 183.527 57.1933C182.167 57.6203 180.727 57.8333 179.207 57.8333C176.007 57.8333 173.487 56.9263 171.647 55.1133Z" fill="white"/>
  <path fill-rule="evenodd" clip-rule="evenodd" d="M203.447 47.5938C203.447 45.7008 203.067 44.2878 202.306 43.3538C201.547 42.4208 200.46 41.9538 199.047 41.9538C196.113 41.9538 194.647 43.8338 194.647 47.5938C194.647 51.3538 196.113 53.2338 199.047 53.2338C201.98 53.2338 203.447 51.3538 203.447 47.5938ZM193.567 56.5728C191.993 55.7338 190.78 54.5468 189.926 53.0138C189.073 51.4808 188.647 49.6738 188.647 47.5938C188.647 45.5138 189.073 43.7078 189.926 42.1738C190.78 40.6408 191.993 39.4608 193.567 38.6338C195.14 37.8078 196.967 37.3938 199.047 37.3938C201.127 37.3938 202.953 37.8078 204.527 38.6338C206.1 39.4608 207.313 40.6408 208.167 42.1738C209.02 43.7078 209.447 45.5138 209.447 47.5938C209.447 49.6738 209.02 51.4808 208.167 53.0138C207.313 54.5468 206.1 55.7338 204.527 56.5728C202.953 57.4128 201.127 57.8328 199.047 57.8328C196.967 57.8328 195.14 57.4128 193.567 56.5728Z" fill="white"/>
  <path fill-rule="evenodd" clip-rule="evenodd" d="M226.327 37.9136H232.247L223.607 57.5136H218.487L209.967 37.9136H216.247L221.207 50.3936L226.327 37.9136Z" fill="white"/>
  <path fill-rule="evenodd" clip-rule="evenodd" d="M234.088 57.5138H240.128V37.8738H234.088V57.5138ZM233.887 34.0738H240.366V28.4338H233.887V34.0738Z" fill="white"/>
  <path fill-rule="evenodd" clip-rule="evenodd" d="M257.507 51.7735C258.268 50.8005 258.648 49.4075 258.648 47.5935C258.648 45.7805 258.268 44.3935 257.507 43.4335C256.747 42.4735 255.66 41.9935 254.247 41.9935C252.834 41.9935 251.74 42.4675 250.967 43.4135C250.194 44.3605 249.808 45.7275 249.808 47.5135C249.808 49.3275 250.194 50.7335 250.967 51.7335C251.74 52.7335 252.834 53.2335 254.247 53.2335C255.66 53.2335 256.747 52.7475 257.507 51.7735ZM264.648 29.3135V57.5135H258.648V54.5935C258.061 55.6075 257.228 56.4005 256.148 56.9735C255.068 57.5465 253.848 57.8335 252.487 57.8335C250.808 57.8335 249.308 57.4005 247.987 56.5335C246.667 55.6675 245.641 54.4535 244.907 52.8935C244.174 51.3335 243.808 49.5405 243.808 47.5135C243.808 45.4875 244.174 43.7075 244.907 42.1735C245.641 40.6405 246.66 39.4605 247.967 38.6335C249.274 37.8075 250.78 37.3935 252.487 37.3935C253.82 37.3935 255.028 37.6735 256.108 38.2335C257.188 38.7935 258.021 39.5805 258.608 40.5935V29.3135H264.648Z" fill="white"/>
  <path fill-rule="evenodd" clip-rule="evenodd" d="M45.0534 59.5694C46.9044 59.5694 48.4054 58.0684 48.4054 56.2174C48.4054 54.3664 46.9044 52.8654 45.0534 52.8654C43.2014 52.8654 41.7014 54.3664 41.7014 56.2174C41.7014 58.0684 43.2014 59.5694 45.0534 59.5694Z" fill="white"/>
  <path fill-rule="evenodd" clip-rule="evenodd" d="M39.7389 70.7324C39.7389 72.9234 42.1179 74.7004 45.0529 74.7004C47.9879 74.7004 50.3679 72.9234 50.3679 70.7324C50.3679 68.5424 47.9879 66.7654 45.0529 66.7654C42.1179 66.7654 39.7389 68.5424 39.7389 70.7324Z" fill="white"/>
  <path fill-rule="evenodd" clip-rule="evenodd" d="M45.0534 80.2315C40.4944 80.2315 36.7994 82.4425 36.7994 85.1685C36.7994 87.8965 40.4944 90.1065 45.0534 90.1065C49.6114 90.1065 53.3064 87.8965 53.3064 85.1685C53.3064 82.4425 49.6114 80.2315 45.0534 80.2315Z" fill="white"/>
  <path fill-rule="evenodd" clip-rule="evenodd" d="M45.0534 37.2412C46.9044 37.2412 48.4054 35.7412 48.4054 33.8892C48.4054 32.0382 46.9044 30.5382 45.0534 30.5382C43.2014 30.5382 41.7014 32.0382 41.7014 33.8892C41.7014 35.7412 43.2014 37.2412 45.0534 37.2412Z" fill="white"/>
  <path fill-rule="evenodd" clip-rule="evenodd" d="M45.0534 48.4053C46.9044 48.4053 48.4054 46.9043 48.4054 45.0533C48.4054 43.2023 46.9044 41.7013 45.0534 41.7013C43.2014 41.7013 41.7014 43.2023 41.7014 45.0533C41.7014 46.9043 43.2014 48.4053 45.0534 48.4053Z" fill="white"/>
  <path fill-rule="evenodd" clip-rule="evenodd" d="M45.0534 15.4072C42.1174 15.4072 39.7394 17.1832 39.7394 19.3742C39.7394 21.5652 42.1174 23.3412 45.0534 23.3412C47.9884 23.3412 50.3674 21.5652 50.3674 19.3742C50.3674 17.1832 47.9884 15.4072 45.0534 15.4072Z" fill="white"/>
  <path fill-rule="evenodd" clip-rule="evenodd" d="M45.0534 9.8755C49.6114 9.8755 53.3064 7.6645 53.3064 4.9385C53.3064 2.2105 49.6114 0.00050354 45.0534 0.00050354C40.4944 0.00050354 36.7994 2.2105 36.7994 4.9385C36.7994 7.6645 40.4944 9.8755 45.0534 9.8755Z" fill="white"/>
  <path fill-rule="evenodd" clip-rule="evenodd" d="M33.8893 41.7017C32.0373 41.7017 30.5373 43.2017 30.5373 45.0537C30.5373 46.9047 32.0373 48.4057 33.8893 48.4057C35.7403 48.4057 37.2413 46.9047 37.2413 45.0537C37.2413 43.2017 35.7403 41.7017 33.8893 41.7017Z" fill="white"/>
  <path fill-rule="evenodd" clip-rule="evenodd" d="M19.3737 39.7388C17.1837 39.7388 15.4067 42.1178 15.4067 45.0528C15.4067 47.9888 17.1837 50.3678 19.3737 50.3678C21.5637 50.3678 23.3407 47.9888 23.3407 45.0528C23.3407 42.1178 21.5637 39.7388 19.3737 39.7388Z" fill="white"/>
  <path fill-rule="evenodd" clip-rule="evenodd" d="M4.93724 36.7998C2.21024 36.7998 0.000244141 40.4948 0.000244141 45.0528C0.000244141 49.6118 2.21024 53.3068 4.93724 53.3068C7.66524 53.3068 9.87524 49.6118 9.87524 45.0528C9.87524 40.4948 7.66524 36.7998 4.93724 36.7998Z" fill="white"/>
  <path fill-rule="evenodd" clip-rule="evenodd" d="M59.569 45.0532C59.569 43.2022 58.068 41.7012 56.217 41.7012C54.366 41.7012 52.865 43.2022 52.865 45.0532C52.865 46.9042 54.366 48.4052 56.217 48.4052C58.068 48.4052 59.569 46.9042 59.569 45.0532Z" fill="white"/>
  <path fill-rule="evenodd" clip-rule="evenodd" d="M70.7321 50.3682C72.9231 50.3682 74.7001 47.9882 74.7001 45.0532C74.7001 42.1182 72.9231 39.7392 70.7321 39.7392C68.5421 39.7392 66.7651 42.1182 66.7651 45.0532C66.7651 47.9882 68.5421 50.3682 70.7321 50.3682Z" fill="white"/>
  <path fill-rule="evenodd" clip-rule="evenodd" d="M85.1686 36.7998C82.4416 36.7998 80.2316 40.4948 80.2316 45.0528C80.2316 49.6118 82.4416 53.3068 85.1686 53.3068C87.8966 53.3068 90.1056 49.6118 90.1056 45.0528C90.1056 40.4948 87.8966 36.7998 85.1686 36.7998Z" fill="white"/>
  <path fill-rule="evenodd" clip-rule="evenodd" d="M23.1374 30.6533C24.6864 32.2023 27.6244 31.7763 29.6994 29.7003C31.7754 27.6253 32.2014 24.6863 30.6534 23.1373C29.1044 21.5883 26.1654 22.0143 24.0894 24.0903C22.0144 26.1653 21.5874 29.1043 23.1374 30.6533Z" fill="white"/>
  <path fill-rule="evenodd" clip-rule="evenodd" d="M20.1784 20.1787C23.4024 16.9557 24.4514 12.7797 22.5234 10.8507C20.5954 8.9227 16.4184 9.9727 13.1964 13.1957C9.97244 16.4187 8.92244 20.5957 10.8514 22.5237C12.7794 24.4517 16.9554 23.4017 20.1784 20.1787Z" fill="white"/>
  <path fill-rule="evenodd" clip-rule="evenodd" d="M66.9694 59.4531C65.4194 57.9041 62.4824 58.3311 60.4064 60.4061C58.3304 62.4821 57.9044 65.4201 59.4524 66.9701C61.0024 68.5181 63.9414 68.0921 66.0164 66.0161C68.0914 63.9411 68.5184 61.0031 66.9694 59.4531Z" fill="white"/>
  <path fill-rule="evenodd" clip-rule="evenodd" d="M69.9274 69.9278C66.7044 73.1518 65.6554 77.3268 67.5824 79.2558C69.5114 81.1838 73.6874 80.1338 76.9104 76.9108C80.1334 73.6878 81.1834 69.5118 79.2554 67.5828C77.3264 65.6558 73.1514 66.7048 69.9274 69.9278Z" fill="white"/>
  <path fill-rule="evenodd" clip-rule="evenodd" d="M66.9694 30.6533C68.5184 29.1043 68.0914 26.1653 66.0164 24.0903C63.9414 22.0143 61.0024 21.5883 59.4524 23.1373C57.9044 24.6863 58.3304 27.6253 60.4064 29.7003C62.4824 31.7763 65.4194 32.2023 66.9694 30.6533Z" fill="white"/>
  <path fill-rule="evenodd" clip-rule="evenodd" d="M67.5827 10.8511C65.6547 12.7791 66.7047 16.9551 69.9277 20.1791C73.1507 23.4021 77.3267 24.4521 79.2557 22.5231C81.1837 20.5951 80.1337 16.4191 76.9107 13.1961C73.6867 9.9731 69.5117 8.9231 67.5827 10.8511Z" fill="white"/>
  <path fill-rule="evenodd" clip-rule="evenodd" d="M23.1374 59.4531C21.5874 61.0031 22.0144 63.9411 24.0894 66.0161C26.1654 68.0921 29.1044 68.5181 30.6534 66.9701C32.2014 65.4201 31.7754 62.4821 29.6994 60.4061C27.6244 58.3311 24.6864 57.9041 23.1374 59.4531Z" fill="white"/>
  <path fill-rule="evenodd" clip-rule="evenodd" d="M10.8512 67.583C8.92224 69.512 9.97224 73.687 13.1962 76.911C16.4182 80.134 20.5952 81.184 22.5232 79.256C24.4522 77.327 23.4022 73.151 20.1782 69.928C16.9552 66.705 12.7792 65.655 10.8512 67.583Z" fill="white"/>
</svg>
