<svg width="167" height="60" viewBox="0 0 167 60" fill="none" xmlns="http://www.w3.org/2000/svg">
<path fill-rule="evenodd" clip-rule="evenodd" d="M81.026 35.1257L80.8255 38.0268C80.3404 38.0967 79.856 38.1323 79.3715 38.1323C77.4996 38.1323 76.1334 37.7017 75.2729 36.84C74.4118 35.9789 73.9819 34.6688 73.9819 32.9103V27.9521H71.6505V24.9718H73.9819V21.174H77.7672V24.9718H80.8506V27.9521H77.7672V32.8839C77.7672 34.4314 78.4522 35.2048 79.8228 35.2048C80.2069 35.2048 80.608 35.1784 81.026 35.1257Z" fill="white"/>
<path fill-rule="evenodd" clip-rule="evenodd" d="M81.026 35.1257L80.8255 38.0268C80.3404 38.0967 79.856 38.1323 79.3715 38.1323C77.4996 38.1323 76.1334 37.7017 75.2729 36.84C74.4118 35.9789 73.9819 34.6688 73.9819 32.9103V27.9521H71.6505V24.9718H73.9819V21.174H77.7672V24.9718H80.8506V27.9521H77.7672V32.8839C77.7672 34.4314 78.4522 35.2048 79.8228 35.2048C80.2069 35.2048 80.608 35.1784 81.026 35.1257Z" fill="url(#paint0_linear)"/>
<path fill-rule="evenodd" clip-rule="evenodd" d="M91.5044 27.9257L89.3736 28.1631C88.3207 28.2686 87.5762 28.5811 87.1425 29.0993C86.7076 29.6182 86.4908 30.3086 86.4908 31.1696V37.9213H82.7055V24.9718H86.3403V27.1609C86.9583 25.6668 88.2367 24.8492 90.1758 24.7081L91.2788 24.629L91.5044 27.9257Z" fill="white"/>
<path fill-rule="evenodd" clip-rule="evenodd" d="M91.5044 27.9257L89.3736 28.1631C88.3207 28.2686 87.5762 28.5811 87.1425 29.0993C86.7076 29.6182 86.4908 30.3086 86.4908 31.1696V37.9213H82.7055V24.9718H86.3403V27.1609C86.9583 25.6668 88.2367 24.8492 90.1758 24.7081L91.2788 24.629L91.5044 27.9257Z" fill="url(#paint1_linear)"/>
<path fill-rule="evenodd" clip-rule="evenodd" d="M99.3253 34.6112C99.7766 34.093 100.002 33.4204 100.002 32.5936V32.1459H99.576C98.2223 32.1459 97.2741 32.26 96.7308 32.4881C96.1874 32.7169 95.9167 33.1303 95.9167 33.7277C95.9167 34.2024 96.0709 34.598 96.3798 34.9145C96.6888 35.231 97.0773 35.3899 97.5455 35.3899C98.2806 35.3899 98.8741 35.1301 99.3253 34.6112ZM102.296 26.0266C103.174 26.9411 103.612 28.3567 103.612 30.2727V37.9218H100.027V35.9965C99.7766 36.6644 99.3592 37.1873 98.7738 37.5651C98.1891 37.9435 97.5041 38.1321 96.7182 38.1321C95.8828 38.1321 95.1264 37.956 94.4496 37.6046C93.7734 37.2532 93.2375 36.7613 92.8452 36.1277C92.4523 35.4947 92.2561 34.7919 92.2561 34.0185C92.2561 33.0684 92.4861 32.3213 92.9455 31.776C93.4055 31.2314 94.1444 30.8358 95.164 30.5892C96.183 30.3433 97.5787 30.22 99.3504 30.22H100.002V29.7459C100.002 28.9719 99.843 28.4273 99.5259 28.1108C99.2081 27.7943 98.6573 27.6354 97.872 27.6354C97.2697 27.6354 96.6011 27.7501 95.8659 27.9782C95.1308 28.2077 94.4289 28.5242 93.7602 28.9277L92.7581 26.264C93.46 25.807 94.3249 25.4246 95.352 25.1174C96.3798 24.8095 97.3362 24.6552 98.2223 24.6552C100.06 24.6552 101.419 25.1127 102.296 26.0266Z" fill="white"/>
<path fill-rule="evenodd" clip-rule="evenodd" d="M99.3253 34.6112C99.7766 34.093 100.002 33.4204 100.002 32.5936V32.1459H99.576C98.2223 32.1459 97.2741 32.26 96.7308 32.4881C96.1874 32.7169 95.9167 33.1303 95.9167 33.7277C95.9167 34.2024 96.0709 34.598 96.3798 34.9145C96.6888 35.231 97.0773 35.3899 97.5455 35.3899C98.2806 35.3899 98.8741 35.1301 99.3253 34.6112ZM102.296 26.0266C103.174 26.9411 103.612 28.3567 103.612 30.2727V37.9218H100.027V35.9965C99.7766 36.6644 99.3592 37.1873 98.7738 37.5651C98.1891 37.9435 97.5041 38.1321 96.7182 38.1321C95.8828 38.1321 95.1264 37.956 94.4496 37.6046C93.7734 37.2532 93.2375 36.7613 92.8452 36.1277C92.4523 35.4947 92.2561 34.7919 92.2561 34.0185C92.2561 33.0684 92.4861 32.3213 92.9455 31.776C93.4055 31.2314 94.1444 30.8358 95.164 30.5892C96.183 30.3433 97.5787 30.22 99.3504 30.22H100.002V29.7459C100.002 28.9719 99.843 28.4273 99.5259 28.1108C99.2081 27.7943 98.6573 27.6354 97.872 27.6354C97.2697 27.6354 96.6011 27.7501 95.8659 27.9782C95.1308 28.2077 94.4289 28.5242 93.7602 28.9277L92.7581 26.264C93.46 25.807 94.3249 25.4246 95.352 25.1174C96.3798 24.8095 97.3362 24.6552 98.2223 24.6552C100.06 24.6552 101.419 25.1127 102.296 26.0266Z" fill="url(#paint2_linear)"/>
<path fill-rule="evenodd" clip-rule="evenodd" d="M107.572 36.3387C106.419 35.144 105.842 33.5168 105.842 31.4603C105.842 30.106 106.118 28.9146 106.67 27.886C107.221 26.8581 107.998 26.0623 109.001 25.4998C110.004 24.9368 111.165 24.6552 112.486 24.6552C113.388 24.6552 114.257 24.8003 115.093 25.0904C115.928 25.3805 116.605 25.7722 117.123 26.264L116.12 28.9805C115.635 28.5763 115.105 28.2645 114.529 28.0442C113.952 27.8247 113.388 27.7146 112.836 27.7146C111.85 27.7146 111.085 28.0225 110.543 28.6377C109.999 29.2535 109.727 30.168 109.727 31.3805C109.727 32.5937 109.999 33.5128 110.543 34.1366C111.085 34.7609 111.85 35.0728 112.836 35.0728C113.388 35.0728 113.952 34.9634 114.529 34.7431C115.105 34.5236 115.635 34.2111 116.12 33.8069L117.123 36.5497C116.572 37.0423 115.87 37.4293 115.017 37.7102C114.165 37.9917 113.263 38.1322 112.31 38.1322C110.305 38.1322 108.725 37.5341 107.572 36.3387Z" fill="white"/>
<path fill-rule="evenodd" clip-rule="evenodd" d="M107.572 36.3387C106.419 35.144 105.842 33.5168 105.842 31.4603C105.842 30.106 106.118 28.9146 106.67 27.886C107.221 26.8581 107.998 26.0623 109.001 25.4998C110.004 24.9368 111.165 24.6552 112.486 24.6552C113.388 24.6552 114.257 24.8003 115.093 25.0904C115.928 25.3805 116.605 25.7722 117.123 26.264L116.12 28.9805C115.635 28.5763 115.105 28.2645 114.529 28.0442C113.952 27.8247 113.388 27.7146 112.836 27.7146C111.85 27.7146 111.085 28.0225 110.543 28.6377C109.999 29.2535 109.727 30.168 109.727 31.3805C109.727 32.5937 109.999 33.5128 110.543 34.1366C111.085 34.7609 111.85 35.0728 112.836 35.0728C113.388 35.0728 113.952 34.9634 114.529 34.7431C115.105 34.5236 115.635 34.2111 116.12 33.8069L117.123 36.5497C116.572 37.0423 115.87 37.4293 115.017 37.7102C114.165 37.9917 113.263 38.1322 112.31 38.1322C110.305 38.1322 108.725 37.5341 107.572 36.3387Z" fill="url(#paint3_linear)"/>
<path fill-rule="evenodd" clip-rule="evenodd" d="M127.501 31.3808C127.501 30.1327 127.263 29.2011 126.786 28.5852C126.311 27.9701 125.629 27.6622 124.744 27.6622C122.905 27.6622 121.986 28.9017 121.986 31.3808C121.986 33.86 122.905 35.0995 124.744 35.0995C126.582 35.0995 127.501 33.86 127.501 31.3808ZM121.309 37.3011C120.323 36.7479 119.563 35.9652 119.028 34.9545C118.493 33.9437 118.226 32.7523 118.226 31.3808C118.226 30.0094 118.493 28.8186 119.028 27.8072C119.563 26.7964 120.323 26.0184 121.309 25.4731C122.295 24.9285 123.44 24.6556 124.744 24.6556C126.047 24.6556 127.192 24.9285 128.178 25.4731C129.164 26.0184 129.924 26.7964 130.459 27.8072C130.994 28.8186 131.262 30.0094 131.262 31.3808C131.262 32.7523 130.994 33.9437 130.459 34.9545C129.924 35.9652 129.164 36.7479 128.178 37.3011C127.192 37.8549 126.047 38.1318 124.744 38.1318C123.44 38.1318 122.295 37.8549 121.309 37.3011Z" fill="white"/>
<path fill-rule="evenodd" clip-rule="evenodd" d="M127.501 31.3808C127.501 30.1327 127.263 29.2011 126.786 28.5852C126.311 27.9701 125.629 27.6622 124.744 27.6622C122.905 27.6622 121.986 28.9017 121.986 31.3808C121.986 33.86 122.905 35.0995 124.744 35.0995C126.582 35.0995 127.501 33.86 127.501 31.3808ZM121.309 37.3011C120.323 36.7479 119.563 35.9652 119.028 34.9545C118.493 33.9437 118.226 32.7523 118.226 31.3808C118.226 30.0094 118.493 28.8186 119.028 27.8072C119.563 26.7964 120.323 26.0184 121.309 25.4731C122.295 24.9285 123.44 24.6556 124.744 24.6556C126.047 24.6556 127.192 24.9285 128.178 25.4731C129.164 26.0184 129.924 26.7964 130.459 27.8072C130.994 28.8186 131.262 30.0094 131.262 31.3808C131.262 32.7523 130.994 33.9437 130.459 34.9545C129.924 35.9652 129.164 36.7479 128.178 37.3011C127.192 37.8549 126.047 38.1318 124.744 38.1318C123.44 38.1318 122.295 37.8549 121.309 37.3011Z" fill="url(#paint4_linear)"/>
<path fill-rule="evenodd" clip-rule="evenodd" d="M141.84 24.9983H145.55L140.135 37.9214H136.927L131.587 24.9983H135.523L138.631 33.2269L141.84 24.9983Z" fill="white"/>
<path fill-rule="evenodd" clip-rule="evenodd" d="M141.84 24.9983H145.55L140.135 37.9214H136.927L131.587 24.9983H135.523L138.631 33.2269L141.84 24.9983Z" fill="url(#paint5_linear)"/>
<path fill-rule="evenodd" clip-rule="evenodd" d="M146.704 37.9215H150.489V24.972H146.704V37.9215ZM146.578 22.4666H150.638V18.7479H146.578V22.4666Z" fill="white"/>
<path fill-rule="evenodd" clip-rule="evenodd" d="M146.704 37.9215H150.489V24.972H146.704V37.9215ZM146.578 22.4666H150.638V18.7479H146.578V22.4666Z" fill="url(#paint6_linear)"/>
<path fill-rule="evenodd" clip-rule="evenodd" d="M161.381 34.1367C161.857 33.4951 162.096 32.5767 162.096 31.3806C162.096 30.1853 161.857 29.2707 161.381 28.6378C160.904 28.0048 160.223 27.6883 159.338 27.6883C158.452 27.6883 157.766 28.0009 157.282 28.6246C156.797 29.249 156.556 30.1503 156.556 31.3279C156.556 32.5239 156.797 33.451 157.282 34.1103C157.766 34.7696 158.452 35.0993 159.338 35.0993C160.223 35.0993 160.904 34.7789 161.381 34.1367ZM165.856 19.3279V37.9213H162.096V35.996C161.728 36.6646 161.206 37.1875 160.529 37.5653C159.852 37.9431 159.087 38.1323 158.235 38.1323C157.182 38.1323 156.242 37.8468 155.414 37.2751C154.587 36.7042 153.944 35.9037 153.484 34.8751C153.025 33.8466 152.795 32.6644 152.795 31.3279C152.795 29.9921 153.025 28.8184 153.484 27.807C153.944 26.7962 154.583 26.0182 155.402 25.4729C156.221 24.9283 157.165 24.6554 158.235 24.6554C159.07 24.6554 159.827 24.84 160.504 25.2092C161.181 25.5784 161.703 26.0973 162.071 26.7653V19.3279H165.856Z" fill="white"/>
<path fill-rule="evenodd" clip-rule="evenodd" d="M161.381 34.1367C161.857 33.4951 162.096 32.5767 162.096 31.3806C162.096 30.1853 161.857 29.2707 161.381 28.6378C160.904 28.0048 160.223 27.6883 159.338 27.6883C158.452 27.6883 157.766 28.0009 157.282 28.6246C156.797 29.249 156.556 30.1503 156.556 31.3279C156.556 32.5239 156.797 33.451 157.282 34.1103C157.766 34.7696 158.452 35.0993 159.338 35.0993C160.223 35.0993 160.904 34.7789 161.381 34.1367ZM165.856 19.3279V37.9213H162.096V35.996C161.728 36.6646 161.206 37.1875 160.529 37.5653C159.852 37.9431 159.087 38.1323 158.235 38.1323C157.182 38.1323 156.242 37.8468 155.414 37.2751C154.587 36.7042 153.944 35.9037 153.484 34.8751C153.025 33.8466 152.795 32.6644 152.795 31.3279C152.795 29.9921 153.025 28.8184 153.484 27.807C153.944 26.7962 154.583 26.0182 155.402 25.4729C156.221 24.9283 157.165 24.6554 158.235 24.6554C159.07 24.6554 159.827 24.84 160.504 25.2092C161.181 25.5784 161.703 26.0973 162.071 26.7653V19.3279H165.856Z" fill="url(#paint7_linear)"/>
<path fill-rule="evenodd" clip-rule="evenodd" d="M28.2355 39.2768C29.3955 39.2768 30.3362 38.2872 30.3362 37.0667C30.3362 35.8463 29.3955 34.8566 28.2355 34.8566C27.0748 34.8566 26.1348 35.8463 26.1348 37.0667C26.1348 38.2872 27.0748 39.2768 28.2355 39.2768Z" fill="white"/>
<path fill-rule="evenodd" clip-rule="evenodd" d="M28.2355 39.2768C29.3955 39.2768 30.3362 38.2872 30.3362 37.0667C30.3362 35.8463 29.3955 34.8566 28.2355 34.8566C27.0748 34.8566 26.1348 35.8463 26.1348 37.0667C26.1348 38.2872 27.0748 39.2768 28.2355 39.2768Z" fill="url(#paint8_linear)"/>
<path fill-rule="evenodd" clip-rule="evenodd" d="M24.9049 46.6371C24.9049 48.0817 26.3958 49.2533 28.2352 49.2533C30.0745 49.2533 31.5661 48.0817 31.5661 46.6371C31.5661 45.1931 30.0745 44.0215 28.2352 44.0215C26.3958 44.0215 24.9049 45.1931 24.9049 46.6371Z" fill="white"/>
<path fill-rule="evenodd" clip-rule="evenodd" d="M24.9049 46.6371C24.9049 48.0817 26.3958 49.2533 28.2352 49.2533C30.0745 49.2533 31.5661 48.0817 31.5661 46.6371C31.5661 45.1931 30.0745 44.0215 28.2352 44.0215C26.3958 44.0215 24.9049 45.1931 24.9049 46.6371Z" fill="url(#paint9_linear)"/>
<path fill-rule="evenodd" clip-rule="evenodd" d="M28.2355 52.9002C25.3783 52.9002 23.0627 54.358 23.0627 56.1554C23.0627 57.954 25.3783 59.4112 28.2355 59.4112C31.092 59.4112 33.4077 57.954 33.4077 56.1554C33.4077 54.358 31.092 52.9002 28.2355 52.9002Z" fill="white"/>
<path fill-rule="evenodd" clip-rule="evenodd" d="M28.2355 52.9002C25.3783 52.9002 23.0627 54.358 23.0627 56.1554C23.0627 57.954 25.3783 59.4112 28.2355 59.4112C31.092 59.4112 33.4077 57.954 33.4077 56.1554C33.4077 54.358 31.092 52.9002 28.2355 52.9002Z" fill="url(#paint10_linear)"/>
<path fill-rule="evenodd" clip-rule="evenodd" d="M28.2355 24.5549C29.3955 24.5549 30.3362 23.5659 30.3362 22.3448C30.3362 21.1244 29.3955 20.1354 28.2355 20.1354C27.0748 20.1354 26.1348 21.1244 26.1348 22.3448C26.1348 23.5659 27.0748 24.5549 28.2355 24.5549Z" fill="white"/>
<path fill-rule="evenodd" clip-rule="evenodd" d="M28.2355 24.5549C29.3955 24.5549 30.3362 23.5659 30.3362 22.3448C30.3362 21.1244 29.3955 20.1354 28.2355 20.1354C27.0748 20.1354 26.1348 21.1244 26.1348 22.3448C26.1348 23.5659 27.0748 24.5549 28.2355 24.5549Z" fill="url(#paint11_linear)"/>
<path fill-rule="evenodd" clip-rule="evenodd" d="M28.2355 31.9159C29.3955 31.9159 30.3362 30.9262 30.3362 29.7058C30.3362 28.4853 29.3955 27.4957 28.2355 27.4957C27.0748 27.4957 26.1348 28.4853 26.1348 29.7058C26.1348 30.9262 27.0748 31.9159 28.2355 31.9159Z" fill="white"/>
<path fill-rule="evenodd" clip-rule="evenodd" d="M28.2355 31.9159C29.3955 31.9159 30.3362 30.9262 30.3362 29.7058C30.3362 28.4853 29.3955 27.4957 28.2355 27.4957C27.0748 27.4957 26.1348 28.4853 26.1348 29.7058C26.1348 30.9262 27.0748 31.9159 28.2355 31.9159Z" fill="url(#paint12_linear)"/>
<path fill-rule="evenodd" clip-rule="evenodd" d="M28.2355 10.1589C26.3955 10.1589 24.9052 11.3299 24.9052 12.7745C24.9052 14.2191 26.3955 15.3901 28.2355 15.3901C30.0749 15.3901 31.5658 14.2191 31.5658 12.7745C31.5658 11.3299 30.0749 10.1589 28.2355 10.1589Z" fill="white"/>
<path fill-rule="evenodd" clip-rule="evenodd" d="M28.2355 10.1589C26.3955 10.1589 24.9052 11.3299 24.9052 12.7745C24.9052 14.2191 26.3955 15.3901 28.2355 15.3901C30.0749 15.3901 31.5658 14.2191 31.5658 12.7745C31.5658 11.3299 30.0749 10.1589 28.2355 10.1589Z" fill="url(#paint13_linear)"/>
<path fill-rule="evenodd" clip-rule="evenodd" d="M28.2355 6.51163C31.092 6.51163 33.4077 5.05383 33.4077 3.25646C33.4077 1.45778 31.092 0.000640869 28.2355 0.000640869C25.3783 0.000640869 23.0627 1.45778 23.0627 3.25646C23.0627 5.05383 25.3783 6.51163 28.2355 6.51163Z" fill="white"/>
<path fill-rule="evenodd" clip-rule="evenodd" d="M28.2355 6.51163C31.092 6.51163 33.4077 5.05383 33.4077 3.25646C33.4077 1.45778 31.092 0.000640869 28.2355 0.000640869C25.3783 0.000640869 23.0627 1.45778 23.0627 3.25646C23.0627 5.05383 25.3783 6.51163 28.2355 6.51163Z" fill="url(#paint14_linear)"/>
<path fill-rule="evenodd" clip-rule="evenodd" d="M21.2389 27.4959C20.0782 27.4959 19.1382 28.4849 19.1382 29.706C19.1382 30.9265 20.0782 31.9162 21.2389 31.9162C22.3989 31.9162 23.3396 30.9265 23.3396 29.706C23.3396 28.4849 22.3989 27.4959 21.2389 27.4959Z" fill="white"/>
<path fill-rule="evenodd" clip-rule="evenodd" d="M21.2389 27.4959C20.0782 27.4959 19.1382 28.4849 19.1382 29.706C19.1382 30.9265 20.0782 31.9162 21.2389 31.9162C22.3989 31.9162 23.3396 30.9265 23.3396 29.706C23.3396 28.4849 22.3989 27.4959 21.2389 27.4959Z" fill="url(#paint15_linear)"/>
<path fill-rule="evenodd" clip-rule="evenodd" d="M12.1419 26.2017C10.7694 26.2017 9.65579 27.7703 9.65579 29.7055C9.65579 31.6413 10.7694 33.2098 12.1419 33.2098C13.5144 33.2098 14.6281 31.6413 14.6281 29.7055C14.6281 27.7703 13.5144 26.2017 12.1419 26.2017Z" fill="white"/>
<path fill-rule="evenodd" clip-rule="evenodd" d="M12.1419 26.2017C10.7694 26.2017 9.65579 27.7703 9.65579 29.7055C9.65579 31.6413 10.7694 33.2098 12.1419 33.2098C13.5144 33.2098 14.6281 31.6413 14.6281 29.7055C14.6281 27.7703 13.5144 26.2017 12.1419 26.2017Z" fill="url(#paint16_linear)"/>
<path fill-rule="evenodd" clip-rule="evenodd" d="M3.09452 24.2639C1.3855 24.2639 0.000488281 26.7002 0.000488281 29.7055C0.000488281 32.7114 1.3855 35.1477 3.09452 35.1477C4.80417 35.1477 6.18918 32.7114 6.18918 29.7055C6.18918 26.7002 4.80417 24.2639 3.09452 24.2639Z" fill="white"/>
<path fill-rule="evenodd" clip-rule="evenodd" d="M3.09452 24.2639C1.3855 24.2639 0.000488281 26.7002 0.000488281 29.7055C0.000488281 32.7114 1.3855 35.1477 3.09452 35.1477C4.80417 35.1477 6.18918 32.7114 6.18918 29.7055C6.18918 26.7002 4.80417 24.2639 3.09452 24.2639Z" fill="url(#paint17_linear)"/>
<path fill-rule="evenodd" clip-rule="evenodd" d="M37.3325 29.7057C37.3325 28.4853 36.3918 27.4956 35.2317 27.4956C34.0717 27.4956 33.131 28.4853 33.131 29.7057C33.131 30.9262 34.0717 31.9158 35.2317 31.9158C36.3918 31.9158 37.3325 30.9262 37.3325 29.7057Z" fill="white"/>
<path fill-rule="evenodd" clip-rule="evenodd" d="M37.3325 29.7057C37.3325 28.4853 36.3918 27.4956 35.2317 27.4956C34.0717 27.4956 33.131 28.4853 33.131 29.7057C33.131 30.9262 34.0717 31.9158 35.2317 31.9158C36.3918 31.9158 37.3325 30.9262 37.3325 29.7057Z" fill="url(#paint18_linear)"/>
<path fill-rule="evenodd" clip-rule="evenodd" d="M44.3284 33.2101C45.7015 33.2101 46.8152 31.6409 46.8152 29.7057C46.8152 27.7706 45.7015 26.202 44.3284 26.202C42.9559 26.202 41.8423 27.7706 41.8423 29.7057C41.8423 31.6409 42.9559 33.2101 44.3284 33.2101Z" fill="white"/>
<path fill-rule="evenodd" clip-rule="evenodd" d="M44.3284 33.2101C45.7015 33.2101 46.8152 31.6409 46.8152 29.7057C46.8152 27.7706 45.7015 26.202 44.3284 26.202C42.9559 26.202 41.8423 27.7706 41.8423 29.7057C41.8423 31.6409 42.9559 33.2101 44.3284 33.2101Z" fill="url(#paint19_linear)"/>
<path fill-rule="evenodd" clip-rule="evenodd" d="M53.3758 24.2639C51.6668 24.2639 50.2818 26.7002 50.2818 29.7055C50.2818 32.7114 51.6668 35.1477 53.3758 35.1477C55.0855 35.1477 56.4698 32.7114 56.4698 29.7055C56.4698 26.7002 55.0855 24.2639 53.3758 24.2639Z" fill="white"/>
<path fill-rule="evenodd" clip-rule="evenodd" d="M53.3758 24.2639C51.6668 24.2639 50.2818 26.7002 50.2818 29.7055C50.2818 32.7114 51.6668 35.1477 53.3758 35.1477C55.0855 35.1477 56.4698 32.7114 56.4698 29.7055C56.4698 26.7002 55.0855 24.2639 53.3758 24.2639Z" fill="url(#paint20_linear)"/>
<path fill-rule="evenodd" clip-rule="evenodd" d="M14.5006 20.2113C15.4714 21.2326 17.3127 20.9517 18.6131 19.5829C19.9141 18.2148 20.1811 16.277 19.211 15.2557C18.2402 14.2344 16.3983 14.5152 15.0973 15.884C13.7969 17.2522 13.5293 19.19 14.5006 20.2113Z" fill="white"/>
<path fill-rule="evenodd" clip-rule="evenodd" d="M14.5006 20.2113C15.4714 21.2326 17.3127 20.9517 18.6131 19.5829C19.9141 18.2148 20.1811 16.277 19.211 15.2557C18.2402 14.2344 16.3983 14.5152 15.0973 15.884C13.7969 17.2522 13.5293 19.19 14.5006 20.2113Z" fill="url(#paint21_linear)"/>
<path fill-rule="evenodd" clip-rule="evenodd" d="M12.6462 13.3049C14.6667 11.1799 15.3241 8.42649 14.1159 7.15462C12.9076 5.88341 10.2898 6.57572 8.27059 8.70077C6.2501 10.8258 5.59206 13.5799 6.80097 14.8511C8.00926 16.1223 10.6264 15.43 12.6462 13.3049Z" fill="white"/>
<path fill-rule="evenodd" clip-rule="evenodd" d="M12.6462 13.3049C14.6667 11.1799 15.3241 8.42649 14.1159 7.15462C12.9076 5.88341 10.2898 6.57572 8.27059 8.70077C6.2501 10.8258 5.59206 13.5799 6.80097 14.8511C8.00926 16.1223 10.6264 15.43 12.6462 13.3049Z" fill="url(#paint22_linear)"/>
<path fill-rule="evenodd" clip-rule="evenodd" d="M41.9703 39.2002C40.9989 38.1788 39.1583 38.4604 37.8573 39.8285C36.5562 41.1973 36.2892 43.1344 37.2594 44.1564C38.2308 45.1771 40.0727 44.8962 41.3731 43.5274C42.6735 42.1593 42.9411 40.2221 41.9703 39.2002Z" fill="white"/>
<path fill-rule="evenodd" clip-rule="evenodd" d="M41.9703 39.2002C40.9989 38.1788 39.1583 38.4604 37.8573 39.8285C36.5562 41.1973 36.2892 43.1344 37.2594 44.1564C38.2308 45.1771 40.0727 44.8962 41.3731 43.5274C42.6735 42.1593 42.9411 40.2221 41.9703 39.2002Z" fill="url(#paint23_linear)"/>
<path fill-rule="evenodd" clip-rule="evenodd" d="M43.8241 46.1065C41.8042 48.2323 41.1468 50.985 42.3545 52.2569C43.5634 53.5281 46.1805 52.8358 48.2004 50.7107C50.2202 48.5857 50.8783 45.8323 49.67 44.5604C48.4611 43.2899 45.8446 43.9815 43.8241 46.1065Z" fill="white"/>
<path fill-rule="evenodd" clip-rule="evenodd" d="M43.8241 46.1065C41.8042 48.2323 41.1468 50.985 42.3545 52.2569C43.5634 53.5281 46.1805 52.8358 48.2004 50.7107C50.2202 48.5857 50.8783 45.8323 49.67 44.5604C48.4611 43.2899 45.8446 43.9815 43.8241 46.1065Z" fill="url(#paint24_linear)"/>
<path fill-rule="evenodd" clip-rule="evenodd" d="M41.9703 20.2113C42.9411 19.19 42.6735 17.2522 41.3731 15.884C40.0727 14.5152 38.2308 14.2344 37.2594 15.2557C36.2892 16.277 36.5562 18.2148 37.8573 19.5829C39.1583 20.9517 40.9989 21.2326 41.9703 20.2113Z" fill="white"/>
<path fill-rule="evenodd" clip-rule="evenodd" d="M41.9703 20.2113C42.9411 19.19 42.6735 17.2522 41.3731 15.884C40.0727 14.5152 38.2308 14.2344 37.2594 15.2557C36.2892 16.277 36.5562 18.2148 37.8573 19.5829C39.1583 20.9517 40.9989 21.2326 41.9703 20.2113Z" fill="url(#paint25_linear)"/>
<path fill-rule="evenodd" clip-rule="evenodd" d="M42.3547 7.15488C41.1464 8.42609 41.8044 11.1795 43.8243 13.3052C45.8442 15.4303 48.4613 16.1226 49.6702 14.8507C50.8785 13.5795 50.2204 10.8261 48.2006 8.70104C46.1801 6.57598 43.5636 5.88367 42.3547 7.15488Z" fill="white"/>
<path fill-rule="evenodd" clip-rule="evenodd" d="M42.3547 7.15488C41.1464 8.42609 41.8044 11.1795 43.8243 13.3052C45.8442 15.4303 48.4613 16.1226 49.6702 14.8507C50.8785 13.5795 50.2204 10.8261 48.2006 8.70104C46.1801 6.57598 43.5636 5.88367 42.3547 7.15488Z" fill="url(#paint26_linear)"/>
<path fill-rule="evenodd" clip-rule="evenodd" d="M14.5006 39.2002C13.5293 40.2221 13.7969 42.1593 15.0973 43.5274C16.3983 44.8962 18.2402 45.1771 19.211 44.1564C20.1811 43.1344 19.9141 41.1973 18.6131 39.8285C17.3127 38.4604 15.4714 38.1788 14.5006 39.2002Z" fill="white"/>
<path fill-rule="evenodd" clip-rule="evenodd" d="M14.5006 39.2002C13.5293 40.2221 13.7969 42.1593 15.0973 43.5274C16.3983 44.8962 18.2402 45.1771 19.211 44.1564C20.1811 43.1344 19.9141 41.1973 18.6131 39.8285C17.3127 38.4604 15.4714 38.1788 14.5006 39.2002Z" fill="url(#paint27_linear)"/>
<path fill-rule="evenodd" clip-rule="evenodd" d="M6.80085 44.5605C5.59194 45.8324 6.24997 48.5851 8.27047 50.7109C10.2897 52.8359 12.9074 53.5282 14.1157 52.257C15.3246 50.9851 14.6666 48.2317 12.6461 46.1067C10.6262 43.9816 8.00913 43.2893 6.80085 44.5605Z" fill="white"/>
<path fill-rule="evenodd" clip-rule="evenodd" d="M6.80085 44.5605C5.59194 45.8324 6.24997 48.5851 8.27047 50.7109C10.2897 52.8359 12.9074 53.5282 14.1157 52.257C15.3246 50.9851 14.6666 48.2317 12.6461 46.1067C10.6262 43.9816 8.00913 43.2893 6.80085 44.5605Z" fill="url(#paint28_linear)"/>
<defs>
<linearGradient id="paint0_linear" x1="-24.6172" y1="33.9412" x2="6.84435" y2="105.407" gradientUnits="userSpaceOnUse">
<stop stop-color="#FA6400"/>
<stop offset="1" stop-color="#6B68FC"/>
</linearGradient>
<linearGradient id="paint1_linear" x1="-24.6172" y1="33.9412" x2="6.84435" y2="105.407" gradientUnits="userSpaceOnUse">
<stop stop-color="#FA6400"/>
<stop offset="1" stop-color="#6B68FC"/>
</linearGradient>
<linearGradient id="paint2_linear" x1="-24.6172" y1="33.9412" x2="6.84435" y2="105.407" gradientUnits="userSpaceOnUse">
<stop stop-color="#FA6400"/>
<stop offset="1" stop-color="#6B68FC"/>
</linearGradient>
<linearGradient id="paint3_linear" x1="-24.6172" y1="33.9412" x2="6.84435" y2="105.407" gradientUnits="userSpaceOnUse">
<stop stop-color="#FA6400"/>
<stop offset="1" stop-color="#6B68FC"/>
</linearGradient>
<linearGradient id="paint4_linear" x1="-24.6172" y1="33.9412" x2="6.84435" y2="105.407" gradientUnits="userSpaceOnUse">
<stop stop-color="#FA6400"/>
<stop offset="1" stop-color="#6B68FC"/>
</linearGradient>
<linearGradient id="paint5_linear" x1="-24.6172" y1="33.9412" x2="6.84435" y2="105.407" gradientUnits="userSpaceOnUse">
<stop stop-color="#FA6400"/>
<stop offset="1" stop-color="#6B68FC"/>
</linearGradient>
<linearGradient id="paint6_linear" x1="-24.6172" y1="33.9412" x2="6.84435" y2="105.407" gradientUnits="userSpaceOnUse">
<stop stop-color="#FA6400"/>
<stop offset="1" stop-color="#6B68FC"/>
</linearGradient>
<linearGradient id="paint7_linear" x1="-24.6172" y1="33.9412" x2="6.84435" y2="105.407" gradientUnits="userSpaceOnUse">
<stop stop-color="#FA6400"/>
<stop offset="1" stop-color="#6B68FC"/>
</linearGradient>
<linearGradient id="paint8_linear" x1="-24.6172" y1="33.9412" x2="6.84435" y2="105.407" gradientUnits="userSpaceOnUse">
<stop stop-color="#FA6400"/>
<stop offset="1" stop-color="#6B68FC"/>
</linearGradient>
<linearGradient id="paint9_linear" x1="-24.6172" y1="33.9412" x2="6.84435" y2="105.407" gradientUnits="userSpaceOnUse">
<stop stop-color="#FA6400"/>
<stop offset="1" stop-color="#6B68FC"/>
</linearGradient>
<linearGradient id="paint10_linear" x1="-24.6172" y1="33.9412" x2="6.84435" y2="105.407" gradientUnits="userSpaceOnUse">
<stop stop-color="#FA6400"/>
<stop offset="1" stop-color="#6B68FC"/>
</linearGradient>
<linearGradient id="paint11_linear" x1="-24.6172" y1="33.9412" x2="6.84435" y2="105.407" gradientUnits="userSpaceOnUse">
<stop stop-color="#FA6400"/>
<stop offset="1" stop-color="#6B68FC"/>
</linearGradient>
<linearGradient id="paint12_linear" x1="-24.6172" y1="33.9412" x2="6.84435" y2="105.407" gradientUnits="userSpaceOnUse">
<stop stop-color="#FA6400"/>
<stop offset="1" stop-color="#6B68FC"/>
</linearGradient>
<linearGradient id="paint13_linear" x1="-24.6172" y1="33.9412" x2="6.84435" y2="105.407" gradientUnits="userSpaceOnUse">
<stop stop-color="#FA6400"/>
<stop offset="1" stop-color="#6B68FC"/>
</linearGradient>
<linearGradient id="paint14_linear" x1="-24.6172" y1="33.9412" x2="6.84435" y2="105.407" gradientUnits="userSpaceOnUse">
<stop stop-color="#FA6400"/>
<stop offset="1" stop-color="#6B68FC"/>
</linearGradient>
<linearGradient id="paint15_linear" x1="-24.6172" y1="33.9412" x2="6.84435" y2="105.407" gradientUnits="userSpaceOnUse">
<stop stop-color="#FA6400"/>
<stop offset="1" stop-color="#6B68FC"/>
</linearGradient>
<linearGradient id="paint16_linear" x1="-24.6172" y1="33.9412" x2="6.84435" y2="105.407" gradientUnits="userSpaceOnUse">
<stop stop-color="#FA6400"/>
<stop offset="1" stop-color="#6B68FC"/>
</linearGradient>
<linearGradient id="paint17_linear" x1="-24.6172" y1="33.9412" x2="6.84435" y2="105.407" gradientUnits="userSpaceOnUse">
<stop stop-color="#FA6400"/>
<stop offset="1" stop-color="#6B68FC"/>
</linearGradient>
<linearGradient id="paint18_linear" x1="-24.6172" y1="33.9412" x2="6.84435" y2="105.407" gradientUnits="userSpaceOnUse">
<stop stop-color="#FA6400"/>
<stop offset="1" stop-color="#6B68FC"/>
</linearGradient>
<linearGradient id="paint19_linear" x1="-24.6172" y1="33.9412" x2="6.84435" y2="105.407" gradientUnits="userSpaceOnUse">
<stop stop-color="#FA6400"/>
<stop offset="1" stop-color="#6B68FC"/>
</linearGradient>
<linearGradient id="paint20_linear" x1="-24.6172" y1="33.9412" x2="6.84435" y2="105.407" gradientUnits="userSpaceOnUse">
<stop stop-color="#FA6400"/>
<stop offset="1" stop-color="#6B68FC"/>
</linearGradient>
<linearGradient id="paint21_linear" x1="-24.6172" y1="33.9412" x2="6.84435" y2="105.407" gradientUnits="userSpaceOnUse">
<stop stop-color="#FA6400"/>
<stop offset="1" stop-color="#6B68FC"/>
</linearGradient>
<linearGradient id="paint22_linear" x1="-24.6172" y1="33.9412" x2="6.84435" y2="105.407" gradientUnits="userSpaceOnUse">
<stop stop-color="#FA6400"/>
<stop offset="1" stop-color="#6B68FC"/>
</linearGradient>
<linearGradient id="paint23_linear" x1="-24.6172" y1="33.9412" x2="6.84435" y2="105.407" gradientUnits="userSpaceOnUse">
<stop stop-color="#FA6400"/>
<stop offset="1" stop-color="#6B68FC"/>
</linearGradient>
<linearGradient id="paint24_linear" x1="-24.6172" y1="33.9412" x2="6.84435" y2="105.407" gradientUnits="userSpaceOnUse">
<stop stop-color="#FA6400"/>
<stop offset="1" stop-color="#6B68FC"/>
</linearGradient>
<linearGradient id="paint25_linear" x1="-24.6172" y1="33.9412" x2="6.84435" y2="105.407" gradientUnits="userSpaceOnUse">
<stop stop-color="#FA6400"/>
<stop offset="1" stop-color="#6B68FC"/>
</linearGradient>
<linearGradient id="paint26_linear" x1="-24.6172" y1="33.9412" x2="6.84435" y2="105.407" gradientUnits="userSpaceOnUse">
<stop stop-color="#FA6400"/>
<stop offset="1" stop-color="#6B68FC"/>
</linearGradient>
<linearGradient id="paint27_linear" x1="-24.6172" y1="33.9412" x2="6.84435" y2="105.407" gradientUnits="userSpaceOnUse">
<stop stop-color="#FA6400"/>
<stop offset="1" stop-color="#6B68FC"/>
</linearGradient>
<linearGradient id="paint28_linear" x1="-24.6172" y1="33.9412" x2="6.84435" y2="105.407" gradientUnits="userSpaceOnUse">
<stop stop-color="#FA6400"/>
<stop offset="1" stop-color="#6B68FC"/>
</linearGradient>
</defs>
</svg>
