<svg width="40" height="40" viewBox="8 8 24 24" fill="none" 
    xmlns="http://www.w3.org/2000/svg">
    <path d="M20 30C20.5556 30 21.0238 29.8095 21.4048 29.4286C21.8016 29.0317 22 28.5556 22 28H18C18 28.5556 18.1905 29.0317 18.5714 29.4286C18.9683 29.8095 19.4444 30 20 30ZM26 24V19C26 17.4286 25.6111 16.0794 24.8333 14.9524C24.0238 13.7778 22.9127 13.0238 21.5 12.6905V12C21.5 11.5873 21.3492 11.2381 21.0476 10.9524C20.7619 10.6508 20.4127 10.5 20 10.5C19.5873 10.5 19.2302 10.6508 18.9286 10.9524C18.6429 11.2381 18.5 11.5873 18.5 12V12.6905C17.1032 13.0238 15.9921 13.7698 15.1667 14.9286C14.3889 16.0714 14 17.4286 14 19V24L12 26V27H28V26L26 24ZM24 25H16V19C16 18.1746 16.1587 17.4206 16.4762 16.7381C16.8095 16.0397 17.2698 15.5 17.8571 15.119C18.4762 14.7063 19.1905 14.5 20 14.5C20.8095 14.5 21.5238 14.7063 22.1429 15.119C22.7302 15.5 23.1825 16.0397 23.5 16.7381C23.8333 17.4206 24 18.1746 24 19V25Z" fill="#798794"/>
</svg>
