<svg width="15" height="16" viewBox="0 0 15 16" fill="none" xmlns="http://www.w3.org/2000/svg">
<path d="M12.8 1.6H12V0H10.4V1.6H4V0H2.4V1.6H1.6C1.17565 1.6 0.768687 1.76857 0.468629 2.06863C0.168571 2.36869 0 2.77565 0 3.2V14.4C0 14.8243 0.168571 15.2313 0.468629 15.5314C0.768687 15.8314 1.17565 16 1.6 16H12.8C13.68 16 14.4 15.28 14.4 14.4V3.2C14.4 2.32 13.68 1.6 12.8 1.6ZM7.2 4C8.528 4 9.6 5.072 9.6 6.4C9.6 7.728 8.528 8.8 7.2 8.8C5.872 8.8 4.8 7.728 4.8 6.4C4.8 5.072 5.872 4 7.2 4ZM12 13.6H2.4V12.8C2.4 11.2 5.6 10.32 7.2 10.32C8.8 10.32 12 11.2 12 12.8V13.6Z" fill="#6A00FF"/>
</svg>
