<svg width="18" height="19" viewBox="0 0 18 19" fill="none" xmlns="http://www.w3.org/2000/svg">
<path d="M15.3333 7.125H8.20833C7.33388 7.125 6.625 7.83388 6.625 8.70833V15.8333C6.625 16.7078 7.33388 17.4167 8.20833 17.4167H15.3333C16.2078 17.4167 16.9167 16.7078 16.9167 15.8333V8.70833C16.9167 7.83388 16.2078 7.125 15.3333 7.125Z" stroke="white" stroke-width="2" stroke-linecap="round" stroke-linejoin="round"/>
<path d="M3.45898 11.8749H2.66732C2.24739 11.8749 1.84466 11.7081 1.54773 11.4112C1.2508 11.1142 1.08398 10.7115 1.08398 10.2916V3.16659C1.08398 2.74666 1.2508 2.34393 1.54773 2.047C1.84466 1.75007 2.24739 1.58325 2.66732 1.58325H9.79232C10.2122 1.58325 10.615 1.75007 10.9119 2.047C11.2088 2.34393 11.3757 2.74666 11.3757 3.16659V3.95825" stroke="white" stroke-width="2" stroke-linecap="round" stroke-linejoin="round"/>
</svg>
