<svg width="25" height="24" viewBox="0 0 25 24" xmlns="http://www.w3.org/2000/svg">
<path fill="#5acd00" fill-rule="evenodd" clip-rule="evenodd" d="M17.2917 0C18.3488 0 19.2083 0.861 19.2083 1.92V4.32H23.0417C23.5717 4.32 24 4.749 24 5.28V6.24C24 6.372 23.8922 6.48 23.7604 6.48H21.9516L21.2118 22.17C21.1639 23.196 20.3224 24 19.2982 24H5.70182C4.6806 24 3.83607 23.193 3.78815 22.17L3.04844 6.48H1.23958C1.10781 6.48 1 6.372 1 6.24V5.28C1 4.749 1.42826 4.32 1.95833 4.32H5.79167V1.92C5.79167 0.861 6.65117 0 7.70833 0H17.2917ZM5.20768 6.48L5.93242 21.84H19.0676L19.7923 6.48H5.20768ZM17.0521 2.16H7.94792V4.32H17.0521V2.16Z" />
</svg>
