<svg width="11" height="9" viewBox="0 0 11 9" fill="none" xmlns="http://www.w3.org/2000/svg">
<path d="M10.9167 1.25C10.9167 0.949073 10.8092 0.695436 10.5942 0.489086C10.3879 0.27414 10.1343 0.166666 9.83333 0.166666H1.16667C0.865741 0.166666 0.607804 0.27414 0.392857 0.489086C0.186508 0.695436 0.0833334 0.949073 0.0833334 1.25V7.75C0.0833334 8.05093 0.186508 8.30886 0.392857 8.52381C0.607804 8.73016 0.865741 8.83333 1.16667 8.83333H9.83333C10.1343 8.83333 10.3879 8.73016 10.5942 8.52381C10.8092 8.30886 10.9167 8.05093 10.9167 7.75V1.25ZM9.83333 1.25L5.5 3.95833L1.16667 1.25H9.83333ZM9.83333 7.75H1.16667V2.33333L5.5 5.04167L9.83333 2.33333V7.75Z" fill="#798794"/>
</svg>
