<svg width="23" height="22" viewBox="0 0 23 22" fill="none" xmlns="http://www.w3.org/2000/svg">
<path d="M0.50157 10.6685C0.50157 4.5359 5.30211 0 11.4994 0C17.6966 0 22.4971 4.5359 22.4971 10.6685C22.4971 16.7977 17.6966 21.3371 11.4994 21.3371C10.3893 21.3371 9.31905 21.19 8.32031 20.9144C8.12516 20.8612 7.9176 20.8778 7.7333 20.9611L5.54199 21.9241C5.40978 21.9828 5.26513 22.0081 5.12082 21.9977C4.97652 21.9873 4.83699 21.9415 4.71457 21.8644C4.59215 21.7873 4.4906 21.6812 4.41888 21.5556C4.34717 21.4299 4.3075 21.2886 4.30337 21.1439L4.23876 19.1822C4.23461 19.0643 4.20679 18.9484 4.15696 18.8414C4.10713 18.7344 4.03631 18.6385 3.94869 18.5595C2.84607 17.565 1.9682 16.3469 1.37366 14.9863C0.779123 13.6257 0.481579 12.1539 0.500883 10.6692L0.50157 10.6685ZM8.12716 8.66007L4.90137 13.794C4.579 14.2772 5.19488 14.8395 5.65335 14.4813L9.1259 11.8501C9.23991 11.7612 9.38034 11.7129 9.52491 11.7129C9.66949 11.7129 9.80992 11.7612 9.92393 11.8501L12.4871 13.7761C12.6698 13.9117 12.8785 14.0081 13.1001 14.0595C13.3217 14.1109 13.5515 14.1161 13.7752 14.0748C13.9989 14.0334 14.2117 13.9465 14.4003 13.8193C14.589 13.6921 14.7494 13.5274 14.8716 13.3355L18.0973 8.2016C18.4197 7.71839 17.8038 7.16712 17.3454 7.51424L13.8728 10.1455C13.7607 10.2342 13.6219 10.2825 13.479 10.2825C13.336 10.2825 13.1972 10.2342 13.0851 10.1455L10.5185 8.21947C10.3361 8.08156 10.1269 7.98311 9.90437 7.9304C9.68182 7.8777 9.45075 7.87188 9.22583 7.91332C9.00091 7.95476 8.78708 8.04255 8.59794 8.17111C8.40879 8.29967 8.24847 8.46619 8.12716 8.66007Z" fill="white"/>
</svg>
