<svg width="22" height="21" viewBox="0 0 22 21" fill="none" xmlns="http://www.w3.org/2000/svg">
<path d="M18.7886 17.8571H15.6991V13.009C15.6991 11.8529 15.6749 10.3672 14.0835 10.3672C12.4724 10.3672 12.227 11.6212 12.227 12.9234V17.8564H9.13351V7.88799H12.1049V9.24771H12.1447C12.5599 8.46243 13.5697 7.63668 15.0763 7.63668C18.2103 7.63668 18.7919 9.70008 18.7919 12.383V17.8564L18.7886 17.8571ZM5.63859 6.52566C5.40247 6.52575 5.16865 6.47925 4.95052 6.38883C4.7324 6.29841 4.53426 6.16585 4.36744 5.99873C4.20063 5.83162 4.06843 5.63323 3.9784 5.41495C3.88838 5.19666 3.84231 4.96276 3.84282 4.72663C3.84321 4.37123 3.94897 4.02393 4.14673 3.72863C4.34449 3.43333 4.62536 3.2033 4.95384 3.06763C5.28233 2.93195 5.64366 2.89672 5.99217 2.96638C6.34067 3.03605 6.66069 3.20749 6.91177 3.45902C7.16285 3.71056 7.3337 4.03089 7.40274 4.37952C7.47177 4.72815 7.43588 5.08942 7.29961 5.41766C7.16334 5.74589 6.9328 6.02635 6.63714 6.22357C6.34149 6.42079 5.99399 6.52592 5.63859 6.52566ZM7.18826 17.8571H4.08826V7.88864H7.18826V17.8571ZM20.3396 0.0554199H2.53467C1.68412 0.0554199 0.994141 0.728424 0.994141 1.56136V19.4387C0.994141 20.2717 1.68412 20.9447 2.53467 20.9447H20.3363C21.1856 20.9447 21.8827 20.2717 21.8827 19.4387V1.56136C21.8827 0.728424 21.1856 0.0554199 20.3363 0.0554199H20.3396Z" fill="white"/>
</svg>
