<svg width="22" height="21" viewBox="0 0 22 21" fill="none" xmlns="http://www.w3.org/2000/svg">
<path d="M21.341 4.03555C20.5592 4.37924 19.7311 4.60621 18.8833 4.70921C19.777 4.17283 20.446 3.33079 20.7665 2.33901C19.9212 2.82924 19.0012 3.17744 18.0432 3.36973C17.3989 2.68136 16.5455 2.22485 15.6153 2.07104C14.6851 1.91723 13.7301 2.07472 12.8986 2.51906C12.067 2.96341 11.4054 3.66977 11.0163 4.52855C10.6271 5.38734 10.5323 6.35054 10.7465 7.26871C7.18698 7.10226 4.0315 5.392 1.9211 2.80835C1.53693 3.46169 1.33601 4.20653 1.33948 4.96444C1.33896 5.66902 1.51243 6.36282 1.84449 6.98423C2.17655 7.60565 2.65692 8.13546 3.24295 8.5266C2.56383 8.50607 1.8995 8.3232 1.30554 7.99329V8.04486C1.30533 9.03382 1.64707 9.99243 2.27285 10.7582C2.89862 11.524 3.76993 12.0499 4.7391 12.2467C4.37198 12.3448 3.99372 12.3951 3.61373 12.3962C3.33891 12.3962 3.0765 12.3694 2.81474 12.3211C3.09055 13.1722 3.62483 13.916 4.3432 14.4492C5.06158 14.9824 5.9283 15.2783 6.82274 15.2958C5.30728 16.4826 3.43734 17.1265 1.51247 17.1242C1.17153 17.1256 0.830819 17.1064 0.492188 17.0668C2.45578 18.325 4.73934 18.9929 7.07144 18.9911C14.9484 18.9911 19.2528 12.4667 19.2528 6.81635C19.2528 6.63618 19.2528 6.45275 19.2391 6.26867C20.081 5.66522 20.8067 4.91414 21.3808 4.05187L21.341 4.03555Z" fill="white"/>
</svg>
