<svg width="22" height="23" viewBox="0 0 22 23" fill="none" xmlns="http://www.w3.org/2000/svg">
<path fill-rule="evenodd" clip-rule="evenodd" d="M18.427 4.04611C17.4602 3.07495 16.3098 2.30489 15.0425 1.78055C13.7753 1.25621 12.4164 0.988009 11.0445 0.991489C5.292 0.991489 0.609051 5.66333 0.606726 11.406C0.606726 13.2413 1.08688 15.0325 1.99952 16.6126L0.519531 22.0084L6.05234 20.5594C7.58277 21.3908 9.29738 21.8267 11.0399 21.8274H11.0445C16.7959 21.8274 21.4789 17.1556 21.4812 11.4129C21.4851 10.0445 21.2173 8.68894 20.693 7.42448C20.1688 6.16002 19.3986 5.01177 18.427 4.04611ZM11.0445 20.0698H11.041C9.48725 20.07 7.96206 19.6528 6.6255 18.8621L6.30927 18.6742L3.02609 19.5339L3.90153 16.34L3.69575 16.0129C2.82704 14.6328 2.36717 13.0357 2.36923 11.406C2.37155 6.6332 6.26277 2.75025 11.048 2.75025C12.1877 2.74772 13.3165 2.97077 14.3692 3.40648C15.4218 3.84219 16.3775 4.48191 17.1807 5.28861C17.9883 6.09147 18.6284 7.04609 19.064 8.09728C19.4996 9.14848 19.7221 10.2754 19.7187 11.4129C19.7164 16.1857 15.8251 20.0698 11.0445 20.0698ZM15.803 13.5859C15.5415 13.4548 14.2603 12.826 14.0208 12.739C13.7825 12.652 13.6092 12.609 13.4348 12.8689C13.2604 13.1288 12.7605 13.7146 12.6082 13.8887C12.4559 14.0627 12.3036 14.0836 12.0432 13.9536C11.7828 13.8237 10.9422 13.5487 9.94588 12.6624C9.17042 11.9721 8.64725 11.1206 8.49496 10.8596C8.34265 10.5985 8.47868 10.4582 8.61005 10.3282C8.72747 10.2122 8.87047 10.0243 9.00069 9.87229C9.1309 9.72031 9.17391 9.61242 9.26111 9.4384C9.3483 9.26438 9.30529 9.1124 9.23902 8.98247C9.17391 8.85137 8.65191 7.57059 8.4345 7.04969C8.22407 6.54503 8.00899 6.61232 7.84855 6.60536C7.68239 6.59858 7.5161 6.59548 7.3498 6.59608C7.21756 6.59944 7.08744 6.63003 6.9676 6.68593C6.84777 6.74183 6.7408 6.82183 6.6534 6.92091C6.4139 7.18194 5.74076 7.81074 5.74076 9.09152C5.74076 10.3723 6.67549 11.6102 6.8057 11.7842C6.93591 11.9582 8.64493 14.5859 11.2608 15.7135C11.8839 15.9815 12.3699 16.1416 12.7477 16.2623C13.3721 16.4607 13.9406 16.4317 14.3905 16.3655C14.8916 16.2913 15.9333 15.7367 16.1507 15.1288C16.3681 14.5209 16.3681 14 16.303 13.891C16.2379 13.7819 16.0623 13.7158 15.803 13.5859Z" fill="white"/>
</svg>
