<?xml version="1.0" encoding="utf-8"?>
<!-- Generator: Adobe Illustrator 16.0.0, SVG Export Plug-In . SVG Version: 6.00 Build 0)  -->
<!DOCTYPE svg PUBLIC "-//W3C//DTD SVG 1.1//EN" "http://www.w3.org/Graphics/SVG/1.1/DTD/svg11.dtd">
<svg version="1.1" id="Layer_1" xmlns="http://www.w3.org/2000/svg" xmlns:xlink="http://www.w3.org/1999/xlink" x="0px" y="0px"
	 width="300px" height="77px" viewBox="0 0 300 77" enable-background="new 0 0 300 77" xml:space="preserve">
<line fill="none" stroke="#5E58A6" stroke-miterlimit="10" x1="169.5" y1="38.5" x2="236.334" y2="38.5"/>
<line fill="none" stroke="#A7A9AC" stroke-miterlimit="10" x1="60.167" y1="38.5" x2="127" y2="38.5"/>
<circle fill="#A7A9AC" cx="36.336" cy="38.5" r="24.912"/>
<g>
	<path fill="#FFFFFF" d="M30.457,45.918h4.863V32.511h-4.89v-1.429c0.879-0.091,1.937-0.325,3.173-0.701
		c1.236-0.375,2.303-0.811,3.201-1.305h0.934v16.841h4.506v2.005H30.457V45.918z"/>
</g>
<text transform="matrix(1 0 0 1 141.5786 47.0156)" fill="#FFFFFF" font-family="'Ubuntu-Regular'" font-size="29.0601">1</text>
<circle fill="#635FAA" cx="150" cy="38.5" r="24.912"/>
<circle fill="#A7A9AC" cx="259.334" cy="38.5" r="24.912"/>
<g>
	<path fill="#FFFFFF" d="M143.53,47.292c0-0.989,0.256-1.9,0.77-2.733c0.513-0.833,1.13-1.566,1.854-2.198
		c0.723-0.632,1.689-1.388,2.898-2.267c0.971-0.714,1.758-1.323,2.362-1.827c0.604-0.503,1.107-1.021,1.511-1.552
		c0.622-0.824,0.935-1.667,0.935-2.527s-0.271-1.607-0.811-2.239C152.509,31.316,151.57,31,150.233,31
		c-1.373,0-2.381,0.334-3.021,1.002c-0.642,0.669-0.962,1.534-0.962,2.596v1.126h-2.418c-0.055-0.311-0.082-0.677-0.082-1.099
		c0-1.905,0.622-3.333,1.868-4.286c1.245-0.952,2.83-1.429,4.753-1.429c1.794,0,3.241,0.454,4.341,1.36
		c1.099,0.906,1.648,2.285,1.648,4.135c0,0.989-0.275,1.914-0.824,2.774c-0.55,0.861-1.214,1.635-1.992,2.322
		c-0.779,0.687-1.79,1.479-3.035,2.376c-0.916,0.659-1.635,1.205-2.157,1.635c-0.521,0.431-0.975,0.865-1.359,1.305
		c-0.257,0.275-0.468,0.596-0.632,0.962h10.109v2.308H143.53V47.292z"/>
</g>
<g>
	<path fill="#FFFFFF" d="M254.43,46.729c-1.172-1.017-1.758-2.395-1.758-4.135v-0.22h2.445v0.302c0,1.154,0.355,2.038,1.07,2.651
		c0.715,0.614,1.723,0.921,3.023,0.921c1.336,0,2.385-0.293,3.145-0.88c0.76-0.586,1.141-1.474,1.141-2.665
		c0-1.227-0.408-2.092-1.223-2.596s-1.873-0.756-3.174-0.756h-1.979v-2.005h2.061c1.1,0,2.025-0.284,2.775-0.853
		c0.752-0.567,1.127-1.382,1.127-2.444c0-1.1-0.354-1.924-1.059-2.473c-0.705-0.55-1.598-0.824-2.678-0.824
		c-1.154,0-2.08,0.288-2.775,0.865s-1.043,1.424-1.043,2.541v0.247h-2.445v-0.494c0-1.025,0.266-1.928,0.797-2.706
		s1.268-1.383,2.211-1.813c0.943-0.43,2.02-0.646,3.229-0.646c1.904,0,3.424,0.449,4.561,1.347c1.135,0.897,1.703,2.17,1.703,3.818
		c0,1.044-0.275,1.9-0.824,2.568c-0.549,0.669-1.318,1.223-2.309,1.662v0.11c1.082,0.312,1.941,0.861,2.584,1.648
		c0.641,0.788,0.961,1.776,0.961,2.967c0,1.1-0.279,2.057-0.838,2.871c-0.559,0.815-1.332,1.438-2.322,1.868
		c-0.988,0.431-2.125,0.646-3.406,0.646C257.268,48.253,255.602,47.745,254.43,46.729z"/>
</g>
</svg>
