<svg width="18" height="18" viewBox="0 0 18 18" fill="none" xmlns="http://www.w3.org/2000/svg">
<path d="M8.90318 8.69598C10.0027 8.69598 10.9549 8.30162 11.7328 7.52354C12.5108 6.74558 12.9051 5.79371 12.9051 4.69403C12.9051 3.59472 12.5108 2.64272 11.7327 1.86451C10.9546 1.08669 10.0026 0.692322 8.90318 0.692322C7.8035 0.692322 6.85162 1.08669 6.07367 1.86464C5.29571 2.64259 4.90122 3.5946 4.90122 4.69403C4.90122 5.79371 5.29571 6.74571 6.07379 7.52367C6.85188 8.30149 7.80388 8.69598 8.90318 8.69598Z" fill="#C8CED2"/>
<path d="M15.9058 13.4686C15.8833 13.1449 15.838 12.7917 15.7711 12.4188C15.7037 12.043 15.6169 11.6878 15.5129 11.3632C15.4056 11.0277 15.2595 10.6963 15.079 10.3788C14.8917 10.0492 14.6716 9.76217 14.4247 9.52601C14.1664 9.27894 13.8503 9.0803 13.4847 8.93541C13.1204 8.79128 12.7166 8.71826 12.2847 8.71826C12.1151 8.71826 11.9511 8.78786 11.6343 8.9941C11.4393 9.12125 11.2113 9.26829 10.9568 9.43093C10.7391 9.56961 10.4442 9.69955 10.0801 9.81718C9.72473 9.93216 9.36396 9.99047 9.00788 9.99047C8.65179 9.99047 8.29115 9.93216 7.93545 9.81718C7.57163 9.69967 7.27678 9.56974 7.05938 9.43106C6.80724 9.26994 6.57907 9.1229 6.38119 8.99398C6.06478 8.78773 5.90062 8.71814 5.73101 8.71814C5.299 8.71814 4.89538 8.79128 4.53118 8.93554C4.16585 9.08018 3.84957 9.27882 3.5911 9.52613C3.34429 9.76242 3.1241 10.0493 2.93699 10.3788C2.75661 10.6963 2.61057 11.0275 2.50308 11.3633C2.39926 11.688 2.31242 12.043 2.24498 12.4188C2.17818 12.7912 2.1328 13.1445 2.11036 13.469C2.0883 13.7869 2.07715 14.1169 2.07715 14.4502C2.07715 15.3175 2.35286 16.0196 2.89655 16.5375C3.43353 17.0485 4.14405 17.3077 5.00807 17.3077H13.0084C13.8725 17.3077 14.5827 17.0486 15.1198 16.5375C15.6637 16.02 15.9394 15.3178 15.9394 14.45C15.9392 14.1153 15.928 13.785 15.9058 13.4686Z" fill="#C8CED2"/>
</svg>
