<svg width="18" height="18" viewBox="0 0 18 18" fill="none" xmlns="http://www.w3.org/2000/svg">
<path d="M0.915514 0.91052C0.772688 1.05015 0.692426 1.23953 0.692383 1.43702V9.63993C0.692383 10.0512 1.03334 10.3846 1.45392 10.3846H7.54623C7.96682 10.3846 8.30777 10.0512 8.30777 9.63993V1.4482C8.30777 1.03691 7.96682 0.703492 7.54623 0.703492L1.45392 0.692322C1.25197 0.692364 1.0583 0.770851 0.915514 0.91052Z" fill="#FA6400"/>
<path d="M16.6155 0.692322L11.077 0.701995C10.6947 0.701995 10.3847 1.01133 10.3847 1.39292V4.84755C10.3847 5.22914 10.6947 5.53848 11.077 5.53848H16.6155C16.9978 5.53848 17.3078 5.22914 17.3078 4.84755V1.38325C17.3078 1.00166 16.9978 0.692322 16.6155 0.692322Z" fill="#FA6400"/>
<path d="M8.08464 17.1055C8.22746 16.9757 8.30773 16.7996 8.30777 16.616V13.154C8.30777 12.7716 7.96682 12.4616 7.54623 12.4616H1.45392C1.03334 12.4616 0.692383 12.7716 0.692383 13.154V16.6056C0.692383 16.988 1.03334 17.298 1.45392 17.298L7.54623 17.3077C7.74808 17.3078 7.94173 17.2351 8.08464 17.1055Z" fill="#FA6400"/>
<path d="M16.6155 9.00001H11.077C10.6947 9.00001 10.3847 9.23844 10.3847 9.53256V15.3905C10.3847 15.6847 10.6947 15.9231 11.077 15.9231L16.6155 15.9156C16.9978 15.9156 17.3078 15.6772 17.3078 15.3831V9.53256C17.3078 9.23844 16.9978 9.00001 16.6155 9.00001Z" fill="#FA6400"/>
</svg>
