<svg width="24" height="24" viewBox="0 0 24 24" fill="none" xmlns="http://www.w3.org/2000/svg">
<path fill-rule="evenodd" clip-rule="evenodd" d="M21.0196 13.8186C21.1785 13.7761 21.3417 13.7545 21.5048 13.7545C22.3497 13.7545 23.0926 14.325 23.3117 15.1418C23.4411 15.6247 23.3747 16.129 23.1248 16.5619C22.8748 16.9948 22.4713 17.3044 21.9885 17.4337C21.8298 17.4763 21.6666 17.4979 21.5033 17.4979C20.6895 17.498 19.9702 16.9687 19.7229 16.1997L18.0287 15.5548C17.5542 16.3636 16.9344 17.0544 16.2119 17.6014L17.6232 19.752C17.7305 19.7256 17.8425 19.7113 17.9579 19.7113C18.7318 19.7113 19.3614 20.3409 19.3614 21.1148C19.3614 21.8887 18.7318 22.5182 17.9579 22.5182C17.1839 22.5182 16.5542 21.8887 16.5542 21.1148C16.5542 20.7959 16.6613 20.5017 16.8412 20.2658L15.4295 18.1145C14.3976 18.6967 13.2152 19.0175 11.9767 19.0175C10.8981 19.0175 9.83354 18.7688 8.87284 18.295L6.4822 21.6051C6.52706 21.767 6.54971 21.9344 6.54971 22.1052C6.54971 23.1371 5.71027 23.9766 4.67846 23.9766C3.64646 23.9766 2.80702 23.1371 2.80702 22.1052C2.80702 21.1045 3.59658 20.2847 4.5855 20.2361L6.9775 16.9242C6.32753 16.2639 5.8197 15.4852 5.47584 14.639L3.91551 15.1543C3.91298 15.2658 3.89726 15.3778 3.86756 15.4883C3.70344 16.1009 3.14625 16.5288 2.51247 16.5288C2.39004 16.5288 2.2676 16.5126 2.14854 16.4807C1.40108 16.2804 0.95593 15.5093 1.15621 14.7618C1.32033 14.1491 1.87752 13.7213 2.5113 13.7213C2.63373 13.7213 2.75616 13.7374 2.87513 13.7693C3.17558 13.8498 3.4349 14.0236 3.62166 14.2659L5.18222 13.7505C5.0357 13.1833 4.95902 12.5955 4.95902 12C4.95902 10.9213 5.20781 9.85684 5.6815 8.89623L2.37137 6.50545C2.20954 6.55036 2.0422 6.57301 1.87135 6.57301C0.839439 6.57301 0 5.73352 0 4.70161C0 3.66975 0.839439 2.83032 1.87135 2.83032C2.87209 2.83032 3.69188 3.61984 3.7404 4.60875L7.05221 7.0008C8.36042 5.71317 10.1321 4.98241 11.9766 4.98241C12.3023 4.98241 12.6245 5.00524 12.9418 5.04861L13.2754 3.44164C13.1801 3.38367 13.091 3.31401 13.0101 3.23312C12.745 2.96809 12.599 2.61563 12.599 2.24075C12.599 1.86582 12.745 1.51336 13.0102 1.24828C13.2752 0.983251 13.6276 0.83724 14.0025 0.83724C14.3774 0.83724 14.7298 0.983205 14.9949 1.24828C15.5421 1.79556 15.5421 2.68594 14.995 3.23312C14.7749 3.4531 14.4947 3.59074 14.1916 3.63135L13.8583 5.23733C14.561 5.432 15.2301 5.73586 15.8466 6.14498L18.4343 3.55733C18.3712 3.32136 18.3393 3.07794 18.3393 2.83032C18.3393 1.28257 19.5985 0.0233917 21.1463 0.0233917C22.6941 0.0233917 23.9533 1.28257 23.9533 2.83032C23.9533 4.37811 22.6941 5.63733 21.1463 5.63733C20.8986 5.63733 20.6552 5.60538 20.4191 5.54218L17.8315 8.12982C18.5934 9.27804 18.9942 10.6077 18.9942 12C18.9942 12.4606 18.9493 12.9193 18.8605 13.3686L20.5541 14.0133C20.6989 13.928 20.8546 13.8628 21.0196 13.8186ZM9.40336 7.54321C9.62731 7.41404 9.9133 7.49077 10.0424 7.71449C10.1716 7.93825 10.095 8.22438 9.87119 8.35355C8.96906 8.8743 8.29472 9.70672 7.97248 10.6975C7.90815 10.8951 7.72476 11.0207 7.52766 11.0207C7.47966 11.0207 7.43086 11.0132 7.38282 10.9976C7.13711 10.9177 7.0027 10.6537 7.08265 10.408C7.47653 9.19715 8.30076 8.17975 9.40336 7.54321ZM16.5698 13.0021C16.324 12.9221 16.0601 13.0567 15.9803 13.3024C15.6582 14.2929 14.984 15.1253 14.0816 15.6462C13.858 15.7753 13.7812 16.0615 13.9104 16.2852C13.9971 16.4353 14.1543 16.5193 14.316 16.5193C14.3954 16.5193 14.4758 16.499 14.5495 16.4565C15.6523 15.8198 16.4765 14.8024 16.8701 13.5916C16.9499 13.346 16.8156 13.082 16.5698 13.0021ZM10.7998 12.0233C10.7998 11.3616 11.3381 10.8233 11.9998 10.8233C12.6615 10.8233 13.1998 11.3616 13.1998 12.0233C13.1998 12.685 12.6615 13.2233 11.9998 13.2233C11.3381 13.2233 10.7998 12.685 10.7998 12.0233Z" fill="#6B68FC"/>
</svg>
