<svg width="28" height="26" viewBox="0 0 28 26" fill="none" xmlns="http://www.w3.org/2000/svg">
<path fill-rule="evenodd" clip-rule="evenodd" d="M23.5611 12.4444H26.8959C27.9849 9.96296 28.2911 7.59259 27.7126 5.44444C26.998 2.81482 24.616 0 21.111 0C20.1582 0 19.1713 0.185185 18.1845 0.592593C15.6663 1.59259 14.3392 2.74074 14.3392 2.74074C14.135 2.92593 13.8628 2.92593 13.6586 2.74074C13.6536 2.74074 13.6209 2.71611 13.5608 2.67092C13.211 2.40758 11.9336 1.44612 9.8133 0.592593C8.82646 0.222222 7.83961 0 6.8868 0C3.34776 0 0.999753 2.81482 0.285141 5.44444C-0.327384 7.77778 0.0469368 10.3704 1.4081 13.0741H6.81874L9.50704 7.33333C9.60913 7.11111 9.77928 7 10.0175 7C10.2217 7 10.4258 7.14815 10.4939 7.37037L13.9308 16.9259L17.0955 5.03704C17.1636 4.77778 17.4018 4.59259 17.64 4.59259C17.8782 4.62963 18.1164 4.77778 18.1845 5.03704L20.0561 11.6667L21.2131 9.81481C21.3152 9.62963 21.4853 9.55556 21.6895 9.55556C21.8937 9.55556 22.0638 9.66667 22.1659 9.85185L23.5611 12.4444ZM14.0164 25.9878C15.4814 24.9628 22.0783 20.3473 25.6709 14.6296C25.8751 14.2963 26.0792 13.963 26.2834 13.5926H23.2208C23.0166 13.5926 22.8465 13.4815 22.7444 13.2963L21.6214 11.2222L20.2943 13.3333C20.1582 13.5185 19.954 13.6296 19.7498 13.5926C19.5456 13.5556 19.3755 13.4074 19.3074 13.1852L17.64 7.2963L14.5093 18.963C14.4413 19.2222 14.2371 19.4074 13.9989 19.4074H13.9649C13.7607 19.4074 13.5225 19.2593 13.4544 19.037L9.88136 9.07407L7.60141 13.963C7.49932 14.1852 7.29515 14.2963 7.09097 14.2963H2.08869L2.29286 14.6296C5.93398 20.3333 12.5356 25 13.9989 26L14.0164 25.9878Z" fill="#56D61B"/>
</svg>
