<svg width="34" height="28" viewBox="0 0 34 28" fill="none" xmlns="http://www.w3.org/2000/svg">
<path fill-rule="evenodd" clip-rule="evenodd" d="M33.4183 13.4182H30.5418C31.7376 10.3636 31.6084 7.89091 31.1559 6.21818C30.3802 3.23636 27.7624 0 23.884 0C22.8498 0 21.8156 0.218182 20.749 0.654545C18.9068 1.41818 17.6787 2.25455 17.1293 2.69091C16.5798 2.25455 15.384 1.41818 13.5095 0.654545C12.443 0.218182 11.3764 0 10.3745 0C6.4962 0 3.87833 3.23636 3.10266 6.21818C2.65019 8 2.48859 10.6909 4.0076 14.0727H0.51711C0.226236 14.0727 0 14.3273 0 14.6545C0 14.9818 0.226236 15.2364 0.51711 15.2364H4.62167C4.78327 15.5636 4.97719 15.8909 5.20342 16.2182C8.56464 21.6727 15.8688 27.6 17.1939 27.9636V28C17.1939 28 17.2262 28 17.2586 27.9636H17.3555V27.9273C18.4867 27.3091 25.5 22.2182 29.1844 16.1818C29.5399 15.6364 29.8308 15.0909 30.0894 14.5455H33.4829C33.7738 14.5455 34 14.2909 34 13.9636C34 13.6364 33.7091 13.4182 33.4183 13.4182ZM28.2471 15.5636C24.8351 21.1773 18.5697 25.7089 17.1782 26.7153L17.1616 26.7273C15.7719 25.7455 9.5019 21.1636 6.04373 15.5636L5.84981 15.2364H10.6008C10.7947 15.2364 10.9886 15.1273 11.0856 14.9091L13.251 10.1091L16.6445 19.8909C16.7091 20.1091 16.9354 20.2545 17.1293 20.2545H17.1616C17.3878 20.2545 17.5817 20.0727 17.6464 19.8182L20.6198 8.36364L22.2034 14.1455C22.2681 14.3636 22.4297 14.5091 22.6236 14.5455C22.8175 14.5818 23.0114 14.4727 23.1407 14.2909L24.4011 12.2182L25.4677 14.2545C25.5646 14.4364 25.7262 14.5455 25.9202 14.5455H28.8289C28.635 14.9091 28.4411 15.2364 28.2471 15.5636ZM26.2433 13.4182H29.4106C30.4449 10.9818 30.7357 8.65455 30.1863 6.54545C29.5076 3.96364 27.2452 1.2 23.9163 1.2C23.0114 1.2 22.0741 1.38182 21.1369 1.78182C18.7452 2.76364 17.4848 3.89091 17.4848 3.89091C17.2909 4.07273 17.0323 4.07273 16.8384 3.89091C16.8337 3.89091 16.8026 3.86672 16.7456 3.82236C16.4133 3.56381 15.2001 2.61983 13.1863 1.78182C12.249 1.41818 11.3118 1.2 10.4068 1.2C7.04563 1.2 4.81559 3.96364 4.13688 6.54545C3.55513 8.83636 3.91065 11.3818 5.20342 14.0364H10.3422L12.8954 8.4C12.9924 8.18182 13.154 8.07273 13.3802 8.07273C13.5741 8.07273 13.7681 8.21818 13.8327 8.43636L17.097 17.8182L20.1027 6.14545C20.1673 5.89091 20.3935 5.70909 20.6198 5.70909C20.846 5.74545 21.0722 5.89091 21.1369 6.14545L22.9144 12.6545L24.0133 10.8364C24.1103 10.6545 24.2719 10.5818 24.4658 10.5818C24.6597 10.5818 24.8213 10.6909 24.9183 10.8727L26.2433 13.4182Z" fill="#30C3D7"/>
</svg>
