<svg width="111" height="39" viewBox="0 0 111 39" fill="none" xmlns="http://www.w3.org/2000/svg">
<g clip-path="url(#clip0)">
<path fill-rule="evenodd" clip-rule="evenodd" d="M54.017 22.2581L53.8833 24.0964C53.5599 24.1407 53.237 24.1632 52.914 24.1632C51.666 24.1632 50.7552 23.8904 50.1816 23.3444C49.6075 22.7987 49.3209 21.9685 49.3209 20.8543V17.7124H47.7667V15.8239H49.3209V13.4174H51.8445V15.8239H53.9V17.7124H51.8445V20.8375C51.8445 21.8181 52.3011 22.3082 53.2148 22.3082C53.471 22.3082 53.7383 22.2915 54.017 22.2581Z" fill="white"/>
<path fill-rule="evenodd" clip-rule="evenodd" d="M54.017 22.2581L53.8833 24.0964C53.5599 24.1407 53.237 24.1632 52.914 24.1632C51.666 24.1632 50.7552 23.8904 50.1816 23.3444C49.6075 22.7987 49.3209 21.9685 49.3209 20.8543V17.7124H47.7667V15.8239H49.3209V13.4174H51.8445V15.8239H53.9V17.7124H51.8445V20.8375C51.8445 21.8181 52.3011 22.3082 53.2148 22.3082C53.471 22.3082 53.7383 22.2915 54.017 22.2581Z" fill="url(#paint0_linear)"/>
<path fill-rule="evenodd" clip-rule="evenodd" d="M61.0026 17.6957L59.5821 17.8461C58.8802 17.9129 58.3838 18.111 58.0947 18.4394C57.8047 18.7682 57.6602 19.2056 57.6602 19.7513V24.0295H55.1367V15.8239H57.5599V17.211C57.9719 16.2643 58.8242 15.7462 60.1169 15.6568L60.8522 15.6067L61.0026 17.6957Z" fill="white"/>
<path fill-rule="evenodd" clip-rule="evenodd" d="M61.0026 17.6957L59.5821 17.8461C58.8802 17.9129 58.3838 18.111 58.0947 18.4394C57.8047 18.7682 57.6602 19.2056 57.6602 19.7513V24.0295H55.1367V15.8239H57.5599V17.211C57.9719 16.2643 58.8242 15.7462 60.1169 15.6568L60.8522 15.6067L61.0026 17.6957Z" fill="url(#paint1_linear)"/>
<path fill-rule="evenodd" clip-rule="evenodd" d="M66.2166 21.9321C66.5174 21.6037 66.6678 21.1775 66.6678 20.6536V20.3699H66.3837C65.4812 20.3699 64.8491 20.4422 64.4869 20.5867C64.1246 20.7317 63.9441 20.9937 63.9441 21.3722C63.9441 21.673 64.0469 21.9237 64.2529 22.1242C64.4589 22.3248 64.7179 22.4255 65.03 22.4255C65.5201 22.4255 65.9157 22.2609 66.2166 21.9321ZM68.1969 16.4923C68.7823 17.0718 69.0743 17.9688 69.0743 19.1829V24.0298H66.6845V22.8099C66.5174 23.2331 66.2391 23.5644 65.8489 23.8038C65.4591 24.0436 65.0024 24.1631 64.4785 24.1631C63.9216 24.1631 63.4173 24.0516 62.9661 23.8289C62.5152 23.6062 62.158 23.2945 61.8965 22.893C61.6345 22.4919 61.5037 22.0465 61.5037 21.5565C61.5037 20.9544 61.6571 20.481 61.9633 20.1355C62.27 19.7904 62.7626 19.5397 63.4423 19.3835C64.1217 19.2276 65.0521 19.1495 66.2333 19.1495H66.6678V18.8491C66.6678 18.3586 66.5617 18.0135 66.3503 17.8129C66.1384 17.6124 65.7712 17.5117 65.2477 17.5117C64.8462 17.5117 64.4004 17.5844 63.9103 17.729C63.4202 17.8744 62.9523 18.0749 62.5065 18.3306L61.8384 16.6427C62.3064 16.3531 62.8829 16.1108 63.5677 15.9161C64.2529 15.721 64.8905 15.6232 65.4812 15.6232C66.7066 15.6232 67.612 15.9132 68.1969 16.4923Z" fill="white"/>
<path fill-rule="evenodd" clip-rule="evenodd" d="M66.2166 21.9321C66.5174 21.6037 66.6678 21.1775 66.6678 20.6536V20.3699H66.3837C65.4812 20.3699 64.8491 20.4422 64.4869 20.5867C64.1246 20.7317 63.9441 20.9937 63.9441 21.3722C63.9441 21.673 64.0469 21.9237 64.2529 22.1242C64.4589 22.3248 64.7179 22.4255 65.03 22.4255C65.5201 22.4255 65.9157 22.2609 66.2166 21.9321ZM68.1969 16.4923C68.7823 17.0718 69.0743 17.9688 69.0743 19.1829V24.0298H66.6845V22.8099C66.5174 23.2331 66.2391 23.5644 65.8489 23.8038C65.4591 24.0436 65.0024 24.1631 64.4785 24.1631C63.9216 24.1631 63.4173 24.0516 62.9661 23.8289C62.5152 23.6062 62.158 23.2945 61.8965 22.893C61.6345 22.4919 61.5037 22.0465 61.5037 21.5565C61.5037 20.9544 61.6571 20.481 61.9633 20.1355C62.27 19.7904 62.7626 19.5397 63.4423 19.3835C64.1217 19.2276 65.0521 19.1495 66.2333 19.1495H66.6678V18.8491C66.6678 18.3586 66.5617 18.0135 66.3503 17.8129C66.1384 17.6124 65.7712 17.5117 65.2477 17.5117C64.8462 17.5117 64.4004 17.5844 63.9103 17.729C63.4202 17.8744 62.9523 18.0749 62.5065 18.3306L61.8384 16.6427C62.3064 16.3531 62.8829 16.1108 63.5677 15.9161C64.2529 15.721 64.8905 15.6232 65.4812 15.6232C66.7066 15.6232 67.612 15.9132 68.1969 16.4923Z" fill="url(#paint2_linear)"/>
<path fill-rule="evenodd" clip-rule="evenodd" d="M71.7145 23.0267C70.9457 22.2697 70.5613 21.2385 70.5613 19.9354C70.5613 19.0773 70.7452 18.3223 71.1128 17.6705C71.4801 17.0192 71.9986 16.5149 72.6671 16.1585C73.3355 15.8017 74.1097 15.6233 74.99 15.6233C75.5917 15.6233 76.1707 15.7152 76.7281 15.899C77.285 16.0829 77.7362 16.331 78.0818 16.6427L77.4133 18.3641C77.0899 18.108 76.7364 17.9103 76.3521 17.7708C75.9677 17.6317 75.5917 17.5619 75.2236 17.5619C74.5664 17.5619 74.0567 17.757 73.6948 18.1468C73.3326 18.537 73.1513 19.1165 73.1513 19.8849C73.1513 20.6536 73.3326 21.236 73.6948 21.6313C74.0567 22.0269 74.5664 22.2246 75.2236 22.2246C75.5917 22.2246 75.9677 22.1552 76.3521 22.0157C76.7364 21.8765 77.0899 21.6785 77.4133 21.4224L78.0818 23.1604C77.7141 23.4725 77.2462 23.7178 76.6779 23.8958C76.1097 24.0742 75.5081 24.1632 74.873 24.1632C73.5361 24.1632 72.4832 23.7842 71.7145 23.0267Z" fill="white"/>
<path fill-rule="evenodd" clip-rule="evenodd" d="M71.7145 23.0267C70.9457 22.2697 70.5613 21.2385 70.5613 19.9354C70.5613 19.0773 70.7452 18.3223 71.1128 17.6705C71.4801 17.0192 71.9986 16.5149 72.6671 16.1585C73.3355 15.8017 74.1097 15.6233 74.99 15.6233C75.5917 15.6233 76.1707 15.7152 76.7281 15.899C77.285 16.0829 77.7362 16.331 78.0818 16.6427L77.4133 18.3641C77.0899 18.108 76.7364 17.9103 76.3521 17.7708C75.9677 17.6317 75.5917 17.5619 75.2236 17.5619C74.5664 17.5619 74.0567 17.757 73.6948 18.1468C73.3326 18.537 73.1513 19.1165 73.1513 19.8849C73.1513 20.6536 73.3326 21.236 73.6948 21.6313C74.0567 22.0269 74.5664 22.2246 75.2236 22.2246C75.5917 22.2246 75.9677 22.1552 76.3521 22.0157C76.7364 21.8765 77.0899 21.6785 77.4133 21.4224L78.0818 23.1604C77.7141 23.4725 77.2462 23.7178 76.6779 23.8958C76.1097 24.0742 75.5081 24.1632 74.873 24.1632C73.5361 24.1632 72.4832 23.7842 71.7145 23.0267Z" fill="url(#paint3_linear)"/>
<path fill-rule="evenodd" clip-rule="evenodd" d="M85.0005 19.8851C85.0005 19.0942 84.8418 18.5038 84.5238 18.1136C84.2067 17.7238 83.7526 17.5287 83.1622 17.5287C81.9364 17.5287 81.3239 18.3141 81.3239 19.8851C81.3239 21.456 81.9364 22.2415 83.1622 22.2415C84.3876 22.2415 85.0005 21.456 85.0005 19.8851ZM80.8726 23.6365C80.215 23.286 79.7082 22.7901 79.3514 22.1496C78.995 21.5091 78.8171 20.7541 78.8171 19.8851C78.8171 19.016 78.995 18.2615 79.3514 17.6206C79.7082 16.9801 80.215 16.4871 80.8726 16.1416C81.5298 15.7965 82.2932 15.6235 83.1622 15.6235C84.0312 15.6235 84.7941 15.7965 85.4518 16.1416C86.109 16.4871 86.6158 16.9801 86.9726 17.6206C87.3289 18.2615 87.5073 19.016 87.5073 19.8851C87.5073 20.7541 87.3289 21.5091 86.9726 22.1496C86.6158 22.7901 86.109 23.286 85.4518 23.6365C84.7941 23.9875 84.0312 24.163 83.1622 24.163C82.2932 24.163 81.5298 23.9875 80.8726 23.6365Z" fill="white"/>
<path fill-rule="evenodd" clip-rule="evenodd" d="M85.0005 19.8851C85.0005 19.0942 84.8418 18.5038 84.5238 18.1136C84.2067 17.7238 83.7526 17.5287 83.1622 17.5287C81.9364 17.5287 81.3239 18.3141 81.3239 19.8851C81.3239 21.456 81.9364 22.2415 83.1622 22.2415C84.3876 22.2415 85.0005 21.456 85.0005 19.8851ZM80.8726 23.6365C80.215 23.286 79.7082 22.7901 79.3514 22.1496C78.995 21.5091 78.8171 20.7541 78.8171 19.8851C78.8171 19.016 78.995 18.2615 79.3514 17.6206C79.7082 16.9801 80.215 16.4871 80.8726 16.1416C81.5298 15.7965 82.2932 15.6235 83.1622 15.6235C84.0312 15.6235 84.7941 15.7965 85.4518 16.1416C86.109 16.4871 86.6158 16.9801 86.9726 17.6206C87.3289 18.2615 87.5073 19.016 87.5073 19.8851C87.5073 20.7541 87.3289 21.5091 86.9726 22.1496C86.6158 22.7901 86.109 23.286 85.4518 23.6365C84.7941 23.9875 84.0312 24.163 83.1622 24.163C82.2932 24.163 81.5298 23.9875 80.8726 23.6365Z" fill="url(#paint4_linear)"/>
<path fill-rule="evenodd" clip-rule="evenodd" d="M94.5598 15.8407H97.0331L93.4233 24.0296H91.2842L87.7245 15.8407H90.3483L92.4206 21.0548L94.5598 15.8407Z" fill="white"/>
<path fill-rule="evenodd" clip-rule="evenodd" d="M94.5598 15.8407H97.0331L93.4233 24.0296H91.2842L87.7245 15.8407H90.3483L92.4206 21.0548L94.5598 15.8407Z" fill="url(#paint5_linear)"/>
<path fill-rule="evenodd" clip-rule="evenodd" d="M97.8024 24.0297H100.326V15.824H97.8024V24.0297ZM97.7184 14.2364H100.425V11.88H97.7184V14.2364Z" fill="white"/>
<path fill-rule="evenodd" clip-rule="evenodd" d="M97.8024 24.0297H100.326V15.824H97.8024V24.0297ZM97.7184 14.2364H100.425V11.88H97.7184V14.2364Z" fill="url(#paint6_linear)"/>
<path fill-rule="evenodd" clip-rule="evenodd" d="M107.587 21.6314C107.905 21.2248 108.063 20.6428 108.063 19.885C108.063 19.1275 107.905 18.548 107.587 18.1469C107.269 17.7458 106.815 17.5453 106.225 17.5453C105.634 17.5453 105.177 17.7433 104.854 18.1385C104.531 18.5342 104.37 19.1053 104.37 19.8515C104.37 20.6094 104.531 21.1968 104.854 21.6147C105.177 22.0325 105.634 22.2414 106.225 22.2414C106.815 22.2414 107.269 22.0383 107.587 21.6314ZM110.57 12.2475V24.0295H108.063V22.8096C107.818 23.2332 107.47 23.5645 107.019 23.8039C106.568 24.0433 106.058 24.1632 105.489 24.1632C104.788 24.1632 104.161 23.9823 103.609 23.6201C103.058 23.2583 102.629 22.7511 102.322 22.0993C102.016 21.4475 101.863 20.6984 101.863 19.8515C101.863 19.0051 102.016 18.2614 102.322 17.6205C102.629 16.98 103.055 16.487 103.601 16.1414C104.147 15.7963 104.776 15.6234 105.489 15.6234C106.046 15.6234 106.551 15.7404 107.002 15.9743C107.453 16.2083 107.801 16.5371 108.047 16.9603V12.2475H110.57Z" fill="white"/>
<path fill-rule="evenodd" clip-rule="evenodd" d="M107.587 21.6314C107.905 21.2248 108.063 20.6428 108.063 19.885C108.063 19.1275 107.905 18.548 107.587 18.1469C107.269 17.7458 106.815 17.5453 106.225 17.5453C105.634 17.5453 105.177 17.7433 104.854 18.1385C104.531 18.5342 104.37 19.1053 104.37 19.8515C104.37 20.6094 104.531 21.1968 104.854 21.6147C105.177 22.0325 105.634 22.2414 106.225 22.2414C106.815 22.2414 107.269 22.0383 107.587 21.6314ZM110.57 12.2475V24.0295H108.063V22.8096C107.818 23.2332 107.47 23.5645 107.019 23.8039C106.568 24.0433 106.058 24.1632 105.489 24.1632C104.788 24.1632 104.161 23.9823 103.609 23.6201C103.058 23.2583 102.629 22.7511 102.322 22.0993C102.016 21.4475 101.863 20.6984 101.863 19.8515C101.863 19.0051 102.016 18.2614 102.322 17.6205C102.629 16.98 103.055 16.487 103.601 16.1414C104.147 15.7963 104.776 15.6234 105.489 15.6234C106.046 15.6234 106.551 15.7404 107.002 15.9743C107.453 16.2083 107.801 16.5371 108.047 16.9603V12.2475H110.57Z" fill="url(#paint7_linear)"/>
<path fill-rule="evenodd" clip-rule="evenodd" d="M18.8233 24.8885C19.5967 24.8885 20.2238 24.2614 20.2238 23.488C20.2238 22.7147 19.5967 22.0876 18.8233 22.0876C18.0496 22.0876 17.4229 22.7147 17.4229 23.488C17.4229 24.2614 18.0496 24.8885 18.8233 24.8885Z" fill="white"/>
<path fill-rule="evenodd" clip-rule="evenodd" d="M18.8233 24.8885C19.5967 24.8885 20.2238 24.2614 20.2238 23.488C20.2238 22.7147 19.5967 22.0876 18.8233 22.0876C18.0496 22.0876 17.4229 22.7147 17.4229 23.488C17.4229 24.2614 18.0496 24.8885 18.8233 24.8885Z" fill="url(#paint8_linear)"/>
<path fill-rule="evenodd" clip-rule="evenodd" d="M16.6029 29.5524C16.6029 30.4678 17.5969 31.2103 18.8231 31.2103C20.0494 31.2103 21.0437 30.4678 21.0437 29.5524C21.0437 28.6374 20.0494 27.895 18.8231 27.895C17.5969 27.895 16.6029 28.6374 16.6029 29.5524Z" fill="white"/>
<path fill-rule="evenodd" clip-rule="evenodd" d="M16.6029 29.5524C16.6029 30.4678 17.5969 31.2103 18.8231 31.2103C20.0494 31.2103 21.0437 30.4678 21.0437 29.5524C21.0437 28.6374 20.0494 27.895 18.8231 27.895C17.5969 27.895 16.6029 28.6374 16.6029 29.5524Z" fill="url(#paint9_linear)"/>
<path fill-rule="evenodd" clip-rule="evenodd" d="M18.8233 33.5212C16.9186 33.5212 15.3748 34.4449 15.3748 35.5839C15.3748 36.7236 16.9186 37.647 18.8233 37.647C20.7277 37.647 22.2715 36.7236 22.2715 35.5839C22.2715 34.4449 20.7277 33.5212 18.8233 33.5212Z" fill="white"/>
<path fill-rule="evenodd" clip-rule="evenodd" d="M18.8233 33.5212C16.9186 33.5212 15.3748 34.4449 15.3748 35.5839C15.3748 36.7236 16.9186 37.647 18.8233 37.647C20.7277 37.647 22.2715 36.7236 22.2715 35.5839C22.2715 34.4449 20.7277 33.5212 18.8233 33.5212Z" fill="url(#paint10_linear)"/>
<path fill-rule="evenodd" clip-rule="evenodd" d="M18.8233 15.5597C19.5967 15.5597 20.2238 14.933 20.2238 14.1593C20.2238 13.3859 19.5967 12.7592 18.8233 12.7592C18.0496 12.7592 17.4229 13.3859 17.4229 14.1593C17.4229 14.933 18.0496 15.5597 18.8233 15.5597Z" fill="white"/>
<path fill-rule="evenodd" clip-rule="evenodd" d="M18.8233 15.5597C19.5967 15.5597 20.2238 14.933 20.2238 14.1593C20.2238 13.3859 19.5967 12.7592 18.8233 12.7592C18.0496 12.7592 17.4229 13.3859 17.4229 14.1593C17.4229 14.933 18.0496 15.5597 18.8233 15.5597Z" fill="url(#paint11_linear)"/>
<path fill-rule="evenodd" clip-rule="evenodd" d="M18.8233 20.2241C19.5967 20.2241 20.2238 19.597 20.2238 18.8237C20.2238 18.0503 19.5967 17.4232 18.8233 17.4232C18.0496 17.4232 17.4229 18.0503 17.4229 18.8237C17.4229 19.597 18.0496 20.2241 18.8233 20.2241Z" fill="white"/>
<path fill-rule="evenodd" clip-rule="evenodd" d="M18.8233 20.2241C19.5967 20.2241 20.2238 19.597 20.2238 18.8237C20.2238 18.0503 19.5967 17.4232 18.8233 17.4232C18.0496 17.4232 17.4229 18.0503 17.4229 18.8237C17.4229 19.597 18.0496 20.2241 18.8233 20.2241Z" fill="url(#paint12_linear)"/>
<path fill-rule="evenodd" clip-rule="evenodd" d="M18.8233 6.43744C17.5967 6.43744 16.6031 7.17946 16.6031 8.09486C16.6031 9.01027 17.5967 9.75229 18.8233 9.75229C20.0496 9.75229 21.0435 9.01027 21.0435 8.09486C21.0435 7.17946 20.0496 6.43744 18.8233 6.43744Z" fill="white"/>
<path fill-rule="evenodd" clip-rule="evenodd" d="M18.8233 6.43744C17.5967 6.43744 16.6031 7.17946 16.6031 8.09486C16.6031 9.01027 17.5967 9.75229 18.8233 9.75229C20.0496 9.75229 21.0435 9.01027 21.0435 8.09486C21.0435 7.17946 20.0496 6.43744 18.8233 6.43744Z" fill="url(#paint13_linear)"/>
<path fill-rule="evenodd" clip-rule="evenodd" d="M18.8233 4.12629C20.7277 4.12629 22.2715 3.20252 22.2715 2.0636C22.2715 0.923831 20.7277 0.000488281 18.8233 0.000488281C16.9186 0.000488281 15.3748 0.923831 15.3748 2.0636C15.3748 3.20252 16.9186 4.12629 18.8233 4.12629Z" fill="white"/>
<path fill-rule="evenodd" clip-rule="evenodd" d="M18.8233 4.12629C20.7277 4.12629 22.2715 3.20252 22.2715 2.0636C22.2715 0.923831 20.7277 0.000488281 18.8233 0.000488281C16.9186 0.000488281 15.3748 0.923831 15.3748 2.0636C15.3748 3.20252 16.9186 4.12629 18.8233 4.12629Z" fill="url(#paint14_linear)"/>
<path fill-rule="evenodd" clip-rule="evenodd" d="M14.1589 17.4233C13.3852 17.4233 12.7585 18.05 12.7585 18.8238C12.7585 19.5972 13.3852 20.2243 14.1589 20.2243C14.9323 20.2243 15.5594 19.5972 15.5594 18.8238C15.5594 18.05 14.9323 17.4233 14.1589 17.4233Z" fill="white"/>
<path fill-rule="evenodd" clip-rule="evenodd" d="M14.1589 17.4233C13.3852 17.4233 12.7585 18.05 12.7585 18.8238C12.7585 19.5972 13.3852 20.2243 14.1589 20.2243C14.9323 20.2243 15.5594 19.5972 15.5594 18.8238C15.5594 18.05 14.9323 17.4233 14.1589 17.4233Z" fill="url(#paint15_linear)"/>
<path fill-rule="evenodd" clip-rule="evenodd" d="M8.09429 16.6032C7.17931 16.6032 6.43687 17.5972 6.43687 18.8234C6.43687 20.0501 7.17931 21.0441 8.09429 21.0441C9.00928 21.0441 9.75171 20.0501 9.75171 18.8234C9.75171 17.5972 9.00928 16.6032 8.09429 16.6032Z" fill="white"/>
<path fill-rule="evenodd" clip-rule="evenodd" d="M8.09429 16.6032C7.17931 16.6032 6.43687 17.5972 6.43687 18.8234C6.43687 20.0501 7.17931 21.0441 8.09429 21.0441C9.00928 21.0441 9.75171 20.0501 9.75171 18.8234C9.75171 17.5972 9.00928 16.6032 8.09429 16.6032Z" fill="url(#paint16_linear)"/>
<path fill-rule="evenodd" clip-rule="evenodd" d="M2.06269 15.3753C0.923343 15.3753 0 16.9191 0 18.8234C0 20.7282 0.923343 22.272 2.06269 22.272C3.20245 22.272 4.1258 20.7282 4.1258 18.8234C4.1258 16.9191 3.20245 15.3753 2.06269 15.3753Z" fill="white"/>
<path fill-rule="evenodd" clip-rule="evenodd" d="M2.06269 15.3753C0.923343 15.3753 0 16.9191 0 18.8234C0 20.7282 0.923343 22.272 2.06269 22.272C3.20245 22.272 4.1258 20.7282 4.1258 18.8234C4.1258 16.9191 3.20245 15.3753 2.06269 15.3753Z" fill="url(#paint17_linear)"/>
<path fill-rule="evenodd" clip-rule="evenodd" d="M24.888 18.8236C24.888 18.0503 24.2609 17.4231 23.4875 17.4231C22.7142 17.4231 22.087 18.0503 22.087 18.8236C22.087 19.597 22.7142 20.2241 23.4875 20.2241C24.2609 20.2241 24.888 19.597 24.888 18.8236Z" fill="white"/>
<path fill-rule="evenodd" clip-rule="evenodd" d="M24.888 18.8236C24.888 18.0503 24.2609 17.4231 23.4875 17.4231C22.7142 17.4231 22.087 18.0503 22.087 18.8236C22.087 19.597 22.7142 20.2241 23.4875 20.2241C24.2609 20.2241 24.888 19.597 24.888 18.8236Z" fill="url(#paint18_linear)"/>
<path fill-rule="evenodd" clip-rule="evenodd" d="M29.5519 21.0442C30.4674 21.0442 31.2098 20.0499 31.2098 18.8236C31.2098 17.5974 30.4674 16.6034 29.5519 16.6034C28.637 16.6034 27.8945 17.5974 27.8945 18.8236C27.8945 20.0499 28.637 21.0442 29.5519 21.0442Z" fill="white"/>
<path fill-rule="evenodd" clip-rule="evenodd" d="M29.5519 21.0442C30.4674 21.0442 31.2098 20.0499 31.2098 18.8236C31.2098 17.5974 30.4674 16.6034 29.5519 16.6034C28.637 16.6034 27.8945 17.5974 27.8945 18.8236C27.8945 20.0499 28.637 21.0442 29.5519 21.0442Z" fill="url(#paint19_linear)"/>
<path fill-rule="evenodd" clip-rule="evenodd" d="M35.5835 15.3753C34.4442 15.3753 33.5209 16.9191 33.5209 18.8234C33.5209 20.7282 34.4442 22.272 35.5835 22.272C36.7233 22.272 37.6462 20.7282 37.6462 18.8234C37.6462 16.9191 36.7233 15.3753 35.5835 15.3753Z" fill="white"/>
<path fill-rule="evenodd" clip-rule="evenodd" d="M35.5835 15.3753C34.4442 15.3753 33.5209 16.9191 33.5209 18.8234C33.5209 20.7282 34.4442 22.272 35.5835 22.272C36.7233 22.272 37.6462 20.7282 37.6462 18.8234C37.6462 16.9191 36.7233 15.3753 35.5835 15.3753Z" fill="url(#paint20_linear)"/>
<path fill-rule="evenodd" clip-rule="evenodd" d="M9.66677 12.8073C10.3139 13.4545 11.5415 13.2765 12.4084 12.4091C13.2758 11.5422 13.4537 10.3143 12.807 9.6671C12.1598 9.01992 10.9319 9.1979 10.0645 10.0653C9.19758 10.9322 9.01918 12.1601 9.66677 12.8073Z" fill="white"/>
<path fill-rule="evenodd" clip-rule="evenodd" d="M9.66677 12.8073C10.3139 13.4545 11.5415 13.2765 12.4084 12.4091C13.2758 11.5422 13.4537 10.3143 12.807 9.6671C12.1598 9.01992 10.9319 9.1979 10.0645 10.0653C9.19758 10.9322 9.01918 12.1601 9.66677 12.8073Z" fill="url(#paint21_linear)"/>
<path fill-rule="evenodd" clip-rule="evenodd" d="M8.4305 8.43099C9.77749 7.08441 10.2158 5.33967 9.41024 4.53373C8.60472 3.7282 6.85956 4.1669 5.5134 5.51347C4.16641 6.86005 3.72772 8.60521 4.53366 9.41073C5.33918 10.2163 7.08392 9.77756 8.4305 8.43099Z" fill="white"/>
<path fill-rule="evenodd" clip-rule="evenodd" d="M8.4305 8.43099C9.77749 7.08441 10.2158 5.33967 9.41024 4.53373C8.60472 3.7282 6.85956 4.1669 5.5134 5.51347C4.16641 6.86005 3.72772 8.60521 4.53366 9.41073C5.33918 10.2163 7.08392 9.77756 8.4305 8.43099Z" fill="url(#paint22_linear)"/>
<path fill-rule="evenodd" clip-rule="evenodd" d="M27.9799 24.8399C27.3323 24.1927 26.1052 24.3711 25.2378 25.2381C24.3705 26.1054 24.1925 27.3329 24.8393 27.9805C25.4869 28.6273 26.7148 28.4493 27.5817 27.582C28.4487 26.715 28.6271 25.4875 27.9799 24.8399Z" fill="white"/>
<path fill-rule="evenodd" clip-rule="evenodd" d="M27.9799 24.8399C27.3323 24.1927 26.1052 24.3711 25.2378 25.2381C24.3705 26.1054 24.1925 27.3329 24.8393 27.9805C25.4869 28.6273 26.7148 28.4493 27.5817 27.582C28.4487 26.715 28.6271 25.4875 27.9799 24.8399Z" fill="url(#paint23_linear)"/>
<path fill-rule="evenodd" clip-rule="evenodd" d="M29.2157 29.2163C27.8692 30.5633 27.4309 32.3076 28.236 33.1135C29.0419 33.9191 30.7867 33.4804 32.1333 32.1338C33.4798 30.7872 33.9185 29.0425 33.113 28.2365C32.3071 27.4314 30.5627 27.8697 29.2157 29.2163Z" fill="white"/>
<path fill-rule="evenodd" clip-rule="evenodd" d="M29.2157 29.2163C27.8692 30.5633 27.4309 32.3076 28.236 33.1135C29.0419 33.9191 30.7867 33.4804 32.1333 32.1338C33.4798 30.7872 33.9185 29.0425 33.113 28.2365C32.3071 27.4314 30.5627 27.8697 29.2157 29.2163Z" fill="url(#paint24_linear)"/>
<path fill-rule="evenodd" clip-rule="evenodd" d="M27.9799 12.8073C28.6271 12.1601 28.4487 10.9322 27.5817 10.0653C26.7148 9.1979 25.4869 9.01992 24.8393 9.6671C24.1925 10.3143 24.3705 11.5422 25.2378 12.4091C26.1052 13.2765 27.3323 13.4545 27.9799 12.8073Z" fill="white"/>
<path fill-rule="evenodd" clip-rule="evenodd" d="M27.9799 12.8073C28.6271 12.1601 28.4487 10.9322 27.5817 10.0653C26.7148 9.1979 25.4869 9.01992 24.8393 9.6671C24.1925 10.3143 24.3705 11.5422 25.2378 12.4091C26.1052 13.2765 27.3323 13.4545 27.9799 12.8073Z" fill="url(#paint25_linear)"/>
<path fill-rule="evenodd" clip-rule="evenodd" d="M28.2361 4.53389C27.4306 5.33942 27.8693 7.08416 29.2159 8.43115C30.5624 9.77773 32.3072 10.2164 33.1131 9.41048C33.9186 8.60496 33.48 6.86022 32.1334 5.51364C30.7864 4.16706 29.0421 3.72837 28.2361 4.53389Z" fill="white"/>
<path fill-rule="evenodd" clip-rule="evenodd" d="M28.2361 4.53389C27.4306 5.33942 27.8693 7.08416 29.2159 8.43115C30.5624 9.77773 32.3072 10.2164 33.1131 9.41048C33.9186 8.60496 33.48 6.86022 32.1334 5.51364C30.7864 4.16706 29.0421 3.72837 28.2361 4.53389Z" fill="url(#paint26_linear)"/>
<path fill-rule="evenodd" clip-rule="evenodd" d="M9.66677 24.8399C9.01918 25.4875 9.19758 26.715 10.0645 27.582C10.9319 28.4493 12.1598 28.6273 12.807 27.9805C13.4537 27.3329 13.2758 26.1054 12.4084 25.2381C11.5415 24.3711 10.3139 24.1927 9.66677 24.8399Z" fill="white"/>
<path fill-rule="evenodd" clip-rule="evenodd" d="M9.66677 24.8399C9.01918 25.4875 9.19758 26.715 10.0645 27.582C10.9319 28.4493 12.1598 28.6273 12.807 27.9805C13.4537 27.3329 13.2758 26.1054 12.4084 25.2381C11.5415 24.3711 10.3139 24.1927 9.66677 24.8399Z" fill="url(#paint27_linear)"/>
<path fill-rule="evenodd" clip-rule="evenodd" d="M4.53357 28.2366C3.72763 29.0426 4.16632 30.7869 5.51332 32.1339C6.85948 33.4804 8.60464 33.9191 9.41016 33.1136C10.2161 32.3077 9.77741 30.5629 8.43041 29.2164C7.08384 27.8698 5.33909 27.4311 4.53357 28.2366Z" fill="white"/>
<path fill-rule="evenodd" clip-rule="evenodd" d="M4.53357 28.2366C3.72763 29.0426 4.16632 30.7869 5.51332 32.1339C6.85948 33.4804 8.60464 33.9191 9.41016 33.1136C10.2161 32.3077 9.77741 30.5629 8.43041 29.2164C7.08384 27.8698 5.33909 27.4311 4.53357 28.2366Z" fill="url(#paint28_linear)"/>
</g>
<defs>
<linearGradient id="paint0_linear" x1="-16.4118" y1="21.5075" x2="2.83925" y2="67.5142" gradientUnits="userSpaceOnUse">
<stop stop-color="#FA6400"/>
<stop offset="1" stop-color="#6B68FC"/>
</linearGradient>
<linearGradient id="paint1_linear" x1="-16.4118" y1="21.5075" x2="2.83925" y2="67.5142" gradientUnits="userSpaceOnUse">
<stop stop-color="#FA6400"/>
<stop offset="1" stop-color="#6B68FC"/>
</linearGradient>
<linearGradient id="paint2_linear" x1="-16.4118" y1="21.5075" x2="2.83925" y2="67.5142" gradientUnits="userSpaceOnUse">
<stop stop-color="#FA6400"/>
<stop offset="1" stop-color="#6B68FC"/>
</linearGradient>
<linearGradient id="paint3_linear" x1="-16.4118" y1="21.5075" x2="2.83925" y2="67.5142" gradientUnits="userSpaceOnUse">
<stop stop-color="#FA6400"/>
<stop offset="1" stop-color="#6B68FC"/>
</linearGradient>
<linearGradient id="paint4_linear" x1="-16.4118" y1="21.5075" x2="2.83925" y2="67.5142" gradientUnits="userSpaceOnUse">
<stop stop-color="#FA6400"/>
<stop offset="1" stop-color="#6B68FC"/>
</linearGradient>
<linearGradient id="paint5_linear" x1="-16.4118" y1="21.5075" x2="2.83925" y2="67.5142" gradientUnits="userSpaceOnUse">
<stop stop-color="#FA6400"/>
<stop offset="1" stop-color="#6B68FC"/>
</linearGradient>
<linearGradient id="paint6_linear" x1="-16.4118" y1="21.5075" x2="2.83925" y2="67.5142" gradientUnits="userSpaceOnUse">
<stop stop-color="#FA6400"/>
<stop offset="1" stop-color="#6B68FC"/>
</linearGradient>
<linearGradient id="paint7_linear" x1="-16.4118" y1="21.5075" x2="2.83925" y2="67.5142" gradientUnits="userSpaceOnUse">
<stop stop-color="#FA6400"/>
<stop offset="1" stop-color="#6B68FC"/>
</linearGradient>
<linearGradient id="paint8_linear" x1="-16.4118" y1="21.5075" x2="2.83925" y2="67.5142" gradientUnits="userSpaceOnUse">
<stop stop-color="#FA6400"/>
<stop offset="1" stop-color="#6B68FC"/>
</linearGradient>
<linearGradient id="paint9_linear" x1="-16.4118" y1="21.5075" x2="2.83925" y2="67.5142" gradientUnits="userSpaceOnUse">
<stop stop-color="#FA6400"/>
<stop offset="1" stop-color="#6B68FC"/>
</linearGradient>
<linearGradient id="paint10_linear" x1="-16.4118" y1="21.5075" x2="2.83925" y2="67.5142" gradientUnits="userSpaceOnUse">
<stop stop-color="#FA6400"/>
<stop offset="1" stop-color="#6B68FC"/>
</linearGradient>
<linearGradient id="paint11_linear" x1="-16.4118" y1="21.5075" x2="2.83925" y2="67.5142" gradientUnits="userSpaceOnUse">
<stop stop-color="#FA6400"/>
<stop offset="1" stop-color="#6B68FC"/>
</linearGradient>
<linearGradient id="paint12_linear" x1="-16.4118" y1="21.5075" x2="2.83925" y2="67.5142" gradientUnits="userSpaceOnUse">
<stop stop-color="#FA6400"/>
<stop offset="1" stop-color="#6B68FC"/>
</linearGradient>
<linearGradient id="paint13_linear" x1="-16.4118" y1="21.5075" x2="2.83925" y2="67.5142" gradientUnits="userSpaceOnUse">
<stop stop-color="#FA6400"/>
<stop offset="1" stop-color="#6B68FC"/>
</linearGradient>
<linearGradient id="paint14_linear" x1="-16.4118" y1="21.5075" x2="2.83925" y2="67.5142" gradientUnits="userSpaceOnUse">
<stop stop-color="#FA6400"/>
<stop offset="1" stop-color="#6B68FC"/>
</linearGradient>
<linearGradient id="paint15_linear" x1="-16.4118" y1="21.5075" x2="2.83925" y2="67.5142" gradientUnits="userSpaceOnUse">
<stop stop-color="#FA6400"/>
<stop offset="1" stop-color="#6B68FC"/>
</linearGradient>
<linearGradient id="paint16_linear" x1="-16.4118" y1="21.5075" x2="2.83925" y2="67.5142" gradientUnits="userSpaceOnUse">
<stop stop-color="#FA6400"/>
<stop offset="1" stop-color="#6B68FC"/>
</linearGradient>
<linearGradient id="paint17_linear" x1="-16.4118" y1="21.5075" x2="2.83925" y2="67.5142" gradientUnits="userSpaceOnUse">
<stop stop-color="#FA6400"/>
<stop offset="1" stop-color="#6B68FC"/>
</linearGradient>
<linearGradient id="paint18_linear" x1="-16.4118" y1="21.5075" x2="2.83925" y2="67.5142" gradientUnits="userSpaceOnUse">
<stop stop-color="#FA6400"/>
<stop offset="1" stop-color="#6B68FC"/>
</linearGradient>
<linearGradient id="paint19_linear" x1="-16.4118" y1="21.5075" x2="2.83925" y2="67.5142" gradientUnits="userSpaceOnUse">
<stop stop-color="#FA6400"/>
<stop offset="1" stop-color="#6B68FC"/>
</linearGradient>
<linearGradient id="paint20_linear" x1="-16.4118" y1="21.5075" x2="2.83925" y2="67.5142" gradientUnits="userSpaceOnUse">
<stop stop-color="#FA6400"/>
<stop offset="1" stop-color="#6B68FC"/>
</linearGradient>
<linearGradient id="paint21_linear" x1="-16.4118" y1="21.5075" x2="2.83925" y2="67.5142" gradientUnits="userSpaceOnUse">
<stop stop-color="#FA6400"/>
<stop offset="1" stop-color="#6B68FC"/>
</linearGradient>
<linearGradient id="paint22_linear" x1="-16.4118" y1="21.5075" x2="2.83925" y2="67.5142" gradientUnits="userSpaceOnUse">
<stop stop-color="#FA6400"/>
<stop offset="1" stop-color="#6B68FC"/>
</linearGradient>
<linearGradient id="paint23_linear" x1="-16.4118" y1="21.5075" x2="2.83925" y2="67.5142" gradientUnits="userSpaceOnUse">
<stop stop-color="#FA6400"/>
<stop offset="1" stop-color="#6B68FC"/>
</linearGradient>
<linearGradient id="paint24_linear" x1="-16.4118" y1="21.5075" x2="2.83925" y2="67.5142" gradientUnits="userSpaceOnUse">
<stop stop-color="#FA6400"/>
<stop offset="1" stop-color="#6B68FC"/>
</linearGradient>
<linearGradient id="paint25_linear" x1="-16.4118" y1="21.5075" x2="2.83925" y2="67.5142" gradientUnits="userSpaceOnUse">
<stop stop-color="#FA6400"/>
<stop offset="1" stop-color="#6B68FC"/>
</linearGradient>
<linearGradient id="paint26_linear" x1="-16.4118" y1="21.5075" x2="2.83925" y2="67.5142" gradientUnits="userSpaceOnUse">
<stop stop-color="#FA6400"/>
<stop offset="1" stop-color="#6B68FC"/>
</linearGradient>
<linearGradient id="paint27_linear" x1="-16.4118" y1="21.5075" x2="2.83925" y2="67.5142" gradientUnits="userSpaceOnUse">
<stop stop-color="#FA6400"/>
<stop offset="1" stop-color="#6B68FC"/>
</linearGradient>
<linearGradient id="paint28_linear" x1="-16.4118" y1="21.5075" x2="2.83925" y2="67.5142" gradientUnits="userSpaceOnUse">
<stop stop-color="#FA6400"/>
<stop offset="1" stop-color="#6B68FC"/>
</linearGradient>
<clipPath id="clip0">
<rect width="110.718" height="38.02" fill="white"/>
</clipPath>
</defs>
</svg>
