<svg width="18" height="20" viewBox="0 0 18 20" fill="none" xmlns="http://www.w3.org/2000/svg">
<path d="M14.5 13.7321C13.8161 13.7321 13.2196 13.9722 12.7103 14.4524L6.1627 10.6329C6.2209 10.3856 6.25 10.1746 6.25 10C6.25 9.8254 6.2209 9.61442 6.1627 9.36706L12.623 5.59127C13.1614 6.08598 13.787 6.33333 14.5 6.33333C14.9947 6.33333 15.453 6.20966 15.875 5.9623C16.297 5.71495 16.6316 5.38029 16.879 4.95833C17.1263 4.53638 17.25 4.07804 17.25 3.58333C17.25 3.08862 17.1263 2.63029 16.879 2.20833C16.6316 1.78638 16.297 1.45172 15.875 1.20436C15.453 0.957009 14.9947 0.833332 14.5 0.833332C14.0053 0.833332 13.547 0.957009 13.125 1.20436C12.703 1.45172 12.3684 1.78638 12.121 2.20833C11.8737 2.63029 11.75 3.08862 11.75 3.58333C11.75 3.75794 11.7791 3.96891 11.8373 4.21627L5.37698 7.99206C4.83862 7.49735 4.21296 7.25 3.5 7.25C3.00529 7.25 2.54696 7.37368 2.125 7.62103C1.70304 7.86839 1.36839 8.20304 1.12103 8.625C0.873677 9.04696 0.75 9.50529 0.75 10C0.75 10.4947 0.873677 10.953 1.12103 11.375C1.36839 11.797 1.70304 12.1316 2.125 12.379C2.54696 12.6263 3.00529 12.75 3.5 12.75C4.21296 12.75 4.83862 12.5026 5.37698 12.0079L11.9028 15.8274C11.8446 16.0311 11.8155 16.2275 11.8155 16.4167C11.8155 16.8968 11.9319 17.3479 12.1647 17.7698C12.412 18.1772 12.7394 18.5046 13.1468 18.752C13.5688 18.9848 14.0198 19.1012 14.5 19.1012C14.9802 19.1012 15.4239 18.9848 15.8314 18.752C16.2533 18.5046 16.5807 18.1772 16.8135 17.7698C17.0608 17.3479 17.1845 16.8968 17.1845 16.4167C17.1845 15.9365 17.0608 15.4927 16.8135 15.0853C16.5807 14.6634 16.2533 14.336 15.8314 14.1032C15.4239 13.8558 14.9802 13.7321 14.5 13.7321Z" fill="#C8CED2"/>
</svg>
