<svg width="28" height="28" viewBox="0 0 28 28" fill="none" xmlns="http://www.w3.org/2000/svg">
<path d="M13.4654 12.3278C14.4738 12.3278 15.347 11.9661 16.0605 11.2525C16.774 10.5391 17.1356 9.66609 17.1356 8.65756C17.1356 7.64938 16.774 6.77628 16.0604 6.06258C15.3468 5.34922 14.4737 4.98755 13.4654 4.98755C12.4569 4.98755 11.5839 5.34922 10.8704 6.06269C10.1569 6.77617 9.79514 7.64926 9.79514 8.65756C9.79514 9.66609 10.1569 10.5392 10.8705 11.2527C11.5841 11.966 12.4572 12.3278 13.4654 12.3278Z" fill="#FA0000"/>
<path d="M19.8873 16.7049C19.8668 16.408 19.8251 16.0841 19.7639 15.7421C19.702 15.3975 19.6224 15.0717 19.5271 14.774C19.4286 14.4662 19.2947 14.1623 19.1291 13.8711C18.9573 13.5689 18.7554 13.3056 18.529 13.0891C18.2922 12.8625 18.0022 12.6803 17.6669 12.5474C17.3328 12.4152 16.9625 12.3483 16.5664 12.3483C16.4109 12.3483 16.2604 12.4121 15.9699 12.6012C15.7911 12.7179 15.582 12.8527 15.3485 13.0019C15.1489 13.1291 14.8785 13.2482 14.5445 13.3561C14.2186 13.4616 13.8878 13.515 13.5612 13.515C13.2346 13.515 12.9039 13.4616 12.5776 13.3561C12.244 13.2483 11.9736 13.1292 11.7742 13.002C11.543 12.8542 11.3337 12.7194 11.1522 12.6011C10.862 12.412 10.7115 12.3482 10.5559 12.3482C10.1597 12.3482 9.78956 12.4152 9.45555 12.5475C9.1205 12.6802 8.83044 12.8624 8.59339 13.0892C8.36703 13.3059 8.16509 13.569 7.9935 13.8711C7.82806 14.1623 7.69414 14.4661 7.59555 14.7741C7.50033 15.0718 7.4207 15.3975 7.35885 15.7421C7.29758 16.0836 7.25596 16.4076 7.23538 16.7052C7.21516 16.9968 7.20492 17.2994 7.20492 17.6051C7.20492 18.4005 7.45778 19.0445 7.95641 19.5194C8.44888 19.988 9.1005 20.2258 9.89291 20.2258H17.2302C18.0226 20.2258 18.674 19.9881 19.1665 19.5194C19.6653 19.0448 19.9181 18.4007 19.9181 17.605C19.918 17.2979 19.9077 16.9951 19.8873 16.7049Z" fill="#FA0000"/>
<path fill-rule="evenodd" clip-rule="evenodd" d="M1.59623 20.0079C5.12606 26.6465 13.3692 29.1667 20.0079 25.6368C26.6465 22.107 29.1667 13.8639 25.6368 7.22523C22.107 0.586599 13.8639 -1.93359 7.22523 1.59623C0.586599 5.12606 -1.93359 13.3692 1.59623 20.0079ZM24.0641 8.06148C27.1321 13.8315 24.9416 20.9961 19.1716 24.0641C13.4016 27.1321 6.23696 24.9416 3.16899 19.1716C0.101008 13.4016 2.29145 6.23696 8.06148 3.16899C13.8315 0.101008 20.9961 2.29145 24.0641 8.06148Z" fill="#FA0000"/>
</svg>
