<svg width="27" height="27" viewBox="0 0 27 27" fill="none" xmlns="http://www.w3.org/2000/svg">
<path d="M13.3501 12.2223C14.3499 12.2223 15.2157 11.8637 15.923 11.1562C16.6304 10.4489 16.989 9.58336 16.989 8.58346C16.989 7.58391 16.6304 6.71829 15.9229 6.01069C15.2154 5.30344 14.3498 4.94486 13.3501 4.94486C12.3502 4.94486 11.4847 5.30344 10.7774 6.0108C10.07 6.71817 9.71131 7.58379 9.71131 8.58346C9.71131 9.58336 10.07 10.449 10.7775 11.1564C11.485 11.8636 12.3506 12.2223 13.3501 12.2223Z" fill="#FA6400"/>
<path d="M19.7171 16.5619C19.6967 16.2675 19.6555 15.9464 19.5947 15.6073C19.5334 15.2657 19.4544 14.9427 19.3599 14.6475C19.2623 14.3424 19.1295 14.0411 18.9654 13.7524C18.795 13.4527 18.5949 13.1918 18.3704 12.977C18.1356 12.7524 17.8481 12.5718 17.5157 12.44C17.1845 12.309 16.8173 12.2426 16.4246 12.2426C16.2704 12.2426 16.1213 12.3059 15.8332 12.4934C15.656 12.609 15.4486 12.7427 15.2172 12.8906C15.0193 13.0167 14.7512 13.1348 14.42 13.2418C14.0969 13.3463 13.7689 13.3994 13.4451 13.3994C13.1213 13.3994 12.7934 13.3463 12.47 13.2418C12.1392 13.1349 11.8711 13.0168 11.6734 12.8907C11.4442 12.7442 11.2367 12.6105 11.0568 12.4933C10.7691 12.3057 10.6198 12.2425 10.4656 12.2425C10.0728 12.2425 9.70577 12.309 9.37462 12.4401C9.04244 12.5717 8.75486 12.7523 8.51984 12.9771C8.29542 13.192 8.09521 13.4528 7.92508 13.7524C7.76107 14.0411 7.62828 14.3423 7.53054 14.6476C7.43614 14.9428 7.35719 15.2657 7.29587 15.6073C7.23512 15.946 7.19386 16.2672 7.17346 16.5623C7.1534 16.8513 7.14326 17.1514 7.14326 17.4544C7.14326 18.243 7.39395 18.8815 7.88831 19.3523C8.37657 19.8169 9.02261 20.0526 9.80824 20.0526H17.0827C17.8683 20.0526 18.5141 19.8171 19.0025 19.3523C19.497 18.8818 19.7477 18.2433 19.7477 17.4543C19.7475 17.1499 19.7373 16.8496 19.7171 16.5619Z" fill="#FA6400"/>
<path fill-rule="evenodd" clip-rule="evenodd" d="M1.58257 19.8366C5.08219 26.4184 13.2548 28.917 19.8366 25.4174C26.4184 21.9178 28.917 13.7452 25.4174 7.16339C21.9178 0.581578 13.7452 -1.91704 7.16339 1.58257C0.581578 5.08219 -1.91704 13.2548 1.58257 19.8366ZM23.8581 7.99248C26.8999 13.7131 24.7282 20.8164 19.0075 23.8581C13.2869 26.8999 6.18358 24.7282 3.14186 19.0075C0.100143 13.2869 2.27184 6.18358 7.99248 3.14186C13.7131 0.100143 20.8164 2.27184 23.8581 7.99248Z" fill="#FA6400"/>
</svg>
