<svg width="19" height="19" viewBox="0 0 19 19" fill="none" xmlns="http://www.w3.org/2000/svg">
<path d="M16 10.3542C16.0417 10.0347 16.0625 9.75 16.0625 9.5C16.0625 9.25 16.0417 8.96528 16 8.64583L17.8542 7.20833C17.9375 7.13889 17.9861 7.05555 18 6.95833C18.0278 6.84722 18.0139 6.74305 17.9583 6.64583L16.2083 3.60417C16.125 3.46528 15.9931 3.39583 15.8125 3.39583C15.7569 3.39583 15.7083 3.40278 15.6667 3.41667L13.5 4.29167C13.0278 3.93055 12.5347 3.64583 12.0208 3.4375L11.6875 1.125C11.6736 1.01389 11.625 0.92361 11.5417 0.854166C11.4583 0.784721 11.3611 0.749998 11.25 0.749998H7.75C7.63889 0.749998 7.54167 0.784721 7.45833 0.854166C7.375 0.92361 7.32639 1.01389 7.3125 1.125L6.97917 3.4375C6.49306 3.63194 6 3.91667 5.5 4.29167L3.33333 3.41667C3.27778 3.40278 3.22222 3.39583 3.16667 3.39583C3 3.39583 2.875 3.46528 2.79167 3.60417L1.04167 6.64583C0.986111 6.74305 0.965278 6.84722 0.979167 6.95833C1.00694 7.05555 1.0625 7.13889 1.14583 7.20833L3 8.64583C2.95833 8.96528 2.9375 9.25 2.9375 9.5C2.9375 9.75 2.95833 10.0347 3 10.3542L1.14583 11.7917C1.0625 11.8611 1.00694 11.9514 0.979167 12.0625C0.965278 12.1597 0.986111 12.2569 1.04167 12.3542L2.79167 15.3958C2.875 15.5347 3.00694 15.6042 3.1875 15.6042C3.24306 15.6042 3.29167 15.5972 3.33333 15.5833L5.5 14.7083C5.97222 15.0694 6.46528 15.3542 6.97917 15.5625L7.3125 17.875C7.32639 17.9861 7.375 18.0764 7.45833 18.1458C7.54167 18.2153 7.63889 18.25 7.75 18.25H11.25C11.3611 18.25 11.4583 18.2153 11.5417 18.1458C11.625 18.0764 11.6736 17.9861 11.6875 17.875L12.0208 15.5625C12.5069 15.3681 13 15.0833 13.5 14.7083L15.6667 15.5833C15.7222 15.5972 15.7778 15.6042 15.8333 15.6042C16 15.6042 16.125 15.5347 16.2083 15.3958L17.9583 12.3542C18.0139 12.2569 18.0278 12.1597 18 12.0625C17.9861 11.9514 17.9375 11.8611 17.8542 11.7917L16 10.3542ZM14.2708 8.85417C14.2986 9.09028 14.3125 9.30556 14.3125 9.5C14.3125 9.63889 14.2986 9.85417 14.2708 10.1458L14.1458 11.125L15.875 12.4792L15.25 13.5417L13.2292 12.7292L12.4583 13.3125C12.0833 13.5903 11.7153 13.8056 11.3542 13.9583L10.4375 14.3333L10.1042 16.5H8.89583L8.58333 14.3333L7.64583 13.9583C7.27083 13.8056 6.91667 13.5972 6.58333 13.3333L5.79167 12.7292L3.75 13.5417L3.125 12.4792L4.85417 11.1458L4.72917 10.1458C4.70139 9.84028 4.6875 9.625 4.6875 9.5C4.6875 9.36111 4.70139 9.14583 4.72917 8.85417L4.85417 7.875L3.125 6.52083L3.75 5.45833L5.77083 6.27083L6.54167 5.6875C6.91667 5.40972 7.28472 5.19444 7.64583 5.04167L8.5625 4.66667L8.89583 2.5H10.1042L10.4167 4.66667L11.3333 5.04167C11.7083 5.19444 12.0694 5.40278 12.4167 5.66667L13.2083 6.27083L15.25 5.45833L15.8542 6.52083L14.1458 7.875L14.2708 8.85417ZM9.5 6C8.86111 6 8.27083 6.15972 7.72917 6.47917C7.20139 6.78472 6.77778 7.20833 6.45833 7.75C6.15278 8.27778 6 8.86111 6 9.5C6 10.1389 6.15278 10.7292 6.45833 11.2708C6.77778 11.7986 7.20139 12.2222 7.72917 12.5417C8.27083 12.8472 8.86111 13 9.5 13C10.1389 13 10.7222 12.8472 11.25 12.5417C11.7917 12.2222 12.2153 11.7986 12.5208 11.2708C12.8403 10.7292 13 10.1389 13 9.5C13 8.86111 12.8403 8.27778 12.5208 7.75C12.2153 7.20833 11.7917 6.78472 11.25 6.47917C10.7222 6.15972 10.1389 6 9.5 6ZM9.5 11.25C9.01389 11.25 8.59722 11.0833 8.25 10.75C7.91667 10.4028 7.75 9.98611 7.75 9.5C7.75 9.01389 7.91667 8.60417 8.25 8.27083C8.59722 7.92361 9.01389 7.75 9.5 7.75C9.98611 7.75 10.3958 7.92361 10.7292 8.27083C11.0764 8.60417 11.25 9.01389 11.25 9.5C11.25 9.98611 11.0764 10.4028 10.7292 10.75C10.3958 11.0833 9.98611 11.25 9.5 11.25Z" fill="#979797"/>
</svg>
