<svg width="450" height="370" viewBox="0 0 450 370" fill="none" xmlns="http://www.w3.org/2000/svg">
<g clip-path="url(#clip0)">
<path d="M379.615 34.583V319.148L283.179 305.71L165.95 329.626L165.006 329.819L71.7314 304.129V56.7159L168.563 34.583L274.484 56.7159L278.511 55.8661L379.615 34.583Z" fill="#444053"/>
<path d="M363.41 50.1234V304.734L277.127 292.711L172.237 314.109L171.392 314.279L87.9351 291.296V69.9244L174.577 50.1234L269.345 69.9244L272.95 69.1656L363.41 50.1234Z" fill="white"/>
<path opacity="0.5" d="M75.9046 0.849697C74.9946 0.453381 74.5264 -0.562233 74.8159 -1.51159C74.8386 -1.5819 74.8528 -1.65463 74.8584 -1.72828C74.8847 -2.15971 74.6251 -2.55737 74.2196 -2.70697C73.8141 -2.85656 73.3585 -2.72272 73.0983 -2.37759C73.0547 -2.31795 73.0183 -2.25338 72.9898 -2.18522C72.5935 -1.27524 71.5779 -0.807001 70.6285 -1.09657C70.5582 -1.1192 70.4855 -1.13346 70.4119 -1.13905C69.9804 -1.16532 69.5828 -0.905749 69.4332 -0.500232C69.2836 -0.0947158 69.4174 0.360917 69.7625 0.621118C69.8222 0.664698 69.8868 0.701088 69.9549 0.729532C70.8649 1.12585 71.3331 2.14146 71.0436 3.09082C71.0209 3.16113 71.0067 3.23387 71.0011 3.30752C70.9748 3.73895 71.2344 4.13661 71.6399 4.2862C72.0454 4.43579 72.5011 4.30196 72.7613 3.95683C72.8048 3.89719 72.8412 3.83262 72.8697 3.76446C73.266 2.85447 74.2816 2.38623 75.231 2.6758C75.3013 2.69844 75.374 2.7127 75.4477 2.71828C75.8791 2.74454 76.2767 2.48498 76.4263 2.07946C76.5759 1.67395 76.4421 1.21832 76.097 0.958117C76.0373 0.914537 75.9728 0.878145 75.9046 0.849697Z" fill="#4D8AF0"/>
<path opacity="0.5" d="M403.749 119.956C405.714 119.956 407.306 118.363 407.306 116.399C407.306 114.434 405.714 112.841 403.749 112.841C401.785 112.841 400.192 114.434 400.192 116.399C400.192 118.363 401.785 119.956 403.749 119.956Z" fill="#F55F44"/>
<path opacity="0.5" d="M96.0518 331.609C98.0164 331.609 99.609 330.016 99.609 328.052C99.609 326.087 98.0164 324.494 96.0518 324.494C94.0872 324.494 92.4946 326.087 92.4946 328.052C92.4946 330.016 94.0872 331.609 96.0518 331.609Z" fill="#F55F44"/>
<path opacity="0.5" d="M378.266 16.857C377.356 16.4607 376.888 15.4451 377.177 14.4957C377.2 14.4254 377.214 14.3527 377.22 14.279C377.246 13.8476 376.986 13.4499 376.581 13.3004C376.175 13.1508 375.72 13.2846 375.46 13.6297C375.416 13.6894 375.38 13.7539 375.351 13.8221C374.955 14.7321 373.939 15.2003 372.99 14.9108C372.92 14.8881 372.847 14.8739 372.773 14.8683C372.342 14.842 371.944 15.1016 371.794 15.5071C371.645 15.9126 371.779 16.3682 372.124 16.6284C372.184 16.672 372.248 16.7084 372.316 16.7369C373.226 17.1332 373.694 18.1488 373.405 19.0981C373.382 19.1685 373.368 19.2412 373.362 19.3148C373.336 19.7463 373.596 20.1439 374.001 20.2935C374.407 20.4431 374.862 20.3093 375.123 19.9641C375.166 19.9045 375.203 19.8399 375.231 19.7718C375.627 18.8618 376.643 18.3936 377.592 18.6831C377.663 18.7058 377.735 18.72 377.809 18.7256C378.24 18.7519 378.638 18.4923 378.788 18.0868C378.937 17.6813 378.803 17.2256 378.458 16.9654C378.399 16.9219 378.334 16.8855 378.266 16.857Z" fill="#4D8AF0"/>
<path opacity="0.5" d="M435.181 369.019C434.271 368.623 433.803 367.607 434.092 366.658C434.115 366.588 434.129 366.515 434.135 366.441C434.161 366.01 433.901 365.612 433.496 365.463C433.09 365.313 432.635 365.447 432.375 365.792C432.331 365.852 432.295 365.916 432.266 365.984C431.87 366.894 430.854 367.363 429.905 367.073C429.835 367.05 429.762 367.036 429.688 367.031C429.257 367.004 428.859 367.264 428.71 367.669C428.56 368.075 428.694 368.531 429.039 368.791C429.099 368.834 429.163 368.871 429.231 368.899C430.141 369.296 430.61 370.311 430.32 371.26C430.297 371.331 430.283 371.404 430.277 371.477C430.251 371.909 430.511 372.306 430.916 372.456C431.322 372.605 431.777 372.472 432.038 372.127C432.081 372.067 432.118 372.002 432.146 371.934C432.542 371.024 433.558 370.556 434.507 370.845C434.578 370.868 434.65 370.882 434.724 370.888C435.155 370.914 435.553 370.655 435.703 370.249C435.852 369.844 435.718 369.388 435.373 369.128C435.314 369.084 435.249 369.048 435.181 369.019Z" fill="#4D8AF0"/>
<path opacity="0.5" d="M28.4654 137.742C30.43 137.742 32.0226 136.149 32.0226 134.184C32.0226 132.22 30.43 130.627 28.4654 130.627C26.5008 130.627 24.9082 132.22 24.9082 134.184C24.9082 136.149 26.5008 137.742 28.4654 137.742Z" fill="#47E6B1"/>
<path opacity="0.1" d="M165.951 329.626L168.563 34.583L274.485 56.7159L278.512 55.8661L283.18 305.71L165.951 329.626Z" fill="black"/>
<g opacity="0.3">
<path d="M271.474 89.1246L271.521 171.925H305.906V137.935H364.795L371.712 129.067" stroke="#444053" stroke-width="4.94834"/>
<path d="M80.0327 115.407H207.889L215.794 111.85H218.956V191.687H274.288L276.659 198.801V234.767H319.344V279.23" stroke="#444053" stroke-width="4.94834"/>
<path d="M235.844 279.23V191.687" stroke="#444053" stroke-width="4.94834"/>
<path d="M371.71 255.777H235.842" stroke="#444053" stroke-width="4.94834"/>
<path d="M337.682 89.1246V279.23" stroke="#444053" stroke-width="4.94834"/>
<path d="M79.6367 238.972H371.711" stroke="#444053" stroke-width="4.94834"/>
<path d="M115.184 279.23V89.1246" stroke="#444053" stroke-width="4.94834"/>
<path d="M183.077 89.1246V279.23" stroke="#444053" stroke-width="4.94834"/>
<path d="M80.0327 137.145L305.906 137.935" stroke="#444053" stroke-width="4.94834"/>
<path d="M145.771 89.4685V279.23" stroke="#444053" stroke-width="4.94834"/>
<path d="M79.6367 181.142H183.076L235.843 238.972" stroke="#444053" stroke-width="4.94834"/>
<path d="M247.272 89.1246V191.687" stroke="#444053" stroke-width="4.94834"/>
<path d="M235.842 210.057H371.71" stroke="#444053" stroke-width="4.94834"/>
</g>
<path fill-rule="evenodd" clip-rule="evenodd" d="M234.85 141.01C234.85 128.944 244.632 119.162 256.698 119.162C268.765 119.162 278.547 128.944 278.547 141.01C278.547 153.093 256.698 192.28 256.698 192.28C256.698 192.28 234.85 153.077 234.85 141.01ZM247.087 140.718C247.087 146.026 251.39 150.33 256.699 150.33V150.326C262.006 150.326 266.308 146.025 266.311 140.718C266.311 135.409 262.007 131.106 256.699 131.106C251.39 131.106 247.087 135.409 247.087 140.718Z" fill="#FA6400"/>
<path opacity="0.1" fill-rule="evenodd" clip-rule="evenodd" d="M234.85 141.01C234.85 128.944 244.632 119.162 256.698 119.162C268.765 119.162 278.547 128.944 278.547 141.01C278.547 153.093 256.698 192.28 256.698 192.28C256.698 192.28 234.85 153.077 234.85 141.01ZM247.087 141.459C247.087 147.177 251.39 151.812 256.699 151.812V151.808C262.006 151.808 266.308 147.175 266.311 141.459C266.311 135.741 262.007 131.106 256.699 131.106C251.39 131.106 247.087 135.741 247.087 141.459Z" fill="#1E2933"/>
<path fill-rule="evenodd" clip-rule="evenodd" d="M234.85 143.642C234.85 131.576 244.632 121.794 256.698 121.794C268.765 121.794 278.547 131.576 278.547 143.642C278.547 155.724 256.698 194.911 256.698 194.911C256.698 194.911 234.85 155.709 234.85 143.642ZM247.087 143.35C247.087 148.658 251.39 152.962 256.699 152.962V152.958C262.006 152.958 266.308 148.657 266.311 143.35C266.311 138.041 262.007 133.738 256.699 133.738C251.39 133.738 247.087 138.041 247.087 143.35Z" fill="#FA6400"/>
<path opacity="0.1" d="M72.7582 336.773C78.1816 331.35 71.9047 316.28 58.7384 303.114C45.5721 289.947 30.5022 283.67 25.0789 289.094C19.6556 294.517 25.9325 309.587 39.0988 322.753C52.2651 335.92 67.3349 342.196 72.7582 336.773Z" fill="#6C63FF"/>
<path d="M51.5866 315.601C55.5157 315.601 58.701 311.222 58.701 305.819C58.701 300.417 55.5157 296.037 51.5866 296.037C47.6574 296.037 44.4722 300.417 44.4722 305.819C44.4722 311.222 47.6574 315.601 51.5866 315.601Z" fill="#3F3D56"/>
<path d="M51.5866 303.151C55.5157 303.151 58.701 298.772 58.701 293.369C58.701 287.966 55.5157 283.587 51.5866 283.587C47.6574 283.587 44.4722 287.966 44.4722 293.369C44.4722 298.772 47.6574 303.151 51.5866 303.151Z" fill="#3F3D56"/>
<path d="M51.5866 290.701C55.5157 290.701 58.701 286.321 58.701 280.919C58.701 275.516 55.5157 271.136 51.5866 271.136C47.6574 271.136 44.4722 275.516 44.4722 280.919C44.4722 286.321 47.6574 290.701 51.5866 290.701Z" fill="#3F3D56"/>
<path d="M51.5866 280.029C55.5157 280.029 58.701 275.65 58.701 270.247C58.701 264.845 55.5157 260.465 51.5866 260.465C47.6574 260.465 44.4722 264.845 44.4722 270.247C44.4722 275.65 47.6574 280.029 51.5866 280.029Z" fill="#3F3D56"/>
<path d="M51.5866 267.579C55.5157 267.579 58.701 263.2 58.701 257.797C58.701 252.394 55.5157 248.015 51.5866 248.015C47.6574 248.015 44.4722 252.394 44.4722 257.797C44.4722 263.2 47.6574 267.579 51.5866 267.579Z" fill="#3F3D56"/>
<path d="M51.5866 255.129C55.5157 255.129 58.701 251.147 58.701 246.236C58.701 241.325 55.5157 237.343 51.5866 237.343C47.6574 237.343 44.4722 241.325 44.4722 246.236C44.4722 251.147 47.6574 255.129 51.5866 255.129Z" fill="#3F3D56"/>
<path d="M79.5288 154.126C80.5443 152.843 81.4688 151.49 82.2955 150.079L62.7902 146.891L83.8864 147.043C87.9763 138.187 88.2265 128.048 84.578 119.003L56.2815 133.619L82.3647 114.522C75.7051 103.048 63.1639 96.2384 49.8661 96.8749C36.5682 97.5114 24.7415 105.488 19.2189 117.544C13.6962 129.601 15.4028 143.718 23.6412 154.126C22.0601 156.125 20.7011 158.287 19.588 160.577L44.9034 173.657L17.928 164.639C14.08 175.968 16.2364 188.466 23.662 197.868C12.1979 212.375 13.8611 233.214 27.4824 245.737C41.1037 258.26 62.1079 258.26 75.7292 245.737C89.3504 233.214 91.0136 212.375 79.5495 197.868C89.6936 185.03 89.6936 166.951 79.5495 154.113L79.5288 154.126Z" fill="#6A00FF"/>
<path opacity="0.1" d="M16.0152 175.616C16.0018 183.591 18.6844 191.337 23.6278 197.597C12.1575 212.172 13.8216 233.11 27.4502 245.692C41.0788 258.275 62.0944 258.275 75.723 245.692C89.3516 233.11 91.0157 212.172 79.5455 197.597C84.3137 191.552 16.0152 171.625 16.0152 175.616Z" fill="black"/>
<path d="M377.069 131.591L409.988 132.406L414.42 93.2769H377.069V131.591Z" fill="#2F2E41"/>
<path d="M411.149 181.215L423.146 263.105C423.146 263.105 433.543 292.239 434.343 306.412L437.542 326.884L423.146 330.034L407.95 272.554L387.155 220.585L389.554 280.428L394.353 329.247L379.957 331.609L371.159 269.404L361.561 223.735C361.561 223.735 354.363 184.365 365.56 180.428L411.149 181.215Z" fill="#2F2E41"/>
<path d="M423.815 320.937L425.423 340.405C425.423 340.405 408.212 350.31 413.734 352.23C419.257 354.15 426.815 351.68 428.361 351.244C429.993 350.783 433.041 350.048 435.348 349.504C437.539 349.005 439.147 347.142 439.314 344.91L439.318 344.838C439.457 342.443 434.028 321.625 434.028 321.625L423.815 320.937Z" fill="#2F2E41"/>
<path d="M383.539 320.937L382.151 339.165C382.151 339.165 362.076 346.262 367.25 349.136C372.425 352.01 380.511 351.044 382.151 350.912C385.175 350.67 392.701 350.428 392.701 350.428C392.701 350.428 394.093 351.575 394.703 349.298C395.314 347.022 393.889 326.685 393.889 326.685L383.539 320.937Z" fill="#2F2E41"/>
<path d="M393.966 114.62C402.316 114.62 409.084 107.851 409.084 99.5019C409.084 91.1524 402.316 84.3838 393.966 84.3838C385.617 84.3838 378.848 91.1524 378.848 99.5019C378.848 107.851 385.617 114.62 393.966 114.62Z" fill="#FFB8B8"/>
<path d="M402.479 109.284L405.528 126.24L392.569 132.406L389.521 110.825L402.479 109.284Z" fill="#FFB8B8"/>
<path d="M403.748 191.168L387.409 202.749C387.409 202.749 380.407 220.506 374.96 217.418C369.514 214.33 381.185 198.889 381.185 198.889L394.412 185.764L403.748 191.168Z" fill="#FFB8B8"/>
<path d="M357.34 185.764L355.727 194.913C355.727 194.913 359.759 213.972 364.598 210.16C369.438 206.348 362.985 194.15 362.985 194.15L363.792 186.526L357.34 185.764Z" fill="#FFB8B8"/>
<path d="M395.092 127.521L396.683 121.165L406.23 116.399L409.413 120.371L419.756 123.549L407.822 187.105C407.822 187.105 367.245 189.488 366.449 183.132C365.653 176.777 374.405 159.299 374.405 159.299C374.405 159.299 372.018 150.56 372.814 145.793L375.997 126.726L388.727 122.754L391.634 119.242L394.296 123.549L395.092 127.521Z" fill="#FA6400"/>
<path d="M417.308 125.089L419.746 123.513C419.746 123.513 424.623 124.301 426.248 130.607C427.874 136.913 426.248 165.29 422.185 170.807C418.121 176.325 406.742 192.878 406.742 192.878L391.299 185.784L407.555 167.655L411.619 144.795L417.308 125.089Z" fill="#FA6400"/>
<path d="M382.406 128.666L376.082 127.07C376.082 127.07 372.129 128.666 370.548 134.253C368.968 139.84 360.272 167.773 361.063 170.167C361.853 172.561 353.948 188.523 353.948 188.523L365.015 189.321L371.339 172.561L377.663 155.801L382.406 128.666Z" fill="#FA6400"/>
<path d="M421.519 113.065C418.317 111.315 416.827 107.388 416.72 103.755C416.614 100.122 417.5 96.5261 417.569 92.892C417.605 92.1485 417.541 91.4035 417.38 90.6767C417.114 89.7746 416.701 88.9224 416.155 88.1546C411.992 81.8062 404.754 77.3404 397.13 77.2701C396.028 77.2558 394.935 77.4558 393.911 77.859C393.122 78.1731 392.865 78.1347 392.714 79.0977C390.908 78.5048 388.949 78.5668 387.185 79.2726C385.437 79.9796 383.807 80.9456 382.349 82.1379C381.483 82.7787 380.666 83.4827 379.905 84.2439C375.876 88.3971 374.948 94.7979 376.115 100.452C376.495 102.291 374.674 104.065 373.168 105.194C371.661 106.324 369.922 107.36 369.182 109.087C368.47 110.747 368.861 112.646 368.718 114.446C368.39 117.916 366.112 120.901 362.841 122.148C363.507 122.942 364.557 123.309 365.576 123.105C366.62 122.886 367.597 122.423 368.427 121.755C371.545 119.455 373.776 116.161 374.747 112.423C375.19 114.425 375.018 116.491 375.002 118.541C375.041 120.829 374.617 123.102 373.756 125.224C372.881 127.356 371.278 129.113 369.229 130.185C371.205 131.148 373.383 130.45 375.057 129.029C376.732 127.609 377.721 125.547 378.411 123.468C379.535 120.081 379.991 116.509 379.754 112.949C381.592 116.029 382.264 119.66 381.648 123.189C381.005 126.787 379.117 130.048 376.311 132.406C381.203 132.365 386.013 131.159 390.341 128.89C391.458 128.386 392.443 127.632 393.218 126.685C394.611 124.763 394.281 122.141 393.891 119.804C393.582 117.956 395.903 115.284 394.574 113.956C394.179 113.568 393.651 113.342 393.096 113.325C389.045 113.023 385.365 110.865 383.137 107.484C381.604 105.191 380.734 102.523 380.62 99.7706C380.623 94.2507 383.877 89.2449 388.935 86.9789C393.994 84.713 399.918 85.6076 404.073 89.2651C408.227 92.9225 409.842 98.6637 408.199 103.936C407.719 105.489 407.376 107.08 407.172 108.693C406.931 110.563 406.549 112.413 406.027 114.226C405.022 117.711 403.318 121.266 400.165 123.084C401.225 123.66 402.451 123.686 403.651 123.818C407.607 124.252 411.767 124.156 415.348 122.427C418.928 120.698 421.774 117.017 421.519 113.065Z" fill="#2F2E41"/>
<path d="M412.642 98.6126C401.171 94.3377 389.862 93.4257 378.848 98.6126V89.9959C378.848 86.8964 381.55 84.3838 384.884 84.3838H407.873C409.138 84.3838 410.351 84.8509 411.245 85.6824C412.139 86.5138 412.642 87.6416 412.642 88.8174V98.6126Z" fill="#2F2E41"/>
<path d="M409.085 103.948C410.067 103.948 410.863 102.754 410.863 101.28C410.863 99.807 410.067 98.6125 409.085 98.6125C408.102 98.6125 407.306 99.807 407.306 101.28C407.306 102.754 408.102 103.948 409.085 103.948Z" fill="#FFB8B8"/>
</g>
<defs>
<clipPath id="clip0">
<rect width="450" height="370" fill="white"/>
</clipPath>
</defs>
</svg>
