<svg width="405" height="363" viewBox="0 0 405 363" fill="none" xmlns="http://www.w3.org/2000/svg">
<path d="M203.264 5.37695L76.415 83.4801C76.415 83.4801 76.415 244.568 203.264 332.434C330.113 244.568 330.113 83.4801 330.113 83.4801L203.264 5.37695Z" fill="#6A00FF"/>
<path opacity="0.552269" d="M203.92 5.37695L201.736 6.71205V330.91C202.461 331.42 203.186 331.929 203.92 332.434C331.642 244.568 331.642 83.4801 331.642 83.4801L203.92 5.37695Z" fill="#6C63FF"/>
<g opacity="0.7">
<path d="M172.427 164.353L196.41 186.513L226.14 143.281L238.131 153.354L196.41 206.658L162.434 168.382L172.427 164.353Z" fill="url(#paint0_linear)"/>
</g>
<path d="M177.665 165.543L196.922 183.315L224.202 142.924L233.83 151.003L196.922 199.472L169.642 168.775L177.665 165.543Z" fill="#3AD29F"/>
<path opacity="0.5" d="M77.4429 23.7682C76.661 23.4277 76.2586 22.555 76.5074 21.7392C76.5269 21.6788 76.5391 21.6163 76.5439 21.553C76.5665 21.1823 76.3435 20.8406 75.995 20.7121C75.6466 20.5835 75.2551 20.6985 75.0315 20.9951C74.994 21.0464 74.9628 21.1018 74.9383 21.1604C74.5978 21.9423 73.7251 22.3447 72.9093 22.0959C72.8489 22.0764 72.7864 22.0642 72.7231 22.0594C72.3524 22.0368 72.0107 22.2598 71.8822 22.6083C71.7536 22.9567 71.8686 23.3482 72.1652 23.5718C72.2164 23.6093 72.2719 23.6405 72.3305 23.665C73.1124 24.0055 73.5148 24.8782 73.2659 25.694C73.2465 25.7544 73.2342 25.8169 73.2294 25.8802C73.2069 26.2509 73.4299 26.5926 73.7784 26.7211C74.1268 26.8497 74.5183 26.7347 74.7419 26.4381C74.7793 26.3869 74.8106 26.3314 74.8351 26.2728C75.1756 25.4909 76.0483 25.0885 76.8641 25.3374C76.9245 25.3568 76.987 25.3691 77.0503 25.3739C77.421 25.3964 77.7627 25.1734 77.8912 24.8249C78.0197 24.4765 77.9048 24.085 77.6082 23.8614C77.5569 23.824 77.5015 23.7927 77.4429 23.7682Z" fill="#4D8AF0"/>
<path opacity="0.5" d="M8.66946 176.599C7.88753 176.258 7.48518 175.385 7.73401 174.57C7.75345 174.509 7.76571 174.447 7.77051 174.383C7.79308 174.013 7.57004 173.671 7.22159 173.542C6.87314 173.414 6.48162 173.529 6.25804 173.825C6.22059 173.877 6.18932 173.932 6.16488 173.991C5.82433 174.773 4.95164 175.175 4.13588 174.926C4.07547 174.907 4.01297 174.894 3.94968 174.89C3.57897 174.867 3.23726 175.09 3.10872 175.439C2.98018 175.787 3.09518 176.179 3.39175 176.402C3.44299 176.44 3.49847 176.471 3.55705 176.495C4.33897 176.836 4.74132 177.709 4.4925 178.524C4.47305 178.585 4.46079 178.647 4.45599 178.711C4.43342 179.081 4.65647 179.423 5.00492 179.551C5.35337 179.68 5.74488 179.565 5.96847 179.268C6.00591 179.217 6.03718 179.162 6.06162 179.103C6.40217 178.321 7.27486 177.919 8.09062 178.168C8.15104 178.187 8.21353 178.199 8.27682 178.204C8.64753 178.227 8.98923 178.004 9.11777 177.655C9.24631 177.307 9.13131 176.915 8.83475 176.692C8.78351 176.654 8.72803 176.623 8.66946 176.599Z" fill="#4D8AF0"/>
<path opacity="0.5" d="M353.038 123.056C354.726 123.056 356.095 121.688 356.095 120C356.095 118.312 354.726 116.943 353.038 116.943C351.35 116.943 349.981 118.312 349.981 120C349.981 121.688 351.35 123.056 353.038 123.056Z" fill="#F55F44"/>
<path opacity="0.5" d="M94.6797 301.957C96.3678 301.957 97.7363 300.589 97.7363 298.901C97.7363 297.213 96.3678 295.844 94.6797 295.844C92.9915 295.844 91.623 297.213 91.623 298.901C91.623 300.589 92.9915 301.957 94.6797 301.957Z" fill="#F55F44"/>
<path opacity="0.5" d="M400.415 233.094C402.104 233.094 403.472 231.726 403.472 230.038C403.472 228.349 402.104 226.981 400.415 226.981C398.727 226.981 397.359 228.349 397.359 230.038C397.359 231.726 398.727 233.094 400.415 233.094Z" fill="#F55F44"/>
<path opacity="0.5" d="M331.142 37.523C330.36 37.1824 329.957 36.3097 330.206 35.494C330.226 35.4336 330.238 35.3711 330.243 35.3078C330.265 34.9371 330.042 34.5954 329.694 34.4668C329.345 34.3383 328.954 34.4533 328.73 34.7498C328.693 34.8011 328.661 34.8566 328.637 34.9151C328.296 35.6971 327.424 36.0994 326.608 35.8506C326.548 35.8311 326.485 35.8189 326.422 35.8141C326.051 35.7915 325.709 36.0146 325.581 36.363C325.452 36.7115 325.567 37.103 325.864 37.3266C325.915 37.364 325.971 37.3953 326.029 37.4197C326.811 37.7603 327.213 38.6329 326.965 39.4487C326.945 39.5091 326.933 39.5716 326.928 39.6349C326.906 40.0056 327.129 40.3473 327.477 40.4759C327.826 40.6044 328.217 40.4894 328.441 40.1928C328.478 40.1416 328.509 40.0861 328.534 40.0275C328.874 39.2456 329.747 38.8433 330.563 39.0921C330.623 39.1115 330.686 39.1238 330.749 39.1286C331.12 39.1512 331.461 38.9281 331.59 38.5797C331.718 38.2312 331.603 37.8397 331.307 37.6161C331.256 37.5787 331.2 37.5474 331.142 37.523Z" fill="#4D8AF0"/>
<path opacity="0.5" d="M378.52 332.486C377.738 332.145 377.335 331.272 377.584 330.457C377.604 330.396 377.616 330.334 377.621 330.27C377.643 329.9 377.42 329.558 377.072 329.429C376.723 329.301 376.332 329.416 376.108 329.712C376.071 329.764 376.039 329.819 376.015 329.878C375.674 330.66 374.802 331.062 373.986 330.813C373.926 330.794 373.863 330.782 373.8 330.777C373.429 330.754 373.087 330.977 372.959 331.326C372.83 331.674 372.945 332.066 373.242 332.289C373.293 332.327 373.349 332.358 373.407 332.382C374.189 332.723 374.591 333.596 374.343 334.411C374.323 334.472 374.311 334.534 374.306 334.598C374.284 334.968 374.507 335.31 374.855 335.438C375.203 335.567 375.595 335.452 375.819 335.155C375.856 335.104 375.887 335.049 375.912 334.99C376.252 334.208 377.125 333.806 377.941 334.055C378.001 334.074 378.064 334.086 378.127 334.091C378.498 334.114 378.839 333.891 378.968 333.542C379.096 333.194 378.981 332.802 378.685 332.579C378.634 332.541 378.578 332.51 378.52 332.486Z" fill="#4D8AF0"/>
<path opacity="0.5" d="M5.61281 86.4287C4.83089 86.0882 4.42854 85.2155 4.67736 84.3997C4.69681 84.3393 4.70907 84.2768 4.71387 84.2135C4.73644 83.8428 4.5134 83.5011 4.16495 83.3725C3.81649 83.244 3.42498 83.359 3.2014 83.6556C3.16395 83.7068 3.13268 83.7623 3.10824 83.8209C2.76769 84.6028 1.895 85.0051 1.07924 84.7563C1.01883 84.7369 0.956328 84.7246 0.893043 84.7198C0.522326 84.6972 0.180623 84.9203 0.0520829 85.2687C-0.0764569 85.6172 0.0385428 86.0087 0.335107 86.2323C0.38635 86.2697 0.441833 86.301 0.500406 86.3254C1.28233 86.666 1.68468 87.5387 1.43586 88.3544C1.41641 88.4149 1.40415 88.4774 1.39935 88.5406C1.37678 88.9114 1.59982 89.2531 1.94828 89.3816C2.29673 89.5101 2.68824 89.3951 2.91183 89.0986C2.94927 89.0473 2.98054 88.9918 3.00498 88.9333C3.34553 88.1513 4.21822 87.749 5.03398 87.9978C5.0944 88.0173 5.15689 88.0295 5.22018 88.0343C5.59089 88.0569 5.93259 87.8339 6.06113 87.4854C6.18967 87.137 6.07467 86.7454 5.77811 86.5219C5.72687 86.4844 5.67139 86.4531 5.61281 86.4287Z" fill="#4D8AF0"/>
<path opacity="0.5" d="M36.6797 138.339C38.3678 138.339 39.7363 136.971 39.7363 135.283C39.7363 133.595 38.3678 132.226 36.6797 132.226C34.9915 132.226 33.623 133.595 33.623 135.283C33.623 136.971 34.9915 138.339 36.6797 138.339Z" fill="#47E6B1"/>
<path opacity="0.5" d="M401.943 159.736C403.631 159.736 405 158.367 405 156.679C405 154.991 403.631 153.622 401.943 153.622C400.255 153.622 398.887 154.991 398.887 156.679C398.887 158.367 400.255 159.736 401.943 159.736Z" fill="#47E6B1"/>
<g opacity="0.5">
<rect x="274.279" y="0.792053" width="1.5283" height="7.64152" fill="#47E6B1"/>
<path d="M279.374 3.93854V5.28705H270.714V3.93854L279.374 3.93854Z" fill="#47E6B1"/>
</g>
<g opacity="0.5">
<rect x="280.391" y="315.623" width="1.5283" height="7.64152" fill="#47E6B1"/>
<path d="M285.487 318.769V320.118H276.826V318.769H285.487Z" fill="#47E6B1"/>
</g>
<g opacity="0.5">
<rect x="51.0713" y="308.071" width="1.5283" height="7.64152" fill="#47E6B1"/>
<path d="M56.1655 311.217V312.566H47.5051V311.217H56.1655Z" fill="#47E6B1"/>
</g>
<g opacity="0.5">
<rect x="333.881" y="187.245" width="1.5283" height="7.64152" fill="#47E6B1"/>
<path d="M338.977 190.392V191.74H330.316V190.392H338.977Z" fill="#47E6B1"/>
</g>
<path opacity="0.5" d="M374.244 57.9508L377.453 60.8324L382 54.2827L383.605 55.5927L377.453 63.4525L372.907 58.4748L374.244 57.9508Z" fill="#47E6B1"/>
<path d="M277.587 113.867L288.054 113.461L288.576 126.938L278.109 127.344L277.587 113.867Z" fill="#6C63FF"/>
<path d="M241.108 160.023C241.108 160.023 225.949 153.167 226.192 159.088C226.434 165.01 241.472 168.905 241.472 168.905L241.108 160.023Z" fill="#FFB9B9"/>
<path d="M248.551 212.071C248.551 212.071 241.71 228.829 239.183 240.922C236.655 253.015 232.806 269.657 237.757 281.459C242.709 293.262 256.786 327.95 256.931 331.693C257.076 335.435 255.726 339.236 258.717 339.12C261.709 339.004 277.989 333.874 278.65 331.599C279.311 329.325 273.095 323.569 273.095 323.569L257.748 275.436L273.761 244.078L285.311 290.859L287.573 349.245C287.573 349.245 298.675 345.816 300.287 348.752C300.287 348.752 305.262 341.812 305.893 338.789C306.525 335.765 303.544 278.156 303.544 278.156C303.544 278.156 313.735 212.539 305.508 212.859C297.281 213.178 265.057 193.438 248.551 212.071Z" fill="#1E2933"/>
<path d="M259.321 335.985C259.321 335.985 251.654 352.512 250.928 353.277C250.202 354.043 245.205 361.613 248.983 361.47C252.762 361.327 261.682 357.299 268.248 351.146C274.814 344.993 283.472 334.333 282.687 333.625C281.902 332.916 276.525 330.906 276.525 330.906L259.321 335.985Z" fill="#575A89"/>
<path d="M289.932 344.528C289.932 344.528 289.478 352.253 288.108 355.391C286.738 358.528 286.911 363.146 290.623 362.996C294.335 362.847 303.93 360.92 303.93 360.92C303.93 360.92 304.5 356.273 303.728 355.533C302.957 354.794 299.671 346.448 301.069 344.08C302.468 341.712 289.932 344.528 289.932 344.528Z" fill="#575A89"/>
<path d="M295.273 101.66C295.273 101.66 303.359 113.79 306.512 116.598C309.664 119.405 300.796 125.586 300.796 125.586L284.923 127.641C284.923 127.641 285.123 113.739 284.305 112.307C283.488 110.875 295.273 101.66 295.273 101.66Z" fill="#FFB9B9"/>
<path d="M281.127 117.285C281.127 117.285 284.37 123.112 287.379 122.997C290.389 122.881 305.954 116.335 306.619 114.078C307.283 111.821 311.774 130.245 311.774 130.245L273.687 196.415L264.397 190.076L268.898 151.225L272.596 130.257L281.127 117.285Z" fill="#1E2933"/>
<path d="M308.445 176.862C306.935 180.021 305.992 183.316 306.123 186.689C306.128 186.839 306.134 186.988 306.147 187.138C306.506 194.06 309.056 202.066 309.971 207.888C310.634 212.064 310.445 215.113 308.001 215.829C302.076 217.557 308.865 218.792 285.942 226.422C263.018 234.053 259.018 227.466 258.96 225.971C258.902 224.475 262.206 213.111 261.429 212.392C260.652 211.673 250.559 221.802 247.509 220.422C244.46 219.042 247.161 211.447 247.161 211.447C247.161 211.447 254.031 195.451 253.886 191.711C253.741 187.972 264.293 170.334 264.293 170.334L271.469 123.615C271.469 123.615 274.229 117.516 277.939 116.623C281.65 115.73 284.728 117.858 284.728 117.858L278.519 131.581L271.968 155.805L273.064 164.751C273.064 164.751 280.682 148.725 285.685 142.539C290.688 136.353 301.356 121.707 301.356 121.707C301.356 121.707 303.846 113.304 301.966 110.792C300.086 108.274 309.808 107.896 313.954 118.222C316.151 123.695 319.718 131.856 321.953 139.455C323.944 146.186 324.885 152.479 322.912 156.076C319.897 161.571 312.312 168.794 308.445 176.862Z" fill="#575A89"/>
<path opacity="0.1" d="M322.924 155.513C319.946 161.074 312.454 168.383 308.635 176.547C307.637 172.865 306.42 169.055 306.42 169.055C306.42 169.055 301.752 143.468 315.559 136.855C317.847 136.628 320.135 137.283 321.977 138.692C323.944 145.504 324.873 151.873 322.924 155.513Z" fill="black"/>
<path d="M266.317 155.151L254.69 158.526L238.548 159.15L236.887 173.116L263.416 175.019C263.416 175.019 270.042 156.47 266.317 155.151Z" fill="#575A89"/>
<path d="M286.436 202.528C286.436 202.528 270.461 205.078 274.107 209.702C277.753 214.327 291.906 209.465 291.906 209.465L286.436 202.528Z" fill="#FFB9B9"/>
<path opacity="0.1" d="M306.371 187.245C306.734 194.224 309.319 202.296 310.246 208.166C305.127 212.986 300.26 217.237 298.425 217.308C294.635 217.454 288.542 216.934 286.297 217.775C284.053 218.617 282.736 204.319 282.736 204.319C282.736 204.319 284.076 199.736 290.052 197.239C294.085 195.551 301.817 190.97 306.371 187.245Z" fill="black"/>
<path d="M315.14 133.805C315.14 133.805 327.71 131.826 327.031 152.722C326.352 173.618 328.356 186.957 323.3 190.88C318.245 194.804 301.824 212.585 298.11 212.729C294.396 212.873 288.425 212.36 286.226 213.191C284.026 214.022 282.736 199.91 282.736 199.91C282.736 199.91 284.049 195.387 289.905 192.923C295.76 190.46 309.556 181.725 309.441 178.748C309.326 175.771 305.951 165.467 305.951 165.467C305.951 165.467 301.258 140.307 315.14 133.805Z" fill="#575A89"/>
<path d="M284.264 120C293.549 120 301.076 112.473 301.076 103.188C301.076 93.9037 293.549 86.377 284.264 86.377C274.98 86.377 267.453 93.9037 267.453 103.188C267.453 112.473 274.98 120 284.264 120Z" fill="#FFB9B9"/>
<path d="M273.059 79.0122C272.667 79.3552 272.197 79.5945 271.691 79.7086C271.162 79.8042 270.657 79.4491 270.559 78.9137C270.187 79.6968 269.767 80.5315 269.007 80.9333C268.247 81.3351 267.071 80.9982 266.962 80.1359C266.851 80.7906 266.565 81.402 266.136 81.9038C265.664 82.3599 264.809 82.475 264.397 81.9628C264.73 83.8079 264.524 85.7055 264.629 87.5782C264.734 89.451 265.226 91.4365 266.621 92.6679C268.656 94.4639 271.715 94.0207 274.392 93.6804C274.796 93.5943 275.216 93.6176 275.609 93.748C276.612 94.181 276.566 95.5958 276.58 96.7004C276.748 100.703 279.743 103.996 283.663 104.491C284.725 104.657 285.809 104.389 286.676 103.745C287.436 103.092 287.824 102.027 288.695 101.536C290.111 100.738 291.829 101.902 292.865 103.166C293.9 104.43 294.921 105.985 296.525 106.216C298.647 106.522 300.263 104.329 301.056 102.31C303.266 96.5924 303.105 90.2119 300.61 84.6163C296.179 74.8221 281.046 73.273 273.059 79.0122Z" fill="#2F2E41"/>
<defs>
<linearGradient id="paint0_linear" x1="162.434" y1="206.659" x2="238.131" y2="206.659" gradientUnits="userSpaceOnUse">
<stop stop-color="#808080" stop-opacity="0.25"/>
<stop offset="0.53514" stop-color="#808080" stop-opacity="0.12"/>
<stop offset="1" stop-color="#808080" stop-opacity="0.1"/>
</linearGradient>
</defs>
</svg>
