<svg width="450" height="370" viewBox="0 0 450 370" fill="none" xmlns="http://www.w3.org/2000/svg">
<path d="M225.764 4.58496L98.915 82.6881C98.915 82.6881 98.915 243.776 225.764 331.642C352.613 243.776 352.613 82.6881 352.613 82.6881L225.764 4.58496Z" fill="#6A00FF"/>
<path opacity="0.552269" d="M226.42 4.58496L224.236 5.92006V330.118C224.961 330.628 225.686 331.137 226.42 331.642C354.142 243.776 354.142 82.6881 354.142 82.6881L226.42 4.58496Z" fill="#6C63FF"/>
<g opacity="0.7">
<path d="M194.927 163.561L218.91 185.721L248.64 142.489L260.631 152.562L218.91 205.866L184.934 167.59L194.927 163.561Z" fill="url(#paint0_linear)"/>
</g>
<path d="M200.165 164.751L219.422 182.523L246.702 142.132L256.33 150.21L219.422 198.679L192.142 167.983L200.165 164.751Z" fill="#3AD29F"/>
<path opacity="0.5" d="M99.9429 22.9762C99.161 22.6356 98.7586 21.7629 99.0074 20.9472C99.0269 20.8867 99.0391 20.8242 99.0439 20.761C99.0665 20.3902 98.8435 20.0485 98.495 19.92C98.1466 19.7915 97.7551 19.9065 97.5315 20.203C97.494 20.2543 97.4628 20.3098 97.4383 20.3683C97.0978 21.1502 96.2251 21.5526 95.4093 21.3038C95.3489 21.2843 95.2864 21.2721 95.2231 21.2673C94.8524 21.2447 94.5107 21.4677 94.3822 21.8162C94.2536 22.1646 94.3686 22.5562 94.6652 22.7797C94.7164 22.8172 94.7719 22.8485 94.8305 22.8729C95.6124 23.2134 96.0148 24.0861 95.7659 24.9019C95.7465 24.9623 95.7342 25.0248 95.7294 25.0881C95.7069 25.4588 95.9299 25.8005 96.2784 25.9291C96.6268 26.0576 97.0183 25.9426 97.2419 25.646C97.2793 25.5948 97.3106 25.5393 97.3351 25.4807C97.6756 24.6988 98.5483 24.2965 99.3641 24.5453C99.4245 24.5647 99.487 24.577 99.5503 24.5818C99.921 24.6043 100.263 24.3813 100.391 24.0329C100.52 23.6844 100.405 23.2929 100.108 23.0693C100.057 23.0319 100.001 23.0006 99.9429 22.9762Z" fill="#4D8AF0"/>
<path opacity="0.5" d="M31.1695 175.806C30.3875 175.466 29.9852 174.593 30.234 173.777C30.2535 173.717 30.2657 173.655 30.2705 173.591C30.2931 173.221 30.07 172.879 29.7216 172.75C29.3731 172.622 28.9816 172.737 28.758 173.033C28.7206 173.085 28.6893 173.14 28.6649 173.199C28.3243 173.981 27.4516 174.383 26.6359 174.134C26.5755 174.115 26.513 174.102 26.4497 174.098C26.079 174.075 25.7373 174.298 25.6087 174.647C25.4802 174.995 25.5952 175.386 25.8917 175.61C25.943 175.648 25.9985 175.679 26.057 175.703C26.839 176.044 27.2413 176.916 26.9925 177.732C26.973 177.793 26.9608 177.855 26.956 177.918C26.9334 178.289 27.1565 178.631 27.5049 178.759C27.8534 178.888 28.2449 178.773 28.4685 178.476C28.5059 178.425 28.5372 178.37 28.5616 178.311C28.9022 177.529 29.7749 177.127 30.5906 177.376C30.651 177.395 30.7135 177.407 30.7768 177.412C31.1475 177.435 31.4892 177.212 31.6178 176.863C31.7463 176.515 31.6313 176.123 31.3348 175.9C31.2835 175.862 31.228 175.831 31.1695 175.806Z" fill="#4D8AF0"/>
<path opacity="0.5" d="M375.538 122.264C377.226 122.264 378.595 120.896 378.595 119.208C378.595 117.52 377.226 116.151 375.538 116.151C373.85 116.151 372.481 117.52 372.481 119.208C372.481 120.896 373.85 122.264 375.538 122.264Z" fill="#F55F44"/>
<path opacity="0.5" d="M117.18 301.165C118.868 301.165 120.236 299.797 120.236 298.109C120.236 296.421 118.868 295.052 117.18 295.052C115.492 295.052 114.123 296.421 114.123 298.109C114.123 299.797 115.492 301.165 117.18 301.165Z" fill="#F55F44"/>
<path opacity="0.5" d="M422.915 232.302C424.604 232.302 425.972 230.934 425.972 229.246C425.972 227.557 424.604 226.189 422.915 226.189C421.227 226.189 419.859 227.557 419.859 229.246C419.859 230.934 421.227 232.302 422.915 232.302Z" fill="#F55F44"/>
<path opacity="0.5" d="M353.642 36.7309C352.86 36.3904 352.457 35.5177 352.706 34.7019C352.726 34.6415 352.738 34.579 352.743 34.5157C352.765 34.145 352.542 33.8033 352.194 33.6748C351.845 33.5462 351.454 33.6612 351.23 33.9578C351.193 34.009 351.161 34.0645 351.137 34.1231C350.796 34.905 349.924 35.3074 349.108 35.0585C349.048 35.0391 348.985 35.0268 348.922 35.022C348.551 34.9995 348.209 35.2225 348.081 35.571C347.952 35.9194 348.067 36.3109 348.364 36.5345C348.415 36.5719 348.471 36.6032 348.529 36.6277C349.311 36.9682 349.713 37.8409 349.465 38.6567C349.445 38.7171 349.433 38.7796 349.428 38.8429C349.406 39.2136 349.629 39.5553 349.977 39.6838C350.326 39.8124 350.717 39.6974 350.941 39.4008C350.978 39.3495 351.009 39.2941 351.034 39.2355C351.374 38.4536 352.247 38.0512 353.063 38.3C353.123 38.3195 353.186 38.3317 353.249 38.3365C353.62 38.3591 353.961 38.1361 354.09 37.7876C354.218 37.4392 354.103 37.0477 353.807 36.8241C353.756 36.7866 353.7 36.7554 353.642 36.7309Z" fill="#4D8AF0"/>
<path opacity="0.5" d="M401.02 331.693C400.238 331.353 399.835 330.48 400.084 329.664C400.104 329.604 400.116 329.542 400.121 329.478C400.143 329.108 399.92 328.766 399.572 328.637C399.223 328.509 398.832 328.624 398.608 328.92C398.571 328.972 398.539 329.027 398.515 329.086C398.174 329.868 397.302 330.27 396.486 330.021C396.426 330.002 396.363 329.989 396.3 329.985C395.929 329.962 395.587 330.185 395.459 330.533C395.33 330.882 395.445 331.273 395.742 331.497C395.793 331.534 395.849 331.566 395.907 331.59C396.689 331.931 397.091 332.803 396.843 333.619C396.823 333.68 396.811 333.742 396.806 333.805C396.784 334.176 397.007 334.518 397.355 334.646C397.703 334.775 398.095 334.66 398.319 334.363C398.356 334.312 398.387 334.257 398.412 334.198C398.752 333.416 399.625 333.014 400.441 333.263C400.501 333.282 400.564 333.294 400.627 333.299C400.998 333.322 401.339 333.099 401.468 332.75C401.596 332.402 401.481 332.01 401.185 331.787C401.134 331.749 401.078 331.718 401.02 331.693Z" fill="#4D8AF0"/>
<path opacity="0.5" d="M28.1128 85.6367C27.3309 85.2961 26.9285 84.4234 27.1774 83.6077C27.1968 83.5473 27.2091 83.4848 27.2139 83.4215C27.2364 83.0508 27.0134 82.7091 26.6649 82.5805C26.3165 82.452 25.925 82.567 25.7014 82.8635C25.6639 82.9148 25.6327 82.9703 25.6082 83.0288C25.2677 83.8108 24.395 84.2131 23.5792 83.9643C23.5188 83.9448 23.4563 83.9326 23.393 83.9278C23.0223 83.9052 22.6806 84.1283 22.5521 84.4767C22.4235 84.8252 22.5385 85.2167 22.8351 85.4403C22.8863 85.4777 22.9418 85.509 23.0004 85.5334C23.7823 85.874 24.1847 86.7467 23.9359 87.5624C23.9164 87.6228 23.9042 87.6853 23.8994 87.7486C23.8768 88.1193 24.0998 88.461 24.4483 88.5896C24.7967 88.7181 25.1882 88.6031 25.4118 88.3066C25.4493 88.2553 25.4805 88.1998 25.505 88.1413C25.8455 87.3593 26.7182 86.957 27.534 87.2058C27.5944 87.2252 27.6569 87.2375 27.7202 87.2423C28.0909 87.2649 28.4326 87.0418 28.5611 86.6934C28.6897 86.3449 28.5747 85.9534 28.2781 85.7298C28.2269 85.6924 28.1714 85.6611 28.1128 85.6367Z" fill="#4D8AF0"/>
<path opacity="0.5" d="M59.1797 137.547C60.8678 137.547 62.2363 136.179 62.2363 134.491C62.2363 132.803 60.8678 131.434 59.1797 131.434C57.4915 131.434 56.123 132.803 56.123 134.491C56.123 136.179 57.4915 137.547 59.1797 137.547Z" fill="#47E6B1"/>
<path opacity="0.5" d="M424.443 158.944C426.131 158.944 427.5 157.575 427.5 155.887C427.5 154.199 426.131 152.83 424.443 152.83C422.755 152.83 421.387 154.199 421.387 155.887C421.387 157.575 422.755 158.944 424.443 158.944Z" fill="#47E6B1"/>
<g opacity="0.5">
<rect x="296.779" width="1.5283" height="7.64152" fill="#47E6B1"/>
<path d="M301.874 3.14655V4.49505H293.214V3.14655L301.874 3.14655Z" fill="#47E6B1"/>
</g>
<g opacity="0.5">
<rect x="302.891" y="314.831" width="1.5283" height="7.64152" fill="#47E6B1"/>
<path d="M307.987 317.977V319.325H299.327V317.977H307.987Z" fill="#47E6B1"/>
</g>
<g opacity="0.5">
<rect x="73.5712" y="307.279" width="1.5283" height="7.64152" fill="#47E6B1"/>
<path d="M78.6658 310.425V311.773H70.0054V310.425H78.6658Z" fill="#47E6B1"/>
</g>
<g opacity="0.5">
<rect x="356.381" y="186.453" width="1.5283" height="7.64152" fill="#47E6B1"/>
<path d="M361.477 189.6V190.948H352.816V189.6H361.477Z" fill="#47E6B1"/>
</g>
<path opacity="0.5" d="M396.744 57.1587L399.953 60.0403L404.5 53.4906L406.105 54.8006L399.953 62.6604L395.407 57.6827L396.744 57.1587Z" fill="#47E6B1"/>
<path d="M300.087 113.075L310.554 112.669L311.076 126.146L300.609 126.552L300.087 113.075Z" fill="#6C63FF"/>
<path d="M263.608 159.231C263.608 159.231 248.449 152.375 248.692 158.296C248.934 164.218 263.972 168.113 263.972 168.113L263.608 159.231Z" fill="#FFB9B9"/>
<path d="M271.051 211.279C271.051 211.279 264.21 228.037 261.683 240.13C259.155 252.222 255.306 268.865 260.257 280.667C265.209 292.47 279.286 327.158 279.431 330.901C279.576 334.643 278.226 338.444 281.217 338.328C284.209 338.212 300.489 333.082 301.15 330.807C301.811 328.533 295.595 322.777 295.595 322.777L280.248 274.644L296.261 243.286L307.811 290.067L310.073 348.453C310.073 348.453 321.175 345.024 322.787 347.96C322.787 347.96 327.762 341.02 328.393 337.996C329.025 334.973 326.044 277.364 326.044 277.364C326.044 277.364 336.235 211.747 328.008 212.067C319.781 212.386 287.557 192.646 271.051 211.279Z" fill="#1E2933"/>
<path d="M281.821 335.193C281.821 335.193 274.154 351.72 273.428 352.485C272.702 353.251 267.705 360.82 271.483 360.678C275.262 360.535 284.182 356.507 290.748 350.354C297.314 344.201 305.972 333.541 305.187 332.833C304.402 332.124 299.025 330.114 299.025 330.114L281.821 335.193Z" fill="#575A89"/>
<path d="M312.432 343.736C312.432 343.736 311.978 351.461 310.608 354.599C309.238 357.736 309.411 362.354 313.123 362.205C316.835 362.055 326.43 360.128 326.43 360.128C326.43 360.128 327 355.481 326.228 354.742C325.457 354.002 322.171 345.656 323.569 343.288C324.968 340.92 312.432 343.736 312.432 343.736Z" fill="#575A89"/>
<path d="M317.773 100.868C317.773 100.868 325.859 112.998 329.012 115.805C332.164 118.613 323.296 124.794 323.296 124.794L307.423 126.849C307.423 126.849 307.623 112.947 306.805 111.515C305.988 110.083 317.773 100.868 317.773 100.868Z" fill="#FFB9B9"/>
<path d="M303.627 116.493C303.627 116.493 306.87 122.32 309.879 122.205C312.889 122.089 328.454 115.543 329.119 113.286C329.783 111.029 334.274 129.453 334.274 129.453L296.187 195.623L286.897 189.284L291.398 150.433L295.096 129.465L303.627 116.493Z" fill="#1E2933"/>
<path d="M330.945 176.07C329.435 179.229 328.492 182.524 328.623 185.897C328.628 186.047 328.634 186.196 328.647 186.346C329.006 193.268 331.556 201.274 332.471 207.096C333.134 211.272 332.945 214.321 330.501 215.037C324.576 216.765 331.365 218 308.442 225.63C285.518 233.261 281.518 226.674 281.46 225.178C281.402 223.683 284.706 212.319 283.929 211.6C283.152 210.881 273.059 221.01 270.009 219.63C266.96 218.25 269.661 210.655 269.661 210.655C269.661 210.655 276.531 194.659 276.386 190.919C276.241 187.18 286.793 169.542 286.793 169.542L293.969 122.823C293.969 122.823 296.729 116.724 300.439 115.831C304.15 114.938 307.228 117.066 307.228 117.066L301.019 130.789L294.468 155.013L295.564 163.959C295.564 163.959 303.182 147.933 308.185 141.747C313.188 135.561 323.856 120.915 323.856 120.915C323.856 120.915 326.346 112.512 324.466 110C322.586 107.481 332.308 107.104 336.454 117.43C338.651 122.903 342.218 131.064 344.453 138.663C346.444 145.394 347.385 151.687 345.412 155.284C342.397 160.779 334.812 168.002 330.945 176.07Z" fill="#575A89"/>
<path opacity="0.1" d="M345.424 154.721C342.446 160.282 334.954 167.591 331.135 175.755C330.137 172.073 328.92 168.263 328.92 168.263C328.92 168.263 324.252 142.676 338.059 136.063C340.347 135.836 342.635 136.491 344.477 137.9C346.444 144.712 347.373 151.081 345.424 154.721Z" fill="black"/>
<path d="M288.817 154.359L277.19 157.734L261.048 158.358L259.387 172.324L285.916 174.227C285.916 174.227 292.542 155.678 288.817 154.359Z" fill="#575A89"/>
<path d="M308.936 201.736C308.936 201.736 292.961 204.286 296.607 208.91C300.253 213.535 314.406 208.673 314.406 208.673L308.936 201.736Z" fill="#FFB9B9"/>
<path opacity="0.1" d="M328.871 186.453C329.234 193.433 331.819 201.504 332.746 207.374C327.627 212.194 322.76 216.445 320.925 216.516C317.135 216.662 311.042 216.142 308.797 216.983C306.553 217.825 305.236 203.527 305.236 203.527C305.236 203.527 306.576 198.944 312.552 196.448C316.585 194.759 324.317 190.178 328.871 186.453Z" fill="black"/>
<path d="M337.64 133.013C337.64 133.013 350.21 131.033 349.531 151.93C348.852 172.826 350.856 186.165 345.8 190.088C340.745 194.012 324.324 211.793 320.61 211.937C316.896 212.081 310.925 211.568 308.726 212.399C306.526 213.23 305.236 199.118 305.236 199.118C305.236 199.118 306.549 194.595 312.405 192.131C318.26 189.668 332.056 180.933 331.941 177.956C331.826 174.979 328.451 164.675 328.451 164.675C328.451 164.675 323.758 139.515 337.64 133.013Z" fill="#575A89"/>
<path d="M306.764 119.208C316.049 119.208 323.576 111.681 323.576 102.396C323.576 93.1117 316.049 85.585 306.764 85.585C297.48 85.585 289.953 93.1117 289.953 102.396C289.953 111.681 297.48 119.208 306.764 119.208Z" fill="#FFB9B9"/>
<path d="M295.559 78.2201C295.167 78.5631 294.697 78.8024 294.191 78.9166C293.662 79.0121 293.157 78.657 293.059 78.1216C292.687 78.9047 292.267 79.7394 291.507 80.1412C290.747 80.543 289.571 80.2061 289.462 79.3438C289.351 79.9985 289.065 80.6099 288.636 81.1117C288.164 81.5678 287.309 81.6829 286.897 81.1707C287.23 83.0158 287.024 84.9134 287.129 86.7862C287.234 88.6589 287.726 90.6444 289.121 91.8759C291.156 93.6718 294.215 93.2286 296.892 92.8883C297.296 92.8022 297.716 92.8255 298.109 92.9559C299.112 93.3889 299.066 94.8037 299.08 95.9084C299.248 99.9107 302.243 103.204 306.163 103.699C307.225 103.865 308.309 103.597 309.176 102.953C309.936 102.3 310.324 101.235 311.195 100.744C312.611 99.9459 314.329 101.11 315.365 102.374C316.4 103.638 317.421 105.193 319.025 105.424C321.147 105.73 322.763 103.537 323.556 101.518C325.766 95.8003 325.605 89.4198 323.11 83.8242C318.679 74.03 303.546 72.4809 295.559 78.2201Z" fill="#2F2E41"/>
<defs>
<linearGradient id="paint0_linear" x1="184.934" y1="205.867" x2="260.631" y2="205.867" gradientUnits="userSpaceOnUse">
<stop stop-color="#808080" stop-opacity="0.25"/>
<stop offset="0.53514" stop-color="#808080" stop-opacity="0.12"/>
<stop offset="1" stop-color="#808080" stop-opacity="0.1"/>
</linearGradient>
</defs>
</svg>
