<svg width="482" height="376" viewBox="0 0 482 376" fill="none" xmlns="http://www.w3.org/2000/svg">
<path d="M395.615 37.583V322.148L299.179 308.71L181.95 332.626L181.006 332.819L87.7314 307.129V59.7159L184.563 37.583L290.484 59.7159L294.511 58.8661L395.615 37.583Z" fill="#444053"/>
<path d="M379.409 53.1234V307.734L293.127 295.711L188.237 317.109L187.391 317.279L103.935 294.296V72.9244L190.577 53.1234L285.345 72.9244L288.949 72.1656L379.409 53.1234Z" fill="white"/>
<path opacity="0.5" d="M91.9051 3.84976C90.9951 3.45344 90.5269 2.43783 90.8164 1.48847C90.8391 1.41816 90.8533 1.34543 90.8589 1.27178C90.8852 0.84035 90.6256 0.442686 90.2201 0.293095C89.8146 0.143505 89.3589 0.277338 89.0987 0.62247C89.0552 0.682107 89.0188 0.746676 88.9903 0.81484C88.594 1.72482 87.5784 2.19306 86.629 1.90349C86.5587 1.88086 86.486 1.8666 86.4123 1.86101C85.9809 1.83474 85.5833 2.09431 85.4337 2.49983C85.2841 2.90535 85.4179 3.36098 85.763 3.62118C85.8227 3.66476 85.8872 3.70115 85.9554 3.72959C86.8654 4.12591 87.3336 5.14152 87.0441 6.09088C87.0214 6.16119 87.0072 6.23393 87.0016 6.30758C86.9753 6.73901 87.2349 7.13667 87.6404 7.28626C88.0459 7.43585 88.5015 7.30202 88.7617 6.95689C88.8053 6.89725 88.8417 6.83268 88.8702 6.76452C89.2665 5.85453 90.2821 5.38629 91.2315 5.67586C91.3018 5.6985 91.3745 5.71276 91.4481 5.71835C91.8796 5.74461 92.2772 5.48504 92.4268 5.07952C92.5764 4.67401 92.4426 4.21838 92.0975 3.95818C92.0378 3.9146 91.9733 3.87821 91.9051 3.84976Z" fill="#4D8AF0"/>
<path opacity="0.5" d="M10.0887 185.267C9.1787 184.87 8.71046 183.855 9.00003 182.905C9.02266 182.835 9.03692 182.762 9.04251 182.689C9.06878 182.257 8.80921 181.86 8.40369 181.71C7.99817 181.56 7.54254 181.694 7.28234 182.039C7.23876 182.099 7.20237 182.164 7.17392 182.232C6.7776 183.142 5.76199 183.61 4.81263 183.32C4.74232 183.298 4.66959 183.284 4.59594 183.278C4.16451 183.252 3.76684 183.511 3.61725 183.917C3.46766 184.322 3.6015 184.778 3.94663 185.038C4.00626 185.082 4.07083 185.118 4.139 185.147C5.04898 185.543 5.51722 186.559 5.22765 187.508C5.20502 187.578 5.19076 187.651 5.18517 187.725C5.1589 188.156 5.41847 188.554 5.82399 188.703C6.22951 188.853 6.68514 188.719 6.94534 188.374C6.98892 188.314 7.02531 188.25 7.05376 188.181C7.45007 187.272 8.46569 186.803 9.41505 187.093C9.48536 187.115 9.55809 187.13 9.63174 187.135C10.0632 187.162 10.4608 186.902 10.6104 186.497C10.76 186.091 10.6262 185.635 10.2811 185.375C10.2214 185.332 10.1568 185.295 10.0887 185.267Z" fill="#4D8AF0"/>
<path opacity="0.5" d="M419.75 122.956C421.714 122.956 423.307 121.363 423.307 119.399C423.307 117.434 421.714 115.841 419.75 115.841C417.785 115.841 416.192 117.434 416.192 119.399C416.192 121.363 417.785 122.956 419.75 122.956Z" fill="#F55F44"/>
<path opacity="0.5" d="M112.051 334.609C114.016 334.609 115.609 333.016 115.609 331.052C115.609 329.087 114.016 327.494 112.051 327.494C110.087 327.494 108.494 329.087 108.494 331.052C108.494 333.016 110.087 334.609 112.051 334.609Z" fill="#F55F44"/>
<path opacity="0.5" d="M476.665 252.793C478.629 252.793 480.222 251.201 480.222 249.236C480.222 247.272 478.629 245.679 476.665 245.679C474.7 245.679 473.107 247.272 473.107 249.236C473.107 251.201 474.7 252.793 476.665 252.793Z" fill="#F55F44"/>
<path opacity="0.5" d="M394.266 19.8571C393.356 19.4608 392.888 18.4452 393.178 17.4958C393.2 17.4255 393.215 17.3528 393.22 17.2791C393.247 16.8477 392.987 16.45 392.581 16.3005C392.176 16.1509 391.72 16.2847 391.46 16.6298C391.416 16.6895 391.38 16.754 391.352 16.8222C390.955 17.7322 389.94 18.2004 388.99 17.9108C388.92 17.8882 388.847 17.874 388.774 17.8684C388.342 17.8421 387.945 18.1017 387.795 18.5072C387.645 18.9127 387.779 19.3683 388.124 19.6285C388.184 19.6721 388.249 19.7085 388.317 19.7369C389.227 20.1333 389.695 21.1489 389.405 22.0982C389.383 22.1685 389.368 22.2413 389.363 22.3149C389.337 22.7464 389.596 23.144 390.002 23.2936C390.407 23.4432 390.863 23.3094 391.123 22.9642C391.167 22.9046 391.203 22.84 391.231 22.7719C391.628 21.8619 392.643 21.3936 393.593 21.6832C393.663 21.7059 393.736 21.7201 393.809 21.7257C394.241 21.752 394.639 21.4924 394.788 21.0869C394.938 20.6814 394.804 20.2257 394.459 19.9655C394.399 19.922 394.335 19.8856 394.266 19.8571Z" fill="#4D8AF0"/>
<path opacity="0.5" d="M451.181 372.019C450.271 371.623 449.803 370.608 450.093 369.658C450.115 369.588 450.13 369.515 450.135 369.442C450.162 369.01 449.902 368.612 449.496 368.463C449.091 368.313 448.635 368.447 448.375 368.792C448.332 368.852 448.295 368.916 448.267 368.985C447.87 369.895 446.855 370.363 445.905 370.073C445.835 370.051 445.762 370.036 445.689 370.031C445.257 370.004 444.86 370.264 444.71 370.67C444.56 371.075 444.694 371.531 445.039 371.791C445.099 371.834 445.164 371.871 445.232 371.899C446.142 372.296 446.61 373.311 446.32 374.261C446.298 374.331 446.284 374.404 446.278 374.477C446.252 374.909 446.511 375.306 446.917 375.456C447.322 375.606 447.778 375.472 448.038 375.127C448.082 375.067 448.118 375.002 448.147 374.934C448.543 374.024 449.558 373.556 450.508 373.846C450.578 373.868 450.651 373.882 450.725 373.888C451.156 373.914 451.554 373.655 451.703 373.249C451.853 372.844 451.719 372.388 451.374 372.128C451.314 372.084 451.25 372.048 451.181 372.019Z" fill="#4D8AF0"/>
<path opacity="0.5" d="M6.53204 78.5509C5.62206 78.1545 5.15382 77.1389 5.44339 76.1896C5.46602 76.1193 5.48028 76.0465 5.48587 75.9729C5.51214 75.5414 5.25257 75.1438 4.84705 74.9942C4.44153 74.8446 3.9859 74.9784 3.7257 75.3236C3.68212 75.3832 3.64573 75.4478 3.61728 75.5159C3.22096 76.4259 2.20535 76.8942 1.25599 76.6046C1.18568 76.582 1.11295 76.5677 1.0393 76.5621C0.607868 76.5358 0.210204 76.7954 0.0606127 77.2009C-0.0889784 77.6064 0.0448551 78.0621 0.389988 78.3223C0.449623 78.3659 0.514193 78.4022 0.582358 78.4307C1.49234 78.827 1.96058 79.8426 1.67101 80.792C1.64838 80.8623 1.63412 80.935 1.62853 81.0087C1.60226 81.4401 1.86183 81.8378 2.26735 81.9874C2.67287 82.1369 3.1285 82.0031 3.3887 81.658C3.43228 81.5983 3.46867 81.5338 3.49712 81.4656C3.89343 80.5556 4.90905 80.0874 5.85841 80.377C5.92872 80.3996 6.00145 80.4139 6.0751 80.4194C6.50653 80.4457 6.90419 80.1861 7.05378 79.7806C7.20337 79.3751 7.06954 78.9195 6.72441 78.6593C6.66477 78.6157 6.6002 78.5793 6.53204 78.5509Z" fill="#4D8AF0"/>
<path opacity="0.5" d="M44.4654 140.742C46.43 140.742 48.0226 139.149 48.0226 137.184C48.0226 135.22 46.43 133.627 44.4654 133.627C42.5008 133.627 40.9082 135.22 40.9082 137.184C40.9082 139.149 42.5008 140.742 44.4654 140.742Z" fill="#47E6B1"/>
<path opacity="0.5" d="M478.443 165.642C480.408 165.642 482 164.049 482 162.085C482 160.12 480.408 158.528 478.443 158.528C476.478 158.528 474.886 160.12 474.886 162.085C474.886 164.049 476.478 165.642 478.443 165.642Z" fill="#47E6B1"/>
<path opacity="0.1" d="M181.95 332.626L184.563 37.583L290.484 59.7159L294.511 58.8661L299.179 308.71L181.95 332.626Z" fill="black"/>
<g opacity="0.3">
<path d="M287.474 92.1247L287.521 174.925H321.906V140.936H380.795L387.712 132.067" stroke="#444053" stroke-width="4.94834"/>
<path d="M96.0322 118.407H223.889L231.793 114.85H234.955V194.687H290.287L292.659 201.801V237.767H335.344V282.23" stroke="#444053" stroke-width="4.94834"/>
<path d="M251.844 282.23V194.687" stroke="#444053" stroke-width="4.94834"/>
<path d="M387.71 258.777H251.842" stroke="#444053" stroke-width="4.94834"/>
<path d="M353.682 92.1247V282.23" stroke="#444053" stroke-width="4.94834"/>
<path d="M95.6367 241.972H387.711" stroke="#444053" stroke-width="4.94834"/>
<path d="M131.184 282.23V92.1247" stroke="#444053" stroke-width="4.94834"/>
<path d="M199.077 92.1247V282.23" stroke="#444053" stroke-width="4.94834"/>
<path d="M96.0322 140.145L321.906 140.935" stroke="#444053" stroke-width="4.94834"/>
<path d="M161.771 92.4685V282.23" stroke="#444053" stroke-width="4.94834"/>
<path d="M95.6367 184.142H199.076L251.843 241.972" stroke="#444053" stroke-width="4.94834"/>
<path d="M263.273 92.1247V194.687" stroke="#444053" stroke-width="4.94834"/>
<path d="M251.842 213.057H387.71" stroke="#444053" stroke-width="4.94834"/>
</g>
<path fill-rule="evenodd" clip-rule="evenodd" d="M250.85 144.01C250.85 131.944 260.631 122.162 272.698 122.162C284.764 122.162 294.546 131.944 294.546 144.01C294.546 156.093 272.698 195.28 272.698 195.28C272.698 195.28 250.85 156.077 250.85 144.01ZM263.086 143.718C263.086 149.026 267.39 153.33 272.698 153.33V153.326C278.005 153.326 282.308 149.025 282.31 143.718C282.31 138.409 278.007 134.106 272.698 134.106C267.39 134.106 263.086 138.409 263.086 143.718Z" fill="#FA6400"/>
<path opacity="0.1" fill-rule="evenodd" clip-rule="evenodd" d="M250.85 144.01C250.85 131.944 260.631 122.162 272.698 122.162C284.764 122.162 294.546 131.944 294.546 144.01C294.546 156.093 272.698 195.28 272.698 195.28C272.698 195.28 250.85 156.077 250.85 144.01ZM263.086 144.459C263.086 150.177 267.39 154.812 272.698 154.812V154.808C278.005 154.808 282.308 150.175 282.31 144.459C282.31 138.741 278.007 134.106 272.698 134.106C267.39 134.106 263.086 138.741 263.086 144.459Z" fill="#1E2933"/>
<path fill-rule="evenodd" clip-rule="evenodd" d="M250.85 146.642C250.85 134.576 260.631 124.794 272.698 124.794C284.764 124.794 294.546 134.576 294.546 146.642C294.546 158.724 272.698 197.911 272.698 197.911C272.698 197.911 250.85 158.709 250.85 146.642ZM263.086 146.35C263.086 151.658 267.39 155.962 272.698 155.962V155.958C278.005 155.958 282.308 151.657 282.31 146.35C282.31 141.041 278.007 136.738 272.698 136.738C267.39 136.738 263.086 141.041 263.086 146.35Z" fill="#FA6400"/>
<path opacity="0.1" d="M88.7582 339.773C94.1816 334.35 87.9047 319.28 74.7384 306.114C61.5721 292.948 46.5022 286.671 41.0789 292.094C35.6556 297.517 41.9325 312.587 55.0988 325.753C68.2651 338.92 83.3349 345.197 88.7582 339.773Z" fill="#6C63FF"/>
<path d="M67.587 318.601C71.5162 318.601 74.7014 314.222 74.7014 308.819C74.7014 303.417 71.5162 299.037 67.587 299.037C63.6579 299.037 60.4727 303.417 60.4727 308.819C60.4727 314.222 63.6579 318.601 67.587 318.601Z" fill="#3F3D56"/>
<path d="M67.587 306.151C71.5162 306.151 74.7014 301.772 74.7014 296.369C74.7014 290.966 71.5162 286.587 67.587 286.587C63.6579 286.587 60.4727 290.966 60.4727 296.369C60.4727 301.772 63.6579 306.151 67.587 306.151Z" fill="#3F3D56"/>
<path d="M67.587 293.701C71.5162 293.701 74.7014 289.321 74.7014 283.919C74.7014 278.516 71.5162 274.137 67.587 274.137C63.6579 274.137 60.4727 278.516 60.4727 283.919C60.4727 289.321 63.6579 293.701 67.587 293.701Z" fill="#3F3D56"/>
<path d="M67.587 283.03C71.5162 283.03 74.7014 278.65 74.7014 273.247C74.7014 267.845 71.5162 263.465 67.587 263.465C63.6579 263.465 60.4727 267.845 60.4727 273.247C60.4727 278.65 63.6579 283.03 67.587 283.03Z" fill="#3F3D56"/>
<path d="M67.587 270.579C71.5162 270.579 74.7014 266.2 74.7014 260.797C74.7014 255.394 71.5162 251.015 67.587 251.015C63.6579 251.015 60.4727 255.394 60.4727 260.797C60.4727 266.2 63.6579 270.579 67.587 270.579Z" fill="#3F3D56"/>
<path d="M67.587 258.129C71.5162 258.129 74.7014 254.148 74.7014 249.236C74.7014 244.325 71.5162 240.343 67.587 240.343C63.6579 240.343 60.4727 244.325 60.4727 249.236C60.4727 254.148 63.6579 258.129 67.587 258.129Z" fill="#3F3D56"/>
<path d="M95.5288 157.127C96.5443 155.843 97.4688 154.49 98.2955 153.079L78.7902 149.891L99.8864 150.043C103.976 141.188 104.226 131.048 100.578 122.004L72.2815 136.619L98.3647 117.522C91.7051 106.048 79.1639 99.2385 65.8661 99.875C52.5682 100.511 40.7415 108.488 35.2189 120.544C29.6962 132.601 31.4028 146.718 39.6412 157.127C38.0601 159.125 36.7011 161.287 35.588 163.577L60.9034 176.657L33.928 167.639C30.08 178.968 32.2364 191.466 39.662 200.868C28.1979 215.375 29.8611 236.214 43.4824 248.737C57.1037 261.26 78.1079 261.26 91.7292 248.737C105.35 236.214 107.014 215.375 95.5495 200.868C105.694 188.03 105.694 169.951 95.5495 157.113L95.5288 157.127Z" fill="#6A00FF"/>
<path opacity="0.1" d="M32.0152 178.616C32.0018 186.591 34.6844 194.337 39.6278 200.598C28.1575 215.172 29.8216 236.11 43.4502 248.693C57.0788 261.275 78.0944 261.275 91.723 248.693C105.352 236.11 107.016 215.172 95.5455 200.598C100.314 194.552 32.0152 174.625 32.0152 178.616Z" fill="black"/>
<path d="M393.069 134.591L425.988 135.406L430.42 96.2768H393.069V134.591Z" fill="#2F2E41"/>
<path d="M427.149 184.215L439.146 266.105C439.146 266.105 449.543 295.239 450.343 309.412L453.542 329.885L439.146 333.034L423.95 275.554L403.155 223.585L405.555 283.428L410.353 332.247L395.957 334.609L387.159 272.404L377.562 226.735C377.562 226.735 370.364 187.365 381.561 183.428L427.149 184.215Z" fill="#2F2E41"/>
<path d="M439.814 323.937L441.422 343.405C441.422 343.405 424.212 353.31 429.734 355.23C435.256 357.15 442.814 354.68 444.36 354.244C445.993 353.783 449.041 353.048 451.347 352.504C453.539 352.005 455.147 350.142 455.314 347.91L455.318 347.839C455.457 345.443 450.028 324.625 450.028 324.625L439.814 323.937Z" fill="#2F2E41"/>
<path d="M399.539 323.937L398.151 342.165C398.151 342.165 378.076 349.262 383.251 352.136C388.426 355.01 396.511 354.044 398.151 353.912C401.176 353.67 408.702 353.428 408.702 353.428C408.702 353.428 410.093 354.575 410.704 352.298C411.315 350.022 409.889 329.685 409.889 329.685L399.539 323.937Z" fill="#2F2E41"/>
<path d="M409.966 117.62C418.315 117.62 425.084 110.851 425.084 102.502C425.084 94.1524 418.315 87.3838 409.966 87.3838C401.616 87.3838 394.848 94.1524 394.848 102.502C394.848 110.851 401.616 117.62 409.966 117.62Z" fill="#FFB8B8"/>
<path d="M418.479 112.284L421.528 129.24L408.569 135.406L405.521 113.825L418.479 112.284Z" fill="#FFB8B8"/>
<path d="M419.749 194.168L403.41 205.749C403.41 205.749 396.407 223.506 390.961 220.418C385.514 217.33 397.185 201.889 397.185 201.889L410.412 188.764L419.749 194.168Z" fill="#FFB8B8"/>
<path d="M373.34 188.764L371.727 197.912C371.727 197.912 375.759 216.972 380.598 213.16C385.438 209.348 378.985 197.15 378.985 197.15L379.792 189.526L373.34 188.764Z" fill="#FFB8B8"/>
<path d="M411.092 130.521L412.683 124.165L422.231 119.399L425.413 123.371L435.756 126.549L423.822 190.105C423.822 190.105 383.245 192.488 382.45 186.132C381.654 179.777 390.406 162.299 390.406 162.299C390.406 162.299 388.019 153.56 388.815 148.793L391.997 129.726L404.727 125.754L407.634 122.242L410.296 126.549L411.092 130.521Z" fill="#FA6400"/>
<path d="M433.307 128.089L435.746 126.513C435.746 126.513 440.622 127.301 442.248 133.607C443.873 139.913 442.248 168.29 438.184 173.807C434.12 179.325 422.741 195.878 422.741 195.878L407.299 188.784L423.554 170.655L427.618 147.795L433.307 128.089Z" fill="#FA6400"/>
<path d="M398.406 131.666L392.082 130.07C392.082 130.07 388.129 131.666 386.548 137.253C384.968 142.84 376.272 170.773 377.063 173.167C377.853 175.561 369.948 191.523 369.948 191.523L381.015 192.321L387.339 175.561L393.663 158.801L398.406 131.666Z" fill="#FA6400"/>
<path d="M437.519 116.065C434.317 114.315 432.827 110.388 432.72 106.755C432.614 103.122 433.5 99.5261 433.569 95.8919C433.605 95.1484 433.541 94.4035 433.38 93.6767C433.114 92.7746 432.701 91.9224 432.155 91.1546C427.992 84.8061 420.754 80.3404 413.13 80.2701C412.028 80.2557 410.935 80.4558 409.911 80.859C409.122 81.1731 408.865 81.1347 408.714 82.0977C406.908 81.5048 404.949 81.5668 403.185 82.2726C401.437 82.9796 399.807 83.9456 398.349 85.1379C397.483 85.7787 396.666 86.4827 395.905 87.2439C391.876 91.3971 390.948 97.7979 392.115 103.452C392.495 105.291 390.674 107.065 389.168 108.194C387.661 109.324 385.922 110.36 385.182 112.087C384.47 113.747 384.861 115.646 384.718 117.446C384.39 120.916 382.112 123.901 378.841 125.148C379.507 125.942 380.557 126.309 381.576 126.105C382.62 125.886 383.597 125.423 384.427 124.755C387.545 122.455 389.776 119.161 390.747 115.423C391.19 117.425 391.018 119.491 391.002 121.541C391.041 123.829 390.617 126.102 389.756 128.224C388.881 130.356 387.278 132.113 385.229 133.185C387.205 134.148 389.383 133.45 391.057 132.029C392.732 130.609 393.721 128.547 394.411 126.468C395.535 123.081 395.991 119.509 395.754 115.949C397.592 119.029 398.264 122.66 397.648 126.189C397.005 129.787 395.117 133.048 392.311 135.406C397.203 135.365 402.013 134.159 406.341 131.89C407.458 131.386 408.443 130.632 409.218 129.685C410.611 127.763 410.281 125.141 409.891 122.804C409.582 120.956 411.903 118.284 410.574 116.956C410.179 116.568 409.651 116.342 409.096 116.325C405.045 116.023 401.365 113.865 399.137 110.484C397.604 108.191 396.734 105.523 396.62 102.771C396.623 97.2507 399.877 92.2449 404.935 89.9789C409.994 87.7129 415.918 88.6076 420.073 92.265C424.227 95.9225 425.842 101.664 424.199 106.936C423.719 108.489 423.376 110.08 423.172 111.693C422.931 113.563 422.549 115.413 422.027 117.226C421.022 120.711 419.318 124.266 416.165 126.084C417.225 126.66 418.451 126.686 419.651 126.818C423.607 127.252 427.767 127.156 431.348 125.427C434.928 123.698 437.774 120.017 437.519 116.065Z" fill="#2F2E41"/>
<path d="M428.641 101.613C417.17 97.3377 405.862 96.4257 394.848 101.613V92.9959C394.848 89.8964 397.55 87.3838 400.883 87.3838H423.873C425.137 87.3838 426.35 87.8509 427.244 88.6824C428.139 89.5138 428.641 90.6416 428.641 91.8174V101.613Z" fill="#2F2E41"/>
<path d="M425.085 106.948C426.068 106.948 426.864 105.754 426.864 104.28C426.864 102.807 426.068 101.613 425.085 101.613C424.103 101.613 423.307 102.807 423.307 104.28C423.307 105.754 424.103 106.948 425.085 106.948Z" fill="#FFB8B8"/>
</svg>
