<svg width="450" height="370" viewBox="0 0 450 370" fill="none" xmlns="http://www.w3.org/2000/svg">
<rect x="375.51" y="184.726" width="2.73246" height="61.5216" fill="#535461"/>
<path d="M395.413 246.06L395.243 248.832L394.999 252.754L394.899 254.384L394.659 258.306L394.554 259.936L394.31 263.858L391.556 308.34C391.308 312.313 388.014 315.408 384.034 315.409H369.714C365.735 315.407 362.443 312.312 362.196 308.34L359.455 263.828L359.211 259.906L359.111 258.276L358.867 254.354L358.767 252.724L358.523 248.802L358.348 246.03C358.287 244.952 358.673 243.896 359.415 243.112C360.158 242.327 361.191 241.884 362.271 241.886H391.561C392.636 241.895 393.661 242.349 394.39 243.139C395.12 243.93 395.49 244.987 395.413 246.06Z" fill="#3F3D56"/>
<path d="M395.243 248.832L394.999 252.741H358.749L358.505 248.832H395.243Z" fill="#9D9CB5"/>
<path d="M394.898 254.371L394.659 258.285H359.093L358.849 254.371H394.898Z" fill="#9D9CB5"/>
<path d="M394.555 259.919L394.315 263.828H359.438L359.194 259.919H394.555Z" fill="#9D9CB5"/>
<path d="M354.335 207.784C370.246 219.298 376.887 237.305 376.887 237.305C376.887 237.305 357.712 236.647 341.797 225.133C325.882 213.62 319.253 195.617 319.253 195.617C319.253 195.617 338.42 196.27 354.335 207.784Z" fill="#6C63FF"/>
<path d="M319.24 195.617C319.24 195.617 339.147 206.664 345.531 215.812C351.916 224.959 376.887 237.305 376.887 237.305" stroke="#535461" stroke-width="3.66942"/>
<path d="M364.606 184.591C373.266 190.854 376.887 200.655 376.887 200.655C376.887 200.655 366.45 200.297 357.786 194.035C349.123 187.773 345.51 177.967 345.51 177.967C345.51 177.967 355.943 178.324 364.606 184.591Z" fill="#6C63FF"/>
<path d="M345.51 177.967C345.51 177.967 356.344 183.981 359.817 188.958C363.29 193.935 376.887 200.655 376.887 200.655" stroke="#535461" stroke-width="3.66942"/>
<path d="M389.46 200.158C379.511 211.092 377.406 225.382 377.406 225.382C377.406 225.382 391.434 221.939 401.375 211C411.315 200.062 413.429 185.776 413.429 185.776C413.429 185.776 399.409 189.224 389.46 200.158Z" fill="#6C63FF"/>
<path d="M413.438 185.781C413.438 185.781 400.477 196.989 397.182 204.712C393.888 212.434 377.406 225.382 377.406 225.382" stroke="#535461" stroke-width="3.66942"/>
<path opacity="0.5" d="M379.785 82.562C381.812 82.562 383.455 80.9191 383.455 78.8926C383.455 76.866 381.812 75.2231 379.785 75.2231C377.759 75.2231 376.116 76.866 376.116 78.8926C376.116 80.9191 377.759 82.562 379.785 82.562Z" fill="#F55F44"/>
<path opacity="0.5" d="M62.3801 300.893C64.4067 300.893 66.0495 299.25 66.0495 297.223C66.0495 295.197 64.4067 293.554 62.3801 293.554C60.3535 293.554 58.7107 295.197 58.7107 297.223C58.7107 299.25 60.3535 300.893 62.3801 300.893Z" fill="#F55F44"/>
<path opacity="0.5" d="M438.496 216.496C440.522 216.496 442.165 214.853 442.165 212.826C442.165 210.8 440.522 209.157 438.496 209.157C436.469 209.157 434.826 210.8 434.826 212.826C434.826 214.853 436.469 216.496 438.496 216.496Z" fill="#F55F44"/>
<path opacity="0.5" d="M412.209 310.128C411.271 309.719 410.788 308.672 411.086 307.692C411.11 307.62 411.124 307.545 411.13 307.469C411.157 307.024 410.889 306.614 410.471 306.459C410.053 306.305 409.583 306.443 409.314 306.799C409.269 306.861 409.232 306.927 409.203 306.997C408.794 307.936 407.746 308.419 406.767 308.12C406.694 308.097 406.619 308.082 406.543 308.077C406.098 308.05 405.688 308.317 405.534 308.736C405.379 309.154 405.517 309.624 405.873 309.892C405.935 309.937 406.002 309.975 406.072 310.004C407.011 310.413 407.494 311.461 407.195 312.44C407.172 312.512 407.157 312.588 407.151 312.663C407.124 313.109 407.392 313.519 407.81 313.673C408.228 313.827 408.698 313.689 408.967 313.333C409.012 313.272 409.049 313.205 409.079 313.135C409.487 312.196 410.535 311.713 411.514 312.012C411.587 312.035 411.662 312.05 411.738 312.056C412.183 312.083 412.593 311.815 412.748 311.397C412.902 310.978 412.764 310.508 412.408 310.24C412.346 310.195 412.28 310.157 412.209 310.128Z" fill="#4D8AF0"/>
<path d="M443.426 326.132V328.409C443.423 330.857 442.389 333.19 440.577 334.836C438.765 336.482 436.344 337.289 433.907 337.059C416.083 335.365 398.342 332.215 380.459 332.766C347.489 333.772 314.245 347.257 282.331 338.925C273.331 336.576 264.431 332.492 255.17 333.371C246.862 334.159 239.468 338.857 231.419 341.06C206.94 347.78 182.014 330.799 156.638 331.486C139.911 331.942 123.895 340.086 107.187 339.18C97.5037 338.661 88.2801 335.119 78.8334 332.939C55.3145 327.503 31.0945 330.539 6.86082 332.424C5.09325 332.56 3.3491 331.953 2.0473 330.749C0.745505 329.546 0.00367828 327.855 0 326.082V324.134C0 320.614 2.8536 317.76 6.37368 317.76L434.74 317.414C437.048 317.418 439.26 318.338 440.889 319.974C442.519 321.609 443.431 323.824 443.426 326.132Z" fill="#3F3D56"/>
<path opacity="0.1" d="M443.426 326.132V328.409C443.423 330.857 442.389 333.19 440.577 334.836C438.765 336.482 436.344 337.289 433.907 337.059C416.083 335.365 398.342 332.215 380.459 332.766C347.489 333.772 314.245 347.257 282.331 338.925C273.331 336.576 264.431 332.492 255.17 333.371C246.862 334.159 239.468 338.857 231.419 341.06C206.94 347.78 182.014 330.799 156.638 331.486C139.911 331.942 123.895 340.086 107.187 339.18C97.5037 338.661 88.2801 335.119 78.8334 332.939C55.3145 327.503 31.0945 330.539 6.86082 332.424C5.09325 332.56 3.3491 331.953 2.0473 330.749C0.745505 329.546 0.00367828 327.855 0 326.082V324.134C0 320.614 2.8536 317.76 6.37368 317.76L434.74 317.414C437.048 317.418 439.26 318.338 440.889 319.974C442.519 321.609 443.431 323.824 443.426 326.132Z" fill="black"/>
<path d="M443.426 321.971V324.248C443.426 324.564 443.409 324.88 443.376 325.194C442.871 329.932 438.65 333.382 433.907 332.934C416.083 331.236 398.342 328.085 380.459 328.636C347.489 329.647 314.246 343.132 282.332 334.796C273.331 332.447 264.431 328.363 255.171 329.242C246.862 330.029 239.469 334.728 231.419 336.936C206.94 343.637 182.014 326.656 156.638 327.339C139.912 327.794 123.895 335.939 107.187 335.037C97.5038 334.514 88.2802 330.976 78.8335 328.791C55.3191 323.36 31.0946 326.396 6.8609 328.281C3.59565 328.533 0.670785 326.27 0.0956855 323.046C0.0301748 322.676 -0.00182349 322.301 8.01796e-05 321.926V319.977C8.01796e-05 316.457 2.85368 313.603 6.37376 313.603L113.738 313.517L333.089 313.335L434.74 313.253C437.048 313.257 439.26 314.177 440.89 315.812C442.519 317.448 443.431 319.663 443.426 321.971Z" fill="#3F3D56"/>
<path opacity="0.1" d="M338.529 314.641C338.529 315.648 336.544 316.613 332.884 317.519C318.229 321.138 276.8 323.747 227.9 323.747C179.792 323.747 138.86 321.22 123.645 317.687C119.547 316.736 117.271 315.711 117.271 314.641C117.271 314.268 117.544 313.899 118.081 313.535L337.432 313.353C338.156 313.776 338.529 314.186 338.529 314.641Z" fill="black"/>
<rect x="303.925" y="72.4551" width="4.69376" height="38.7065" rx="2.34688" fill="#3F3D56"/>
<rect x="147.851" y="42.13" width="2.63597" height="12.7428" rx="1.31799" fill="#3F3D56"/>
<rect x="147.756" y="65.4578" width="2.96832" height="22.1804" rx="1.48416" fill="#3F3D56"/>
<rect x="147.802" y="95.4004" width="2.82718" height="22.3716" rx="1.41359" fill="#3F3D56"/>
<rect x="149.344" y="0.0181885" width="157.111" height="319.308" rx="12.843" fill="#3F3D56"/>
<rect x="212.745" y="9.55591" width="21.9391" height="4.45703" rx="2.22851" fill="#E6E8EC"/>
<path d="M240.529 14.3089C241.925 14.3089 243.056 13.1777 243.056 11.7822C243.056 10.3867 241.925 9.25549 240.529 9.25549C239.134 9.25549 238.003 10.3867 238.003 11.7822C238.003 13.1777 239.134 14.3089 240.529 14.3089Z" fill="#E6E8EC"/>
<path d="M296.754 20.8146V298.525C296.752 305.415 291.166 310.999 284.276 310.999H171.525C164.635 310.999 159.049 305.415 159.046 298.525V20.8146C159.046 13.9227 164.633 8.33582 171.525 8.33582H188.397V10.5256C188.4 16.1995 192.999 20.7984 198.672 20.8009H256.036C261.702 20.7884 266.288 16.1916 266.288 10.5256V8.35858H284.276C291.159 8.35857 296.742 13.9316 296.754 20.8146Z" fill="white"/>
<rect x="162.985" y="34.8777" width="14.1132" height="1.82105" fill="#3F3D56"/>
<rect x="162.985" y="38.0646" width="14.1132" height="1.82105" fill="#3F3D56"/>
<rect x="162.985" y="41.2513" width="14.1132" height="1.82105" fill="#3F3D56"/>
<rect x="162.985" y="34.8777" width="14.1132" height="1.82105" fill="#3F3D56"/>
<rect x="162.985" y="38.0646" width="14.1132" height="1.82105" fill="#3F3D56"/>
<rect x="162.985" y="41.2513" width="14.1132" height="1.82105" fill="#3F3D56"/>
<path fill-rule="evenodd" clip-rule="evenodd" d="M289.889 39.4303H290.303L292.944 42.0526L292.161 42.8357L289.547 40.2179V39.7991L289.393 39.667C288.768 40.1853 287.983 40.4716 287.171 40.4774C285.3 40.4874 283.776 38.9791 283.766 37.1085C283.756 35.2378 285.264 33.7132 287.135 33.7032C289.005 33.6931 290.53 35.2014 290.54 37.072C290.54 37.8863 290.253 38.6745 289.73 39.2983L289.889 39.4303ZM284.986 37.9808C285.354 38.8617 286.217 39.434 287.171 39.4303C287.796 39.4315 288.396 39.1831 288.837 38.7404C289.278 38.2976 289.524 37.697 289.52 37.072C289.52 36.1174 288.945 35.2569 288.063 34.8924C287.18 34.5279 286.165 34.7314 285.491 35.4077C284.818 36.0841 284.618 37.0999 284.986 37.9808Z" fill="#3F3D56"/>
<rect x="162.985" y="67.2014" width="42.3395" height="9.56053" fill="#6C63FF"/>
<rect opacity="0.3" x="162.985" y="82.6803" width="129.75" height="5.00789" fill="#6C63FF"/>
<rect opacity="0.3" x="162.985" y="93.6067" width="51.9" height="5.00789" fill="#6C63FF"/>
<rect x="162.985" y="178.286" width="42.3395" height="9.56053" fill="#6C63FF"/>
<rect opacity="0.3" x="162.985" y="193.765" width="129.75" height="5.00789" fill="#6C63FF"/>
<rect opacity="0.3" x="162.985" y="204.691" width="51.9" height="5.00789" fill="#6C63FF"/>
<rect x="162.985" y="233.828" width="42.3395" height="9.56053" fill="#6C63FF"/>
<rect opacity="0.3" x="162.985" y="249.307" width="129.75" height="5.00789" fill="#6C63FF"/>
<rect opacity="0.3" x="162.985" y="260.233" width="51.9" height="5.00789" fill="#6C63FF"/>
<path d="M269.516 299.386C278.064 299.386 284.995 292.455 284.995 283.907C284.995 275.358 278.064 268.428 269.516 268.428C260.967 268.428 254.037 275.358 254.037 283.907C254.037 292.455 260.967 299.386 269.516 299.386Z" fill="#FA6400"/>
<path d="M277.406 282.686V290.166C277.406 290.481 277.151 290.736 276.837 290.736H261.585C261.271 290.736 261.016 290.481 261.016 290.166V278.252C261.016 277.938 261.271 277.683 261.585 277.683H272.198" stroke="white" stroke-width="1.83471" stroke-linecap="round"/>
<path d="M263.903 282.086H274.219" stroke="white" stroke-width="1.83471" stroke-linecap="round"/>
<path d="M264.052 284.212H274.373" stroke="white" stroke-width="1.83471" stroke-linecap="round"/>
<path d="M264.203 286.333H274.524" stroke="white" stroke-width="1.83471" stroke-linecap="round"/>
<path d="M275.434 277.078V282.236" stroke="#FF00FF" stroke-width="1.83471"/>
<path d="M278.016 279.659H272.853" stroke="#FF00FF" stroke-width="1.83471"/>
<path d="M275.434 277.078V282.236" stroke="white" stroke-width="1.83471" stroke-linecap="round"/>
<path d="M278.016 279.659H272.853" stroke="white" stroke-width="1.83471" stroke-linecap="round"/>
<path opacity="0.2" d="M411.594 318.707C405.899 318.753 398.364 317.819 396.848 316.886C395.692 316.18 395.232 313.658 395.077 312.493H394.909C394.909 312.493 395.228 316.563 396.73 317.501C398.232 318.438 405.785 319.353 411.481 319.322C413.124 319.322 413.689 318.725 413.657 317.86C413.443 318.37 412.819 318.693 411.594 318.707Z" fill="black"/>
<rect x="94.6946" y="110.451" width="183.016" height="55.0868" rx="27.5434" fill="#F2F2F2"/>
<rect x="94.6946" y="110.451" width="183.016" height="55.0868" rx="27.5434" fill="#3F3D56"/>
<rect x="117.003" y="122.288" width="42.3395" height="9.56053" fill="#FA6400"/>
<rect opacity="0.3" x="117.003" y="137.767" width="129.75" height="5.00789" fill="white"/>
<rect opacity="0.3" x="117.003" y="148.693" width="51.9" height="5.00789" fill="white"/>
<path d="M47.5225 72.901C58.162 72.901 66.787 64.6867 66.787 54.5539C66.787 44.4211 58.162 36.2068 47.5225 36.2068C36.8831 36.2068 28.2581 44.4211 28.2581 54.5539C28.2581 64.6867 36.8831 72.901 47.5225 72.901Z" fill="#3F3D56"/>
<path d="M36.6638 198.016C38.6041 211.84 36.2379 225.936 32.5519 239.386C31.863 241.89 31.1216 244.416 29.8334 246.664C28.5451 248.911 26.7521 250.844 25.2377 252.959C22.0828 257.369 20.2319 262.57 18.5019 267.717C13.7325 281.959 9.72685 296.454 6.50264 311.137C6.30836 311.739 6.30836 312.388 6.50264 312.989C6.96011 314.057 8.34828 314.196 9.48931 314.191L24.2439 314.111C24.7697 313.086 23.7969 311.975 23.1922 310.993C21.089 307.671 23.1081 303.357 24.9643 299.881C29.4755 291.439 32.9676 282.476 35.365 273.184C36.3746 269.271 37.1949 265.271 38.8354 261.582C40.8178 257.107 43.9254 253.258 46.4494 249.072C49.3834 244.207 51.5235 238.927 53.6479 233.625C56.6135 226.267 59.6054 218.819 60.7728 210.959C61.8717 203.58 61.3301 196.062 60.615 188.635C60.6824 188.187 60.5334 187.733 60.2146 187.416C59.8957 187.098 59.446 186.956 59.006 187.033L39.2088 185.997C35.1284 185.784 34.1609 184.876 34.7814 188.945C35.2125 191.983 36.2326 194.941 36.6638 198.016Z" fill="#3F3D56"/>
<path opacity="0.1" d="M36.5483 198.558C38.4886 211.987 36.1224 225.68 32.4364 238.746C31.7476 241.178 31.0062 243.632 29.7179 245.815C28.4296 247.999 26.6366 249.877 25.1222 251.931C21.9673 256.215 20.1164 261.267 18.3864 266.267C13.617 280.103 9.61137 294.183 6.38717 308.446C6.19288 309.031 6.19288 309.662 6.38717 310.246C6.84463 311.284 8.2328 311.418 9.37384 311.413L24.1284 311.335C24.6542 310.34 23.6815 309.261 23.0768 308.306C20.9735 305.08 22.9926 300.889 24.8488 297.513C29.36 289.312 32.8521 280.604 35.2495 271.578C36.2591 267.776 37.0794 263.891 38.72 260.307C40.7023 255.961 43.8099 252.221 46.3339 248.155C49.268 243.429 51.4081 238.3 53.5324 233.149C56.498 226.002 59.4899 218.766 60.6573 211.131C61.7562 203.963 61.2146 196.66 60.4995 189.445C60.567 189.009 60.4179 188.569 60.0991 188.26C59.7802 187.952 59.3305 187.814 58.8905 187.889L39.0933 186.883C35.0129 186.675 34.0454 185.793 34.6659 189.746C35.0971 192.697 36.1172 195.571 36.5483 198.558Z" fill="black"/>
<path d="M40.7461 166.082C36.8202 171.774 32.7044 178.325 34.0079 185.14C34.9984 190.314 38.9089 194.325 42.5987 198.076C57.3479 213.01 71.8507 229.6 76.8697 250.065C78.1629 255.354 78.789 260.782 79.9026 266.107C81.9246 275.783 85.5477 285.035 89.1401 294.23L98.747 318.748C104.864 318.899 110.421 315.177 112.655 309.433C111.392 309.335 109.745 308.104 109.006 307.069C104.9 301.34 104.059 293.972 103.007 286.986C101.842 279.266 100.287 271.607 98.7265 263.954L91.8497 230.102C91.0543 226.195 90.2588 222.283 89.2222 218.438C85.209 203.52 77.6035 189.46 76.4283 174.035C76.2538 171.768 76.1461 169.279 74.6219 167.598C73.0207 165.823 70.3932 165.528 68.0171 165.388C58.405 164.747 50.1119 163.8 40.7461 166.082Z" fill="#3F3D56"/>
<path d="M14.4708 308.618C13.4074 308.363 12.3203 308.222 11.2276 308.197C9.10427 308.273 7.14084 309.355 5.93017 311.116C5.32103 312.101 4.84247 313.162 4.50674 314.272L3.09374 318.365C2.67661 319.564 2.26992 320.948 2.89039 322.047C3.34864 322.738 4.01356 323.263 4.7883 323.546C8.20871 325.082 12.0619 325.167 15.7899 325.535C19.4085 325.892 22.9957 326.534 26.5673 327.213C27.7978 327.444 29.0231 327.681 30.2693 327.807C33.0536 328.091 35.8587 327.807 38.643 327.555L41.516 327.276C42.4777 327.234 43.4288 327.057 44.342 326.75C45.2638 326.434 46.0174 325.752 46.4276 324.861C47.1367 323.089 45.6142 320.99 43.7528 320.653C42.9968 320.501 42.2147 320.569 41.4482 320.469C40.5795 320.319 39.7321 320.063 38.9246 319.706C35.2487 318.249 31.5363 316.776 28.3036 314.483C27.4068 313.846 26.4683 312.957 26.5673 311.853C26.6605 311.38 26.8166 310.921 27.0314 310.49C27.4697 309.362 27.4845 308.11 27.0731 306.971C26.8958 306.487 26.5517 305.977 26.0668 305.919C24.6903 305.751 24.8571 307.776 24.6538 308.549C24.3774 309.601 23.8769 309.696 22.8967 309.601C20.0811 309.296 17.2655 309.154 14.4708 308.618Z" fill="#F2F2F2"/>
<path d="M96.1985 322.606C96.2237 324.637 96.9263 326.603 98.1961 328.196C98.5844 328.67 99.0691 329.059 99.6186 329.334C100.438 329.669 101.324 329.81 102.207 329.745C104.696 329.691 107.156 329.196 109.471 328.284C110.286 327.917 111.125 327.602 111.981 327.343C113.059 327.124 114.148 326.967 115.244 326.875C119.569 326.256 123.366 323.718 127.544 322.434C128.792 322.126 130.016 321.727 131.205 321.238C132.857 320.463 134.196 319.158 135.508 317.894C136.281 317.213 136.947 316.421 137.485 315.544C138.254 314.119 138.301 312.424 138.332 310.812C138.361 310.561 138.317 310.307 138.207 310.079C138.087 309.915 137.924 309.787 137.736 309.71C136.465 309.086 134.959 309.398 133.553 309.642C128.47 310.542 123.266 310.375 118.105 310.209C117.098 310.346 116.124 309.794 115.731 308.862L113.769 305.742C113.21 304.848 112.321 303.823 111.306 304.13C110.496 304.374 110.166 305.362 110.198 306.21C110.229 307.058 110.491 307.9 110.329 308.727C110.095 309.647 109.489 310.429 108.655 310.89C107.831 311.335 106.952 311.671 106.04 311.888C103.154 312.7 99.7964 313.62 97.5634 315.731C95.9475 317.25 96.0991 320.604 96.1985 322.606Z" fill="#F2F2F2"/>
<path d="M95.7884 117.378C96.8958 116.528 97.8461 115.49 98.5962 114.31C99.2424 112.978 99.6481 111.542 99.7943 110.069L100.602 104.944C101.049 102.119 101.574 99.1277 103.451 96.9736C105.328 94.8196 109.066 94.0499 110.974 96.1781C111.807 97.1028 112.136 98.3735 112.342 99.6081C113.53 107.065 111.296 114.661 106.264 120.271C103.955 122.812 101.121 124.832 98.6784 127.234C96.5495 129.3 94.7033 131.671 92.7389 133.919C87.9884 139.347 82.5473 144.123 76.5557 148.124C76.6277 144.281 77.1162 140.159 76.5557 136.341C76.1392 133.583 75.013 132.095 77.6716 130.292C83.8425 126.077 90.07 122.265 95.7884 117.378Z" fill="#FBBEBE"/>
<path d="M42.9584 78.9113C42.7527 81.5801 41.587 84.309 39.2661 85.8491C45.8384 88.0363 52.321 90.4475 58.7139 93.0828C57.4796 91.9541 57.1051 90.2234 57.0471 88.5981C56.8836 84.3492 58.429 80.1705 60.6866 76.5085C61.0457 76.044 61.2531 75.4891 61.2826 74.9132C61.2088 73.7294 59.7319 73.1826 58.5187 72.9067C54.3797 71.9518 50.1554 71.369 45.9017 71.166C44.0819 71.1108 41.9246 70.564 42.336 72.7662C42.7263 74.8229 43.1219 76.8295 42.9584 78.9113Z" fill="#FBBEBE"/>
<path d="M55.7785 80.2398C63.8848 80.2398 70.4562 73.2576 70.4562 64.6447C70.4562 56.0318 63.8848 49.0497 55.7785 49.0497C47.6723 49.0497 41.1008 56.0318 41.1008 64.6447C41.1008 73.2576 47.6723 80.2398 55.7785 80.2398Z" fill="#FBBEBE"/>
<path d="M70.8168 105.958C70.287 104.832 69.6415 103.762 68.8907 102.766C66.139 98.8612 63.3148 94.9613 59.7844 91.7286C57.1101 89.3714 54.2158 87.2701 51.1402 85.4529C49.4807 84.3286 47.6561 83.4632 45.7304 82.8872C44.5877 82.6369 43.426 82.4807 42.2572 82.4203L38.3167 82.1021C37.9712 82.0568 37.6205 82.0672 37.2783 82.1329C36.2089 82.3997 35.7208 83.7134 35.9493 84.7756C36.1777 85.8378 36.9876 86.6998 37.7041 87.5055C37.8806 95.454 34.3035 103.295 33.8207 111.233C32.9744 125.088 41.5459 138.024 42.2312 151.915C42.3019 152.542 42.2346 153.178 42.0339 153.777C41.9197 154.065 41.7484 154.326 41.6186 154.608C41.2137 155.481 41.2292 156.471 41.1566 157.431C40.8737 160.853 39.3575 164.061 36.8838 166.472C37.5267 167.261 38.3532 167.884 39.2927 168.289C40.9489 169.002 42.9269 169.064 44.6869 169.561C49.2764 170.885 53.9801 172.219 58.7512 171.937C59.344 170.662 59.711 169.296 59.8363 167.899C60.5112 167.483 61.29 168.371 61.3938 169.151C61.4977 169.931 61.3471 170.839 61.913 171.404C62.4789 171.968 63.1953 171.881 63.8858 171.793C66.7984 171.429 69.5967 170.459 72.4522 169.808C75.3076 169.156 78.3603 168.843 81.1379 169.777C81.6986 169.074 81.4598 168.032 81.0029 167.262C80.546 166.493 79.8971 165.815 79.6375 164.958C79.5069 164.465 79.4509 163.955 79.4714 163.445C79.4714 159.057 80.3851 154.624 79.5181 150.319C79.2637 149.056 78.8587 147.825 78.5991 146.557C78.08 144.099 78.1579 141.565 78.2253 139.055C78.2928 136.546 77.9865 133.832 77.9346 131.286C77.933 130.235 77.8636 129.184 77.7269 128.141C77.5504 127.048 77.2078 125.981 77.1143 124.877C76.834 122.076 77.2856 120.584 77.1143 117.772C76.8288 113.503 72.4989 109.894 70.8168 105.958Z" fill="#6A00FF"/>
<path d="M36.0317 104.222C32.332 113.861 30.524 124.086 28.716 134.238L24.5357 158.085C23.3495 164.825 22.1581 171.605 22.2051 178.442C22.2051 180.362 22.3305 182.317 21.8184 184.17C21.1496 186.603 19.4879 188.631 18.2285 190.843C15.6733 195.361 14.8221 200.619 15.8248 205.692C16.2533 207.822 17.4238 210.24 19.6237 210.486C21.4317 210.681 22.9941 209.27 24.0497 207.812C26.4743 204.471 27.6762 200.436 28.7526 196.463C32.2179 183.48 34.6413 170.25 36.0003 156.895C36.1295 155.204 36.3721 153.524 36.7267 151.864C37.1881 150.154 37.7785 148.479 38.4929 146.855C40.0918 142.961 41.6926 139.067 43.2951 135.173C46.9895 126.175 50.7048 117.136 55.7787 108.811C50.7622 107.394 45.542 105.731 40.5256 104.33C39.0781 103.909 37.5261 104.16 36.0317 104.222Z" fill="#FBBEBE"/>
<path d="M44.4513 111.387C40.9641 110.67 37.3576 110.893 33.7978 110.809C33.2922 110.844 32.7887 110.719 32.3656 110.453C31.6442 109.865 31.9504 108.764 32.3137 107.929L34.0365 103.978C34.3193 103.161 34.791 102.415 35.4168 101.795C36.2938 101.054 37.5288 100.871 38.6912 100.738C42.4742 100.323 46.3661 100.184 50.0349 101.157C53.7037 102.131 57.1546 104.343 58.7944 107.618C59.4793 108.981 59.7959 110.7 58.8878 111.94C57.5386 113.782 54.5132 115.842 52.2559 114.834C49.5523 113.629 47.4818 112.014 44.4513 111.387Z" fill="#6A00FF"/>
<path d="M62.8055 41.4039C59.832 41.372 56.9145 42.2257 54.4135 43.8595C49.5881 39.2153 42.674 37.5707 36.3201 39.5557C35.3983 34.2046 30.6737 30.4052 25.3343 30.721C19.9949 31.0368 15.7364 35.3675 15.4323 40.7911C15.1282 46.2147 18.8749 51.0086 24.1445 51.9381C22.0136 58.4372 23.5481 65.5995 28.1453 70.6114C32.7426 75.6233 39.6681 77.6842 46.2014 75.9846C52.7346 74.2849 57.832 69.0961 59.4909 62.4566C60.5783 62.6827 61.6853 62.7967 62.7952 62.7969C70.0634 62.7969 75.9605 58.0063 75.9605 52.1004C75.9605 46.1946 70.0634 41.4039 62.8055 41.4039Z" fill="#3F3D56"/>
<path opacity="0.1" d="M66.4683 56.7527C65.4614 56.7556 64.4569 56.646 63.471 56.4258C63.0027 58.2653 62.264 60.0124 61.2827 61.601C62.2073 61.7926 63.1466 61.8903 64.0883 61.8927C70.2511 61.8927 75.3104 57.8692 75.9604 52.7191C73.7674 55.1734 70.3306 56.7527 66.4683 56.7527Z" fill="black"/>
<path opacity="0.1" d="M44.4529 71.2467C38.5898 71.2381 33.0775 68.4007 29.5943 63.5983C26.1111 58.7959 25.069 52.5968 26.7854 46.8882C21.7368 45.9837 18.0553 41.5181 18.055 36.2984C18.054 35.6524 18.1111 35.0075 18.2256 34.3721C15.5994 37.2611 14.7336 41.3804 15.9684 45.1109C17.2033 48.8413 20.3414 51.5865 24.1492 52.2673C21.1866 62.1725 26.6402 72.6537 36.3526 75.721C46.0651 78.7882 56.3862 73.2888 59.4481 63.4149C55.9818 68.3342 50.3989 71.2501 44.4529 71.2467Z" fill="black"/>
<path opacity="0.5" d="M440.331 126.595C442.357 126.595 444 124.952 444 122.926C444 120.899 442.357 119.256 440.331 119.256C438.304 119.256 436.661 120.899 436.661 122.926C436.661 124.952 438.304 126.595 440.331 126.595Z" fill="#47E6B1"/>
</svg>
