<svg width="18" height="21" viewBox="0 0 18 21" fill="none" xmlns="http://www.w3.org/2000/svg">
<path d="M15 14.5714C14.254 14.5714 13.6032 14.8333 13.0476 15.3571L5.90476 11.1905C5.96825 10.9206 6 10.6905 6 10.5C6 10.3095 5.96825 10.0794 5.90476 9.80952L12.9524 5.69047C13.5397 6.23016 14.2222 6.5 15 6.5C15.5397 6.5 16.0397 6.36508 16.5 6.09524C16.9603 5.8254 17.3254 5.46032 17.5952 5C17.8651 4.53968 18 4.03968 18 3.5C18 2.96032 17.8651 2.46032 17.5952 2C17.3254 1.53968 16.9603 1.1746 16.5 0.904761C16.0397 0.634919 15.5397 0.499998 15 0.499998C14.4603 0.499998 13.9603 0.634919 13.5 0.904761C13.0397 1.1746 12.6746 1.53968 12.4048 2C12.1349 2.46032 12 2.96032 12 3.5C12 3.69047 12.0317 3.92063 12.0952 4.19047L5.04762 8.30952C4.46032 7.76984 3.77778 7.5 3 7.5C2.46032 7.5 1.96032 7.63492 1.5 7.90476C1.03968 8.1746 0.674603 8.53968 0.404762 9C0.134921 9.46032 0 9.96032 0 10.5C0 11.0397 0.134921 11.5397 0.404762 12C0.674603 12.4603 1.03968 12.8254 1.5 13.0952C1.96032 13.3651 2.46032 13.5 3 13.5C3.77778 13.5 4.46032 13.2302 5.04762 12.6905L12.1667 16.8571C12.1032 17.0794 12.0714 17.2937 12.0714 17.5C12.0714 18.0238 12.1984 18.5159 12.4524 18.9762C12.7222 19.4206 13.0794 19.7778 13.5238 20.0476C13.9841 20.3016 14.4762 20.4286 15 20.4286C15.5238 20.4286 16.0079 20.3016 16.4524 20.0476C16.9127 19.7778 17.2698 19.4206 17.5238 18.9762C17.7937 18.5159 17.9286 18.0238 17.9286 17.5C17.9286 16.9762 17.7937 16.4921 17.5238 16.0476C17.2698 15.5873 16.9127 15.2302 16.4524 14.9762C16.0079 14.7063 15.5238 14.5714 15 14.5714ZM15 2.5C15.2698 2.5 15.5 2.60317 15.6905 2.80952C15.8968 3 16 3.23016 16 3.5C16 3.76984 15.8968 4.00794 15.6905 4.21428C15.5 4.40476 15.2698 4.5 15 4.5C14.7302 4.5 14.4921 4.40476 14.2857 4.21428C14.0952 4.00794 14 3.76984 14 3.5C14 3.23016 14.0952 3 14.2857 2.80952C14.4921 2.60317 14.7302 2.5 15 2.5ZM3 11.5C2.73016 11.5 2.49206 11.4048 2.28571 11.2143C2.09524 11.0079 2 10.7698 2 10.5C2 10.2302 2.09524 10 2.28571 9.80952C2.49206 9.60317 2.73016 9.5 3 9.5C3.26984 9.5 3.5 9.60317 3.69048 9.80952C3.89683 10 4 10.2302 4 10.5C4 10.7698 3.89683 11.0079 3.69048 11.2143C3.5 11.4048 3.26984 11.5 3 11.5ZM15 18.5238C14.7302 18.5238 14.4921 18.4286 14.2857 18.2381C14.0952 18.0317 14 17.7937 14 17.5238C14 17.254 14.0952 17.0238 14.2857 16.8333C14.4921 16.627 14.7302 16.5238 15 16.5238C15.2698 16.5238 15.5 16.627 15.6905 16.8333C15.8968 17.0238 16 17.254 16 17.5238C16 17.7937 15.8968 18.0317 15.6905 18.2381C15.5 18.4286 15.2698 18.5238 15 18.5238Z" fill="#FA6400"/>
</svg>
