<svg width="99" height="34" viewBox="0 0 99 34" fill="none" xmlns="http://www.w3.org/2000/svg">
<path fill-rule="evenodd" clip-rule="evenodd" d="M48.3057 19.9044L48.1861 21.5483C47.897 21.5879 47.6081 21.6081 47.3193 21.6081C46.2033 21.6081 45.3888 21.3641 44.8758 20.8758C44.3625 20.3879 44.1061 19.6455 44.1061 18.649V15.8393H42.7163V14.1505H44.1061V11.9984H46.3628V14.1505H48.2011V15.8393H46.3628V18.6341C46.3628 19.511 46.7712 19.9492 47.5883 19.9492C47.8174 19.9492 48.0565 19.9343 48.3057 19.9044Z" fill="white"/>
<path fill-rule="evenodd" clip-rule="evenodd" d="M48.3057 19.9044L48.1861 21.5483C47.897 21.5879 47.6081 21.6081 47.3193 21.6081C46.2033 21.6081 45.3888 21.3641 44.8758 20.8758C44.3625 20.3879 44.1061 19.6455 44.1061 18.649V15.8393H42.7163V14.1505H44.1061V11.9984H46.3628V14.1505H48.2011V15.8393H46.3628V18.6341C46.3628 19.511 46.7712 19.9492 47.5883 19.9492C47.8174 19.9492 48.0565 19.9343 48.3057 19.9044Z" fill="url(#paint0_linear)"/>
<path fill-rule="evenodd" clip-rule="evenodd" d="M54.5527 15.8244L53.2823 15.9589C52.6546 16.0187 52.2108 16.1958 51.9522 16.4894C51.6929 16.7835 51.5637 17.1747 51.5637 17.6626V21.4886H49.3069V14.1505H51.474V15.391C51.8424 14.5443 52.6046 14.081 53.7606 14.0011L54.4182 13.9562L54.5527 15.8244Z" fill="white"/>
<path fill-rule="evenodd" clip-rule="evenodd" d="M54.5527 15.8244L53.2823 15.9589C52.6546 16.0187 52.2108 16.1958 51.9522 16.4894C51.6929 16.7835 51.5637 17.1747 51.5637 17.6626V21.4886H49.3069V14.1505H51.474V15.391C51.8424 14.5443 52.6046 14.081 53.7606 14.0011L54.4182 13.9562L54.5527 15.8244Z" fill="url(#paint1_linear)"/>
<path fill-rule="evenodd" clip-rule="evenodd" d="M59.2153 19.6128C59.4843 19.3192 59.6188 18.9381 59.6188 18.4695V18.2159H59.3648C58.5577 18.2159 57.9924 18.2805 57.6685 18.4098C57.3446 18.5394 57.1832 18.7737 57.1832 19.1122C57.1832 19.3812 57.2751 19.6054 57.4593 19.7847C57.6435 19.9641 57.8751 20.0541 58.1542 20.0541C58.5925 20.0541 58.9463 19.9069 59.2153 19.6128ZM60.9863 14.7482C61.5098 15.2664 61.7709 16.0686 61.7709 17.1544V21.4888H59.6338V20.3978C59.4843 20.7763 59.2355 21.0726 58.8865 21.2867C58.5379 21.5011 58.1296 21.608 57.661 21.608C57.163 21.608 56.712 21.5082 56.3085 21.3091C55.9054 21.11 55.5859 20.8312 55.352 20.4722C55.1178 20.1135 55.0008 19.7152 55.0008 19.277C55.0008 18.7386 55.1379 18.3152 55.4118 18.0062C55.6861 17.6976 56.1266 17.4735 56.7345 17.3337C57.342 17.1944 58.174 17.1245 59.2303 17.1245H59.6188V16.8559C59.6188 16.4172 59.5239 16.1086 59.3349 15.9293C59.1455 15.7499 58.817 15.6599 58.3489 15.6599C57.9898 15.6599 57.5912 15.7249 57.1529 15.8542C56.7147 15.9842 56.2962 16.1635 55.8975 16.3922L55.3001 14.8827C55.7186 14.6238 56.2342 14.4071 56.8465 14.233C57.4593 14.0585 58.0294 13.9711 58.5577 13.9711C59.6536 13.9711 60.4632 14.2304 60.9863 14.7482Z" fill="white"/>
<path fill-rule="evenodd" clip-rule="evenodd" d="M59.2153 19.6128C59.4843 19.3192 59.6188 18.9381 59.6188 18.4695V18.2159H59.3648C58.5577 18.2159 57.9924 18.2805 57.6685 18.4098C57.3446 18.5394 57.1832 18.7737 57.1832 19.1122C57.1832 19.3812 57.2751 19.6054 57.4593 19.7847C57.6435 19.9641 57.8751 20.0541 58.1542 20.0541C58.5925 20.0541 58.9463 19.9069 59.2153 19.6128ZM60.9863 14.7482C61.5098 15.2664 61.7709 16.0686 61.7709 17.1544V21.4888H59.6338V20.3978C59.4843 20.7763 59.2355 21.0726 58.8865 21.2867C58.5379 21.5011 58.1296 21.608 57.661 21.608C57.163 21.608 56.712 21.5082 56.3085 21.3091C55.9054 21.11 55.5859 20.8312 55.352 20.4722C55.1178 20.1135 55.0008 19.7152 55.0008 19.277C55.0008 18.7386 55.1379 18.3152 55.4118 18.0062C55.6861 17.6976 56.1266 17.4735 56.7345 17.3337C57.342 17.1944 58.174 17.1245 59.2303 17.1245H59.6188V16.8559C59.6188 16.4172 59.5239 16.1086 59.3349 15.9293C59.1455 15.7499 58.817 15.6599 58.3489 15.6599C57.9898 15.6599 57.5912 15.7249 57.1529 15.8542C56.7147 15.9842 56.2962 16.1635 55.8975 16.3922L55.3001 14.8827C55.7186 14.6238 56.2342 14.4071 56.8465 14.233C57.4593 14.0585 58.0294 13.9711 58.5577 13.9711C59.6536 13.9711 60.4632 14.2304 60.9863 14.7482Z" fill="url(#paint2_linear)"/>
<path fill-rule="evenodd" clip-rule="evenodd" d="M64.1319 20.5918C63.4444 19.9148 63.1007 18.9927 63.1007 17.8273C63.1007 17.0599 63.2651 16.3847 63.5939 15.8019C63.9223 15.2194 64.386 14.7684 64.9838 14.4497C65.5816 14.1307 66.2739 13.9711 67.0611 13.9711C67.5992 13.9711 68.117 14.0533 68.6154 14.2177C69.1135 14.3821 69.517 14.604 69.826 14.8828L69.2282 16.4221C68.939 16.1931 68.6229 16.0163 68.2792 15.8916C67.9354 15.7671 67.5992 15.7047 67.27 15.7047C66.6823 15.7047 66.2265 15.8792 65.9029 16.2278C65.579 16.5768 65.4168 17.095 65.4168 17.7821C65.4168 18.4696 65.579 18.9904 65.9029 19.3439C66.2265 19.6977 66.6823 19.8744 67.27 19.8744C67.5992 19.8744 67.9354 19.8124 68.2792 19.6876C68.6229 19.5632 68.939 19.3861 69.2282 19.1571L69.826 20.7113C69.4972 20.9904 69.0787 21.2098 68.5706 21.3689C68.0625 21.5285 67.5244 21.608 66.9565 21.608C65.7609 21.608 64.8194 21.2692 64.1319 20.5918Z" fill="white"/>
<path fill-rule="evenodd" clip-rule="evenodd" d="M64.1319 20.5918C63.4444 19.9148 63.1007 18.9927 63.1007 17.8273C63.1007 17.0599 63.2651 16.3847 63.5939 15.8019C63.9223 15.2194 64.386 14.7684 64.9838 14.4497C65.5816 14.1307 66.2739 13.9711 67.0611 13.9711C67.5992 13.9711 68.117 14.0533 68.6154 14.2177C69.1135 14.3821 69.517 14.604 69.826 14.8828L69.2282 16.4221C68.939 16.1931 68.6229 16.0163 68.2792 15.8916C67.9354 15.7671 67.5992 15.7047 67.27 15.7047C66.6823 15.7047 66.2265 15.8792 65.9029 16.2278C65.579 16.5768 65.4168 17.095 65.4168 17.7821C65.4168 18.4696 65.579 18.9904 65.9029 19.3439C66.2265 19.6977 66.6823 19.8744 67.27 19.8744C67.5992 19.8744 67.9354 19.8124 68.2792 19.6876C68.6229 19.5632 68.939 19.3861 69.2282 19.1571L69.826 20.7113C69.4972 20.9904 69.0787 21.2098 68.5706 21.3689C68.0625 21.5285 67.5244 21.608 66.9565 21.608C65.7609 21.608 64.8194 21.2692 64.1319 20.5918Z" fill="url(#paint3_linear)"/>
<path fill-rule="evenodd" clip-rule="evenodd" d="M76.0132 17.7823C76.0132 17.075 75.8712 16.5471 75.5869 16.1981C75.3033 15.8495 74.8972 15.675 74.3692 15.675C73.273 15.675 72.7253 16.3775 72.7253 17.7823C72.7253 19.1871 73.273 19.8895 74.3692 19.8895C75.4651 19.8895 76.0132 19.1871 76.0132 17.7823ZM72.3218 21.1371C71.7337 20.8236 71.2805 20.3801 70.9614 19.8073C70.6427 19.2346 70.4835 18.5594 70.4835 17.7823C70.4835 17.0052 70.6427 16.3304 70.9614 15.7572C71.2805 15.1845 71.7337 14.7436 72.3218 14.4346C72.9095 14.126 73.5921 13.9713 74.3692 13.9713C75.1464 13.9713 75.8286 14.126 76.4167 14.4346C77.0044 14.7436 77.4576 15.1845 77.7767 15.7572C78.0954 16.3304 78.255 17.0052 78.255 17.7823C78.255 18.5594 78.0954 19.2346 77.7767 19.8073C77.4576 20.3801 77.0044 20.8236 76.4167 21.1371C75.8286 21.4509 75.1464 21.6079 74.3692 21.6079C73.5921 21.6079 72.9095 21.4509 72.3218 21.1371Z" fill="white"/>
<path fill-rule="evenodd" clip-rule="evenodd" d="M76.0132 17.7823C76.0132 17.075 75.8712 16.5471 75.5869 16.1981C75.3033 15.8495 74.8972 15.675 74.3692 15.675C73.273 15.675 72.7253 16.3775 72.7253 17.7823C72.7253 19.1871 73.273 19.8895 74.3692 19.8895C75.4651 19.8895 76.0132 19.1871 76.0132 17.7823ZM72.3218 21.1371C71.7337 20.8236 71.2805 20.3801 70.9614 19.8073C70.6427 19.2346 70.4835 18.5594 70.4835 17.7823C70.4835 17.0052 70.6427 16.3304 70.9614 15.7572C71.2805 15.1845 71.7337 14.7436 72.3218 14.4346C72.9095 14.126 73.5921 13.9713 74.3692 13.9713C75.1464 13.9713 75.8286 14.126 76.4167 14.4346C77.0044 14.7436 77.4576 15.1845 77.7767 15.7572C78.0954 16.3304 78.255 17.0052 78.255 17.7823C78.255 18.5594 78.0954 19.2346 77.7767 19.8073C77.4576 20.3801 77.0044 20.8236 76.4167 21.1371C75.8286 21.4509 75.1464 21.6079 74.3692 21.6079C73.5921 21.6079 72.9095 21.4509 72.3218 21.1371Z" fill="url(#paint4_linear)"/>
<path fill-rule="evenodd" clip-rule="evenodd" d="M84.5617 14.1655H86.7736L83.5454 21.4886H81.6325L78.4492 14.1655H80.7955L82.6487 18.8284L84.5617 14.1655Z" fill="white"/>
<path fill-rule="evenodd" clip-rule="evenodd" d="M84.5617 14.1655H86.7736L83.5454 21.4886H81.6325L78.4492 14.1655H80.7955L82.6487 18.8284L84.5617 14.1655Z" fill="url(#paint5_linear)"/>
<path fill-rule="evenodd" clip-rule="evenodd" d="M87.4614 21.4887H89.7181V14.1506H87.4614V21.4887ZM87.3863 12.7309H89.8071V10.6236H87.3863V12.7309Z" fill="white"/>
<path fill-rule="evenodd" clip-rule="evenodd" d="M87.4614 21.4887H89.7181V14.1506H87.4614V21.4887ZM87.3863 12.7309H89.8071V10.6236H87.3863V12.7309Z" fill="url(#paint6_linear)"/>
<path fill-rule="evenodd" clip-rule="evenodd" d="M96.2112 19.3439C96.4956 18.9804 96.6376 18.4599 96.6376 17.7822C96.6376 17.1048 96.4956 16.5866 96.2112 16.2279C95.9273 15.8692 95.5212 15.6899 94.9932 15.6899C94.4653 15.6899 94.0565 15.867 93.7677 16.2204C93.4789 16.5742 93.3347 17.085 93.3347 17.7523C93.3347 18.4301 93.4789 18.9554 93.7677 19.329C94.0565 19.7026 94.4653 19.8894 94.9932 19.8894C95.5212 19.8894 95.9273 19.7079 96.2112 19.3439ZM98.8793 10.9523V21.4886H96.6376V20.3976C96.4182 20.7764 96.107 21.0727 95.7035 21.2868C95.3 21.5009 94.8441 21.6081 94.3356 21.6081C93.7083 21.6081 93.1479 21.4463 92.6543 21.1224C92.1611 20.7988 91.7778 20.3453 91.5036 19.7624C91.2297 19.1795 91.0929 18.5096 91.0929 17.7523C91.0929 16.9953 91.2297 16.3303 91.5036 15.7571C91.7778 15.1844 92.1585 14.7435 92.6469 14.4345C93.1352 14.1259 93.6979 13.9712 94.3356 13.9712C94.8337 13.9712 95.285 14.0758 95.6885 14.285C96.0921 14.4943 96.4033 14.7883 96.6226 15.1668V10.9523H98.8793Z" fill="white"/>
<path fill-rule="evenodd" clip-rule="evenodd" d="M96.2112 19.3439C96.4956 18.9804 96.6376 18.4599 96.6376 17.7822C96.6376 17.1048 96.4956 16.5866 96.2112 16.2279C95.9273 15.8692 95.5212 15.6899 94.9932 15.6899C94.4653 15.6899 94.0565 15.867 93.7677 16.2204C93.4789 16.5742 93.3347 17.085 93.3347 17.7523C93.3347 18.4301 93.4789 18.9554 93.7677 19.329C94.0565 19.7026 94.4653 19.8894 94.9932 19.8894C95.5212 19.8894 95.9273 19.7079 96.2112 19.3439ZM98.8793 10.9523V21.4886H96.6376V20.3976C96.4182 20.7764 96.107 21.0727 95.7035 21.2868C95.3 21.5009 94.8441 21.6081 94.3356 21.6081C93.7083 21.6081 93.1479 21.4463 92.6543 21.1224C92.1611 20.7988 91.7778 20.3453 91.5036 19.7624C91.2297 19.1795 91.0929 18.5096 91.0929 17.7523C91.0929 16.9953 91.2297 16.3303 91.5036 15.7571C91.7778 15.1844 92.1585 14.7435 92.6469 14.4345C93.1352 14.1259 93.6979 13.9712 94.3356 13.9712C94.8337 13.9712 95.285 14.0758 95.6885 14.285C96.0921 14.4943 96.4033 14.7883 96.6226 15.1668V10.9523H98.8793Z" fill="url(#paint7_linear)"/>
<path fill-rule="evenodd" clip-rule="evenodd" d="M16.8332 22.2567C17.5248 22.2567 18.0856 21.6959 18.0856 21.0043C18.0856 20.3127 17.5248 19.7519 16.8332 19.7519C16.1412 19.7519 15.5808 20.3127 15.5808 21.0043C15.5808 21.6959 16.1412 22.2567 16.8332 22.2567Z" fill="white"/>
<path fill-rule="evenodd" clip-rule="evenodd" d="M16.8332 22.2567C17.5248 22.2567 18.0856 21.6959 18.0856 21.0043C18.0856 20.3127 17.5248 19.7519 16.8332 19.7519C16.1412 19.7519 15.5808 20.3127 15.5808 21.0043C15.5808 21.6959 16.1412 22.2567 16.8332 22.2567Z" fill="url(#paint8_linear)"/>
<path fill-rule="evenodd" clip-rule="evenodd" d="M14.8475 26.4275C14.8475 27.2461 15.7364 27.91 16.833 27.91C17.9296 27.91 18.8188 27.2461 18.8188 26.4275C18.8188 25.6092 17.9296 24.9453 16.833 24.9453C15.7364 24.9453 14.8475 25.6092 14.8475 26.4275Z" fill="white"/>
<path fill-rule="evenodd" clip-rule="evenodd" d="M14.8475 26.4275C14.8475 27.2461 15.7364 27.91 16.833 27.91C17.9296 27.91 18.8188 27.2461 18.8188 26.4275C18.8188 25.6092 17.9296 24.9453 16.833 24.9453C15.7364 24.9453 14.8475 25.6092 14.8475 26.4275Z" fill="url(#paint9_linear)"/>
<path fill-rule="evenodd" clip-rule="evenodd" d="M16.8332 29.9766C15.1298 29.9766 13.7493 30.8027 13.7493 31.8212C13.7493 32.8404 15.1298 33.6662 16.8332 33.6662C18.5362 33.6662 19.9167 32.8404 19.9167 31.8212C19.9167 30.8027 18.5362 29.9766 16.8332 29.9766Z" fill="white"/>
<path fill-rule="evenodd" clip-rule="evenodd" d="M16.8332 29.9766C15.1298 29.9766 13.7493 30.8027 13.7493 31.8212C13.7493 32.8404 15.1298 33.6662 16.8332 33.6662C18.5362 33.6662 19.9167 32.8404 19.9167 31.8212C19.9167 30.8027 18.5362 29.9766 16.8332 29.9766Z" fill="url(#paint10_linear)"/>
<path fill-rule="evenodd" clip-rule="evenodd" d="M16.8332 13.9143C17.5248 13.9143 18.0856 13.3539 18.0856 12.6619C18.0856 11.9703 17.5248 11.4099 16.8332 11.4099C16.1412 11.4099 15.5808 11.9703 15.5808 12.6619C15.5808 13.3539 16.1412 13.9143 16.8332 13.9143Z" fill="white"/>
<path fill-rule="evenodd" clip-rule="evenodd" d="M16.8332 13.9143C17.5248 13.9143 18.0856 13.3539 18.0856 12.6619C18.0856 11.9703 17.5248 11.4099 16.8332 11.4099C16.1412 11.4099 15.5808 11.9703 15.5808 12.6619C15.5808 13.3539 16.1412 13.9143 16.8332 13.9143Z" fill="url(#paint11_linear)"/>
<path fill-rule="evenodd" clip-rule="evenodd" d="M16.8332 18.0855C17.5248 18.0855 18.0856 17.5247 18.0856 16.8331C18.0856 16.1415 17.5248 15.5807 16.8332 15.5807C16.1412 15.5807 15.5808 16.1415 15.5808 16.8331C15.5808 17.5247 16.1412 18.0855 16.8332 18.0855Z" fill="white"/>
<path fill-rule="evenodd" clip-rule="evenodd" d="M16.8332 18.0855C17.5248 18.0855 18.0856 17.5247 18.0856 16.8331C18.0856 16.1415 17.5248 15.5807 16.8332 15.5807C16.1412 15.5807 15.5808 16.1415 15.5808 16.8331C15.5808 17.5247 16.1412 18.0855 16.8332 18.0855Z" fill="url(#paint12_linear)"/>
<path fill-rule="evenodd" clip-rule="evenodd" d="M16.8332 5.75653C15.7362 5.75653 14.8477 6.42009 14.8477 7.23871C14.8477 8.05732 15.7362 8.72088 16.8332 8.72088C17.9298 8.72088 18.8186 8.05732 18.8186 7.23871C18.8186 6.42009 17.9298 5.75653 16.8332 5.75653Z" fill="white"/>
<path fill-rule="evenodd" clip-rule="evenodd" d="M16.8332 5.75653C15.7362 5.75653 14.8477 6.42009 14.8477 7.23871C14.8477 8.05732 15.7362 8.72088 16.8332 8.72088C17.9298 8.72088 18.8186 8.05732 18.8186 7.23871C18.8186 6.42009 17.9298 5.75653 16.8332 5.75653Z" fill="url(#paint13_linear)"/>
<path fill-rule="evenodd" clip-rule="evenodd" d="M16.8332 3.68974C18.5362 3.68974 19.9167 2.86366 19.9167 1.84515C19.9167 0.825898 18.5362 0.000183105 16.8332 0.000183105C15.1298 0.000183105 13.7493 0.825898 13.7493 1.84515C13.7493 2.86366 15.1298 3.68974 16.8332 3.68974Z" fill="white"/>
<path fill-rule="evenodd" clip-rule="evenodd" d="M16.8332 3.68974C18.5362 3.68974 19.9167 2.86366 19.9167 1.84515C19.9167 0.825898 18.5362 0.000183105 16.8332 0.000183105C15.1298 0.000183105 13.7493 0.825898 13.7493 1.84515C13.7493 2.86366 15.1298 3.68974 16.8332 3.68974Z" fill="url(#paint14_linear)"/>
<path fill-rule="evenodd" clip-rule="evenodd" d="M12.662 15.5809C11.97 15.5809 11.4096 16.1413 11.4096 16.8332C11.4096 17.5248 11.97 18.0856 12.662 18.0856C13.3536 18.0856 13.9144 17.5248 13.9144 16.8332C13.9144 16.1413 13.3536 15.5809 12.662 15.5809Z" fill="white"/>
<path fill-rule="evenodd" clip-rule="evenodd" d="M12.662 15.5809C11.97 15.5809 11.4096 16.1413 11.4096 16.8332C11.4096 17.5248 11.97 18.0856 12.662 18.0856C13.3536 18.0856 13.9144 17.5248 13.9144 16.8332C13.9144 16.1413 13.3536 15.5809 12.662 15.5809Z" fill="url(#paint15_linear)"/>
<path fill-rule="evenodd" clip-rule="evenodd" d="M7.23857 14.8475C6.42033 14.8475 5.7564 15.7363 5.7564 16.8329C5.7564 17.9299 6.42033 18.8187 7.23857 18.8187C8.05681 18.8187 8.72075 17.9299 8.72075 16.8329C8.72075 15.7363 8.05681 14.8475 7.23857 14.8475Z" fill="white"/>
<path fill-rule="evenodd" clip-rule="evenodd" d="M7.23857 14.8475C6.42033 14.8475 5.7564 15.7363 5.7564 16.8329C5.7564 17.9299 6.42033 18.8187 7.23857 18.8187C8.05681 18.8187 8.72075 17.9299 8.72075 16.8329C8.72075 15.7363 8.05681 14.8475 7.23857 14.8475Z" fill="url(#paint16_linear)"/>
<path fill-rule="evenodd" clip-rule="evenodd" d="M1.84471 13.7494C0.825836 13.7494 0.00012207 15.1299 0.00012207 16.8329C0.00012207 18.5363 0.825836 19.9168 1.84471 19.9168C2.86397 19.9168 3.68968 18.5363 3.68968 16.8329C3.68968 15.1299 2.86397 13.7494 1.84471 13.7494Z" fill="white"/>
<path fill-rule="evenodd" clip-rule="evenodd" d="M1.84471 13.7494C0.825836 13.7494 0.00012207 15.1299 0.00012207 16.8329C0.00012207 18.5363 0.825836 19.9168 1.84471 19.9168C2.86397 19.9168 3.68968 18.5363 3.68968 16.8329C3.68968 15.1299 2.86397 13.7494 1.84471 13.7494Z" fill="url(#paint17_linear)"/>
<path fill-rule="evenodd" clip-rule="evenodd" d="M22.2566 16.8331C22.2566 16.1415 21.6958 15.5807 21.0042 15.5807C20.3126 15.5807 19.7518 16.1415 19.7518 16.8331C19.7518 17.5246 20.3126 18.0855 21.0042 18.0855C21.6958 18.0855 22.2566 17.5246 22.2566 16.8331Z" fill="white"/>
<path fill-rule="evenodd" clip-rule="evenodd" d="M22.2566 16.8331C22.2566 16.1415 21.6958 15.5807 21.0042 15.5807C20.3126 15.5807 19.7518 16.1415 19.7518 16.8331C19.7518 17.5246 20.3126 18.0855 21.0042 18.0855C21.6958 18.0855 22.2566 17.5246 22.2566 16.8331Z" fill="url(#paint18_linear)"/>
<path fill-rule="evenodd" clip-rule="evenodd" d="M26.4274 18.8189C27.246 18.8189 27.91 17.9297 27.91 16.8331C27.91 15.7365 27.246 14.8476 26.4274 14.8476C25.6092 14.8476 24.9452 15.7365 24.9452 16.8331C24.9452 17.9297 25.6092 18.8189 26.4274 18.8189Z" fill="white"/>
<path fill-rule="evenodd" clip-rule="evenodd" d="M26.4274 18.8189C27.246 18.8189 27.91 17.9297 27.91 16.8331C27.91 15.7365 27.246 14.8476 26.4274 14.8476C25.6092 14.8476 24.9452 15.7365 24.9452 16.8331C24.9452 17.9297 25.6092 18.8189 26.4274 18.8189Z" fill="url(#paint19_linear)"/>
<path fill-rule="evenodd" clip-rule="evenodd" d="M31.8213 13.7494C30.8024 13.7494 29.9767 15.1299 29.9767 16.8329C29.9767 18.5363 30.8024 19.9168 31.8213 19.9168C32.8405 19.9168 33.6659 18.5363 33.6659 16.8329C33.6659 15.1299 32.8405 13.7494 31.8213 13.7494Z" fill="white"/>
<path fill-rule="evenodd" clip-rule="evenodd" d="M31.8213 13.7494C30.8024 13.7494 29.9767 15.1299 29.9767 16.8329C29.9767 18.5363 30.8024 19.9168 31.8213 19.9168C32.8405 19.9168 33.6659 18.5363 33.6659 16.8329C33.6659 15.1299 32.8405 13.7494 31.8213 13.7494Z" fill="url(#paint20_linear)"/>
<path fill-rule="evenodd" clip-rule="evenodd" d="M8.64479 11.4529C9.22354 12.0316 10.3212 11.8725 11.0965 11.0968C11.8722 10.3215 12.0313 9.22345 11.453 8.6447C10.8742 8.06595 9.77613 8.22512 9.00048 9.00077C8.22521 9.77604 8.06567 10.8741 8.64479 11.4529Z" fill="white"/>
<path fill-rule="evenodd" clip-rule="evenodd" d="M8.64479 11.4529C9.22354 12.0316 10.3212 11.8725 11.0965 11.0968C11.8722 10.3215 12.0313 9.22345 11.453 8.6447C10.8742 8.06595 9.77613 8.22512 9.00048 9.00077C8.22521 9.77604 8.06567 10.8741 8.64479 11.4529Z" fill="url(#paint21_linear)"/>
<path fill-rule="evenodd" clip-rule="evenodd" d="M7.53923 7.53929C8.7438 6.33509 9.13573 4.77483 8.41538 4.0541C7.69503 3.33375 6.13439 3.72606 4.93057 4.93026C3.726 6.13446 3.33369 7.69509 4.05442 8.41544C4.77477 9.1358 6.33503 8.74349 7.53923 7.53929Z" fill="white"/>
<path fill-rule="evenodd" clip-rule="evenodd" d="M7.53923 7.53929C8.7438 6.33509 9.13573 4.77483 8.41538 4.0541C7.69503 3.33375 6.13439 3.72606 4.93057 4.93026C3.726 6.13446 3.33369 7.69509 4.05442 8.41544C4.77477 9.1358 6.33503 8.74349 7.53923 7.53929Z" fill="url(#paint22_linear)"/>
<path fill-rule="evenodd" clip-rule="evenodd" d="M25.0216 22.2132C24.4425 21.6345 23.3451 21.794 22.5695 22.5693C21.7938 23.345 21.6347 24.4427 22.213 25.0218C22.7921 25.6002 23.8902 25.441 24.6655 24.6654C25.4408 23.8901 25.6003 22.7924 25.0216 22.2132Z" fill="white"/>
<path fill-rule="evenodd" clip-rule="evenodd" d="M25.0216 22.2132C24.4425 21.6345 23.3451 21.794 22.5695 22.5693C21.7938 23.345 21.6347 24.4427 22.213 25.0218C22.7921 25.6002 23.8902 25.441 24.6655 24.6654C25.4408 23.8901 25.6003 22.7924 25.0216 22.2132Z" fill="url(#paint23_linear)"/>
<path fill-rule="evenodd" clip-rule="evenodd" d="M26.1268 26.1269C24.9226 27.3314 24.5306 28.8913 25.2506 29.6121C25.9713 30.3324 27.5316 29.9401 28.7358 28.7359C29.94 27.5317 30.3323 25.9714 29.6119 25.2507C28.8912 24.5307 27.3313 24.9227 26.1268 26.1269Z" fill="white"/>
<path fill-rule="evenodd" clip-rule="evenodd" d="M26.1268 26.1269C24.9226 27.3314 24.5306 28.8913 25.2506 29.6121C25.9713 30.3324 27.5316 29.9401 28.7358 28.7359C29.94 27.5317 30.3323 25.9714 29.6119 25.2507C28.8912 24.5307 27.3313 24.9227 26.1268 26.1269Z" fill="url(#paint24_linear)"/>
<path fill-rule="evenodd" clip-rule="evenodd" d="M25.0216 11.4529C25.6003 10.8741 25.4408 9.77604 24.6655 9.00077C23.8902 8.22512 22.7921 8.06595 22.213 8.6447C21.6347 9.22345 21.7938 10.3215 22.5695 11.0968C23.3451 11.8725 24.4425 12.0316 25.0216 11.4529Z" fill="white"/>
<path fill-rule="evenodd" clip-rule="evenodd" d="M25.0216 11.4529C25.6003 10.8741 25.4408 9.77604 24.6655 9.00077C23.8902 8.22512 22.7921 8.06595 22.213 8.6447C21.6347 9.22345 21.7938 10.3215 22.5695 11.0968C23.3451 11.8725 24.4425 12.0316 25.0216 11.4529Z" fill="url(#paint25_linear)"/>
<path fill-rule="evenodd" clip-rule="evenodd" d="M25.2507 4.05425C24.5304 4.7746 24.9227 6.33487 26.1269 7.53944C27.3311 8.74364 28.8913 9.13595 29.6121 8.41522C30.3324 7.69487 29.9401 6.13461 28.7359 4.93041C27.5313 3.72621 25.9714 3.3339 25.2507 4.05425Z" fill="white"/>
<path fill-rule="evenodd" clip-rule="evenodd" d="M25.2507 4.05425C24.5304 4.7746 24.9227 6.33487 26.1269 7.53944C27.3311 8.74364 28.8913 9.13595 29.6121 8.41522C30.3324 7.69487 29.9401 6.13461 28.7359 4.93041C27.5313 3.72621 25.9714 3.3339 25.2507 4.05425Z" fill="url(#paint26_linear)"/>
<path fill-rule="evenodd" clip-rule="evenodd" d="M8.64479 22.2132C8.06567 22.7924 8.22521 23.8901 9.00048 24.6654C9.77613 25.441 10.8742 25.6002 11.453 25.0218C12.0313 24.4427 11.8722 23.345 11.0965 22.5693C10.3212 21.794 9.22354 21.6345 8.64479 22.2132Z" fill="white"/>
<path fill-rule="evenodd" clip-rule="evenodd" d="M8.64479 22.2132C8.06567 22.7924 8.22521 23.8901 9.00048 24.6654C9.77613 25.441 10.8742 25.6002 11.453 25.0218C12.0313 24.4427 11.8722 23.345 11.0965 22.5693C10.3212 21.794 9.22354 21.6345 8.64479 22.2132Z" fill="url(#paint27_linear)"/>
<path fill-rule="evenodd" clip-rule="evenodd" d="M4.05434 25.2508C3.33362 25.9715 3.72592 27.5314 4.93049 28.736C6.13432 29.9402 7.69496 30.3325 8.41531 29.6121C9.13603 28.8914 8.74372 27.3311 7.53915 26.1269C6.33496 24.9227 4.77469 24.5304 4.05434 25.2508Z" fill="white"/>
<path fill-rule="evenodd" clip-rule="evenodd" d="M4.05434 25.2508C3.33362 25.9715 3.72592 27.5314 4.93049 28.736C6.13432 29.9402 7.69496 30.3325 8.41531 29.6121C9.13603 28.8914 8.74372 27.3311 7.53915 26.1269C6.33496 24.9227 4.77469 24.5304 4.05434 25.2508Z" fill="url(#paint28_linear)"/>
<defs>
<linearGradient id="paint0_linear" x1="-14.6764" y1="19.2332" x2="2.53917" y2="60.3754" gradientUnits="userSpaceOnUse">
<stop stop-color="#FA6400"/>
<stop offset="1" stop-color="#6B68FC"/>
</linearGradient>
<linearGradient id="paint1_linear" x1="-14.6764" y1="19.2332" x2="2.53917" y2="60.3754" gradientUnits="userSpaceOnUse">
<stop stop-color="#FA6400"/>
<stop offset="1" stop-color="#6B68FC"/>
</linearGradient>
<linearGradient id="paint2_linear" x1="-14.6764" y1="19.2332" x2="2.53917" y2="60.3754" gradientUnits="userSpaceOnUse">
<stop stop-color="#FA6400"/>
<stop offset="1" stop-color="#6B68FC"/>
</linearGradient>
<linearGradient id="paint3_linear" x1="-14.6764" y1="19.2332" x2="2.53917" y2="60.3754" gradientUnits="userSpaceOnUse">
<stop stop-color="#FA6400"/>
<stop offset="1" stop-color="#6B68FC"/>
</linearGradient>
<linearGradient id="paint4_linear" x1="-14.6764" y1="19.2332" x2="2.53917" y2="60.3754" gradientUnits="userSpaceOnUse">
<stop stop-color="#FA6400"/>
<stop offset="1" stop-color="#6B68FC"/>
</linearGradient>
<linearGradient id="paint5_linear" x1="-14.6764" y1="19.2332" x2="2.53917" y2="60.3754" gradientUnits="userSpaceOnUse">
<stop stop-color="#FA6400"/>
<stop offset="1" stop-color="#6B68FC"/>
</linearGradient>
<linearGradient id="paint6_linear" x1="-14.6764" y1="19.2332" x2="2.53917" y2="60.3754" gradientUnits="userSpaceOnUse">
<stop stop-color="#FA6400"/>
<stop offset="1" stop-color="#6B68FC"/>
</linearGradient>
<linearGradient id="paint7_linear" x1="-14.6764" y1="19.2332" x2="2.53917" y2="60.3754" gradientUnits="userSpaceOnUse">
<stop stop-color="#FA6400"/>
<stop offset="1" stop-color="#6B68FC"/>
</linearGradient>
<linearGradient id="paint8_linear" x1="-14.6764" y1="19.2332" x2="2.53917" y2="60.3754" gradientUnits="userSpaceOnUse">
<stop stop-color="#FA6400"/>
<stop offset="1" stop-color="#6B68FC"/>
</linearGradient>
<linearGradient id="paint9_linear" x1="-14.6764" y1="19.2332" x2="2.53917" y2="60.3754" gradientUnits="userSpaceOnUse">
<stop stop-color="#FA6400"/>
<stop offset="1" stop-color="#6B68FC"/>
</linearGradient>
<linearGradient id="paint10_linear" x1="-14.6764" y1="19.2332" x2="2.53917" y2="60.3754" gradientUnits="userSpaceOnUse">
<stop stop-color="#FA6400"/>
<stop offset="1" stop-color="#6B68FC"/>
</linearGradient>
<linearGradient id="paint11_linear" x1="-14.6764" y1="19.2332" x2="2.53917" y2="60.3754" gradientUnits="userSpaceOnUse">
<stop stop-color="#FA6400"/>
<stop offset="1" stop-color="#6B68FC"/>
</linearGradient>
<linearGradient id="paint12_linear" x1="-14.6764" y1="19.2332" x2="2.53917" y2="60.3754" gradientUnits="userSpaceOnUse">
<stop stop-color="#FA6400"/>
<stop offset="1" stop-color="#6B68FC"/>
</linearGradient>
<linearGradient id="paint13_linear" x1="-14.6764" y1="19.2332" x2="2.53917" y2="60.3754" gradientUnits="userSpaceOnUse">
<stop stop-color="#FA6400"/>
<stop offset="1" stop-color="#6B68FC"/>
</linearGradient>
<linearGradient id="paint14_linear" x1="-14.6764" y1="19.2332" x2="2.53917" y2="60.3754" gradientUnits="userSpaceOnUse">
<stop stop-color="#FA6400"/>
<stop offset="1" stop-color="#6B68FC"/>
</linearGradient>
<linearGradient id="paint15_linear" x1="-14.6764" y1="19.2332" x2="2.53917" y2="60.3754" gradientUnits="userSpaceOnUse">
<stop stop-color="#FA6400"/>
<stop offset="1" stop-color="#6B68FC"/>
</linearGradient>
<linearGradient id="paint16_linear" x1="-14.6764" y1="19.2332" x2="2.53917" y2="60.3754" gradientUnits="userSpaceOnUse">
<stop stop-color="#FA6400"/>
<stop offset="1" stop-color="#6B68FC"/>
</linearGradient>
<linearGradient id="paint17_linear" x1="-14.6764" y1="19.2332" x2="2.53917" y2="60.3754" gradientUnits="userSpaceOnUse">
<stop stop-color="#FA6400"/>
<stop offset="1" stop-color="#6B68FC"/>
</linearGradient>
<linearGradient id="paint18_linear" x1="-14.6764" y1="19.2332" x2="2.53917" y2="60.3754" gradientUnits="userSpaceOnUse">
<stop stop-color="#FA6400"/>
<stop offset="1" stop-color="#6B68FC"/>
</linearGradient>
<linearGradient id="paint19_linear" x1="-14.6764" y1="19.2332" x2="2.53917" y2="60.3754" gradientUnits="userSpaceOnUse">
<stop stop-color="#FA6400"/>
<stop offset="1" stop-color="#6B68FC"/>
</linearGradient>
<linearGradient id="paint20_linear" x1="-14.6764" y1="19.2332" x2="2.53917" y2="60.3754" gradientUnits="userSpaceOnUse">
<stop stop-color="#FA6400"/>
<stop offset="1" stop-color="#6B68FC"/>
</linearGradient>
<linearGradient id="paint21_linear" x1="-14.6764" y1="19.2332" x2="2.53917" y2="60.3754" gradientUnits="userSpaceOnUse">
<stop stop-color="#FA6400"/>
<stop offset="1" stop-color="#6B68FC"/>
</linearGradient>
<linearGradient id="paint22_linear" x1="-14.6764" y1="19.2332" x2="2.53917" y2="60.3754" gradientUnits="userSpaceOnUse">
<stop stop-color="#FA6400"/>
<stop offset="1" stop-color="#6B68FC"/>
</linearGradient>
<linearGradient id="paint23_linear" x1="-14.6764" y1="19.2332" x2="2.53917" y2="60.3754" gradientUnits="userSpaceOnUse">
<stop stop-color="#FA6400"/>
<stop offset="1" stop-color="#6B68FC"/>
</linearGradient>
<linearGradient id="paint24_linear" x1="-14.6764" y1="19.2332" x2="2.53917" y2="60.3754" gradientUnits="userSpaceOnUse">
<stop stop-color="#FA6400"/>
<stop offset="1" stop-color="#6B68FC"/>
</linearGradient>
<linearGradient id="paint25_linear" x1="-14.6764" y1="19.2332" x2="2.53917" y2="60.3754" gradientUnits="userSpaceOnUse">
<stop stop-color="#FA6400"/>
<stop offset="1" stop-color="#6B68FC"/>
</linearGradient>
<linearGradient id="paint26_linear" x1="-14.6764" y1="19.2332" x2="2.53917" y2="60.3754" gradientUnits="userSpaceOnUse">
<stop stop-color="#FA6400"/>
<stop offset="1" stop-color="#6B68FC"/>
</linearGradient>
<linearGradient id="paint27_linear" x1="-14.6764" y1="19.2332" x2="2.53917" y2="60.3754" gradientUnits="userSpaceOnUse">
<stop stop-color="#FA6400"/>
<stop offset="1" stop-color="#6B68FC"/>
</linearGradient>
<linearGradient id="paint28_linear" x1="-14.6764" y1="19.2332" x2="2.53917" y2="60.3754" gradientUnits="userSpaceOnUse">
<stop stop-color="#FA6400"/>
<stop offset="1" stop-color="#6B68FC"/>
</linearGradient>
</defs>
</svg>
