<svg width="525" height="392" viewBox="0 0 525 392" fill="none" xmlns="http://www.w3.org/2000/svg">
<rect x="429.51" y="229.726" width="2.73246" height="61.5216" fill="#535461"/>
<path d="M449.413 291.06L449.243 293.832L448.999 297.754L448.899 299.384L448.659 303.306L448.554 304.936L448.31 308.858L445.556 353.34C445.307 357.313 442.014 360.408 438.034 360.409H423.714C419.735 360.407 416.442 357.312 416.196 353.34L413.455 308.828L413.211 304.906L413.111 303.276L412.867 299.354L412.766 297.724L412.522 293.802L412.348 291.03C412.287 289.952 412.673 288.896 413.415 288.112C414.158 287.327 415.19 286.884 416.27 286.885H445.56C446.636 286.895 447.66 287.349 448.39 288.139C449.12 288.93 449.49 289.987 449.413 291.06Z" fill="#3F3D56"/>
<path d="M449.243 293.832L448.999 297.741H412.749L412.505 293.832H449.243Z" fill="#9D9CB5"/>
<path d="M448.898 299.371L448.659 303.285H413.093L412.849 299.371H448.898Z" fill="#9D9CB5"/>
<path d="M448.555 304.919L448.315 308.828H413.438L413.194 304.919H448.555Z" fill="#9D9CB5"/>
<path d="M408.335 252.784C424.246 264.298 430.887 282.305 430.887 282.305C430.887 282.305 411.712 281.647 395.797 270.133C379.881 258.62 373.253 240.617 373.253 240.617C373.253 240.617 392.419 241.27 408.335 252.784Z" fill="#6C63FF"/>
<path d="M373.24 240.617C373.24 240.617 393.147 251.664 399.531 260.812C405.916 269.959 430.887 282.305 430.887 282.305" stroke="#535461" stroke-width="3.66942"/>
<path d="M418.606 229.591C427.266 235.854 430.887 245.655 430.887 245.655C430.887 245.655 420.45 245.297 411.786 239.035C403.123 232.772 399.51 222.967 399.51 222.967C399.51 222.967 409.943 223.324 418.606 229.591Z" fill="#6C63FF"/>
<path d="M399.51 222.967C399.51 222.967 410.344 228.981 413.817 233.958C417.29 238.935 430.887 245.655 430.887 245.655" stroke="#535461" stroke-width="3.66942"/>
<path d="M443.46 245.158C433.511 256.092 431.406 270.382 431.406 270.382C431.406 270.382 445.434 266.939 455.375 256C465.315 245.062 467.429 230.776 467.429 230.776C467.429 230.776 453.409 234.224 443.46 245.158Z" fill="#6C63FF"/>
<path d="M467.438 230.781C467.438 230.781 454.477 241.99 451.182 249.712C447.888 257.434 431.406 270.382 431.406 270.382" stroke="#535461" stroke-width="3.66942"/>
<path opacity="0.5" d="M433.785 127.562C435.812 127.562 437.455 125.919 437.455 123.893C437.455 121.866 435.812 120.223 433.785 120.223C431.759 120.223 430.116 121.866 430.116 123.893C430.116 125.919 431.759 127.562 433.785 127.562Z" fill="#F55F44"/>
<path opacity="0.5" d="M116.38 345.893C118.407 345.893 120.05 344.25 120.05 342.223C120.05 340.197 118.407 338.554 116.38 338.554C114.354 338.554 112.711 340.197 112.711 342.223C112.711 344.25 114.354 345.893 116.38 345.893Z" fill="#F55F44"/>
<path opacity="0.5" d="M492.496 261.496C494.523 261.496 496.166 259.853 496.166 257.826C496.166 255.8 494.523 254.157 492.496 254.157C490.47 254.157 488.827 255.8 488.827 257.826C488.827 259.853 490.47 261.496 492.496 261.496Z" fill="#F55F44"/>
<path opacity="0.5" d="M466.209 355.128C465.271 354.719 464.788 353.672 465.086 352.692C465.11 352.62 465.124 352.545 465.13 352.469C465.157 352.024 464.889 351.614 464.471 351.459C464.053 351.305 463.583 351.443 463.314 351.799C463.269 351.861 463.232 351.927 463.203 351.997C462.794 352.936 461.746 353.419 460.767 353.12C460.694 353.097 460.619 353.082 460.543 353.077C460.098 353.05 459.688 353.317 459.534 353.736C459.379 354.154 459.517 354.624 459.873 354.892C459.935 354.937 460.002 354.975 460.072 355.004C461.011 355.413 461.494 356.461 461.195 357.44C461.172 357.512 461.157 357.587 461.151 357.663C461.124 358.108 461.392 358.519 461.81 358.673C462.228 358.827 462.698 358.689 462.967 358.333C463.012 358.272 463.049 358.205 463.079 358.135C463.487 357.196 464.535 356.713 465.514 357.012C465.587 357.035 465.662 357.05 465.738 357.056C466.183 357.083 466.593 356.815 466.748 356.397C466.902 355.978 466.764 355.508 466.408 355.24C466.346 355.195 466.28 355.157 466.209 355.128Z" fill="#4D8AF0"/>
<path d="M497.426 371.132V373.409C497.423 375.857 496.389 378.19 494.577 379.836C492.765 381.482 490.344 382.289 487.907 382.059C470.083 380.365 452.342 377.215 434.459 377.766C401.489 378.772 368.245 392.257 336.331 383.925C327.331 381.576 318.431 377.492 309.17 378.371C300.862 379.159 293.468 383.857 285.419 386.06C260.94 392.78 236.014 375.799 210.638 376.486C193.911 376.942 177.895 385.086 161.187 384.18C151.504 383.661 142.28 380.119 132.833 377.939C109.314 372.503 85.0945 375.539 60.8608 377.424C59.0932 377.56 57.3491 376.953 56.0473 375.749C54.7455 374.546 54.0037 372.855 54 371.082V369.134C54 365.614 56.8536 362.76 60.3737 362.76L488.74 362.414C491.048 362.418 493.26 363.338 494.889 364.974C496.519 366.609 497.431 368.824 497.426 371.132Z" fill="#3F3D56"/>
<path opacity="0.1" d="M497.426 371.132V373.409C497.423 375.857 496.389 378.19 494.577 379.836C492.765 381.482 490.344 382.289 487.907 382.059C470.083 380.365 452.342 377.215 434.459 377.766C401.489 378.772 368.245 392.257 336.331 383.925C327.331 381.576 318.431 377.492 309.17 378.371C300.862 379.159 293.468 383.857 285.419 386.06C260.94 392.78 236.014 375.799 210.638 376.486C193.911 376.942 177.895 385.086 161.187 384.18C151.504 383.661 142.28 380.119 132.833 377.939C109.314 372.503 85.0945 375.539 60.8608 377.424C59.0932 377.56 57.3491 376.953 56.0473 375.749C54.7455 374.546 54.0037 372.855 54 371.082V369.134C54 365.614 56.8536 362.76 60.3737 362.76L488.74 362.414C491.048 362.418 493.26 363.338 494.889 364.974C496.519 366.609 497.431 368.824 497.426 371.132Z" fill="black"/>
<path d="M497.426 366.971V369.248C497.426 369.564 497.409 369.88 497.376 370.195C496.871 374.932 492.65 378.382 487.907 377.934C470.083 376.236 452.342 373.085 434.459 373.636C401.489 374.647 368.246 388.132 336.332 379.796C327.331 377.447 318.431 373.363 309.171 374.242C300.862 375.029 293.469 379.728 285.419 381.936C260.94 388.637 236.014 371.656 210.638 372.339C193.912 372.794 177.895 380.939 161.187 380.037C151.504 379.514 142.28 375.976 132.833 373.791C109.319 368.36 85.0946 371.396 60.8609 373.281C57.5957 373.533 54.6708 371.27 54.0957 368.046C54.0302 367.676 53.9982 367.301 54.0001 366.926V364.977C54.0001 361.457 56.8537 358.604 60.3738 358.604L167.738 358.517L387.089 358.335L488.74 358.253C491.048 358.257 493.26 359.177 494.89 360.812C496.519 362.448 497.431 364.663 497.426 366.971Z" fill="#3F3D56"/>
<path opacity="0.1" d="M392.529 359.642C392.529 360.648 390.544 361.613 386.884 362.519C372.229 366.138 330.8 368.747 281.9 368.747C233.792 368.747 192.86 366.22 177.645 362.687C173.547 361.736 171.271 360.711 171.271 359.642C171.271 359.268 171.544 358.899 172.081 358.535L391.432 358.353C392.156 358.777 392.529 359.186 392.529 359.642Z" fill="black"/>
<rect x="357.925" y="117.455" width="4.69376" height="38.7065" rx="2.34688" fill="#3F3D56"/>
<rect x="201.851" y="87.1301" width="2.63597" height="12.7428" rx="1.31799" fill="#3F3D56"/>
<rect x="201.756" y="110.458" width="2.96832" height="22.1804" rx="1.48416" fill="#3F3D56"/>
<rect x="201.802" y="140.4" width="2.82718" height="22.3716" rx="1.41359" fill="#3F3D56"/>
<rect x="203.344" y="45.0182" width="157.111" height="319.308" rx="12.843" fill="#3F3D56"/>
<rect x="266.745" y="54.556" width="21.9391" height="4.45703" rx="2.22851" fill="#E6E8EC"/>
<path d="M294.529 59.3089C295.925 59.3089 297.056 58.1777 297.056 56.7822C297.056 55.3868 295.925 54.2555 294.529 54.2555C293.134 54.2555 292.002 55.3868 292.002 56.7822C292.002 58.1777 293.134 59.3089 294.529 59.3089Z" fill="#E6E8EC"/>
<path d="M350.754 65.8146V343.525C350.752 350.415 345.166 355.999 338.276 355.999H225.525C218.635 355.999 213.049 350.415 213.046 343.525V65.8146C213.046 58.9228 218.633 53.3359 225.525 53.3359H242.397V55.5257C242.4 61.1995 246.999 65.7985 252.672 65.801H310.036C315.702 65.7884 320.288 61.1917 320.288 55.5257V53.3586H338.276C345.159 53.3586 350.742 58.9317 350.754 65.8146Z" fill="white"/>
<rect x="216.985" y="79.8777" width="14.1132" height="1.82105" fill="#3F3D56"/>
<rect x="216.985" y="83.0646" width="14.1132" height="1.82105" fill="#3F3D56"/>
<rect x="216.985" y="86.2514" width="14.1132" height="1.82105" fill="#3F3D56"/>
<rect x="216.985" y="79.8777" width="14.1132" height="1.82105" fill="#3F3D56"/>
<rect x="216.985" y="83.0646" width="14.1132" height="1.82105" fill="#3F3D56"/>
<rect x="216.985" y="86.2514" width="14.1132" height="1.82105" fill="#3F3D56"/>
<path fill-rule="evenodd" clip-rule="evenodd" d="M343.889 84.4304H344.303L346.944 87.0527L346.161 87.8357L343.547 85.218V84.7991L343.393 84.6671C342.768 85.1854 341.983 85.4717 341.171 85.4775C339.3 85.4875 337.776 83.9792 337.766 82.1086C337.756 80.2379 339.264 78.7133 341.135 78.7033C343.005 78.6932 344.53 80.2015 344.54 82.0721C344.54 82.8864 344.253 83.6745 343.73 84.2983L343.889 84.4304ZM338.986 82.9809C339.354 83.8618 340.217 84.434 341.171 84.4304C341.796 84.4316 342.396 84.1832 342.837 83.7404C343.278 83.2976 343.524 82.6971 343.52 82.0721C343.52 81.1174 342.945 80.257 342.063 79.8925C341.18 79.528 340.165 79.7314 339.491 80.4078C338.818 81.0841 338.618 82.1 338.986 82.9809Z" fill="#3F3D56"/>
<rect x="216.985" y="112.201" width="42.3395" height="9.56053" fill="#6C63FF"/>
<rect opacity="0.3" x="216.985" y="127.68" width="129.75" height="5.00789" fill="#6C63FF"/>
<rect opacity="0.3" x="216.985" y="138.607" width="51.9" height="5.00789" fill="#6C63FF"/>
<rect x="216.985" y="223.286" width="42.3395" height="9.56053" fill="#6C63FF"/>
<rect opacity="0.3" x="216.985" y="238.765" width="129.75" height="5.00789" fill="#6C63FF"/>
<rect opacity="0.3" x="216.985" y="249.691" width="51.9" height="5.00789" fill="#6C63FF"/>
<rect x="216.985" y="278.828" width="42.3395" height="9.56053" fill="#6C63FF"/>
<rect opacity="0.3" x="216.985" y="294.307" width="129.75" height="5.00789" fill="#6C63FF"/>
<rect opacity="0.3" x="216.985" y="305.233" width="51.9" height="5.00789" fill="#6C63FF"/>
<path d="M323.516 344.386C332.064 344.386 338.995 337.456 338.995 328.907C338.995 320.358 332.064 313.428 323.516 313.428C314.967 313.428 308.037 320.358 308.037 328.907C308.037 337.456 314.967 344.386 323.516 344.386Z" fill="#FA6400"/>
<path d="M331.406 327.687V335.167C331.406 335.481 331.151 335.736 330.837 335.736H315.585C315.271 335.736 315.016 335.481 315.016 335.167V323.252C315.016 322.938 315.271 322.683 315.585 322.683H326.197" stroke="white" stroke-width="1.83471" stroke-linecap="round"/>
<path d="M317.903 327.086H328.219" stroke="white" stroke-width="1.83471" stroke-linecap="round"/>
<path d="M318.052 329.212H328.373" stroke="white" stroke-width="1.83471" stroke-linecap="round"/>
<path d="M318.203 331.333H328.523" stroke="white" stroke-width="1.83471" stroke-linecap="round"/>
<path d="M329.434 322.078V327.236" stroke="#FF00FF" stroke-width="1.83471"/>
<path d="M332.016 324.659H326.853" stroke="#FF00FF" stroke-width="1.83471"/>
<path d="M329.434 322.078V327.236" stroke="white" stroke-width="1.83471" stroke-linecap="round"/>
<path d="M332.016 324.659H326.853" stroke="white" stroke-width="1.83471" stroke-linecap="round"/>
<path opacity="0.2" d="M465.595 363.707C459.899 363.753 452.365 362.819 450.849 361.886C449.692 361.18 449.232 358.658 449.078 357.493H448.909C448.909 357.493 449.228 361.563 450.73 362.501C452.233 363.438 459.785 364.354 465.481 364.322C467.124 364.322 467.689 363.725 467.657 362.86C467.443 363.37 466.819 363.693 465.595 363.707Z" fill="black"/>
<rect x="148.694" y="155.451" width="183.016" height="55.0868" rx="27.5434" fill="#F2F2F2"/>
<rect x="148.694" y="155.451" width="183.016" height="55.0868" rx="27.5434" fill="#3F3D56"/>
<rect x="171.003" y="167.288" width="42.3395" height="9.56053" fill="#FA6400"/>
<rect opacity="0.3" x="171.003" y="182.767" width="129.75" height="5.00789" fill="white"/>
<rect opacity="0.3" x="171.003" y="193.694" width="51.9" height="5.00789" fill="white"/>
<path d="M101.522 117.901C112.162 117.901 120.787 109.687 120.787 99.5539C120.787 89.4211 112.162 81.2068 101.522 81.2068C90.8828 81.2068 82.2578 89.4211 82.2578 99.5539C82.2578 109.687 90.8828 117.901 101.522 117.901Z" fill="#3F3D56"/>
<path d="M90.6638 243.016C92.6041 256.84 90.2379 270.936 86.5519 284.386C85.863 286.89 85.1216 289.416 83.8334 291.664C82.5451 293.911 80.7521 295.844 79.2377 297.959C76.0828 302.369 74.2319 307.57 72.5019 312.717C67.7325 326.959 63.7268 341.454 60.5026 356.137C60.3084 356.738 60.3084 357.388 60.5026 357.989C60.9601 359.057 62.3483 359.196 63.4893 359.191L78.2439 359.111C78.7697 358.086 77.7969 356.975 77.1922 355.992C75.089 352.671 77.1081 348.357 78.9643 344.881C83.4755 336.439 86.9676 327.475 89.365 318.184C90.3746 314.271 91.1949 310.271 92.8354 306.582C94.8178 302.107 97.9254 298.258 100.449 294.072C103.383 289.207 105.524 283.927 107.648 278.625C110.613 271.267 113.605 263.819 114.773 255.959C115.872 248.58 115.33 241.062 114.615 233.635C114.682 233.187 114.533 232.733 114.215 232.416C113.896 232.098 113.446 231.956 113.006 232.033L93.2088 230.997C89.1284 230.784 88.1609 229.876 88.7814 233.945C89.2125 236.983 90.2326 239.941 90.6638 243.016Z" fill="#3F3D56"/>
<path opacity="0.1" d="M90.5481 243.558C92.4884 256.987 90.1222 270.68 86.4362 283.746C85.7473 286.178 85.0059 288.632 83.7177 290.815C82.4294 292.999 80.6363 294.877 79.122 296.931C75.967 301.215 74.1161 306.267 72.3862 311.267C67.6168 325.103 63.6111 339.183 60.3869 353.446C60.1926 354.031 60.1926 354.662 60.3869 355.246C60.8444 356.284 62.2326 356.418 63.3736 356.413L78.1282 356.335C78.654 355.34 77.6812 354.261 77.0765 353.306C74.9732 350.08 76.9924 345.889 78.8485 342.513C83.3598 334.312 86.8519 325.604 89.2493 316.578C90.2589 312.776 91.0792 308.891 92.7197 305.307C94.7021 300.961 97.8097 297.221 100.334 293.155C103.268 288.429 105.408 283.3 107.532 278.149C110.498 271.002 113.49 263.766 114.657 256.131C115.756 248.963 115.214 241.66 114.499 234.445C114.567 234.009 114.418 233.569 114.099 233.26C113.78 232.952 113.33 232.814 112.89 232.889L93.0931 231.883C89.0127 231.675 88.0452 230.793 88.6656 234.746C89.0968 237.697 90.1169 240.571 90.5481 243.558Z" fill="black"/>
<path d="M94.7464 211.082C90.8204 216.774 86.7047 223.325 88.0082 230.14C88.9986 235.314 92.9091 239.325 96.599 243.076C111.348 258.01 125.851 274.6 130.87 295.065C132.163 300.354 132.789 305.782 133.903 311.107C135.925 320.783 139.548 330.035 143.14 339.231L152.747 363.748C158.864 363.899 164.422 360.177 166.655 354.434C165.392 354.335 163.745 353.104 163.006 352.069C158.9 346.34 158.059 338.972 157.007 331.986C155.842 324.266 154.287 316.607 152.727 308.954L145.85 275.102C145.055 271.195 144.259 267.283 143.222 263.438C139.209 248.52 131.604 234.46 130.429 219.035C130.254 216.769 130.146 214.28 128.622 212.598C127.021 210.823 124.393 210.528 122.017 210.388C112.405 209.747 104.112 208.8 94.7464 211.082Z" fill="#3F3D56"/>
<path d="M68.4705 353.618C67.4071 353.363 66.3201 353.222 65.2274 353.197C63.104 353.273 61.1406 354.355 59.9299 356.116C59.3208 357.101 58.8422 358.162 58.5065 359.273L57.0935 363.365C56.6764 364.564 56.2697 365.948 56.8901 367.047C57.3484 367.738 58.0133 368.263 58.7881 368.546C62.2085 370.082 66.0616 370.167 69.7897 370.535C73.4082 370.893 76.9955 371.534 80.5671 372.213C81.7976 372.444 83.0229 372.681 84.2691 372.807C87.0534 373.091 89.8585 372.807 92.6428 372.555L95.5157 372.276C96.4774 372.234 97.4286 372.057 98.3417 371.75C99.2636 371.435 100.017 370.752 100.427 369.862C101.136 368.089 99.614 365.99 97.7526 365.653C96.9965 365.501 96.2144 365.569 95.448 365.469C94.5793 365.319 93.7319 365.063 92.9244 364.706C89.2485 363.249 85.5361 361.776 82.3034 359.483C81.4066 358.846 80.468 357.957 80.5671 356.853C80.6603 356.38 80.8164 355.921 81.0311 355.49C81.4695 354.362 81.4843 353.11 81.0729 351.971C80.8956 351.487 80.5514 350.977 80.0665 350.919C78.69 350.751 78.8569 352.776 78.6535 353.549C78.3772 354.601 77.8766 354.696 76.8964 354.601C74.0808 354.296 71.2652 354.154 68.4705 353.618Z" fill="#F2F2F2"/>
<path d="M150.198 367.606C150.223 369.638 150.926 371.604 152.196 373.196C152.584 373.671 153.069 374.059 153.618 374.334C154.437 374.669 155.324 374.81 156.207 374.745C158.696 374.691 161.156 374.197 163.471 373.284C164.286 372.917 165.125 372.602 165.981 372.343C167.058 372.124 168.148 371.967 169.244 371.875C173.569 371.256 177.365 368.718 181.544 367.434C182.792 367.126 184.016 366.727 185.204 366.238C186.857 365.463 188.196 364.158 189.508 362.894C190.281 362.213 190.947 361.421 191.485 360.544C192.254 359.119 192.301 357.424 192.332 355.812C192.36 355.561 192.317 355.307 192.207 355.079C192.087 354.915 191.924 354.787 191.736 354.71C190.465 354.086 188.959 354.398 187.552 354.642C182.469 355.542 177.266 355.375 172.104 355.209C171.098 355.347 170.124 354.794 169.73 353.862L167.769 350.742C167.21 349.848 166.321 348.823 165.306 349.13C164.496 349.374 164.166 350.362 164.198 351.21C164.229 352.058 164.49 352.9 164.328 353.727C164.095 354.647 163.489 355.43 162.655 355.89C161.831 356.335 160.952 356.671 160.04 356.888C157.153 357.7 153.796 358.62 151.563 360.731C149.947 362.25 150.099 365.604 150.198 367.606Z" fill="#F2F2F2"/>
<path d="M149.788 162.378C150.896 161.528 151.846 160.49 152.596 159.31C153.242 157.978 153.648 156.542 153.794 155.069L154.602 149.944C155.049 147.119 155.574 144.128 157.451 141.974C159.328 139.82 163.066 139.05 164.974 141.178C165.807 142.103 166.136 143.374 166.342 144.608C167.53 152.065 165.296 159.661 160.264 165.271C157.955 167.812 155.121 169.832 152.678 172.234C150.549 174.3 148.703 176.671 146.739 178.919C141.988 184.347 136.547 189.123 130.556 193.124C130.628 189.281 131.116 185.159 130.556 181.341C130.139 178.583 129.013 177.095 131.672 175.292C137.843 171.077 144.07 167.265 149.788 162.378Z" fill="#FBBEBE"/>
<path d="M96.9584 123.911C96.7527 126.58 95.587 129.309 93.2661 130.849C99.8384 133.036 106.321 135.448 112.714 138.083C111.48 136.954 111.105 135.223 111.047 133.598C110.884 129.349 112.429 125.17 114.687 121.508C115.046 121.044 115.253 120.489 115.283 119.913C115.209 118.729 113.732 118.183 112.519 117.907C108.38 116.952 104.155 116.369 99.9017 116.166C98.0819 116.111 95.9246 115.564 96.336 117.766C96.7263 119.823 97.1219 121.83 96.9584 123.911Z" fill="#FBBEBE"/>
<path d="M109.779 125.24C117.885 125.24 124.456 118.258 124.456 109.645C124.456 101.032 117.885 94.0498 109.779 94.0498C101.672 94.0498 95.1011 101.032 95.1011 109.645C95.1011 118.258 101.672 125.24 109.779 125.24Z" fill="#FBBEBE"/>
<path d="M124.817 150.958C124.287 149.832 123.642 148.762 122.891 147.766C120.139 143.861 117.315 139.961 113.785 136.729C111.11 134.371 108.216 132.27 105.14 130.453C103.481 129.329 101.656 128.463 99.7307 127.887C98.588 127.637 97.4263 127.481 96.2574 127.42L92.3169 127.102C91.9714 127.057 91.6207 127.067 91.2786 127.133C90.2091 127.4 89.7211 128.713 89.9495 129.776C90.1779 130.838 90.9879 131.7 91.7043 132.506C91.8808 140.454 88.3037 148.295 87.8209 156.233C86.9747 170.088 95.5462 183.024 96.2315 196.915C96.3021 197.542 96.2348 198.178 96.0342 198.777C95.92 199.065 95.7487 199.326 95.6189 199.609C95.2139 200.481 95.2295 201.471 95.1568 202.431C94.8739 205.853 93.3578 209.061 90.884 211.472C91.5269 212.261 92.3534 212.884 93.293 213.289C94.9491 214.002 96.9272 214.064 98.6872 214.561C103.277 215.885 107.98 217.219 112.751 216.937C113.344 215.662 113.711 214.296 113.837 212.899C114.511 212.483 115.29 213.371 115.394 214.151C115.498 214.931 115.347 215.839 115.913 216.404C116.479 216.968 117.196 216.881 117.886 216.794C120.799 216.429 123.597 215.459 126.452 214.808C129.308 214.156 132.361 213.843 135.138 214.777C135.699 214.074 135.46 213.032 135.003 212.263C134.546 211.493 133.897 210.816 133.638 209.959C133.507 209.465 133.451 208.955 133.472 208.445C133.472 204.057 134.385 199.624 133.518 195.319C133.264 194.056 132.859 192.825 132.599 191.557C132.08 189.1 132.158 186.565 132.226 184.055C132.293 181.546 131.987 178.832 131.935 176.286C131.933 175.235 131.864 174.184 131.727 173.141C131.551 172.048 131.208 170.981 131.115 169.877C130.834 167.076 131.286 165.584 131.115 162.772C130.829 158.503 126.499 154.894 124.817 150.958Z" fill="#6A00FF"/>
<path d="M90.0317 149.222C86.332 158.861 84.524 169.086 82.716 179.238L78.5357 203.085C77.3495 209.825 76.1581 216.605 76.2051 223.442C76.2051 225.362 76.3305 227.317 75.8184 229.17C75.1496 231.603 73.4879 233.631 72.2285 235.843C69.6733 240.361 68.8221 245.619 69.8248 250.692C70.2533 252.822 71.4238 255.24 73.6237 255.486C75.4317 255.681 76.9941 254.27 78.0497 252.812C80.4743 249.471 81.6762 245.436 82.7526 241.463C86.2179 228.48 88.6413 215.25 90.0003 201.895C90.1295 200.204 90.3721 198.524 90.7267 196.864C91.1881 195.154 91.7785 193.479 92.4929 191.855C94.0918 187.961 95.6926 184.067 97.2951 180.173C100.989 171.175 104.705 162.136 109.779 153.811C104.762 152.394 99.542 150.731 94.5256 149.33C93.0781 148.909 91.5261 149.16 90.0317 149.222Z" fill="#FBBEBE"/>
<path d="M98.4511 156.387C94.9639 155.67 91.3574 155.893 87.7975 155.809C87.292 155.844 86.7885 155.719 86.3653 155.453C85.644 154.865 85.9502 153.764 86.3134 152.929L88.0362 148.978C88.319 148.161 88.7907 147.415 89.4166 146.795C90.2936 146.054 91.5286 145.871 92.691 145.738C96.474 145.323 100.366 145.184 104.035 146.158C107.703 147.131 111.154 149.343 112.794 152.618C113.479 153.981 113.796 155.7 112.888 156.94C111.538 158.782 108.513 160.842 106.256 159.834C103.552 158.629 101.482 157.014 98.4511 156.387Z" fill="#6A00FF"/>
<path d="M116.805 86.4039C113.832 86.372 110.914 87.2257 108.413 88.8595C103.588 84.2153 96.674 82.5707 90.3201 84.5557C89.3983 79.2046 84.6737 75.4052 79.3343 75.721C73.9949 76.0368 69.7364 80.3675 69.4323 85.7911C69.1282 91.2148 72.8749 96.0086 78.1445 96.9381C76.0136 103.437 77.5481 110.599 82.1453 115.611C86.7426 120.623 93.6681 122.684 100.201 120.985C106.735 119.285 111.832 114.096 113.491 107.457C114.578 107.683 115.685 107.797 116.795 107.797C124.063 107.797 129.96 103.006 129.96 97.1004C129.96 91.1946 124.063 86.4039 116.805 86.4039Z" fill="#3F3D56"/>
<path opacity="0.1" d="M120.468 101.753C119.461 101.756 118.457 101.646 117.471 101.426C117.003 103.265 116.264 105.012 115.283 106.601C116.207 106.793 117.147 106.89 118.088 106.893C124.251 106.893 129.31 102.869 129.96 97.7192C127.767 100.174 124.331 101.753 120.468 101.753Z" fill="black"/>
<path opacity="0.1" d="M98.4529 116.247C92.5898 116.238 87.0775 113.401 83.5943 108.598C80.1111 103.796 79.069 97.5968 80.7854 91.8882C75.7368 90.9837 72.0553 86.5181 72.055 81.2984C72.054 80.6524 72.1111 80.0075 72.2256 79.3721C69.5994 82.2611 68.7336 86.3804 69.9684 90.1109C71.2033 93.8413 74.3414 96.5865 78.1492 97.2673C75.1866 107.172 80.6402 117.654 90.3526 120.721C100.065 123.788 110.386 118.289 113.448 108.415C109.982 113.334 104.399 116.25 98.4529 116.247Z" fill="black"/>
<path opacity="0.5" d="M95.5975 4.69835C94.6588 4.28953 94.1758 3.24187 94.4745 2.26256C94.4978 2.19004 94.5126 2.11501 94.5183 2.03903C94.5454 1.59399 94.2777 1.18378 93.8593 1.02947C93.441 0.875164 92.971 1.01322 92.7026 1.36924C92.6577 1.43076 92.6201 1.49737 92.5908 1.56768C92.182 2.50637 91.1343 2.98938 90.155 2.69068C90.0825 2.66733 90.0074 2.65262 89.9315 2.64685C89.4864 2.61976 89.0762 2.88752 88.9219 3.30583C88.7676 3.72414 88.9056 4.19415 89.2617 4.46256C89.3232 4.50751 89.3898 4.54505 89.4601 4.57439C90.3988 4.98321 90.8818 6.03087 90.5831 7.01018C90.5598 7.0827 90.545 7.15773 90.5393 7.23371C90.5122 7.67875 90.7799 8.08896 91.1983 8.24327C91.6166 8.39758 92.0866 8.25952 92.355 7.9035C92.3999 7.84198 92.4375 7.77538 92.4668 7.70506C92.8756 6.76637 93.9233 6.28336 94.9026 6.58206C94.9751 6.60541 95.0502 6.62012 95.1261 6.62589C95.5712 6.65297 95.9814 6.38522 96.1357 5.96691C96.29 5.5486 96.152 5.0786 95.7959 4.81019C95.7344 4.76523 95.6678 4.72769 95.5975 4.69835Z" fill="#4D8AF0"/>
<path opacity="0.5" d="M11.201 162.483C10.2623 162.075 9.77931 161.027 10.078 160.048C10.1014 159.975 10.1161 159.9 10.1218 159.824C10.1489 159.379 9.88117 158.969 9.46286 158.815C9.04455 158.66 8.57454 158.798 8.30613 159.154C8.26118 159.216 8.22364 159.282 8.19429 159.353C7.78547 160.291 6.73782 160.775 5.7585 160.476C5.68598 160.452 5.61095 160.438 5.53498 160.432C5.08994 160.405 4.67973 160.673 4.52542 161.091C4.37111 161.509 4.50916 161.979 4.86518 162.248C4.9267 162.293 4.99331 162.33 5.06362 162.36C6.00231 162.768 6.48533 163.816 6.18662 164.795C6.16327 164.868 6.14856 164.943 6.1428 165.019C6.1157 165.464 6.38346 165.874 6.80177 166.028C7.22008 166.183 7.69009 166.045 7.9585 165.689C8.00346 165.627 8.04099 165.561 8.07034 165.49C8.47916 164.551 9.52681 164.068 10.5061 164.367C10.5787 164.391 10.6537 164.405 10.7297 164.411C11.1747 164.438 11.5849 164.17 11.7392 163.752C11.8935 163.334 11.7555 162.864 11.3994 162.595C11.3379 162.55 11.2713 162.513 11.201 162.483Z" fill="#4D8AF0"/>
<path opacity="0.5" d="M407.498 21.2108C406.56 20.8019 406.077 19.7543 406.375 18.775C406.399 18.7025 406.413 18.6274 406.419 18.5515C406.446 18.1064 406.179 17.6962 405.76 17.5419C405.342 17.3876 404.872 17.5256 404.603 17.8817C404.559 17.9432 404.521 18.0098 404.492 18.0801C404.083 19.0188 403.035 19.5018 402.056 19.2031C401.983 19.1798 401.908 19.165 401.832 19.1593C401.387 19.1322 400.977 19.3999 400.823 19.8182C400.668 20.2366 400.807 20.7066 401.163 20.975C401.224 21.0199 401.291 21.0575 401.361 21.0868C402.3 21.4956 402.783 22.5433 402.484 23.5226C402.461 23.5951 402.446 23.6702 402.44 23.7461C402.413 24.1912 402.681 24.6014 403.099 24.7557C403.517 24.91 403.987 24.7719 404.256 24.4159C404.301 24.3544 404.338 24.2878 404.368 24.2175C404.777 23.2788 405.824 22.7958 406.803 23.0945C406.876 23.1178 406.951 23.1325 407.027 23.1383C407.472 23.1654 407.882 22.8976 408.037 22.4793C408.191 22.061 408.053 21.591 407.697 21.3226C407.635 21.2777 407.569 21.2401 407.498 21.2108Z" fill="#4D8AF0"/>
<path opacity="0.5" d="M7.53158 52.4008C6.59289 51.992 6.10987 50.9444 6.40858 49.965C6.43193 49.8925 6.44664 49.8175 6.4524 49.7415C6.4795 49.2965 6.21174 48.8863 5.79343 48.732C5.37511 48.5776 4.90511 48.7157 4.63669 49.0717C4.59174 49.1332 4.5542 49.1998 4.52486 49.2702C4.11604 50.2089 3.06838 50.6919 2.08907 50.3932C2.01655 50.3698 1.94152 50.3551 1.86554 50.3493C1.4205 50.3222 1.01029 50.59 0.855982 51.0083C0.701671 51.4266 0.839727 51.8966 1.19575 52.165C1.25727 52.21 1.32387 52.2475 1.39419 52.2769C2.33288 52.6857 2.81589 53.7334 2.51719 54.7127C2.49384 54.7852 2.47913 54.8602 2.47336 54.9362C2.44627 55.3812 2.71403 55.7914 3.13234 55.9458C3.55065 56.1001 4.02066 55.962 4.28907 55.606C4.33402 55.5445 4.37156 55.4779 4.4009 55.4075C4.80972 54.4689 5.85738 53.9858 6.83669 54.2845C6.90922 54.3079 6.98425 54.3226 7.06022 54.3284C7.50526 54.3555 7.91546 54.0877 8.06977 53.6694C8.22408 53.2511 8.08603 52.7811 7.73002 52.5127C7.6685 52.4677 7.60189 52.4302 7.53158 52.4008Z" fill="#4D8AF0"/>
<path opacity="0.5" d="M46.6611 116.554C48.6877 116.554 50.3305 114.911 50.3305 112.884C50.3305 110.858 48.6877 109.215 46.6611 109.215C44.6346 109.215 42.9917 110.858 42.9917 112.884C42.9917 114.911 44.6346 116.554 46.6611 116.554Z" fill="#47E6B1"/>
<path opacity="0.5" d="M494.331 171.595C496.357 171.595 498 169.952 498 167.926C498 165.899 496.357 164.256 494.331 164.256C492.304 164.256 490.661 165.899 490.661 167.926C490.661 169.952 492.304 171.595 494.331 171.595Z" fill="#47E6B1"/>
</svg>
