<svg width="375" height="477" viewBox="0 0 375 477" fill="none" xmlns="http://www.w3.org/2000/svg">
<g filter="url(#filter0_d)">
<path fill-rule="evenodd" clip-rule="evenodd" d="M361.995 -25.2894C322.943 -64.3418 259.626 -64.3418 220.574 -25.2893L42.7108 152.574C3.65834 191.626 3.65831 254.943 42.7107 293.995L139.561 390.846C178.614 429.898 241.93 429.898 280.983 390.846L458.846 212.983C497.898 173.93 497.898 110.614 458.846 71.5612L361.995 -25.2894Z" fill="url(#paint0_linear)"/>
</g>
<mask id="mask0" mask-type="alpha" maskUnits="userSpaceOnUse" x="-28" y="-96" width="558" height="558">
<path fill-rule="evenodd" clip-rule="evenodd" d="M361.995 -25.2894C322.943 -64.3418 259.626 -64.3418 220.574 -25.2893L42.7108 152.574C3.65834 191.626 3.65831 254.943 42.7107 293.995L139.561 390.846C178.614 429.898 241.93 429.898 280.983 390.846L458.846 212.983C497.898 173.93 497.898 110.614 458.846 71.5612L361.995 -25.2894Z" fill="white"/>
</mask>
<g mask="url(#mask0)">
<path opacity="0.2" fill-rule="evenodd" clip-rule="evenodd" d="M389 119C435.392 119 473 81.3919 473 35C473 -11.3919 435.392 -49 389 -49C342.608 -49 305 -11.3919 305 35C305 81.3919 342.608 119 389 119Z" stroke="white" stroke-width="25"/>
<path opacity="0.08" fill-rule="evenodd" clip-rule="evenodd" d="M373 206C456.395 206 524 138.395 524 55C524 -28.395 456.395 -96 373 -96C289.605 -96 222 -28.395 222 55C222 138.395 289.605 206 373 206Z" stroke="white" stroke-width="25"/>
</g>
<defs>
<filter id="filter0_d" x="-41" y="-107" width="583.556" height="583.556" filterUnits="userSpaceOnUse" color-interpolation-filters="sRGB">
<feFlood flood-opacity="0" result="BackgroundImageFix"/>
<feColorMatrix in="SourceAlpha" type="matrix" values="0 0 0 0 0 0 0 0 0 0 0 0 0 0 0 0 0 0 127 0"/>
<feOffset dy="2"/>
<feGaussianBlur stdDeviation="6.5"/>
<feColorMatrix type="matrix" values="0 0 0 0 0 0 0 0 0 0 0 0 0 0 0 0 0 0 0.326186 0"/>
<feBlend mode="normal" in2="BackgroundImageFix" result="effect1_dropShadow"/>
<feBlend mode="normal" in="SourceGraphic" in2="effect1_dropShadow" result="shape"/>
</filter>
<linearGradient id="paint0_linear" x1="474.797" y1="-7.26902" x2="490.194" y2="349.022" gradientUnits="userSpaceOnUse">
<stop stop-color="#FA6400"/>
<stop offset="1" stop-color="#6B68FC"/>
</linearGradient>
</defs>
</svg>
