<svg width="1440" height="522" viewBox="0 0 1440 522" fill="none" xmlns="http://www.w3.org/2000/svg">
<g filter="url(#filter0_d)">
<path fill-rule="evenodd" clip-rule="evenodd" d="M1235.81 -539.257C1119.24 -655.831 1060.95 -714.117 992.154 -731.504C950.75 -741.967 907.393 -741.967 865.988 -731.504C797.189 -714.117 738.902 -655.831 622.328 -539.257L413.743 -330.672C297.17 -214.099 238.883 -155.812 221.497 -87.0125C211.034 -45.6078 211.034 -2.25085 221.497 39.1537C238.883 107.953 297.17 166.24 413.743 282.813C530.317 399.387 588.604 457.674 657.403 475.06C698.808 485.523 742.165 485.523 783.569 475.06C852.5 457.64 910.656 399.387 1027.23 282.813L1235.81 74.2284C1352.39 -42.345 1410.67 -100.632 1428.06 -169.431C1438.52 -210.836 1438.52 -254.193 1428.06 -295.597C1410.67 -364.397 1352.39 -422.684 1235.81 -539.257Z" fill="url(#paint0_linear)"/>
</g>
<path fill-rule="evenodd" clip-rule="evenodd" d="M619.868 320.178C621.219 320.178 622.314 319.039 622.314 317.635C622.314 316.232 621.219 315.093 619.868 315.093C618.517 315.093 617.423 316.232 617.423 317.635C617.423 319.039 618.517 320.178 619.868 320.178Z" fill="white"/>
<path fill-rule="evenodd" clip-rule="evenodd" d="M615.991 328.644C615.991 330.305 617.727 331.653 619.868 331.653C622.009 331.653 623.746 330.305 623.746 328.644C623.746 326.983 622.009 325.635 619.868 325.635C617.727 325.635 615.991 326.983 615.991 328.644Z" fill="white"/>
<path fill-rule="evenodd" clip-rule="evenodd" d="M619.868 335.848C616.542 335.848 613.847 337.525 613.847 339.592C613.847 341.661 616.542 343.337 619.868 343.337C623.194 343.337 625.889 341.661 625.889 339.592C625.889 337.525 623.194 335.848 619.868 335.848Z" fill="white"/>
<path fill-rule="evenodd" clip-rule="evenodd" d="M619.868 303.244C621.219 303.244 622.314 302.106 622.314 300.702C622.314 299.298 621.219 298.16 619.868 298.16C618.517 298.16 617.423 299.298 617.423 300.702C617.423 302.106 618.517 303.244 619.868 303.244Z" fill="white"/>
<path fill-rule="evenodd" clip-rule="evenodd" d="M619.868 311.711C621.219 311.711 622.314 310.572 622.314 309.169C622.314 307.765 621.219 306.626 619.868 306.626C618.517 306.626 617.423 307.765 617.423 309.169C617.423 310.572 618.517 311.711 619.868 311.711Z" fill="white"/>
<path fill-rule="evenodd" clip-rule="evenodd" d="M619.868 286.685C617.727 286.685 615.992 288.032 615.992 289.693C615.992 291.355 617.727 292.702 619.868 292.702C622.01 292.702 623.745 291.355 623.745 289.693C623.745 288.032 622.01 286.685 619.868 286.685Z" fill="white"/>
<path fill-rule="evenodd" clip-rule="evenodd" d="M619.868 282.489C623.194 282.489 625.889 280.812 625.889 278.745C625.889 276.676 623.194 275 619.868 275C616.542 275 613.847 276.676 613.847 278.745C613.847 280.812 616.542 282.489 619.868 282.489Z" fill="white"/>
<path fill-rule="evenodd" clip-rule="evenodd" d="M611.724 306.627C610.373 306.627 609.278 307.764 609.278 309.169C609.278 310.573 610.373 311.711 611.724 311.711C613.074 311.711 614.169 310.573 614.169 309.169C614.169 307.764 613.074 306.627 611.724 306.627Z" fill="white"/>
<path fill-rule="evenodd" clip-rule="evenodd" d="M601.134 305.138C599.536 305.138 598.24 306.942 598.24 309.168C598.24 311.395 599.536 313.199 601.134 313.199C602.732 313.199 604.028 311.395 604.028 309.168C604.028 306.942 602.732 305.138 601.134 305.138Z" fill="white"/>
<path fill-rule="evenodd" clip-rule="evenodd" d="M590.602 302.909C588.612 302.909 587 305.711 587 309.168C587 312.626 588.612 315.428 590.602 315.428C592.592 315.428 594.204 312.626 594.204 309.168C594.204 305.711 592.592 302.909 590.602 302.909Z" fill="white"/>
<path fill-rule="evenodd" clip-rule="evenodd" d="M630.458 309.168C630.458 307.765 629.363 306.626 628.013 306.626C626.662 306.626 625.567 307.765 625.567 309.168C625.567 310.572 626.662 311.711 628.013 311.711C629.363 311.711 630.458 310.572 630.458 309.168Z" fill="white"/>
<path fill-rule="evenodd" clip-rule="evenodd" d="M638.602 313.199C640.201 313.199 641.497 311.394 641.497 309.168C641.497 306.942 640.201 305.138 638.602 305.138C637.005 305.138 635.708 306.942 635.708 309.168C635.708 311.394 637.005 313.199 638.602 313.199Z" fill="white"/>
<path fill-rule="evenodd" clip-rule="evenodd" d="M649.134 302.909C647.145 302.909 645.533 305.711 645.533 309.168C645.533 312.626 647.145 315.428 649.134 315.428C651.125 315.428 652.736 312.626 652.736 309.168C652.736 305.711 651.125 302.909 649.134 302.909Z" fill="white"/>
<path fill-rule="evenodd" clip-rule="evenodd" d="M603.88 298.247C605.01 299.422 607.153 299.099 608.667 297.525C610.182 295.951 610.492 293.722 609.363 292.547C608.233 291.372 606.089 291.695 604.574 293.27C603.06 294.844 602.749 297.073 603.88 298.247Z" fill="white"/>
<path fill-rule="evenodd" clip-rule="evenodd" d="M601.721 290.303C604.073 287.859 604.838 284.692 603.432 283.229C602.025 281.767 598.978 282.563 596.627 285.007C594.275 287.452 593.509 290.62 594.916 292.082C596.323 293.544 599.37 292.748 601.721 290.303Z" fill="white"/>
<path fill-rule="evenodd" clip-rule="evenodd" d="M635.857 320.089C634.726 318.915 632.584 319.239 631.069 320.812C629.555 322.387 629.244 324.615 630.373 325.79C631.504 326.964 633.648 326.641 635.162 325.067C636.676 323.493 636.987 321.265 635.857 320.089Z" fill="white"/>
<path fill-rule="evenodd" clip-rule="evenodd" d="M638.015 328.034C635.664 330.479 634.899 333.645 636.304 335.108C637.712 336.57 640.758 335.774 643.11 333.33C645.461 330.885 646.227 327.718 644.821 326.255C643.413 324.794 640.367 325.589 638.015 328.034Z" fill="white"/>
<path fill-rule="evenodd" clip-rule="evenodd" d="M635.857 298.247C636.987 297.073 636.676 294.844 635.162 293.27C633.648 291.695 631.504 291.372 630.373 292.547C629.244 293.722 629.555 295.951 631.069 297.525C632.584 299.099 634.726 299.422 635.857 298.247Z" fill="white"/>
<path fill-rule="evenodd" clip-rule="evenodd" d="M636.305 283.229C634.898 284.691 635.664 287.859 638.015 290.304C640.367 292.748 643.413 293.544 644.821 292.081C646.227 290.619 645.461 287.452 643.11 285.008C640.758 282.563 637.712 281.767 636.305 283.229Z" fill="white"/>
<path fill-rule="evenodd" clip-rule="evenodd" d="M603.88 320.089C602.749 321.265 603.06 323.493 604.574 325.067C606.089 326.641 608.233 326.964 609.363 325.79C610.492 324.615 610.182 322.387 608.667 320.812C607.153 319.239 605.01 318.915 603.88 320.089Z" fill="white"/>
<path fill-rule="evenodd" clip-rule="evenodd" d="M594.916 326.255C593.509 327.718 594.275 330.885 596.627 333.33C598.978 335.774 602.025 336.57 603.432 335.108C604.839 333.645 604.073 330.478 601.721 328.034C599.369 325.589 596.323 324.793 594.916 326.255Z" fill="white"/>
<path d="M680.055 317.071C685.624 317.071 686.879 313.344 686.879 313.344L684.433 311.624C684.433 311.624 682.791 313.567 680.505 313.567C678.091 313.567 676.449 312.165 676.449 308.533C676.449 304.997 677.866 303.5 680.827 303.5C681.954 303.5 684.851 305.061 684.851 305.061L686.3 302.162C686.3 302.162 684.497 299.964 680.183 299.964C674.486 299.964 671.556 303.436 671.556 308.597C671.556 313.981 674.357 317.071 680.055 317.071ZM696.859 317.071C702.267 317.071 705.615 313.79 705.615 308.502C705.615 303.213 702.524 299.964 696.859 299.964C691.193 299.964 688.135 303.213 688.135 308.502C688.135 313.79 691.193 317.071 696.859 317.071ZM696.859 313.567C694.026 313.567 692.996 311.528 692.996 308.47C692.996 305.475 694.026 303.5 696.859 303.5C699.692 303.5 700.754 305.507 700.754 308.502C700.754 311.528 699.692 313.567 696.859 313.567ZM718.169 316.466L724.221 300.537H719.006L715.626 312.197H715.465L712.085 300.537H706.838L712.922 316.466H718.169ZM730.982 297.638V293.783H726.797V297.638H730.982ZM731.271 316.466V300.537H726.539V316.466H731.271ZM741.895 317.071C745.146 317.071 746.337 315.383 746.691 314.682L747.174 316.466H751.359V292.572H746.627V301.907H746.498C746.498 301.907 745.339 299.964 741.895 299.964C737.195 299.964 734.362 303.659 734.362 308.852C734.362 313.694 737.388 317.071 741.895 317.071ZM743.311 313.408C740.478 313.408 739.223 311.942 739.223 308.725C739.223 305.539 740.446 303.595 743.504 303.595C746.015 303.595 746.595 305.252 746.627 305.348V311.178C746.562 311.369 745.886 313.408 743.311 313.408ZM763.141 317.071C768.549 317.071 771.897 313.79 771.897 308.502C771.897 303.213 768.807 299.964 763.141 299.964C757.475 299.964 754.417 303.213 754.417 308.502C754.417 313.79 757.475 317.071 763.141 317.071ZM763.141 313.567C760.308 313.567 759.278 311.528 759.278 308.47C759.278 305.475 760.308 303.5 763.141 303.5C765.974 303.5 767.036 305.507 767.036 308.502C767.036 311.528 765.974 313.567 763.141 313.567ZM781.973 325.036C788.186 325.036 790.439 322.615 790.439 319.174C790.439 315.733 787.8 313.694 781.78 313.694H781.683C781.394 313.663 780.718 313.44 780.718 312.611C780.718 312.006 780.943 311.783 781.072 311.687H781.78C786.319 311.687 789.055 309.935 789.055 305.985C789.055 303.245 787.8 301.461 785.643 300.601L787.671 296.81L784.066 296.332L782.778 299.995C782.488 299.995 782.166 299.964 781.877 299.964C777.531 299.964 774.183 301.811 774.183 305.985C774.183 308.565 775.503 310.222 777.692 311.05C777.209 311.496 776.887 312.07 776.887 312.802C776.887 313.376 777.048 313.886 777.273 314.3C774.73 315.128 773.314 316.785 773.314 319.174C773.314 322.647 775.696 325.036 781.973 325.036ZM781.683 308.916C779.784 308.916 778.561 308.087 778.561 305.985C778.561 303.659 779.881 302.926 781.683 302.926C783.486 302.926 784.677 303.659 784.677 305.889C784.677 308.024 783.583 308.916 781.683 308.916ZM781.973 321.818C778.883 321.818 777.692 320.894 777.692 319.174C777.692 317.454 778.915 316.721 781.748 316.721H781.78C784.87 316.721 786.061 317.422 786.061 319.142C786.061 320.799 784.999 321.818 781.973 321.818ZM797.103 316.466V306.048C797.103 306.048 798.004 304.073 800.097 304.073C800.773 304.073 802.254 304.519 802.254 304.519L803.155 300.76C803.155 300.76 802.576 299.964 800.515 299.964C797.94 299.964 796.974 302.034 796.717 302.799L796.105 300.537H792.371V316.466H797.103ZM810.173 317.071C813.489 317.071 814.519 315.256 814.841 314.491L815.517 316.466H819.444V306.176C819.444 301.748 816.804 299.964 812.104 299.964C806.857 299.964 805.409 302.894 805.409 302.894L808.08 305.061C808.08 305.061 809.175 303.532 811.621 303.532C813.585 303.532 814.744 304.233 814.744 306.271V306.335C810.849 306.59 804.25 307.96 804.25 312.452C804.25 315.192 806.471 317.071 810.173 317.071ZM811.589 313.726C809.883 313.726 808.885 313.057 808.885 311.719C808.885 310.031 811.396 309.394 814.744 309.107V311.624C814.744 311.624 814.293 313.726 811.589 313.726ZM829.069 316.466V304.296H833.962V300.537H829.069V298.753C829.069 296.714 829.713 295.917 830.84 295.917C831.548 295.917 833.222 296.364 833.222 296.364L834.156 293.592C834.156 293.592 833.19 292.254 830.067 292.254C825.721 292.254 824.337 294.675 824.337 298.275V300.569L822.502 301.174V304.296H824.337V316.466H829.069ZM840.433 297.638V293.783H836.248V297.638H840.433ZM840.594 316.466V300.537H835.862V316.466H840.594ZM849.543 317.071C852.859 317.071 853.889 315.256 854.211 314.491L854.887 316.466H858.814V306.176C858.814 301.748 856.175 299.964 851.475 299.964C846.227 299.964 844.779 302.894 844.779 302.894L847.451 305.061C847.451 305.061 848.545 303.532 850.992 303.532C852.955 303.532 854.114 304.233 854.114 306.271V306.335C850.219 306.59 843.62 307.96 843.62 312.452C843.62 315.192 845.841 317.071 849.543 317.071ZM850.96 313.726C849.253 313.726 848.255 313.057 848.255 311.719C848.255 310.031 850.766 309.394 854.114 309.107V311.624C854.114 311.624 853.664 313.726 850.96 313.726Z" fill="white"/>
<path opacity="0.2" fill-rule="evenodd" clip-rule="evenodd" d="M733 78C813.634 78 879 12.6336 879 -68C879 -148.634 813.634 -214 733 -214C652.366 -214 587 -148.634 587 -68C587 12.6336 652.366 78 733 78Z" stroke="white" stroke-width="25"/>
<path opacity="0.08" fill-rule="evenodd" clip-rule="evenodd" d="M730.5 195C875.475 195 993 77.4747 993 -67.5C993 -212.475 875.475 -330 730.5 -330C585.525 -330 468 -212.475 468 -67.5C468 77.4747 585.525 195 730.5 195Z" stroke="white" stroke-width="25"/>
<defs>
<filter id="filter0_d" x="180.178" y="-767.673" width="1289.2" height="1289.2" filterUnits="userSpaceOnUse" color-interpolation-filters="sRGB">
<feFlood flood-opacity="0" result="BackgroundImageFix"/>
<feColorMatrix in="SourceAlpha" type="matrix" values="0 0 0 0 0 0 0 0 0 0 0 0 0 0 0 0 0 0 127 0"/>
<feOffset dy="5.14946"/>
<feGaussianBlur stdDeviation="16.7357"/>
<feColorMatrix type="matrix" values="0 0 0 0 0 0 0 0 0 0 0 0 0 0 0 0 0 0 0.326186 0"/>
<feBlend mode="normal" in2="BackgroundImageFix" result="effect1_dropShadow"/>
<feBlend mode="normal" in="SourceGraphic" in2="effect1_dropShadow" result="shape"/>
</filter>
<linearGradient id="paint0_linear" x1="944" y1="-43" x2="848.758" y2="460.183" gradientUnits="userSpaceOnUse">
<stop stop-color="#FA6400"/>
<stop offset="0.545525" stop-color="#A2669B"/>
<stop offset="1" stop-color="#6B68FC"/>
</linearGradient>
</defs>
</svg>
