<svg width="375" height="490" viewBox="0 0 375 490" fill="none" xmlns="http://www.w3.org/2000/svg">
<g clip-path="url(#clip0)">
<g filter="url(#filter0_d)">
<path fill-rule="evenodd" clip-rule="evenodd" d="M361.995 -25.2894C322.942 -64.3418 259.626 -64.3418 220.574 -25.2893L42.7105 152.574C3.6581 191.626 3.65807 254.943 42.7105 293.995L139.561 390.846C178.614 429.898 241.93 429.898 280.982 390.846L458.845 212.983C497.898 173.93 497.898 110.614 458.845 71.5612L361.995 -25.2894Z" fill="url(#paint0_linear)"/>
</g>
<mask id="mask0" mask-type="alpha" maskUnits="userSpaceOnUse" x="13" y="-55" width="476" height="476">
<path fill-rule="evenodd" clip-rule="evenodd" d="M361.995 -25.2894C322.942 -64.3418 259.626 -64.3418 220.574 -25.2893L42.7105 152.574C3.6581 191.626 3.65807 254.943 42.7105 293.995L139.561 390.846C178.614 429.898 241.93 429.898 280.982 390.846L458.845 212.983C497.898 173.93 497.898 110.614 458.845 71.5612L361.995 -25.2894Z" fill="white"/>
</mask>
<g mask="url(#mask0)">
<path opacity="0.2" fill-rule="evenodd" clip-rule="evenodd" d="M389 119C435.392 119 473 81.3919 473 35C473 -11.3919 435.392 -49 389 -49C342.608 -49 305 -11.3919 305 35C305 81.3919 342.608 119 389 119Z" stroke="white" stroke-width="25"/>
<path opacity="0.08" fill-rule="evenodd" clip-rule="evenodd" d="M373 206C456.395 206 524 138.395 524 55C524 -28.395 456.395 -96 373 -96C289.605 -96 222 -28.395 222 55C222 138.395 289.605 206 373 206Z" stroke="white" stroke-width="25"/>
</g>
<path fill-rule="evenodd" clip-rule="evenodd" d="M83.8685 243.178C85.2189 243.178 86.3139 242.039 86.3139 240.635C86.3139 239.232 85.2189 238.093 83.8685 238.093C82.5174 238.093 81.423 239.232 81.423 240.635C81.423 242.039 82.5174 243.178 83.8685 243.178Z" fill="white"/>
<path fill-rule="evenodd" clip-rule="evenodd" d="M79.9913 251.644C79.9913 253.305 81.7269 254.653 83.8681 254.653C86.0094 254.653 87.7457 253.305 87.7457 251.644C87.7457 249.983 86.0094 248.635 83.8681 248.635C81.7269 248.635 79.9913 249.983 79.9913 251.644Z" fill="white"/>
<path fill-rule="evenodd" clip-rule="evenodd" d="M83.8685 258.848C80.5425 258.848 77.8468 260.525 77.8468 262.592C77.8468 264.661 80.5425 266.337 83.8685 266.337C87.1938 266.337 89.8895 264.661 89.8895 262.592C89.8895 260.525 87.1938 258.848 83.8685 258.848Z" fill="white"/>
<path fill-rule="evenodd" clip-rule="evenodd" d="M83.8685 226.244C85.2189 226.244 86.3139 225.106 86.3139 223.702C86.3139 222.298 85.2189 221.16 83.8685 221.16C82.5174 221.16 81.423 222.298 81.423 223.702C81.423 225.106 82.5174 226.244 83.8685 226.244Z" fill="white"/>
<path fill-rule="evenodd" clip-rule="evenodd" d="M83.8685 234.711C85.2189 234.711 86.3139 233.572 86.3139 232.169C86.3139 230.765 85.2189 229.626 83.8685 229.626C82.5174 229.626 81.423 230.765 81.423 232.169C81.423 233.572 82.5174 234.711 83.8685 234.711Z" fill="white"/>
<path fill-rule="evenodd" clip-rule="evenodd" d="M83.8685 209.685C81.7265 209.685 79.9917 211.032 79.9917 212.693C79.9917 214.355 81.7265 215.702 83.8685 215.702C86.0097 215.702 87.7453 214.355 87.7453 212.693C87.7453 211.032 86.0097 209.685 83.8685 209.685Z" fill="white"/>
<path fill-rule="evenodd" clip-rule="evenodd" d="M83.8685 205.489C87.1938 205.489 89.8895 203.812 89.8895 201.745C89.8895 199.676 87.1938 198 83.8685 198C80.5425 198 77.8468 199.676 77.8468 201.745C77.8468 203.812 80.5425 205.489 83.8685 205.489Z" fill="white"/>
<path fill-rule="evenodd" clip-rule="evenodd" d="M75.7237 229.627C74.3726 229.627 73.2783 230.764 73.2783 232.169C73.2783 233.573 74.3726 234.711 75.7237 234.711C77.0741 234.711 78.1692 233.573 78.1692 232.169C78.1692 230.764 77.0741 229.627 75.7237 229.627Z" fill="white"/>
<path fill-rule="evenodd" clip-rule="evenodd" d="M65.1339 228.138C63.5362 228.138 62.2398 229.942 62.2398 232.168C62.2398 234.395 63.5362 236.199 65.1339 236.199C66.7316 236.199 68.028 234.395 68.028 232.168C68.028 229.942 66.7316 228.138 65.1339 228.138Z" fill="white"/>
<path fill-rule="evenodd" clip-rule="evenodd" d="M54.6018 225.909C52.6123 225.909 51 228.711 51 232.168C51 235.626 52.6123 238.428 54.6018 238.428C56.592 238.428 58.2043 235.626 58.2043 232.168C58.2043 228.711 56.592 225.909 54.6018 225.909Z" fill="white"/>
<path fill-rule="evenodd" clip-rule="evenodd" d="M94.4583 232.168C94.4583 230.765 93.3633 229.626 92.0129 229.626C90.6625 229.626 89.5674 230.765 89.5674 232.168C89.5674 233.572 90.6625 234.711 92.0129 234.711C93.3633 234.711 94.4583 233.572 94.4583 232.168Z" fill="white"/>
<path fill-rule="evenodd" clip-rule="evenodd" d="M102.602 236.199C104.201 236.199 105.497 234.394 105.497 232.168C105.497 229.942 104.201 228.138 102.602 228.138C101.005 228.138 99.7082 229.942 99.7082 232.168C99.7082 234.394 101.005 236.199 102.602 236.199Z" fill="white"/>
<path fill-rule="evenodd" clip-rule="evenodd" d="M113.134 225.909C111.145 225.909 109.533 228.711 109.533 232.168C109.533 235.626 111.145 238.428 113.134 238.428C115.125 238.428 116.736 235.626 116.736 232.168C116.736 228.711 115.125 225.909 113.134 225.909Z" fill="white"/>
<path fill-rule="evenodd" clip-rule="evenodd" d="M67.8797 221.247C69.0098 222.422 71.1532 222.099 72.667 220.525C74.1815 218.951 74.4923 216.722 73.363 215.547C72.2329 214.372 70.0888 214.695 68.5742 216.27C67.0604 217.844 66.7489 220.073 67.8797 221.247Z" fill="white"/>
<path fill-rule="evenodd" clip-rule="evenodd" d="M65.721 213.303C68.073 210.859 68.8383 207.692 67.4318 206.229C66.0252 204.767 62.9779 205.563 60.6273 208.007C58.2752 210.452 57.5092 213.62 58.9165 215.082C60.323 216.544 63.3696 215.748 65.721 213.303Z" fill="white"/>
<path fill-rule="evenodd" clip-rule="evenodd" d="M99.8573 243.089C98.7265 241.915 96.5838 242.239 95.0692 243.812C93.5547 245.387 93.2439 247.615 94.3733 248.79C95.5041 249.964 97.6482 249.641 99.162 248.067C100.676 246.493 100.987 244.265 99.8573 243.089Z" fill="white"/>
<path fill-rule="evenodd" clip-rule="evenodd" d="M102.015 251.034C99.6639 253.479 98.8986 256.645 100.304 258.108C101.712 259.57 104.758 258.774 107.11 256.33C109.461 253.885 110.227 250.718 108.821 249.255C107.413 247.794 104.367 248.589 102.015 251.034Z" fill="white"/>
<path fill-rule="evenodd" clip-rule="evenodd" d="M99.8573 221.247C100.987 220.073 100.676 217.844 99.162 216.27C97.6482 214.695 95.5041 214.372 94.3733 215.547C93.2439 216.722 93.5547 218.951 95.0692 220.525C96.5838 222.099 98.7265 222.422 99.8573 221.247Z" fill="white"/>
<path fill-rule="evenodd" clip-rule="evenodd" d="M100.305 206.229C98.8981 207.691 99.6642 210.859 102.015 213.304C104.367 215.748 107.413 216.544 108.821 215.081C110.227 213.619 109.461 210.452 107.11 208.008C104.758 205.563 101.712 204.767 100.305 206.229Z" fill="white"/>
<path fill-rule="evenodd" clip-rule="evenodd" d="M67.8797 243.089C66.7489 244.265 67.0604 246.493 68.5742 248.067C70.0888 249.641 72.2329 249.964 73.363 248.79C74.4923 247.615 74.1815 245.387 72.667 243.812C71.1532 242.239 69.0098 241.915 67.8797 243.089Z" fill="white"/>
<path fill-rule="evenodd" clip-rule="evenodd" d="M58.9163 249.255C57.509 250.718 58.2751 253.885 60.6271 256.33C62.9777 258.774 66.0251 259.57 67.4316 258.108C68.8389 256.645 68.0729 253.478 65.7208 251.034C63.3695 248.589 60.3229 247.793 58.9163 249.255Z" fill="white"/>
<path d="M144.055 240.072C149.624 240.072 150.879 236.344 150.879 236.344L148.433 234.624C148.433 234.624 146.791 236.567 144.505 236.567C142.091 236.567 140.449 235.165 140.449 231.533C140.449 227.997 141.866 226.5 144.827 226.5C145.954 226.5 148.851 228.061 148.851 228.061L150.3 225.162C150.3 225.162 148.497 222.964 144.183 222.964C138.486 222.964 135.556 226.436 135.556 231.597C135.556 236.981 138.357 240.072 144.055 240.072ZM160.859 240.072C166.267 240.072 169.615 236.79 169.615 231.502C169.615 226.213 166.524 222.964 160.859 222.964C155.193 222.964 152.135 226.213 152.135 231.502C152.135 236.79 155.193 240.072 160.859 240.072ZM160.859 236.567C158.026 236.567 156.996 234.528 156.996 231.47C156.996 228.475 158.026 226.5 160.859 226.5C163.692 226.5 164.754 228.507 164.754 231.502C164.754 234.528 163.692 236.567 160.859 236.567ZM182.169 239.466L188.221 223.537H183.006L179.626 235.197H179.465L176.085 223.537H170.838L176.922 239.466H182.169ZM194.982 220.638V216.783H190.797V220.638H194.982ZM195.271 239.466V223.537H190.539V239.466H195.271ZM205.895 240.072C209.146 240.072 210.337 238.383 210.691 237.682L211.174 239.466H215.359V215.572H210.627V224.907H210.498C210.498 224.907 209.339 222.964 205.895 222.964C201.195 222.964 198.362 226.659 198.362 231.852C198.362 236.695 201.388 240.072 205.895 240.072ZM207.311 236.408C204.478 236.408 203.223 234.942 203.223 231.725C203.223 228.539 204.446 226.595 207.504 226.595C210.015 226.595 210.595 228.252 210.627 228.348V234.178C210.562 234.369 209.886 236.408 207.311 236.408ZM227.141 240.072C232.549 240.072 235.897 236.79 235.897 231.502C235.897 226.213 232.807 222.964 227.141 222.964C221.475 222.964 218.417 226.213 218.417 231.502C218.417 236.79 221.475 240.072 227.141 240.072ZM227.141 236.567C224.308 236.567 223.278 234.528 223.278 231.47C223.278 228.475 224.308 226.5 227.141 226.5C229.974 226.5 231.036 228.507 231.036 231.502C231.036 234.528 229.974 236.567 227.141 236.567ZM245.973 248.036C252.186 248.036 254.439 245.615 254.439 242.174C254.439 238.733 251.8 236.695 245.78 236.695H245.683C245.394 236.663 244.718 236.44 244.718 235.611C244.718 235.006 244.943 234.783 245.072 234.687H245.78C250.319 234.687 253.055 232.935 253.055 228.985C253.055 226.245 251.8 224.461 249.643 223.601L251.671 219.81L248.066 219.332L246.778 222.995C246.488 222.995 246.166 222.964 245.877 222.964C241.531 222.964 238.183 224.811 238.183 228.985C238.183 231.565 239.503 233.222 241.692 234.05C241.209 234.496 240.887 235.07 240.887 235.802C240.887 236.376 241.048 236.886 241.273 237.3C238.73 238.128 237.314 239.785 237.314 242.174C237.314 245.647 239.696 248.036 245.973 248.036ZM245.683 231.916C243.784 231.916 242.561 231.087 242.561 228.985C242.561 226.659 243.881 225.926 245.683 225.926C247.486 225.926 248.677 226.659 248.677 228.889C248.677 231.024 247.583 231.916 245.683 231.916ZM245.973 244.818C242.883 244.818 241.692 243.895 241.692 242.174C241.692 240.454 242.915 239.721 245.748 239.721H245.78C248.87 239.721 250.061 240.422 250.061 242.142C250.061 243.799 248.999 244.818 245.973 244.818ZM261.103 239.466V229.049C261.103 229.049 262.004 227.073 264.097 227.073C264.773 227.073 266.254 227.519 266.254 227.519L267.155 223.76C267.155 223.76 266.576 222.964 264.515 222.964C261.94 222.964 260.974 225.034 260.717 225.799L260.105 223.537H256.371V239.466H261.103ZM274.173 240.072C277.489 240.072 278.519 238.256 278.841 237.491L279.517 239.466H283.444V229.176C283.444 224.748 280.804 222.964 276.104 222.964C270.857 222.964 269.409 225.895 269.409 225.895L272.08 228.061C272.08 228.061 273.175 226.532 275.621 226.532C277.585 226.532 278.744 227.233 278.744 229.272V229.335C274.849 229.59 268.25 230.96 268.25 235.452C268.25 238.192 270.471 240.072 274.173 240.072ZM275.589 236.726C273.883 236.726 272.885 236.057 272.885 234.719C272.885 233.031 275.396 232.394 278.744 232.107V234.624C278.744 234.624 278.293 236.726 275.589 236.726ZM293.069 239.466V227.296H297.962V223.537H293.069V221.753C293.069 219.714 293.713 218.918 294.84 218.918C295.548 218.918 297.222 219.364 297.222 219.364L298.156 216.592C298.156 216.592 297.19 215.254 294.067 215.254C289.721 215.254 288.337 217.675 288.337 221.275V223.569L286.502 224.174V227.296H288.337V239.466H293.069ZM304.433 220.638V216.783H300.248V220.638H304.433ZM304.594 239.466V223.537H299.862V239.466H304.594ZM313.543 240.072C316.859 240.072 317.889 238.256 318.211 237.491L318.887 239.466H322.814V229.176C322.814 224.748 320.175 222.964 315.475 222.964C310.227 222.964 308.779 225.895 308.779 225.895L311.451 228.061C311.451 228.061 312.545 226.532 314.992 226.532C316.955 226.532 318.114 227.233 318.114 229.272V229.335C314.219 229.59 307.62 230.96 307.62 235.452C307.62 238.192 309.841 240.072 313.543 240.072ZM314.96 236.726C313.253 236.726 312.255 236.057 312.255 234.719C312.255 233.031 314.766 232.394 318.114 232.107V234.624C318.114 234.624 317.664 236.726 314.96 236.726Z" fill="white"/>
</g>
<defs>
<filter id="filter0_d" x="0.421387" y="-65.5787" width="500.714" height="500.714" filterUnits="userSpaceOnUse" color-interpolation-filters="sRGB">
<feFlood flood-opacity="0" result="BackgroundImageFix"/>
<feColorMatrix in="SourceAlpha" type="matrix" values="0 0 0 0 0 0 0 0 0 0 0 0 0 0 0 0 0 0 127 0"/>
<feOffset dy="2"/>
<feGaussianBlur stdDeviation="6.5"/>
<feColorMatrix type="matrix" values="0 0 0 0 0 0 0 0 0 0 0 0 0 0 0 0 0 0 0.326186 0"/>
<feBlend mode="normal" in2="BackgroundImageFix" result="effect1_dropShadow"/>
<feBlend mode="normal" in="SourceGraphic" in2="effect1_dropShadow" result="shape"/>
</filter>
<linearGradient id="paint0_linear" x1="474.797" y1="-7.26902" x2="490.194" y2="349.022" gradientUnits="userSpaceOnUse">
<stop stop-color="#FA6400"/>
<stop offset="1" stop-color="#6B68FC"/>
</linearGradient>
<clipPath id="clip0">
<rect width="375" height="490" fill="white"/>
</clipPath>
</defs>
</svg>
