<svg width="1440" height="629" viewBox="0 0 1440 629" fill="none" xmlns="http://www.w3.org/2000/svg">
<g filter="url(#filter0_d)">
<path fill-rule="evenodd" clip-rule="evenodd" d="M1235.81 -539.257C1119.24 -655.831 1060.95 -714.117 992.154 -731.504C950.75 -741.967 907.393 -741.967 865.988 -731.504C797.189 -714.117 738.902 -655.831 622.328 -539.257L413.743 -330.672C297.17 -214.099 238.883 -155.812 221.497 -87.0124C211.034 -45.6078 211.034 -2.25085 221.497 39.1538C238.883 107.953 297.17 166.24 413.743 282.813C530.317 399.387 588.603 457.674 657.403 475.06C698.808 485.523 742.165 485.523 783.569 475.06C852.369 457.674 910.656 399.387 1027.23 282.814L1235.81 74.2284C1352.39 -42.345 1410.67 -100.632 1428.06 -169.431C1438.52 -210.836 1438.52 -254.193 1428.06 -295.597C1410.67 -364.397 1352.39 -422.684 1235.81 -539.257Z" fill="url(#paint0_linear)"/>
</g>
<path fill-rule="evenodd" clip-rule="evenodd" d="M716.289 328.274L715.969 332.674C715.195 332.779 714.422 332.833 713.649 332.833C710.662 332.833 708.482 332.181 707.109 330.874C705.735 329.568 705.049 327.581 705.049 324.914V317.394H701.329V312.874H705.049V307.114H711.089V312.874H716.009V317.394H711.089V324.874C711.089 327.221 712.182 328.394 714.369 328.394C714.982 328.394 715.622 328.354 716.289 328.274Z" fill="white"/>
<path fill-rule="evenodd" clip-rule="evenodd" d="M733.009 317.354L729.609 317.714C727.929 317.874 726.741 318.348 726.049 319.134C725.355 319.921 725.009 320.968 725.009 322.274V332.514H718.969V312.874H724.769V316.194C725.755 313.928 727.795 312.688 730.889 312.474L732.649 312.354L733.009 317.354Z" fill="white"/>
<path fill-rule="evenodd" clip-rule="evenodd" d="M745.488 327.493C746.208 326.707 746.568 325.687 746.568 324.433V323.754H745.888C743.728 323.754 742.215 323.927 741.348 324.273C740.481 324.62 740.049 325.247 740.049 326.153C740.049 326.873 740.295 327.473 740.788 327.953C741.281 328.433 741.901 328.674 742.648 328.674C743.821 328.674 744.768 328.28 745.488 327.493ZM750.228 314.473C751.629 315.86 752.328 318.007 752.328 320.913V332.514H746.608V329.594C746.208 330.607 745.542 331.4 744.608 331.973C743.675 332.547 742.582 332.833 741.328 332.833C739.995 332.833 738.788 332.566 737.708 332.033C736.629 331.5 735.774 330.754 735.148 329.793C734.521 328.833 734.208 327.767 734.208 326.594C734.208 325.153 734.575 324.02 735.308 323.193C736.042 322.367 737.221 321.767 738.848 321.393C740.474 321.02 742.701 320.833 745.528 320.833H746.568V320.114C746.568 318.94 746.314 318.114 745.808 317.634C745.301 317.154 744.422 316.913 743.169 316.913C742.208 316.913 741.141 317.087 739.968 317.433C738.795 317.781 737.675 318.261 736.608 318.873L735.009 314.833C736.129 314.14 737.509 313.56 739.148 313.094C740.788 312.627 742.314 312.393 743.728 312.393C746.661 312.393 748.828 313.087 750.228 314.473Z" fill="white"/>
<path fill-rule="evenodd" clip-rule="evenodd" d="M758.647 330.113C756.807 328.301 755.887 325.833 755.887 322.714C755.887 320.66 756.327 318.853 757.207 317.293C758.086 315.734 759.327 314.527 760.927 313.674C762.527 312.82 764.38 312.393 766.487 312.393C767.927 312.393 769.313 312.613 770.647 313.053C771.98 313.493 773.06 314.087 773.887 314.833L772.287 318.953C771.513 318.34 770.667 317.867 769.747 317.533C768.827 317.2 767.927 317.033 767.046 317.033C765.473 317.033 764.253 317.5 763.387 318.433C762.52 319.367 762.086 320.754 762.086 322.593C762.086 324.433 762.52 325.827 763.387 326.773C764.253 327.72 765.473 328.193 767.046 328.193C767.927 328.193 768.827 328.027 769.747 327.693C770.667 327.36 771.513 326.886 772.287 326.273L773.887 330.433C773.007 331.18 771.887 331.767 770.527 332.193C769.167 332.62 767.727 332.833 766.207 332.833C763.007 332.833 760.487 331.926 758.647 330.113Z" fill="white"/>
<path fill-rule="evenodd" clip-rule="evenodd" d="M790.447 322.594C790.447 320.701 790.067 319.288 789.306 318.354C788.547 317.421 787.46 316.954 786.047 316.954C783.113 316.954 781.647 318.834 781.647 322.594C781.647 326.354 783.113 328.234 786.047 328.234C788.98 328.234 790.447 326.354 790.447 322.594ZM780.567 331.573C778.993 330.734 777.78 329.547 776.926 328.014C776.073 326.481 775.647 324.674 775.647 322.594C775.647 320.514 776.073 318.708 776.926 317.174C777.78 315.641 778.993 314.461 780.567 313.634C782.14 312.808 783.967 312.394 786.047 312.394C788.127 312.394 789.953 312.808 791.527 313.634C793.1 314.461 794.313 315.641 795.167 317.174C796.02 318.708 796.447 320.514 796.447 322.594C796.447 324.674 796.02 326.481 795.167 328.014C794.313 329.547 793.1 330.734 791.527 331.573C789.953 332.413 788.127 332.833 786.047 332.833C783.967 332.833 782.14 332.413 780.567 331.573Z" fill="white"/>
<path fill-rule="evenodd" clip-rule="evenodd" d="M813.327 312.914H819.247L810.607 332.514H805.487L796.967 312.914H803.247L808.207 325.394L813.327 312.914Z" fill="white"/>
<path fill-rule="evenodd" clip-rule="evenodd" d="M821.088 332.514H827.128V312.874H821.088V332.514ZM820.887 309.074H827.366V303.434H820.887V309.074Z" fill="white"/>
<path fill-rule="evenodd" clip-rule="evenodd" d="M844.507 326.774C845.268 325.801 845.648 324.408 845.648 322.594C845.648 320.781 845.268 319.394 844.507 318.434C843.747 317.474 842.66 316.994 841.247 316.994C839.834 316.994 838.74 317.468 837.967 318.414C837.194 319.361 836.808 320.728 836.808 322.514C836.808 324.328 837.194 325.734 837.967 326.734C838.74 327.734 839.834 328.234 841.247 328.234C842.66 328.234 843.747 327.748 844.507 326.774ZM851.648 304.314V332.514H845.648V329.594C845.061 330.608 844.228 331.401 843.148 331.974C842.068 332.547 840.848 332.834 839.487 332.834C837.808 332.834 836.308 332.401 834.987 331.534C833.667 330.667 832.641 329.454 831.907 327.894C831.174 326.333 830.808 324.541 830.808 322.514C830.808 320.488 831.174 318.708 831.907 317.174C832.641 315.641 833.66 314.461 834.967 313.634C836.274 312.808 837.78 312.394 839.487 312.394C840.82 312.394 842.028 312.674 843.108 313.234C844.188 313.794 845.021 314.581 845.608 315.594V304.314H851.648Z" fill="white"/>
<path fill-rule="evenodd" clip-rule="evenodd" d="M632.053 334.569C633.904 334.569 635.405 333.068 635.405 331.217C635.405 329.366 633.904 327.865 632.053 327.865C630.201 327.865 628.701 329.366 628.701 331.217C628.701 333.068 630.201 334.569 632.053 334.569Z" fill="white"/>
<path fill-rule="evenodd" clip-rule="evenodd" d="M626.739 345.732C626.739 347.923 629.118 349.7 632.053 349.7C634.988 349.7 637.368 347.923 637.368 345.732C637.368 343.542 634.988 341.765 632.053 341.765C629.118 341.765 626.739 343.542 626.739 345.732Z" fill="white"/>
<path fill-rule="evenodd" clip-rule="evenodd" d="M632.053 355.231C627.494 355.231 623.799 357.443 623.799 360.169C623.799 362.896 627.494 365.106 632.053 365.106C636.611 365.106 640.306 362.896 640.306 360.169C640.306 357.443 636.611 355.231 632.053 355.231Z" fill="white"/>
<path fill-rule="evenodd" clip-rule="evenodd" d="M632.053 312.241C633.904 312.241 635.405 310.741 635.405 308.889C635.405 307.038 633.904 305.538 632.053 305.538C630.201 305.538 628.701 307.038 628.701 308.889C628.701 310.741 630.201 312.241 632.053 312.241Z" fill="white"/>
<path fill-rule="evenodd" clip-rule="evenodd" d="M632.053 323.405C633.904 323.405 635.405 321.904 635.405 320.053C635.405 318.202 633.904 316.701 632.053 316.701C630.201 316.701 628.701 318.202 628.701 320.053C628.701 321.904 630.201 323.405 632.053 323.405Z" fill="white"/>
<path fill-rule="evenodd" clip-rule="evenodd" d="M632.053 290.407C629.117 290.407 626.739 292.183 626.739 294.374C626.739 296.565 629.117 298.341 632.053 298.341C634.988 298.341 637.367 296.565 637.367 294.374C637.367 292.183 634.988 290.407 632.053 290.407Z" fill="white"/>
<path fill-rule="evenodd" clip-rule="evenodd" d="M632.053 284.876C636.611 284.876 640.306 282.665 640.306 279.939C640.306 277.211 636.611 275.001 632.053 275.001C627.494 275.001 623.799 277.211 623.799 279.939C623.799 282.665 627.494 284.876 632.053 284.876Z" fill="white"/>
<path fill-rule="evenodd" clip-rule="evenodd" d="M620.889 316.702C619.037 316.702 617.537 318.202 617.537 320.054C617.537 321.905 619.037 323.406 620.889 323.406C622.74 323.406 624.241 321.905 624.241 320.054C624.241 318.202 622.74 316.702 620.889 316.702Z" fill="white"/>
<path fill-rule="evenodd" clip-rule="evenodd" d="M606.374 314.739C604.184 314.739 602.407 317.118 602.407 320.053C602.407 322.989 604.184 325.368 606.374 325.368C608.564 325.368 610.341 322.989 610.341 320.053C610.341 317.118 608.564 314.739 606.374 314.739Z" fill="white"/>
<path fill-rule="evenodd" clip-rule="evenodd" d="M591.937 311.8C589.21 311.8 587 315.495 587 320.053C587 324.612 589.21 328.307 591.937 328.307C594.665 328.307 596.875 324.612 596.875 320.053C596.875 315.495 594.665 311.8 591.937 311.8Z" fill="white"/>
<path fill-rule="evenodd" clip-rule="evenodd" d="M646.569 320.053C646.569 318.202 645.068 316.701 643.217 316.701C641.366 316.701 639.865 318.202 639.865 320.053C639.865 321.904 641.366 323.405 643.217 323.405C645.068 323.405 646.569 321.904 646.569 320.053Z" fill="white"/>
<path fill-rule="evenodd" clip-rule="evenodd" d="M657.732 325.368C659.923 325.368 661.7 322.988 661.7 320.053C661.7 317.118 659.923 314.739 657.732 314.739C655.542 314.739 653.765 317.118 653.765 320.053C653.765 322.988 655.542 325.368 657.732 325.368Z" fill="white"/>
<path fill-rule="evenodd" clip-rule="evenodd" d="M672.169 311.8C669.442 311.8 667.232 315.495 667.232 320.053C667.232 324.612 669.442 328.307 672.169 328.307C674.897 328.307 677.106 324.612 677.106 320.053C677.106 315.495 674.897 311.8 672.169 311.8Z" fill="white"/>
<path fill-rule="evenodd" clip-rule="evenodd" d="M610.137 305.653C611.686 307.202 614.624 306.776 616.699 304.7C618.775 302.625 619.201 299.686 617.653 298.137C616.104 296.588 613.165 297.014 611.089 299.09C609.014 301.165 608.587 304.104 610.137 305.653Z" fill="white"/>
<path fill-rule="evenodd" clip-rule="evenodd" d="M607.178 295.179C610.402 291.956 611.451 287.78 609.523 285.851C607.595 283.923 603.418 284.973 600.196 288.196C596.972 291.419 595.922 295.596 597.851 297.524C599.779 299.452 603.955 298.402 607.178 295.179Z" fill="white"/>
<path fill-rule="evenodd" clip-rule="evenodd" d="M653.969 334.453C652.419 332.904 649.482 333.331 647.406 335.406C645.33 337.482 644.904 340.42 646.452 341.97C648.002 343.518 650.941 343.092 653.016 341.016C655.091 338.941 655.518 336.003 653.969 334.453Z" fill="white"/>
<path fill-rule="evenodd" clip-rule="evenodd" d="M656.927 344.928C653.704 348.152 652.655 352.327 654.582 354.256C656.511 356.184 660.687 355.134 663.91 351.911C667.133 348.688 668.183 344.512 666.255 342.583C664.326 340.656 660.151 341.705 656.927 344.928Z" fill="white"/>
<path fill-rule="evenodd" clip-rule="evenodd" d="M653.969 305.653C655.518 304.104 655.091 301.165 653.016 299.09C650.941 297.014 648.002 296.588 646.452 298.137C644.904 299.686 645.33 302.625 647.406 304.7C649.482 306.776 652.419 307.202 653.969 305.653Z" fill="white"/>
<path fill-rule="evenodd" clip-rule="evenodd" d="M654.583 285.851C652.655 287.779 653.705 291.955 656.928 295.179C660.151 298.402 664.327 299.452 666.256 297.523C668.184 295.595 667.134 291.419 663.911 288.196C660.687 284.973 656.512 283.923 654.583 285.851Z" fill="white"/>
<path fill-rule="evenodd" clip-rule="evenodd" d="M610.137 334.453C608.587 336.003 609.014 338.941 611.089 341.016C613.165 343.092 616.104 343.518 617.653 341.97C619.201 340.42 618.775 337.482 616.699 335.406C614.624 333.331 611.686 332.904 610.137 334.453Z" fill="white"/>
<path fill-rule="evenodd" clip-rule="evenodd" d="M597.851 342.583C595.922 344.512 596.972 348.687 600.196 351.911C603.418 355.134 607.595 356.184 609.523 354.256C611.452 352.327 610.402 348.151 607.178 344.928C603.955 341.705 599.779 340.655 597.851 342.583Z" fill="white"/>
<defs>
<filter id="filter0_d" x="73.5291" y="-874.322" width="1502.5" height="1502.5" filterUnits="userSpaceOnUse" color-interpolation-filters="sRGB">
<feFlood flood-opacity="0" result="BackgroundImageFix"/>
<feColorMatrix in="SourceAlpha" type="matrix" values="0 0 0 0 0 0 0 0 0 0 0 0 0 0 0 0 0 0 127 0"/>
<feOffset dy="5.14946"/>
<feGaussianBlur stdDeviation="16.7357"/>
<feColorMatrix type="matrix" values="0 0 0 0 0 0 0 0 0 0 0 0 0 0 0 0 0 0 0.326186 0"/>
<feBlend mode="normal" in2="BackgroundImageFix" result="effect1_dropShadow"/>
<feBlend mode="normal" in="SourceGraphic" in2="effect1_dropShadow" result="shape"/>
</filter>
<linearGradient id="paint0_linear" x1="944" y1="-43" x2="848.758" y2="460.184" gradientUnits="userSpaceOnUse">
<stop stop-color="#FA6400"/>
<stop offset="0.545525" stop-color="#A2669B"/>
<stop offset="1" stop-color="#6B68FC"/>
</linearGradient>
</defs>
</svg>
