<svg width="272" height="69" viewBox="0 0 272 69" fill="none" xmlns="http://www.w3.org/2000/svg">
<path fill-rule="evenodd" clip-rule="evenodd" d="M32.8685 45.1777C34.2189 45.1777 35.3139 44.0393 35.3139 42.6355C35.3139 41.2317 34.2189 40.0933 32.8685 40.0933C31.5174 40.0933 30.423 41.2317 30.423 42.6355C30.423 44.0393 31.5174 45.1777 32.8685 45.1777Z" fill="white"/>
<path fill-rule="evenodd" clip-rule="evenodd" d="M28.9913 53.6438C28.9913 55.3055 30.7269 56.6532 32.8681 56.6532C35.0094 56.6532 36.7457 55.3055 36.7457 53.6438C36.7457 51.9829 35.0094 50.6352 32.8681 50.6352C30.7269 50.6352 28.9913 51.9829 28.9913 53.6438Z" fill="white"/>
<path fill-rule="evenodd" clip-rule="evenodd" d="M32.8685 60.848C29.5425 60.848 26.8468 62.5248 26.8468 64.5923C26.8468 66.6612 29.5425 68.3373 32.8685 68.3373C36.1938 68.3373 38.8895 66.6612 38.8895 64.5923C38.8895 62.5248 36.1938 60.848 32.8685 60.848Z" fill="white"/>
<path fill-rule="evenodd" clip-rule="evenodd" d="M32.8685 28.2437C34.2189 28.2437 35.3139 27.1061 35.3139 25.7015C35.3139 24.2977 34.2189 23.1601 32.8685 23.1601C31.5174 23.1601 30.423 24.2977 30.423 25.7015C30.423 27.1061 31.5174 28.2437 32.8685 28.2437Z" fill="white"/>
<path fill-rule="evenodd" clip-rule="evenodd" d="M32.8685 36.7107C34.2189 36.7107 35.3139 35.5723 35.3139 34.1685C35.3139 32.7647 34.2189 31.6263 32.8685 31.6263C31.5174 31.6263 30.423 32.7647 30.423 34.1685C30.423 35.5723 31.5174 36.7107 32.8685 36.7107Z" fill="white"/>
<path fill-rule="evenodd" clip-rule="evenodd" d="M32.8685 11.6846C30.7265 11.6846 28.9917 13.0315 28.9917 14.6932C28.9917 16.3549 30.7265 17.7018 32.8685 17.7018C35.0097 17.7018 36.7453 16.3549 36.7453 14.6932C36.7453 13.0315 35.0097 11.6846 32.8685 11.6846Z" fill="white"/>
<path fill-rule="evenodd" clip-rule="evenodd" d="M32.8685 7.4893C36.1938 7.4893 38.8895 5.81246 38.8895 3.74503C38.8895 1.67609 36.1938 0 32.8685 0C29.5425 0 26.8468 1.67609 26.8468 3.74503C26.8468 5.81246 29.5425 7.4893 32.8685 7.4893Z" fill="white"/>
<path fill-rule="evenodd" clip-rule="evenodd" d="M24.7237 31.6266C23.3726 31.6266 22.2783 32.7642 22.2783 34.1688C22.2783 35.5726 23.3726 36.711 24.7237 36.711C26.0741 36.711 27.1692 35.5726 27.1692 34.1688C27.1692 32.7642 26.0741 31.6266 24.7237 31.6266Z" fill="white"/>
<path fill-rule="evenodd" clip-rule="evenodd" d="M14.1339 30.1379C12.5362 30.1379 11.2398 31.9422 11.2398 34.1681C11.2398 36.3948 12.5362 38.1991 14.1339 38.1991C15.7316 38.1991 17.028 36.3948 17.028 34.1681C17.028 31.9422 15.7316 30.1379 14.1339 30.1379Z" fill="white"/>
<path fill-rule="evenodd" clip-rule="evenodd" d="M3.60178 27.909C1.6123 27.909 0 30.7113 0 34.1681C0 37.6257 1.6123 40.428 3.60178 40.428C5.59199 40.428 7.20429 37.6257 7.20429 34.1681C7.20429 30.7113 5.59199 27.909 3.60178 27.909Z" fill="white"/>
<path fill-rule="evenodd" clip-rule="evenodd" d="M43.4583 34.1684C43.4583 32.7646 42.3633 31.6262 41.0129 31.6262C39.6625 31.6262 38.5674 32.7646 38.5674 34.1684C38.5674 35.5722 39.6625 36.7106 41.0129 36.7106C42.3633 36.7106 43.4583 35.5722 43.4583 34.1684Z" fill="white"/>
<path fill-rule="evenodd" clip-rule="evenodd" d="M51.6023 38.1994C53.2008 38.1994 54.4972 36.3944 54.4972 34.1684C54.4972 31.9425 53.2008 30.1382 51.6023 30.1382C50.0046 30.1382 48.7082 31.9425 48.7082 34.1684C48.7082 36.3944 50.0046 38.1994 51.6023 38.1994Z" fill="white"/>
<path fill-rule="evenodd" clip-rule="evenodd" d="M62.1345 27.909C60.145 27.909 58.5327 30.7113 58.5327 34.1681C58.5327 37.6257 60.145 40.428 62.1345 40.428C64.1247 40.428 65.7363 37.6257 65.7363 34.1681C65.7363 30.7113 64.1247 27.909 62.1345 27.909Z" fill="white"/>
<path fill-rule="evenodd" clip-rule="evenodd" d="M16.8797 23.2474C18.0098 24.4222 20.1532 24.0991 21.667 22.5246C23.1815 20.9509 23.4923 18.722 22.363 17.5472C21.2329 16.3724 19.0888 16.6955 17.5742 18.2699C16.0604 19.8437 15.7489 22.0726 16.8797 23.2474Z" fill="white"/>
<path fill-rule="evenodd" clip-rule="evenodd" d="M14.721 15.3034C17.073 12.859 17.8383 9.69188 16.4318 8.2289C15.0252 6.76669 11.9779 7.56302 9.62727 10.0074C7.2752 12.4517 6.50918 15.6196 7.91648 17.0818C9.32305 18.544 12.3696 17.7477 14.721 15.3034Z" fill="white"/>
<path fill-rule="evenodd" clip-rule="evenodd" d="M48.8573 45.0895C47.7265 43.9147 45.5838 44.2385 44.0692 45.8122C42.5547 47.3867 42.2439 49.6149 43.3733 50.7904C44.5041 51.9644 46.6482 51.6414 48.162 50.0669C49.6758 48.4932 49.9873 46.265 48.8573 45.0895Z" fill="white"/>
<path fill-rule="evenodd" clip-rule="evenodd" d="M51.0153 53.0336C48.6639 55.4787 47.8987 58.6451 49.3045 60.108C50.7118 61.5702 53.7584 60.7739 56.1097 58.3296C58.461 55.8852 59.2271 52.7181 57.8205 51.2551C56.4132 49.7937 53.3673 50.5892 51.0153 53.0336Z" fill="white"/>
<path fill-rule="evenodd" clip-rule="evenodd" d="M48.8573 23.2474C49.9873 22.0726 49.6758 19.8437 48.162 18.2699C46.6482 16.6955 44.5041 16.3724 43.3733 17.5472C42.2439 18.722 42.5547 20.9509 44.0692 22.5246C45.5838 24.0991 47.7265 24.4222 48.8573 23.2474Z" fill="white"/>
<path fill-rule="evenodd" clip-rule="evenodd" d="M49.3047 8.22921C47.8981 9.69142 48.6642 12.8585 51.0155 15.3037C53.3668 17.748 56.4134 18.5443 57.8207 17.0814C59.2273 15.6192 58.4613 12.452 56.1099 10.0077C53.7579 7.56332 50.712 6.76699 49.3047 8.22921Z" fill="white"/>
<path fill-rule="evenodd" clip-rule="evenodd" d="M16.8797 45.0895C15.7489 46.265 16.0604 48.4932 17.5742 50.0669C19.0888 51.6414 21.2329 51.9644 22.363 50.7904C23.4923 49.6149 23.1815 47.3867 21.667 45.8122C20.1532 44.2385 18.0098 43.9147 16.8797 45.0895Z" fill="white"/>
<path fill-rule="evenodd" clip-rule="evenodd" d="M7.91633 51.2553C6.50903 52.7182 7.27506 55.8846 9.62712 58.3297C11.9777 60.7741 15.0251 61.5704 16.4316 60.1082C17.8389 58.6452 17.0729 55.4781 14.7208 53.0337C12.3695 50.5894 9.3229 49.793 7.91633 51.2553Z" fill="white"/>
<path d="M93.0547 42.0715C98.6239 42.0715 99.8793 38.344 99.8793 38.344L97.4328 36.6237C97.4328 36.6237 95.791 38.567 93.5054 38.567C91.091 38.567 89.4493 37.1653 89.4493 33.5334C89.4493 29.9971 90.8657 28.4998 93.8273 28.4998C94.954 28.4998 97.8513 30.0609 97.8513 30.0609L99.2999 27.1617C99.2999 27.1617 97.4971 24.9635 93.1835 24.9635C87.4856 24.9635 84.5562 28.4361 84.5562 33.5971C84.5562 38.9812 87.3568 42.0715 93.0547 42.0715ZM109.859 42.0715C115.267 42.0715 118.615 38.7901 118.615 33.5016C118.615 28.2131 115.524 24.9635 109.859 24.9635C104.193 24.9635 101.135 28.2131 101.135 33.5016C101.135 38.7901 104.193 42.0715 109.859 42.0715ZM109.859 38.567C107.026 38.567 105.996 36.5281 105.996 33.4697C105.996 30.475 107.026 28.4998 109.859 28.4998C112.692 28.4998 113.754 30.5069 113.754 33.5016C113.754 36.5281 112.692 38.567 109.859 38.567ZM131.169 41.4662L137.221 25.537H132.006L128.626 37.1971H128.465L125.085 25.537H119.838L125.922 41.4662H131.169ZM143.982 22.6379V18.783H139.797V22.6379H143.982ZM144.271 41.4662V25.537H139.539V41.4662H144.271ZM154.895 42.0715C158.146 42.0715 159.337 40.383 159.691 39.6821L160.174 41.4662H164.359V17.5724H159.627V26.9069H159.498C159.498 26.9069 158.339 24.9635 154.895 24.9635C150.195 24.9635 147.362 28.6591 147.362 33.852C147.362 38.6945 150.388 42.0715 154.895 42.0715ZM156.311 38.4078C153.478 38.4078 152.223 36.9423 152.223 33.7246C152.223 30.5387 153.446 28.5954 156.504 28.5954C159.015 28.5954 159.595 30.252 159.627 30.3476V36.1777C159.562 36.3688 158.886 38.4078 156.311 38.4078ZM176.141 42.0715C181.549 42.0715 184.897 38.7901 184.897 33.5016C184.897 28.2131 181.807 24.9635 176.141 24.9635C170.475 24.9635 167.417 28.2131 167.417 33.5016C167.417 38.7901 170.475 42.0715 176.141 42.0715ZM176.141 38.567C173.308 38.567 172.278 36.5281 172.278 33.4697C172.278 30.475 173.308 28.4998 176.141 28.4998C178.974 28.4998 180.036 30.5069 180.036 33.5016C180.036 36.5281 178.974 38.567 176.141 38.567ZM194.973 50.0361C201.186 50.0361 203.439 47.6148 203.439 44.1741C203.439 40.7334 200.8 38.6945 194.78 38.6945H194.683C194.394 38.6626 193.718 38.4396 193.718 37.6113C193.718 37.006 193.943 36.783 194.072 36.6874H194.78C199.319 36.6874 202.055 34.9352 202.055 30.9847C202.055 28.2449 200.8 26.4609 198.643 25.6007L200.671 21.8095L197.066 21.3317L195.778 24.9954C195.488 24.9954 195.166 24.9635 194.877 24.9635C190.531 24.9635 187.183 26.8113 187.183 30.9847C187.183 33.5653 188.503 35.2219 190.692 36.0502C190.209 36.4963 189.887 37.0697 189.887 37.8024C189.887 38.3759 190.048 38.8856 190.273 39.2998C187.73 40.1281 186.314 41.7847 186.314 44.1741C186.314 47.6467 188.696 50.0361 194.973 50.0361ZM194.683 33.9157C192.784 33.9157 191.561 33.0874 191.561 30.9847C191.561 28.6591 192.881 27.9263 194.683 27.9263C196.486 27.9263 197.677 28.6591 197.677 30.8892C197.677 33.0237 196.583 33.9157 194.683 33.9157ZM194.973 46.8184C191.883 46.8184 190.692 45.8945 190.692 44.1741C190.692 42.4538 191.915 41.721 194.748 41.721H194.78C197.87 41.721 199.061 42.4219 199.061 44.1423C199.061 45.7989 197.999 46.8184 194.973 46.8184ZM210.103 41.4662V31.0485C210.103 31.0485 211.004 29.0732 213.097 29.0732C213.773 29.0732 215.254 29.5193 215.254 29.5193L216.155 25.76C216.155 25.76 215.576 24.9635 213.515 24.9635C210.94 24.9635 209.974 27.0343 209.717 27.7989L209.105 25.537H205.371V41.4662H210.103ZM223.173 42.0715C226.489 42.0715 227.519 40.2555 227.841 39.4909L228.517 41.4662H232.444V31.1759C232.444 26.7476 229.804 24.9635 225.104 24.9635C219.857 24.9635 218.409 27.8945 218.409 27.8945L221.08 30.0609C221.08 30.0609 222.175 28.5317 224.621 28.5317C226.585 28.5317 227.744 29.2325 227.744 31.2715V31.3352C223.849 31.5901 217.25 32.96 217.25 37.452C217.25 40.1918 219.471 42.0715 223.173 42.0715ZM224.589 38.7263C222.883 38.7263 221.885 38.0573 221.885 36.7193C221.885 35.0308 224.396 34.3936 227.744 34.1069V36.6237C227.744 36.6237 227.293 38.7263 224.589 38.7263ZM242.069 41.4662V29.2963H246.962V25.537H242.069V23.7529C242.069 21.714 242.713 20.9175 243.84 20.9175C244.548 20.9175 246.222 21.3635 246.222 21.3635L247.156 18.5918C247.156 18.5918 246.19 17.2538 243.067 17.2538C238.721 17.2538 237.337 19.675 237.337 23.275V25.5688L235.502 26.1741V29.2963H237.337V41.4662H242.069ZM253.433 22.6379V18.783H249.248V22.6379H253.433ZM253.594 41.4662V25.537H248.862V41.4662H253.594ZM262.543 42.0715C265.859 42.0715 266.889 40.2555 267.211 39.4909L267.887 41.4662H271.814V31.1759C271.814 26.7476 269.175 24.9635 264.475 24.9635C259.227 24.9635 257.779 27.8945 257.779 27.8945L260.451 30.0609C260.451 30.0609 261.545 28.5317 263.992 28.5317C265.955 28.5317 267.114 29.2325 267.114 31.2715V31.3352C263.219 31.5901 256.62 32.96 256.62 37.452C256.62 40.1918 258.841 42.0715 262.543 42.0715ZM263.96 38.7263C262.253 38.7263 261.255 38.0573 261.255 36.7193C261.255 35.0308 263.766 34.3936 267.114 34.1069V36.6237C267.114 36.6237 266.664 38.7263 263.96 38.7263Z" fill="white"/>
</svg>
