<svg width="157" height="41" viewBox="0 0 157 41" fill="none" 
    xmlns="http://www.w3.org/2000/svg">
    <path fill-rule="evenodd" clip-rule="evenodd" d="M18.857 26.6963C19.6318 26.6963 20.26 26.0364 20.26 25.2226C20.26 24.4088 19.6318 23.7488 18.857 23.7488C18.0819 23.7488 17.454 24.4088 17.454 25.2226C17.454 26.0364 18.0819 26.6963 18.857 26.6963Z" fill="white"/>
    <path fill-rule="evenodd" clip-rule="evenodd" d="M18.857 26.6963C19.6318 26.6963 20.26 26.0364 20.26 25.2226C20.26 24.4088 19.6318 23.7488 18.857 23.7488C18.0819 23.7488 17.454 24.4088 17.454 25.2226C17.454 26.0364 18.0819 26.6963 18.857 26.6963Z" fill="url(#paint0_linear)"/>
    <path fill-rule="evenodd" clip-rule="evenodd" d="M16.6326 31.6042C16.6326 32.5675 17.6284 33.3488 18.8568 33.3488C20.0853 33.3488 21.0814 32.5675 21.0814 31.6042C21.0814 30.6413 20.0853 29.8601 18.8568 29.8601C17.6284 29.8601 16.6326 30.6413 16.6326 31.6042Z" fill="white"/>
    <path fill-rule="evenodd" clip-rule="evenodd" d="M16.6326 31.6042C16.6326 32.5675 17.6284 33.3488 18.8568 33.3488C20.0853 33.3488 21.0814 32.5675 21.0814 31.6042C21.0814 30.6413 20.0853 29.8601 18.8568 29.8601C17.6284 29.8601 16.6326 30.6413 16.6326 31.6042Z" fill="url(#paint1_linear)"/>
    <path fill-rule="evenodd" clip-rule="evenodd" d="M18.857 35.7806C16.9488 35.7806 15.4023 36.7526 15.4023 37.9511C15.4023 39.1505 16.9488 40.1222 18.857 40.1222C20.7648 40.1222 22.3113 39.1505 22.3113 37.9511C22.3113 36.7526 20.7648 35.7806 18.857 35.7806Z" fill="white"/>
    <path fill-rule="evenodd" clip-rule="evenodd" d="M18.857 35.7806C16.9488 35.7806 15.4023 36.7526 15.4023 37.9511C15.4023 39.1505 16.9488 40.1222 18.857 40.1222C20.7648 40.1222 22.3113 39.1505 22.3113 37.9511C22.3113 36.7526 20.7648 35.7806 18.857 35.7806Z" fill="url(#paint2_linear)"/>
    <path fill-rule="evenodd" clip-rule="evenodd" d="M18.857 16.8795C19.6318 16.8795 20.26 16.22 20.26 15.4058C20.26 14.592 19.6318 13.9325 18.857 13.9325C18.0819 13.9325 17.454 14.592 17.454 15.4058C17.454 16.22 18.0819 16.8795 18.857 16.8795Z" fill="white"/>
    <path fill-rule="evenodd" clip-rule="evenodd" d="M18.857 16.8795C19.6318 16.8795 20.26 16.22 20.26 15.4058C20.26 14.592 19.6318 13.9325 18.857 13.9325C18.0819 13.9325 17.454 14.592 17.454 15.4058C17.454 16.22 18.0819 16.8795 18.857 16.8795Z" fill="url(#paint3_linear)"/>
    <path fill-rule="evenodd" clip-rule="evenodd" d="M18.857 21.7879C19.6318 21.7879 20.26 21.128 20.26 20.3142C20.26 19.5004 19.6318 18.8404 18.857 18.8404C18.0819 18.8404 17.454 19.5004 17.454 20.3142C17.454 21.128 18.0819 21.7879 18.857 21.7879Z" fill="white"/>
    <path fill-rule="evenodd" clip-rule="evenodd" d="M18.857 21.7879C19.6318 21.7879 20.26 21.128 20.26 20.3142C20.26 19.5004 19.6318 18.8404 18.857 18.8404C18.0819 18.8404 17.454 19.5004 17.454 20.3142C17.454 21.128 18.0819 21.7879 18.857 21.7879Z" fill="url(#paint4_linear)"/>
    <path fill-rule="evenodd" clip-rule="evenodd" d="M18.857 7.28003C17.6282 7.28003 16.6328 8.06086 16.6328 9.02415C16.6328 9.98744 17.6282 10.7683 18.857 10.7683C20.0855 10.7683 21.0812 9.98744 21.0812 9.02415C21.0812 8.06086 20.0855 7.28003 18.857 7.28003Z" fill="white"/>
    <path fill-rule="evenodd" clip-rule="evenodd" d="M18.857 7.28003C17.6282 7.28003 16.6328 8.06086 16.6328 9.02415C16.6328 9.98744 17.6282 10.7683 18.857 10.7683C20.0855 10.7683 21.0812 9.98744 21.0812 9.02415C21.0812 8.06086 20.0855 7.28003 18.857 7.28003Z" fill="url(#paint5_linear)"/>
    <path fill-rule="evenodd" clip-rule="evenodd" d="M18.857 4.84797C20.7648 4.84797 22.3113 3.87589 22.3113 2.67738C22.3113 1.47799 20.7648 0.506348 18.857 0.506348C16.9488 0.506348 15.4023 1.47799 15.4023 2.67738C15.4023 3.87589 16.9488 4.84797 18.857 4.84797Z" fill="white"/>
    <path fill-rule="evenodd" clip-rule="evenodd" d="M18.857 4.84797C20.7648 4.84797 22.3113 3.87589 22.3113 2.67738C22.3113 1.47799 20.7648 0.506348 18.857 0.506348C16.9488 0.506348 15.4023 1.47799 15.4023 2.67738C15.4023 3.87589 16.9488 4.84797 18.857 4.84797Z" fill="url(#paint6_linear)"/>
    <path fill-rule="evenodd" clip-rule="evenodd" d="M14.1843 18.8406C13.4091 18.8406 12.7813 19.5001 12.7813 20.3144C12.7813 21.1282 13.4091 21.7881 14.1843 21.7881C14.959 21.7881 15.5873 21.1282 15.5873 20.3144C15.5873 19.5001 14.959 18.8406 14.1843 18.8406Z" fill="white"/>
    <path fill-rule="evenodd" clip-rule="evenodd" d="M14.1843 18.8406C13.4091 18.8406 12.7813 19.5001 12.7813 20.3144C12.7813 21.1282 13.4091 21.7881 14.1843 21.7881C14.959 21.7881 15.5873 21.1282 15.5873 20.3144C15.5873 19.5001 14.959 18.8406 14.1843 18.8406Z" fill="url(#paint7_linear)"/>
    <path fill-rule="evenodd" clip-rule="evenodd" d="M8.10878 17.9776C7.19215 17.9776 6.44839 19.0236 6.44839 20.314C6.44839 21.6048 7.19215 22.6507 8.10878 22.6507C9.0254 22.6507 9.76917 21.6048 9.76917 20.314C9.76917 19.0236 9.0254 17.9776 8.10878 17.9776Z" fill="white"/>
    <path fill-rule="evenodd" clip-rule="evenodd" d="M8.10878 17.9776C7.19215 17.9776 6.44839 19.0236 6.44839 20.314C6.44839 21.6048 7.19215 22.6507 8.10878 22.6507C9.0254 22.6507 9.76917 21.6048 9.76917 20.314C9.76917 19.0236 9.0254 17.9776 8.10878 17.9776Z" fill="url(#paint8_linear)"/>
    <path fill-rule="evenodd" clip-rule="evenodd" d="M2.06638 16.6855C0.924995 16.6855 0 18.31 0 20.314C0 22.3184 0.924995 23.9429 2.06638 23.9429C3.20819 23.9429 4.13318 22.3184 4.13318 20.314C4.13318 18.31 3.20819 16.6855 2.06638 16.6855Z" fill="white"/>
    <path fill-rule="evenodd" clip-rule="evenodd" d="M2.06638 16.6855C0.924995 16.6855 0 18.31 0 20.314C0 22.3184 0.924995 23.9429 2.06638 23.9429C3.20819 23.9429 4.13318 22.3184 4.13318 20.314C4.13318 18.31 3.20819 16.6855 2.06638 16.6855Z" fill="url(#paint9_linear)"/>
    <path fill-rule="evenodd" clip-rule="evenodd" d="M24.9325 20.3141C24.9325 19.5003 24.3043 18.8404 23.5295 18.8404C22.7548 18.8404 22.1266 19.5003 22.1266 20.3141C22.1266 21.1279 22.7548 21.7879 23.5295 21.7879C24.3043 21.7879 24.9325 21.1279 24.9325 20.3141Z" fill="white"/>
    <path fill-rule="evenodd" clip-rule="evenodd" d="M24.9325 20.3141C24.9325 19.5003 24.3043 18.8404 23.5295 18.8404C22.7548 18.8404 22.1266 19.5003 22.1266 20.3141C22.1266 21.1279 22.7548 21.7879 23.5295 21.7879C24.3043 21.7879 24.9325 21.1279 24.9325 20.3141Z" fill="url(#paint10_linear)"/>
    <path fill-rule="evenodd" clip-rule="evenodd" d="M29.6048 22.6509C30.5219 22.6509 31.2656 21.6045 31.2656 20.3141C31.2656 19.0237 30.5219 17.9778 29.6048 17.9778C28.6882 17.9778 27.9444 19.0237 27.9444 20.3141C27.9444 21.6045 28.6882 22.6509 29.6048 22.6509Z" fill="white"/>
    <path fill-rule="evenodd" clip-rule="evenodd" d="M29.6048 22.6509C30.5219 22.6509 31.2656 21.6045 31.2656 20.3141C31.2656 19.0237 30.5219 17.9778 29.6048 17.9778C28.6882 17.9778 27.9444 19.0237 27.9444 20.3141C27.9444 21.6045 28.6882 22.6509 29.6048 22.6509Z" fill="url(#paint11_linear)"/>
    <path fill-rule="evenodd" clip-rule="evenodd" d="M35.6472 16.6855C34.5058 16.6855 33.5808 18.31 33.5808 20.314C33.5808 22.3184 34.5058 23.9429 35.6472 23.9429C36.789 23.9429 37.7136 22.3184 37.7136 20.314C37.7136 18.31 36.789 16.6855 35.6472 16.6855Z" fill="white"/>
    <path fill-rule="evenodd" clip-rule="evenodd" d="M35.6472 16.6855C34.5058 16.6855 33.5808 18.31 33.5808 20.314C33.5808 22.3184 34.5058 23.9429 35.6472 23.9429C36.789 23.9429 37.7136 22.3184 37.7136 20.314C37.7136 18.31 36.789 16.6855 35.6472 16.6855Z" fill="url(#paint12_linear)"/>
    <path fill-rule="evenodd" clip-rule="evenodd" d="M9.68407 13.9831C10.3324 14.6641 11.5621 14.4768 12.4306 13.5641C13.2995 12.6518 13.4778 11.3597 12.8299 10.6786C12.1816 9.9976 10.9514 10.1849 10.0825 11.0976C9.21404 12.0099 9.03532 13.3021 9.68407 13.9831Z" fill="white"/>
    <path fill-rule="evenodd" clip-rule="evenodd" d="M9.68407 13.9831C10.3324 14.6641 11.5621 14.4768 12.4306 13.5641C13.2995 12.6518 13.4778 11.3597 12.8299 10.6786C12.1816 9.9976 10.9514 10.1849 10.0825 11.0976C9.21404 12.0099 9.03532 13.3021 9.68407 13.9831Z" fill="url(#paint13_linear)"/>
    <path fill-rule="evenodd" clip-rule="evenodd" d="M8.44558 9.37786C9.79499 7.96084 10.234 6.12483 9.42708 5.27673C8.62012 4.42906 6.87184 4.89071 5.52327 6.30772C4.17386 7.72474 3.73439 9.56119 4.54177 10.4089C5.34873 11.2565 7.0966 10.7949 8.44558 9.37786Z" fill="white"/>
    <path fill-rule="evenodd" clip-rule="evenodd" d="M8.44558 9.37786C9.79499 7.96084 10.234 6.12483 9.42708 5.27673C8.62012 4.42906 6.87184 4.89071 5.52327 6.30772C4.17386 7.72474 3.73439 9.56119 4.54177 10.4089C5.34873 11.2565 7.0966 10.7949 8.44558 9.37786Z" fill="url(#paint14_linear)"/>
    <path fill-rule="evenodd" clip-rule="evenodd" d="M28.03 26.6452C27.3812 25.9641 26.1519 26.1519 25.283 27.0642C24.4141 27.9769 24.2358 29.2686 24.8837 29.9501C25.5325 30.6307 26.7626 30.4434 27.6311 29.5306C28.4996 28.6184 28.6783 27.3266 28.03 26.6452Z" fill="white"/>
    <path fill-rule="evenodd" clip-rule="evenodd" d="M28.03 26.6452C27.3812 25.9641 26.1519 26.1519 25.283 27.0642C24.4141 27.9769 24.2358 29.2686 24.8837 29.9501C25.5325 30.6307 26.7626 30.4434 27.6311 29.5306C28.4996 28.6184 28.6783 27.3266 28.03 26.6452Z" fill="url(#paint15_linear)"/>
    <path fill-rule="evenodd" clip-rule="evenodd" d="M29.268 31.2505C27.919 32.6679 27.48 34.5035 28.2865 35.3516C29.0939 36.1992 30.8418 35.7376 32.1908 34.3206C33.5397 32.9036 33.9792 31.0676 33.1723 30.2195C32.3649 29.3722 30.6174 29.8334 29.268 31.2505Z" fill="white"/>
    <path fill-rule="evenodd" clip-rule="evenodd" d="M29.268 31.2505C27.919 32.6679 27.48 34.5035 28.2865 35.3516C29.0939 36.1992 30.8418 35.7376 32.1908 34.3206C33.5397 32.9036 33.9792 31.0676 33.1723 30.2195C32.3649 29.3722 30.6174 29.8334 29.268 31.2505Z" fill="url(#paint16_linear)"/>
    <path fill-rule="evenodd" clip-rule="evenodd" d="M28.03 13.9831C28.6783 13.3021 28.4996 12.0099 27.6311 11.0976C26.7626 10.1849 25.5325 9.9976 24.8837 10.6786C24.2358 11.3597 24.4141 12.6518 25.283 13.5641C26.1519 14.4768 27.3812 14.6641 28.03 13.9831Z" fill="white"/>
    <path fill-rule="evenodd" clip-rule="evenodd" d="M28.03 13.9831C28.6783 13.3021 28.4996 12.0099 27.6311 11.0976C26.7626 10.1849 25.5325 9.9976 24.8837 10.6786C24.2358 11.3597 24.4141 12.6518 25.283 13.5641C26.1519 14.4768 27.3812 14.6641 28.03 13.9831Z" fill="url(#paint17_linear)"/>
    <path fill-rule="evenodd" clip-rule="evenodd" d="M28.2867 5.2769C27.4797 6.12456 27.9192 7.96057 29.2682 9.37803C30.6171 10.7951 32.365 11.2567 33.1724 10.4086C33.9793 9.56093 33.5399 7.72492 32.1909 6.3079C30.8415 4.89088 29.094 4.42924 28.2867 5.2769Z" fill="white"/>
    <path fill-rule="evenodd" clip-rule="evenodd" d="M28.2867 5.2769C27.4797 6.12456 27.9192 7.96057 29.2682 9.37803C30.6171 10.7951 32.365 11.2567 33.1724 10.4086C33.9793 9.56093 33.5399 7.72492 32.1909 6.3079C30.8415 4.89088 29.094 4.42924 28.2867 5.2769Z" fill="url(#paint18_linear)"/>
    <path fill-rule="evenodd" clip-rule="evenodd" d="M9.68407 26.6452C9.03532 27.3266 9.21404 28.6184 10.0825 29.5306C10.9514 30.4434 12.1816 30.6307 12.8299 29.9501C13.4778 29.2686 13.2995 27.9769 12.4306 27.0642C11.5621 26.1519 10.3324 25.9641 9.68407 26.6452Z" fill="white"/>
    <path fill-rule="evenodd" clip-rule="evenodd" d="M9.68407 26.6452C9.03532 27.3266 9.21404 28.6184 10.0825 29.5306C10.9514 30.4434 12.1816 30.6307 12.8299 29.9501C13.4778 29.2686 13.2995 27.9769 12.4306 27.0642C11.5621 26.1519 10.3324 25.9641 9.68407 26.6452Z" fill="url(#paint19_linear)"/>
    <path fill-rule="evenodd" clip-rule="evenodd" d="M4.54169 30.2195C3.7343 31.0676 4.17378 32.9032 5.52319 34.3207C6.87175 35.7377 8.62004 36.1993 9.427 35.3517C10.2344 34.5036 9.79491 32.6676 8.4455 31.2505C7.09651 29.8335 5.34865 29.3719 4.54169 30.2195Z" fill="white"/>
    <path fill-rule="evenodd" clip-rule="evenodd" d="M4.54169 30.2195C3.7343 31.0676 4.17378 32.9032 5.52319 34.3207C6.87175 35.7377 8.62004 36.1993 9.427 35.3517C10.2344 34.5036 9.79491 32.6676 8.4455 31.2505C7.09651 29.8335 5.34865 29.3719 4.54169 30.2195Z" fill="url(#paint20_linear)"/>
    <path d="M53.3865 24.8956C56.5816 24.8956 57.3018 22.7348 57.3018 22.7348L55.8982 21.7375C55.8982 21.7375 54.9563 22.8641 53.6451 22.8641C52.2599 22.8641 51.318 22.0514 51.318 19.946C51.318 17.896 52.1306 17.028 53.8297 17.028C54.4761 17.028 56.1383 17.9329 56.1383 17.9329L56.9694 16.2523C56.9694 16.2523 55.9352 14.978 53.4604 14.978C50.1914 14.978 48.5108 16.991 48.5108 19.983C48.5108 23.1041 50.1175 24.8956 53.3865 24.8956ZM63.0271 24.8956C66.1298 24.8956 68.0506 22.9933 68.0506 19.9275C68.0506 16.8618 66.2776 14.978 63.0271 14.978C59.7766 14.978 58.0221 16.8618 58.0221 19.9275C58.0221 22.9933 59.7766 24.8956 63.0271 24.8956ZM63.0271 22.8641C61.4019 22.8641 60.8109 21.6821 60.8109 19.9091C60.8109 18.173 61.4019 17.028 63.0271 17.028C64.6524 17.028 65.2618 18.1915 65.2618 19.9275C65.2618 21.6821 64.6524 22.8641 63.0271 22.8641ZM75.2534 24.5447L78.7255 15.3104H75.7335L73.7943 22.0699H73.702L71.7628 15.3104H68.7524L72.243 24.5447H75.2534ZM82.6039 13.6297V11.395H80.2029V13.6297H82.6039ZM82.7701 24.5447V15.3104H80.0552V24.5447H82.7701ZM88.8647 24.8956C90.7301 24.8956 91.4134 23.9168 91.6166 23.5105L91.8936 24.5447H94.2945V10.6932H91.5796V16.1045H91.5057C91.5057 16.1045 90.8409 14.978 88.8647 14.978C86.1683 14.978 84.5431 17.1203 84.5431 20.1307C84.5431 22.9379 86.2791 24.8956 88.8647 24.8956ZM89.6774 22.7717C88.0521 22.7717 87.3318 21.9222 87.3318 20.0568C87.3318 18.21 88.0336 17.0834 89.7882 17.0834C91.2287 17.0834 91.5612 18.0437 91.5796 18.0992V21.4789C91.5427 21.5897 91.1548 22.7717 89.6774 22.7717ZM101.054 24.8956C104.157 24.8956 106.078 22.9933 106.078 19.9275C106.078 16.8618 104.305 14.978 101.054 14.978C97.8036 14.978 96.049 16.8618 96.049 19.9275C96.049 22.9933 97.8036 24.8956 101.054 24.8956ZM101.054 22.8641C99.4288 22.8641 98.8378 21.6821 98.8378 19.9091C98.8378 18.173 99.4288 17.028 101.054 17.028C102.679 17.028 103.289 18.1915 103.289 19.9275C103.289 21.6821 102.679 22.8641 101.054 22.8641ZM111.858 29.5128C115.423 29.5128 116.715 28.1091 116.715 26.1145C116.715 24.1199 115.201 22.9379 111.747 22.9379H111.692C111.526 22.9195 111.138 22.7902 111.138 22.31C111.138 21.9591 111.267 21.8298 111.341 21.7744H111.747C114.351 21.7744 115.921 20.7586 115.921 18.4685C115.921 16.8802 115.201 15.846 113.964 15.3473L115.127 13.1496L113.059 12.8725L112.32 14.9964C112.154 14.9964 111.969 14.978 111.803 14.978C109.31 14.978 107.389 16.0491 107.389 18.4685C107.389 19.9645 108.146 20.9249 109.402 21.405C109.125 21.6636 108.94 21.996 108.94 22.4208C108.94 22.7532 109.032 23.0487 109.162 23.2888C107.703 23.769 106.89 24.7294 106.89 26.1145C106.89 28.1276 108.257 29.5128 111.858 29.5128ZM111.692 20.1676C110.602 20.1676 109.901 19.6875 109.901 18.4685C109.901 17.1203 110.658 16.6955 111.692 16.6955C112.726 16.6955 113.41 17.1203 113.41 18.4131C113.41 19.6505 112.782 20.1676 111.692 20.1676ZM111.858 27.6474C110.085 27.6474 109.402 27.1118 109.402 26.1145C109.402 25.1172 110.104 24.6925 111.729 24.6925H111.747C113.52 24.6925 114.204 25.0988 114.204 26.0961C114.204 27.0564 113.594 27.6474 111.858 27.6474ZM120.538 24.5447V18.5055C120.538 18.5055 121.056 17.3604 122.256 17.3604C122.644 17.3604 123.493 17.619 123.493 17.619L124.011 15.4397C124.011 15.4397 123.678 14.978 122.496 14.978C121.019 14.978 120.465 16.1784 120.317 16.6217L119.966 15.3104H117.824V24.5447H120.538ZM128.037 24.8956C129.939 24.8956 130.53 23.8429 130.715 23.3996L131.103 24.5447H133.356V18.5793C133.356 16.0122 131.841 14.978 129.145 14.978C126.134 14.978 125.303 16.6771 125.303 16.6771L126.836 17.9329C126.836 17.9329 127.464 17.0464 128.868 17.0464C129.994 17.0464 130.659 17.4527 130.659 18.6347V18.6717C128.425 18.8194 124.638 19.6136 124.638 22.2177C124.638 23.806 125.913 24.8956 128.037 24.8956ZM128.849 22.9564C127.87 22.9564 127.298 22.5686 127.298 21.7929C127.298 20.814 128.739 20.4447 130.659 20.2785V21.7375C130.659 21.7375 130.401 22.9564 128.849 22.9564ZM138.878 24.5447V17.4897H141.685V15.3104H138.878V14.2761C138.878 13.0942 139.247 12.6324 139.894 12.6324C140.3 12.6324 141.26 12.891 141.26 12.891L141.796 11.2842C141.796 11.2842 141.242 10.5085 139.45 10.5085C136.957 10.5085 136.163 11.9122 136.163 13.9991V15.3289L135.11 15.6798V17.4897H136.163V24.5447H138.878ZM145.397 13.6297V11.395H142.996V13.6297H145.397ZM145.49 24.5447V15.3104H142.775V24.5447H145.49ZM150.624 24.8956C152.526 24.8956 153.117 23.8429 153.302 23.3996L153.69 24.5447H155.943V18.5793C155.943 16.0122 154.428 14.978 151.732 14.978C148.722 14.978 147.89 16.6771 147.89 16.6771L149.423 17.9329C149.423 17.9329 150.051 17.0464 151.455 17.0464C152.582 17.0464 153.246 17.4527 153.246 18.6347V18.6717C151.012 18.8194 147.226 19.6136 147.226 22.2177C147.226 23.806 148.5 24.8956 150.624 24.8956ZM151.436 22.9564C150.458 22.9564 149.885 22.5686 149.885 21.7929C149.885 20.814 151.326 20.4447 153.246 20.2785V21.7375C153.246 21.7375 152.988 22.9564 151.436 22.9564Z" fill="url(#paint21_linear)"/>
    <defs>
        <linearGradient id="paint0_linear" x1="-16.4412" y1="23.1384" x2="4.51568" y2="70.8172" gradientUnits="userSpaceOnUse">
            <stop stop-color="#FA6400"/>
            <stop offset="1" stop-color="#6B68FC"/>
        </linearGradient>
        <linearGradient id="paint1_linear" x1="-16.4412" y1="23.1384" x2="4.51568" y2="70.8172" gradientUnits="userSpaceOnUse">
            <stop stop-color="#FA6400"/>
            <stop offset="1" stop-color="#6B68FC"/>
        </linearGradient>
        <linearGradient id="paint2_linear" x1="-16.4412" y1="23.1384" x2="4.51568" y2="70.8172" gradientUnits="userSpaceOnUse">
            <stop stop-color="#FA6400"/>
            <stop offset="1" stop-color="#6B68FC"/>
        </linearGradient>
        <linearGradient id="paint3_linear" x1="-16.4412" y1="23.1384" x2="4.51568" y2="70.8172" gradientUnits="userSpaceOnUse">
            <stop stop-color="#FA6400"/>
            <stop offset="1" stop-color="#6B68FC"/>
        </linearGradient>
        <linearGradient id="paint4_linear" x1="-16.4412" y1="23.1384" x2="4.51568" y2="70.8172" gradientUnits="userSpaceOnUse">
            <stop stop-color="#FA6400"/>
            <stop offset="1" stop-color="#6B68FC"/>
        </linearGradient>
        <linearGradient id="paint5_linear" x1="-16.4412" y1="23.1384" x2="4.51568" y2="70.8172" gradientUnits="userSpaceOnUse">
            <stop stop-color="#FA6400"/>
            <stop offset="1" stop-color="#6B68FC"/>
        </linearGradient>
        <linearGradient id="paint6_linear" x1="-16.4412" y1="23.1384" x2="4.51568" y2="70.8172" gradientUnits="userSpaceOnUse">
            <stop stop-color="#FA6400"/>
            <stop offset="1" stop-color="#6B68FC"/>
        </linearGradient>
        <linearGradient id="paint7_linear" x1="-16.4412" y1="23.1384" x2="4.51568" y2="70.8172" gradientUnits="userSpaceOnUse">
            <stop stop-color="#FA6400"/>
            <stop offset="1" stop-color="#6B68FC"/>
        </linearGradient>
        <linearGradient id="paint8_linear" x1="-16.4412" y1="23.1384" x2="4.51568" y2="70.8172" gradientUnits="userSpaceOnUse">
            <stop stop-color="#FA6400"/>
            <stop offset="1" stop-color="#6B68FC"/>
        </linearGradient>
        <linearGradient id="paint9_linear" x1="-16.4412" y1="23.1384" x2="4.51568" y2="70.8172" gradientUnits="userSpaceOnUse">
            <stop stop-color="#FA6400"/>
            <stop offset="1" stop-color="#6B68FC"/>
        </linearGradient>
        <linearGradient id="paint10_linear" x1="-16.4412" y1="23.1384" x2="4.51568" y2="70.8172" gradientUnits="userSpaceOnUse">
            <stop stop-color="#FA6400"/>
            <stop offset="1" stop-color="#6B68FC"/>
        </linearGradient>
        <linearGradient id="paint11_linear" x1="-16.4412" y1="23.1384" x2="4.51568" y2="70.8172" gradientUnits="userSpaceOnUse">
            <stop stop-color="#FA6400"/>
            <stop offset="1" stop-color="#6B68FC"/>
        </linearGradient>
        <linearGradient id="paint12_linear" x1="-16.4412" y1="23.1384" x2="4.51568" y2="70.8172" gradientUnits="userSpaceOnUse">
            <stop stop-color="#FA6400"/>
            <stop offset="1" stop-color="#6B68FC"/>
        </linearGradient>
        <linearGradient id="paint13_linear" x1="-16.4412" y1="23.1384" x2="4.51568" y2="70.8172" gradientUnits="userSpaceOnUse">
            <stop stop-color="#FA6400"/>
            <stop offset="1" stop-color="#6B68FC"/>
        </linearGradient>
        <linearGradient id="paint14_linear" x1="-16.4412" y1="23.1384" x2="4.51568" y2="70.8172" gradientUnits="userSpaceOnUse">
            <stop stop-color="#FA6400"/>
            <stop offset="1" stop-color="#6B68FC"/>
        </linearGradient>
        <linearGradient id="paint15_linear" x1="-16.4412" y1="23.1384" x2="4.51568" y2="70.8172" gradientUnits="userSpaceOnUse">
            <stop stop-color="#FA6400"/>
            <stop offset="1" stop-color="#6B68FC"/>
        </linearGradient>
        <linearGradient id="paint16_linear" x1="-16.4412" y1="23.1384" x2="4.51568" y2="70.8172" gradientUnits="userSpaceOnUse">
            <stop stop-color="#FA6400"/>
            <stop offset="1" stop-color="#6B68FC"/>
        </linearGradient>
        <linearGradient id="paint17_linear" x1="-16.4412" y1="23.1384" x2="4.51568" y2="70.8172" gradientUnits="userSpaceOnUse">
            <stop stop-color="#FA6400"/>
            <stop offset="1" stop-color="#6B68FC"/>
        </linearGradient>
        <linearGradient id="paint18_linear" x1="-16.4412" y1="23.1384" x2="4.51568" y2="70.8172" gradientUnits="userSpaceOnUse">
            <stop stop-color="#FA6400"/>
            <stop offset="1" stop-color="#6B68FC"/>
        </linearGradient>
        <linearGradient id="paint19_linear" x1="-16.4412" y1="23.1384" x2="4.51568" y2="70.8172" gradientUnits="userSpaceOnUse">
            <stop stop-color="#FA6400"/>
            <stop offset="1" stop-color="#6B68FC"/>
        </linearGradient>
        <linearGradient id="paint20_linear" x1="-16.4412" y1="23.1384" x2="4.51568" y2="70.8172" gradientUnits="userSpaceOnUse">
            <stop stop-color="#FA6400"/>
            <stop offset="1" stop-color="#6B68FC"/>
        </linearGradient>
        <linearGradient id="paint21_linear" x1="48.5108" y1="15.539" x2="127.695" y2="15.539" gradientUnits="userSpaceOnUse">
            <stop stop-color="#C16665"/>
            <stop offset="1" stop-color="#6E68F6"/>
        </linearGradient>
    </defs>
</svg>
